<?xml version="1.0" standalone="no"?><!DOCTYPE svg PUBLIC "-//W3C//DTD SVG 1.1//EN" "http://www.w3.org/Graphics/SVG/1.1/DTD/svg11.dtd"><svg t="1658220894832" class="icon" viewBox="0 0 1024 1024" version="1.1" xmlns="http://www.w3.org/2000/svg" p-id="3986" width="32" height="32" xmlns:xlink="http://www.w3.org/1999/xlink"><defs><style type="text/css">@font-face { font-family: feedback-iconfont; src: url("//at.alicdn.com/t/font_1031158_u69w8yhxdu.woff2?t=1630033759944") format("woff2"), url("//at.alicdn.com/t/font_1031158_u69w8yhxdu.woff?t=1630033759944") format("woff"), url("//at.alicdn.com/t/font_1031158_u69w8yhxdu.ttf?t=1630033759944") format("truetype"); }
</style></defs><path d="M661.333333 213.333333V170.666667c0-23.466667-19.2-42.666667-42.666666-42.666667H405.333333c-23.466667 0-42.666667 19.2-42.666666 42.666667v42.666666H170.666667v42.666667h64v597.333333c0 23.466667 19.2 42.666667 42.666666 42.666667h469.333334c23.466667 0 42.666667-19.2 42.666666-42.666667V256h64v-42.666667h-192zM405.333333 170.666667h213.333334v42.666666H405.333333V170.666667z m341.333334 682.666666H277.333333V256h469.333334v597.333333z" p-id="3987" fill="#707070"></path><path d="M618.666667 341.333333h42.666666v426.666667h-42.666666zM362.666667 341.333333h42.666666v426.666667h-42.666666zM490.666667 341.333333h42.666666v426.666667h-42.666666z" p-id="3988" fill="#707070"></path></svg>