<?xml version="1.0" standalone="no"?><!DOCTYPE svg PUBLIC "-//W3C//DTD SVG 1.1//EN" "http://www.w3.org/Graphics/SVG/1.1/DTD/svg11.dtd"><svg t="1702632541106" class="icon" viewBox="0 0 1024 1024" version="1.1" xmlns="http://www.w3.org/2000/svg" p-id="17294" width="32" height="32" xmlns:xlink="http://www.w3.org/1999/xlink"><path d="M736 288h96v128h64v480H224v-96H128V128h288l2.112 64H736z" fill="#FFFFFF" p-id="17295"></path><path d="M768 256h64a32 32 0 0 1 32 32v96h-32V288H320a16 16 0 0 1 0-32h96V128H128v672h96v32H128a32 32 0 0 1-32-32V128a32 32 0 0 1 32-32h288a32 32 0 0 1 32 32v32h288a32 32 0 0 1 32 32v64z m-32 0V192h-288v64h288z" fill="#5D6D7E" p-id="17296"></path><path d="M224 384h672a32 32 0 0 1 32 32v480a32 32 0 0 1-32 32H224a32 32 0 0 1-32-32V416a32 32 0 0 1 32-32z m0 32v480h672V416H224z" fill="#5D6D7E" p-id="17297"></path><path d="M704 544a16 16 0 0 1 2.88 31.744L704 576H320a16 16 0 0 1-2.88-31.744L320 544h384z" fill="#AEB6C0" p-id="17298"></path><path d="M816.64 640a16 16 0 0 1 2.88 31.744l-2.88 0.256H434.144a16 16 0 0 1-2.88-31.744l2.88-0.256H816.64z m-476.736 0a16 16 0 0 1 2.88 31.744l-2.88 0.256H307.2a16 16 0 0 1-2.88-31.744L307.2 640h32.704z" fill="#C49F74" p-id="17299"></path><path d="M704 736a16 16 0 0 1 2.88 31.744L704 768H320a16 16 0 0 1-2.88-31.744L320 736h384z" fill="#D8D8D8" p-id="17300"></path></svg>