<?xml version="1.0" standalone="no"?><!DOCTYPE svg PUBLIC "-//W3C//DTD SVG 1.1//EN" "http://www.w3.org/Graphics/SVG/1.1/DTD/svg11.dtd"><svg t="1657871912314" class="icon" viewBox="0 0 1024 1024" version="1.1" xmlns="http://www.w3.org/2000/svg" p-id="21791" xmlns:xlink="http://www.w3.org/1999/xlink" width="32" height="32"><defs><style type="text/css">@font-face { font-family: feedback-iconfont; src: url("//at.alicdn.com/t/font_1031158_u69w8yhxdu.woff2?t=1630033759944") format("woff2"), url("//at.alicdn.com/t/font_1031158_u69w8yhxdu.woff?t=1630033759944") format("woff"), url("//at.alicdn.com/t/font_1031158_u69w8yhxdu.ttf?t=1630033759944") format("truetype"); }
</style></defs><path d="M917.333333 866.133333l-48-45.866666c24.533333-27.733333 40.533333-65.066667 40.533334-105.6 0-88.533333-71.466667-160-160-160s-160 71.466667-160 160 71.466667 160 160 160c35.2 0 68.266667-11.733333 94.933333-30.933334l49.066667 46.933334c6.4 6.4 17.066667 6.4 24.533333 0 6.4-6.4 6.4-18.133333-1.066667-24.533334zM423.466667 480h-234.666667c-29.866667 0-53.333333-24.533333-53.333333-53.333333V192c0-29.866667 24.533333-53.333333 53.333333-53.333333h234.666667c29.866667 0 53.333333 24.533333 53.333333 53.333333v234.666667c0 28.8-24.533333 53.333333-53.333333 53.333333zM877.866667 480h-234.666667c-29.866667 0-53.333333-24.533333-53.333333-53.333333V192c0-29.866667 24.533333-53.333333 53.333333-53.333333h234.666667c29.866667 0 53.333333 24.533333 53.333333 53.333333v234.666667c0 28.8-23.466667 53.333333-53.333333 53.333333zM423.466667 912h-234.666667c-29.866667 0-53.333333-24.533333-53.333333-53.333333v-234.666667c0-29.866667 24.533333-53.333333 53.333333-53.333333h234.666667c29.866667 0 53.333333 24.533333 53.333333 53.333333v234.666667c0 29.866667-24.533333 53.333333-53.333333 53.333333z" fill="#FFDC53" p-id="21792"></path><path d="M379.733333 469.333333h-234.666666c-38.4 0-69.333333-30.933333-69.333334-69.333333v-234.666667C75.733333 126.933333 106.666667 96 145.066667 96h234.666666c38.4 0 69.333333 30.933333 69.333334 69.333333v234.666667c1.066667 38.4-30.933333 69.333333-69.333334 69.333333zM146.133333 128c-20.266667 0-37.333333 17.066667-37.333333 37.333333v234.666667c0 20.266667 17.066667 37.333333 37.333333 37.333333h234.666667c20.266667 0 37.333333-17.066667 37.333333-37.333333v-234.666667c0-20.266667-17.066667-37.333333-37.333333-37.333333h-234.666667zM835.2 469.333333h-234.666667c-38.4 0-69.333333-30.933333-69.333333-69.333333v-234.666667c0-38.4 30.933333-69.333333 69.333333-69.333333h234.666667c38.4 0 69.333333 30.933333 69.333333 69.333333v234.666667c0 38.4-30.933333 69.333333-69.333333 69.333333z m-234.666667-341.333333c-20.266667 0-37.333333 17.066667-37.333333 37.333333v234.666667c0 20.266667 17.066667 37.333333 37.333333 37.333333h234.666667c20.266667 0 37.333333-17.066667 37.333333-37.333333v-234.666667c0-20.266667-17.066667-37.333333-37.333333-37.333333h-234.666667zM379.733333 901.333333h-234.666666c-38.4 0-69.333333-30.933333-69.333334-69.333333V597.333333c0-38.4 30.933333-69.333333 69.333334-69.333333h234.666666c38.4 0 69.333333 30.933333 69.333334 69.333333v234.666667c1.066667 38.4-30.933333 69.333333-69.333334 69.333333z m-233.6-341.333333c-20.266667 0-37.333333 17.066667-37.333333 37.333333v234.666667c0 20.266667 17.066667 37.333333 37.333333 37.333333h234.666667c20.266667 0 37.333333-17.066667 37.333333-37.333333V597.333333c0-20.266667-17.066667-37.333333-37.333333-37.333333h-234.666667zM893.866667 868.266667l-53.333334-52.266667c26.666667-32 40.533333-70.4 40.533334-112 0-97.066667-78.933333-174.933333-174.933334-174.933333S531.2 608 531.2 704s78.933333 174.933333 174.933333 174.933333c8.533333 0 16-7.466667 16-16s-7.466667-16-16-16c-78.933333 0-142.933333-64-142.933333-142.933333s64-142.933333 142.933333-142.933333 142.933333 64 142.933334 142.933333c0 38.4-14.933333 74.666667-42.666667 101.333333 0 0 0 1.066667-1.066667 1.066667-5.333333 6.4-5.333333 16 1.066667 21.333333l64 62.933334c3.2 3.2 7.466667 4.266667 11.733333 4.266666 4.266667 0 8.533333-1.066667 11.733334-4.266666 6.4-6.4 6.4-16 0-22.4z" fill="#FFDC53" p-id="21793"></path><path d="M752 851.2m-17.066667 0a17.066667 17.066667 0 1 0 34.133334 0 17.066667 17.066667 0 1 0-34.133334 0Z" fill="#FFDC53" p-id="21794"></path><path d="M932.266667 62.933333m-19.2 0a19.2 19.2 0 1 0 38.4 0 19.2 19.2 0 1 0-38.4 0Z" fill="#FFDC53" p-id="21795"></path><path d="M458.666667 83.2m-7.466667 0a7.466667 7.466667 0 1 0 14.933333 0 7.466667 7.466667 0 1 0-14.933333 0Z" fill="#FFDC53" p-id="21796"></path><path d="M939.733333 563.2m-14.933333 0a14.933333 14.933333 0 1 0 29.866667 0 14.933333 14.933333 0 1 0-29.866667 0Z" fill="#FFDC53" p-id="21797"></path><path d="M420.266667 36.266667c-1.066667-1.066667-3.2-1.066667-3.2 0l-9.6 9.6-9.6-9.6c-1.066667-1.066667-3.2-1.066667-3.2 0-1.066667 1.066667-1.066667 3.2 0 4.266666l9.6 9.6-9.6 9.6c-1.066667 1.066667-1.066667 3.2 0 4.266667 1.066667 1.066667 3.2 1.066667 3.2 0l9.6-9.6 9.6 9.6c1.066667 1.066667 3.2 1.066667 3.2 0 1.066667-1.066667 1.066667-3.2 0-4.266667l-9.6-9.6 9.6-9.6c1.066667-1.066667 1.066667-3.2 0-4.266666zM581.333333 910.933333l-14.933333 1.066667L565.333333 896c0-1.066667-1.066667-3.2-3.2-3.2-1.066667 0-3.2 1.066667-2.133333 3.2l1.066667 14.933333-14.933334 1.066667c-1.066667 0-3.2 1.066667-2.133333 3.2 0 1.066667 1.066667 3.2 3.2 3.2l14.933333-1.066667 1.066667 14.933334c0 1.066667 1.066667 3.2 3.2 3.2s3.2-1.066667 2.133333-3.2l-2.133333-14.933334 14.933333-1.066666c1.066667 0 3.2-1.066667 2.133334-3.2s-1.066667-3.2-2.133334-2.133334z" fill="#FFDC53" p-id="21798"></path></svg>