<?xml version="1.0" standalone="no"?><!DOCTYPE svg PUBLIC "-//W3C//DTD SVG 1.1//EN" "http://www.w3.org/Graphics/SVG/1.1/DTD/svg11.dtd"><svg t="1703228147498" class="icon" viewBox="0 0 1024 1024" version="1.1" xmlns="http://www.w3.org/2000/svg" p-id="6285" width="32" height="32" xmlns:xlink="http://www.w3.org/1999/xlink"><path d="M714.9568 886.8352H225.8944c-75.6736 0-137.0624-61.3888-137.0624-137.0624V266.8032c0-75.6736 61.3888-137.0624 137.0624-137.0624h65.2288c13.1072 0 25.7536 4.5056 35.8912 12.8l84.6848 69.2736c10.1376 8.2944 22.784 12.8 35.8912 12.8h267.3664c75.6736 0 137.0624 61.3888 137.0624 137.0624v388.096c0 75.7248-61.3888 137.0624-137.0624 137.0624z" fill="#FFD05C" p-id="6286"></path><path d="M322.304 457.472h547.9424c54.3232 0 91.5968 54.6304 71.7824 105.216l-107.8272 275.2a77.04576 77.04576 0 0 1-71.7824 48.9472H213.6064c-54.3744 0-91.6992-54.8352-71.68-105.4208l108.6976-275.2c11.6224-29.3888 40.0384-48.7424 71.68-48.7424z" fill="#FFD05C" p-id="6287"></path><path d="M852.0192 749.7728V457.472H322.304c-31.6416 0-60.0576 19.3536-71.68 48.7424l-108.6976 275.2c-15.2576 38.6048 2.8672 79.6672 36.5056 96.9216 14.7968 5.4784 30.8224 8.448 47.5136 8.448h489.0112c75.6736 0.0512 137.0624-61.2864 137.0624-137.0112z" fill="#FCA235" p-id="6288"></path></svg>