<?xml version="1.0" encoding="UTF-8"?>
<svg width="164px" height="55px" viewBox="0 0 164 55" version="1.1" xmlns="http://www.w3.org/2000/svg" xmlns:xlink="http://www.w3.org/1999/xlink">
    <title>logo</title>
    <defs>
        <polygon id="path-1" points="0 0 23.8164127 0 23.8164127 25.6770293 0 25.6770293"></polygon>
    </defs>
    <g id="页面-1" stroke="none" stroke-width="1" fill="none" fill-rule="evenodd">
        <g id="logo" transform="translate(0.000000, 8.937500)">
            <path d="M59.0113153,36.0683407 C59.1550231,36.0683407 59.2782013,36.018027 59.3795733,35.9177187 C59.4816899,35.8175168 59.5320036,35.6960406 59.5320036,35.5542474 L59.5320036,33.5559531 C59.5320036,33.4137344 59.4816899,33.2926837 59.3795733,33.1920563 C59.2782013,33.0918543 59.1550231,33.0414343 59.0113153,33.0414343 L57.2924587,33.0414343 C57.2179987,33.0414343 57.1589626,33.0553689 57.1137547,33.0819618 C57.0692914,33.1089802 57.0298276,33.1494013 56.9948314,33.2034381 L56.9948314,35.9067624 C57.059718,36.0144104 57.1589626,36.0683407 57.2924587,36.0683407 L59.0113153,36.0683407 Z M55.8046411,36.3622451 L55.8046411,32.7476363 L56.9948314,32.7476363 L56.9948314,32.8580499 C57.0444005,32.8139057 57.0955652,32.7844408 57.1472617,32.7698679 C57.1998092,32.755295 57.2457617,32.7476363 57.2851191,32.7476363 L59.9790828,32.7476363 C60.1869327,32.7476363 60.363403,32.8186924 60.5070044,32.9609111 C60.6507122,33.1027043 60.7229385,33.276728 60.7229385,33.482344 L60.7229385,35.6275373 C60.7229385,35.8331534 60.6507122,36.0070708 60.5070044,36.1489703 C60.363403,36.2910826 60.1869327,36.3622451 59.9790828,36.3622451 L57.2851191,36.3622451 C57.2457617,36.3622451 57.1998092,36.3549054 57.1472617,36.3400134 C57.0955652,36.3254405 57.0444005,36.2936355 56.9948314,36.2444919 L56.9948314,36.3622451 L55.8046411,36.3622451 Z" id="Fill-1" fill="#FFFFFF" fill-rule="nonzero"></path>
            <path d="M65.5594469,33.3649099 C65.5098778,33.3649099 65.4777536,33.3845886 65.4624361,33.423627 L64.3094758,35.3482059 L66.7948451,35.3482059 L65.6483735,33.423627 C65.6338006,33.3845886 65.6039102,33.3649099 65.5594469,33.3649099 L65.5594469,33.3649099 Z M68.8112226,36.3549054 L67.3972267,36.3549054 L66.9735492,35.6421102 L64.1381114,35.6421102 L63.7143275,36.3549054 L62.3003316,36.3549054 L64.3765962,32.9900569 C64.4757344,32.828585 64.6245481,32.7475299 64.8229309,32.7475299 L66.2887297,32.7475299 C66.4871125,32.7475299 66.6358198,32.828585 66.7350643,32.9900569 L68.8112226,36.3549054 Z" id="Fill-3" fill="#FFFFFF" fill-rule="nonzero"></path>
            <path d="M71.6160679,32.747615 C71.7152061,32.747615 71.7998779,32.7734633 71.8691256,32.8249471 C71.9383734,32.8763245 71.9931548,32.943764 72.0325121,33.0269465 L73.3123738,36.016942 C73.3174798,36.0460878 73.3400305,36.0610862 73.3794944,36.0610862 C73.4144902,36.0610862 73.4362963,36.0460878 73.4465084,36.016942 L74.8008298,33.0269465 C74.8401871,32.943764 74.8963511,32.8763245 74.9678325,32.8249471 C75.0400592,32.7734633 75.1231353,32.747615 75.2171674,32.747615 L76.117921,32.747615 C76.2170592,32.747615 76.3038581,32.7833558 76.3782119,32.854412 C76.4526723,32.925149 76.4897959,33.0123736 76.4897959,33.1151284 L76.4897959,36.3622238 L75.2996056,36.3622238 L75.2996056,33.3795679 C75.2996056,33.3405295 75.279182,33.3160641 75.2398247,33.306278 C75.2048282,33.3011721 75.1778101,33.3160641 75.1581311,33.3503158 L73.9081606,36.0829987 C73.868058,36.1665003 73.8126386,36.2335143 73.7404126,36.2849981 C73.6682925,36.3363755 73.5851098,36.3622238 73.4910777,36.3622238 L72.5312878,36.3622238 C72.4321496,36.3622238 72.3475844,36.3363755 72.2782301,36.2849981 C72.2089823,36.2335143 72.1543075,36.1665003 72.1148436,36.0829987 L70.9393328,33.3503158 C70.9240153,33.3109583 70.8969965,33.2963854 70.8568946,33.306278 C70.8124313,33.3160641 70.7897747,33.3405295 70.7897747,33.3795679 L70.7897747,36.3622238 L70.4178998,36.3622238 L70.4178998,33.1151284 C70.4178998,33.0123736 70.4550234,32.925149 70.5294838,32.854412 C70.6038369,32.7833558 70.6906365,32.747615 70.7897747,32.747615 L71.6160679,32.747615 Z" id="Fill-5" fill="#FFFFFF" fill-rule="nonzero"></path>
            <path d="M78.201387,33.3354131 C78.201387,33.1738349 78.2596788,33.0356583 78.3763681,32.920458 C78.4923129,32.8055769 78.6331487,32.7476044 78.7964293,32.7476044 L82.5245362,32.7476044 L82.5245362,33.0415088 L79.6898431,33.0415088 C79.6052778,33.0415088 79.5345409,33.0699099 79.4776318,33.126074 C79.4199787,33.1826637 79.3915774,33.2522306 79.3915774,33.3354131 L79.3915774,34.4081693 L82.3013689,34.4081693 L82.3013689,34.7020737 L79.3915774,34.7020737 L79.3915774,35.7745108 C79.3915774,35.8575869 79.4199787,35.9275793 79.4776318,35.9837435 C79.5345409,36.0403331 79.6052778,36.0684151 79.6898431,36.0684151 L82.59889,36.0684151 L82.59889,36.3623195 L78.7964293,36.3623195 C78.6331487,36.3623195 78.4923129,36.3046662 78.3763681,36.1894659 C78.2596788,36.0745847 78.201387,35.9359827 78.201387,35.7745108 L78.201387,33.3354131 Z" id="Fill-7" fill="#FFFFFF" fill-rule="nonzero"></path>
            <path d="M87.8963587,32.747615 L89.0799546,32.747615 L89.0799546,35.9947104 C89.0799546,36.0927849 89.0434689,36.1785203 88.9720934,36.2518102 C88.8998674,36.3254193 88.8145576,36.3622238 88.7153128,36.3622238 L87.6213889,36.3622238 C87.5171447,36.3622238 87.4252397,36.3353118 87.3457805,36.2812751 C87.2663206,36.2273448 87.2020724,36.1566077 87.1525036,36.0683194 L85.4934273,33.063751 C85.4730044,33.0294994 85.4459856,33.0149265 85.4109898,33.0196069 C85.3716325,33.0294994 85.3519535,33.0539648 85.3519535,33.0928968 L85.3519535,36.3622238 L84.1610186,36.3622238 L84.1610186,33.1151284 C84.1610186,33.0123736 84.1982488,32.925149 84.2726026,32.854412 C84.3469557,32.7833558 84.4337553,32.747615 84.5328935,32.747615 L85.6195842,32.747615 C85.7238284,32.747615 85.8157334,32.7746334 85.8952992,32.8285637 C85.9740138,32.882494 86.0411344,32.9536565 86.0958093,33.0415194 L87.7548849,36.0460878 C87.7702024,36.0804458 87.7972205,36.0927849 87.8373231,36.0829987 C87.8766804,36.0731062 87.8963587,36.0511936 87.8963587,36.016942 L87.8963587,32.747615 Z" id="Fill-9" fill="#FFFFFF" fill-rule="nonzero"></path>
            <path d="M93.1121455,34.4300287 L95.1884099,34.4300287 C95.3321181,34.4300287 95.4545515,34.4803424 95.5566679,34.5806506 C95.6580398,34.6812781 95.7090984,34.8023288 95.7090984,34.944122 L95.7090984,35.7744576 C95.7090984,35.9359295 95.6507008,36.0745315 95.5340107,36.1894127 C95.4174279,36.304613 95.2773367,36.3622663 95.1139503,36.3622663 L91.3859492,36.3622663 C91.2225628,36.3622663 91.0818336,36.304613 90.9658888,36.1894127 C90.8491987,36.0745315 90.7909076,35.9359295 90.7909076,35.7744576 L90.7909076,33.3353599 C90.7909076,33.173888 90.8491987,33.0356051 90.9658888,32.9204048 C91.0818336,32.8055236 91.2225628,32.7475512 91.3859492,32.7475512 L95.1139503,32.7475512 C95.2773367,32.7475512 95.4174279,32.8055236 95.5340107,32.9204048 C95.6507008,33.0356051 95.7090984,33.173888 95.7090984,33.3353599 L95.7090984,33.7466984 L94.518908,33.7466984 L94.518908,33.3353599 C94.518908,33.2522838 94.4897621,33.1826105 94.4328536,33.1261272 C94.3759451,33.0699631 94.3052076,33.0414556 94.2213869,33.0414556 L92.279363,33.0414556 C92.1946919,33.0414556 92.1239543,33.0699631 92.0670458,33.1261272 C92.0094986,33.1826105 91.9809914,33.2522838 91.9809914,33.3353599 L91.9809914,35.7744576 C91.9809914,35.8575337 92.0094986,35.9276325 92.0670458,35.9837967 C92.1239543,36.0402799 92.1946919,36.068362 92.279363,36.068362 L94.2213869,36.068362 C94.3052076,36.068362 94.3759451,36.0402799 94.4328536,35.9837967 C94.4897621,35.9276325 94.518908,35.8575337 94.518908,35.7744576 L94.518908,34.944122 C94.518908,34.8854049 94.4977399,34.8340275 94.4555109,34.7898834 C94.4131746,34.7458455 94.3598831,34.723933 94.2957407,34.723933 L93.1121455,34.723933 L93.1121455,34.4300287 Z" id="Fill-11" fill="#FFFFFF" fill-rule="nonzero"></path>
            <polygon id="Fill-13" fill="#FFFFFF" fill-rule="nonzero" points="102.033382 36.3622663 102.033382 33.0414556 100.165712 33.0414556 100.165712 32.7476576 105.083903 32.7476576 105.083903 33.0414556 103.224317 33.0414556 103.224317 36.3622663"></polygon>
            <path d="M106.646777,33.3354131 C106.646777,33.1738349 106.705068,33.0356583 106.821864,32.920458 C106.937808,32.8055769 107.078538,32.7476044 107.241818,32.7476044 L110.969926,32.7476044 L110.969926,33.0415088 L108.135232,33.0415088 C108.050667,33.0415088 107.97993,33.0699099 107.923021,33.126074 C107.865368,33.1826637 107.836967,33.2522306 107.836967,33.3354131 L107.836967,34.4081693 L110.746758,34.4081693 L110.746758,34.7020737 L107.836967,34.7020737 L107.836967,35.7745108 C107.836967,35.8575869 107.865368,35.9275793 107.923021,35.9837435 C107.97993,36.0403331 108.050667,36.0684151 108.135232,36.0684151 L111.044279,36.0684151 L111.044279,36.3623195 L107.241818,36.3623195 C107.078538,36.3623195 106.937808,36.3046662 106.821864,36.1894659 C106.705068,36.0745847 106.646777,35.9359827 106.646777,35.7745108 L106.646777,33.3354131 Z" id="Fill-15" fill="#FFFFFF" fill-rule="nonzero"></path>
            <path d="M112.584517,33.3354131 C112.584517,33.1738349 112.642914,33.0356583 112.758859,32.920458 C112.875549,32.8055769 113.016278,32.7476044 113.179665,32.7476044 L116.915005,32.7476044 C117.078286,32.7476044 117.218377,32.8055769 117.335066,32.920458 C117.45165,33.0356583 117.510047,33.1738349 117.510047,33.3354131 L117.510047,33.6734616 L116.319857,33.6734616 L116.319857,33.3354131 C116.319857,33.2522306 116.290711,33.1826637 116.233802,33.126074 C116.176894,33.0699099 116.106156,33.0415088 116.022336,33.0415088 L114.072228,33.0415088 C113.988408,33.0415088 113.91767,33.0699099 113.860761,33.126074 C113.803108,33.1826637 113.774707,33.2522306 113.774707,33.3354131 L113.774707,35.7745108 C113.774707,35.8575869 113.803108,35.9275793 113.860761,35.9837435 C113.91767,36.0403331 113.988408,36.0684151 114.072228,36.0684151 L116.022336,36.0684151 C116.106156,36.0684151 116.176894,36.0403331 116.233802,35.9837435 C116.290711,35.9275793 116.319857,35.8575869 116.319857,35.7745108 L116.319857,35.502838 L117.510047,35.502838 L117.510047,35.7745108 C117.510047,35.9359827 117.45165,36.0745847 117.335066,36.1894659 C117.218377,36.3046662 117.078286,36.3623195 116.915005,36.3623195 L113.179665,36.3623195 C113.016278,36.3623195 112.875549,36.3046662 112.758859,36.1894659 C112.642914,36.0745847 112.584517,35.9359827 112.584517,35.7745108 L112.584517,33.3354131 Z" id="Fill-17" fill="#FFFFFF" fill-rule="nonzero"></path>
            <polygon id="Fill-19" fill="#FFFFFF" fill-rule="nonzero" points="122.919792 36.3622663 122.919792 34.5988402 120.381875 34.5988402 120.381875 36.3622663 119.19179 36.3622663 119.19179 32.7476576 120.381875 32.7476576 120.381875 34.3053613 122.919792 34.3053613 122.919792 32.7476576 124.109982 32.7476576 124.109982 36.3622663"></polygon>
            <path d="M129.556892,32.747615 L130.740488,32.747615 L130.740488,35.9947104 C130.740488,36.0927849 130.704002,36.1785203 130.632627,36.2518102 C130.5604,36.3254193 130.475091,36.3622238 130.375846,36.3622238 L129.281922,36.3622238 C129.177678,36.3622238 129.085773,36.3353118 129.006314,36.2812751 C128.926854,36.2273448 128.862605,36.1566077 128.813037,36.0683194 L127.153961,33.063751 C127.133537,33.0294994 127.106519,33.0149265 127.071523,33.0196069 C127.032166,33.0294994 127.012487,33.0539648 127.012487,33.0928968 L127.012487,36.3622238 L125.821552,36.3622238 L125.821552,33.1151284 C125.821552,33.0123736 125.858782,32.925149 125.933136,32.854412 C126.007489,32.7833558 126.094288,32.747615 126.193427,32.747615 L127.280117,32.747615 C127.384362,32.747615 127.476267,32.7746334 127.555726,32.8285637 C127.634547,32.882494 127.701668,32.9536565 127.756342,33.0415194 L129.415418,36.0460878 C129.430736,36.0804458 129.457754,36.0927849 129.497856,36.0829987 C129.537213,36.0731062 129.556892,36.0511936 129.556892,36.016942 L129.556892,32.747615 Z" id="Fill-21" fill="#FFFFFF" fill-rule="nonzero"></path>
            <path d="M136.194046,33.3354131 C136.194046,33.2522306 136.165645,33.1826637 136.108737,33.126074 C136.051083,33.0699099 135.98109,33.0415088 135.896525,33.0415088 L133.947162,33.0415088 C133.862596,33.0415088 133.791859,33.0699099 133.734951,33.126074 C133.678042,33.1826637 133.64964,33.2522306 133.64964,33.3354131 L133.64964,35.7745108 C133.64964,35.8575869 133.678042,35.9275793 133.734951,35.9837435 C133.791859,36.0403331 133.862596,36.0684151 133.947162,36.0684151 L135.896525,36.0684151 C135.98109,36.0684151 136.051083,36.0403331 136.108737,35.9837435 C136.165645,35.9275793 136.194046,35.8575869 136.194046,35.7745108 L136.194046,33.3354131 Z M137.384981,35.7745108 C137.384981,35.9359827 137.325838,36.0745847 137.209894,36.1894659 C137.093204,36.3046662 136.95322,36.3623195 136.789088,36.3623195 L133.061832,36.3623195 C132.897701,36.3623195 132.757716,36.3046662 132.641026,36.1894659 C132.524337,36.0745847 132.466045,35.9359827 132.466045,35.7745108 L132.466045,33.3354131 C132.466045,33.1738349 132.524337,33.0356583 132.641026,32.920458 C132.757716,32.8055769 132.897701,32.7476044 133.061832,32.7476044 L136.789088,32.7476044 C136.95322,32.7476044 137.093204,32.8055769 137.209894,32.920458 C137.325838,33.0356583 137.384981,33.1738349 137.384981,33.3354131 L137.384981,35.7745108 Z" id="Fill-23" fill="#FFFFFF" fill-rule="nonzero"></path>
            <path d="M143.374428,36.3622663 L139.698125,36.3622663 C139.534844,36.3622663 139.394753,36.304613 139.278063,36.1894127 C139.161374,36.0745315 139.103082,35.9360358 139.103082,35.7744576 L139.103082,32.7476576 L140.294017,32.7476576 L140.294017,35.7744576 C140.294017,35.8576401 140.322419,35.9276325 140.379327,35.9837967 C140.436236,36.0402799 140.506973,36.068362 140.591538,36.068362 L143.374428,36.068362 L143.374428,36.3622663 Z" id="Fill-25" fill="#FFFFFF" fill-rule="nonzero"></path>
            <path d="M148.575674,33.3354131 C148.575674,33.2522306 148.547273,33.1826637 148.490364,33.126074 C148.432711,33.0699099 148.362719,33.0415088 148.278153,33.0415088 L146.32879,33.0415088 C146.244225,33.0415088 146.173488,33.0699099 146.116578,33.126074 C146.05967,33.1826637 146.031269,33.2522306 146.031269,33.3354131 L146.031269,35.7745108 C146.031269,35.8575869 146.05967,35.9275793 146.116578,35.9837435 C146.173488,36.0403331 146.244225,36.0684151 146.32879,36.0684151 L148.278153,36.0684151 C148.362719,36.0684151 148.432711,36.0403331 148.490364,35.9837435 C148.547273,35.9275793 148.575674,35.8575869 148.575674,35.7745108 L148.575674,33.3354131 Z M149.766609,35.7745108 C149.766609,35.9359827 149.707467,36.0745847 149.591522,36.1894659 C149.474832,36.3046662 149.334847,36.3623195 149.170716,36.3623195 L145.44346,36.3623195 C145.279329,36.3623195 145.139344,36.3046662 145.022655,36.1894659 C144.905965,36.0745847 144.847567,35.9359827 144.847567,35.7745108 L144.847567,33.3354131 C144.847567,33.1738349 144.905965,33.0356583 145.022655,32.920458 C145.139344,32.8055769 145.279329,32.7476044 145.44346,32.7476044 L149.170716,32.7476044 C149.334847,32.7476044 149.474832,32.8055769 149.591522,32.920458 C149.707467,33.0356583 149.766609,33.1738349 149.766609,33.3354131 L149.766609,35.7745108 Z" id="Fill-27" fill="#FFFFFF" fill-rule="nonzero"></path>
            <path d="M153.798673,34.4300287 L155.874937,34.4300287 C156.018645,34.4300287 156.141079,34.4803424 156.243195,34.5806506 C156.344568,34.6812781 156.395625,34.8023288 156.395625,34.944122 L156.395625,35.7744576 C156.395625,35.9359295 156.337228,36.0745315 156.220644,36.1894127 C156.103955,36.304613 155.963864,36.3622663 155.800477,36.3622663 L152.072476,36.3622663 C151.90909,36.3622663 151.768361,36.304613 151.652416,36.1894127 C151.535726,36.0745315 151.477435,35.9359295 151.477435,35.7744576 L151.477435,33.3353599 C151.477435,33.173888 151.535726,33.0356051 151.652416,32.9204048 C151.768361,32.8055236 151.90909,32.7475512 152.072476,32.7475512 L155.800477,32.7475512 C155.963864,32.7475512 156.103955,32.8055236 156.220644,32.9204048 C156.337228,33.0356051 156.395625,33.173888 156.395625,33.3353599 L156.395625,33.7466984 L155.205435,33.7466984 L155.205435,33.3353599 C155.205435,33.2522838 155.176289,33.1826105 155.119381,33.1261272 C155.062472,33.0699631 154.991735,33.0414556 154.907915,33.0414556 L152.965891,33.0414556 C152.881219,33.0414556 152.810482,33.0699631 152.753679,33.1261272 C152.696026,33.1826105 152.667518,33.2522838 152.667518,33.3353599 L152.667518,35.7744576 C152.667518,35.8575337 152.696026,35.9276325 152.753679,35.9837967 C152.810482,36.0402799 152.881219,36.068362 152.965891,36.068362 L154.907915,36.068362 C154.991735,36.068362 155.062472,36.0402799 155.119381,35.9837967 C155.176289,35.9276325 155.205435,35.8575337 155.205435,35.7744576 L155.205435,34.944122 C155.205435,34.8854049 155.184268,34.8340275 155.142038,34.7898834 C155.099702,34.7458455 155.04641,34.723933 154.982268,34.723933 L153.798673,34.723933 L153.798673,34.4300287 Z" id="Fill-29" fill="#FFFFFF" fill-rule="nonzero"></path>
            <polygon id="Fill-31" fill="#FFFFFF" fill-rule="nonzero" points="160.012106 36.3622663 160.012106 34.797223 157.980305 32.7476576 159.394408 32.7476576 161.030933 34.4154558 162.638205 32.7476576 163.158894 32.7476576 161.202297 34.797223 161.202297 36.3622663"></polygon>
            <path d="M77.7674872,26.1910694 L74.4004051,15.1694964 L78.9248089,15.1694964 L82.3968798,26.1910694 L77.7674872,26.1910694 Z M63.5109452,26.1775602 L68.5085958,14.4140462 L63.905477,14.4140462 L63.905477,12.9521832 L69.1132111,12.9521832 L69.8497271,11.2650253 L74.6374008,11.2650253 L73.9008848,12.9521832 L82.3968798,12.9521832 L82.3968798,14.4140462 L73.2956311,14.4140462 L68.2716002,26.1775602 L63.5109452,26.1775602 Z M58.3549076,13.5366944 L57.9603758,11.2650253 L62.6430604,11.2650253 L63.0375922,13.5366944 L58.3549076,13.5366944 Z M56.4085225,28.6067653 L56.4085225,26.8105768 L58.1186565,26.1141628 L58.1186565,15.763581 L56.4085225,15.763581 L56.4085225,14.301718 L62.5898747,14.301718 L62.5898747,26.0426812 C62.5898747,26.1925586 62.6379546,26.3350964 62.7349654,26.4699753 C62.8312316,26.6049607 62.9494103,26.7212248 63.0901398,26.8185547 C63.2301246,26.9159909 63.3876607,26.9947058 63.5633864,27.054912 C63.7384738,27.1143737 63.8960099,27.1445832 64.0367394,27.1445832 L82.3968798,27.1445832 L82.3968798,28.6067653 L62.9055853,28.6067653 C62.2916091,28.6067653 61.7788986,28.4642276 61.3668156,28.1801094 C60.9548389,27.895353 60.6696571,27.5587937 60.5121209,27.1697932 L56.4085225,28.6067653 Z" id="Fill-33" fill="#FFFFFF" fill-rule="nonzero"></path>
            <path d="M106.070615,18.1252722 L105.517803,13.5592771 L104.833728,13.5592771 L104.833728,18.1252722 L100.993399,18.1252722 L100.993399,13.5592771 L100.310068,13.5592771 L99.7572558,18.1252722 L96.5747283,18.1252722 L97.1005221,13.5592771 L96.5747283,13.5592771 L96.5747283,12.0299745 L100.993399,12.0299745 L100.993399,11.3550476 L104.833728,11.3550476 L104.833728,12.0299745 L109.253143,12.0299745 L109.253143,13.5592771 L108.700331,13.5592771 L109.253143,18.1252722 L106.070615,18.1252722 Z M84.3958335,22.781364 L100.783422,23.9058168 L100.783422,25.3676798 L84.3958335,24.2431206 L84.3958335,22.781364 Z M83.264786,21.9040121 L84.8960984,18.4176873 L89.4467764,18.4176873 L89.157233,19.002624 L108.911159,19.002624 L108.911159,20.5319266 L106.491421,26.9421902 C106.298144,27.4220319 105.977966,27.8042245 105.530993,28.0893001 C105.083914,28.3741629 104.571203,28.5167006 103.992224,28.5167006 L84.1595824,28.5167006 L84.1595824,27.0548376 L100.862136,27.0548376 C101.089665,27.0548376 101.296026,26.9983544 101.48058,26.8860261 C101.66439,26.7736978 101.791185,26.6275434 101.861922,26.4473501 L104.176672,20.4643807 L88.4732647,20.4643807 L87.8154633,21.9040121 L83.264786,21.9040121 Z M92.6818516,18.0803834 L92.1290391,13.5592771 L91.4457088,13.5592771 L91.4457088,18.0803834 L87.6053798,18.0803834 L87.6053798,13.5592771 L86.9213049,13.5592771 L86.3692369,18.0803834 L83.1859648,18.0803834 L83.7125032,13.5592771 L83.1859648,13.5592771 L83.1859648,12.0299745 L87.6053798,12.0299745 L87.6053798,11.3550476 L91.4457088,11.3550476 L91.4457088,12.0299745 L95.8643792,12.0299745 L95.8643792,13.5592771 L95.3123119,13.5592771 L95.8643792,18.0803834 L92.6818516,18.0803834 Z" id="Fill-35" fill="#FFFFFF" fill-rule="nonzero"></path>
            <path d="M120.247719,12.2546416 L125.902532,12.2546416 L125.902532,11.2650679 L130.374389,11.2650679 L130.374389,12.2546416 L136.029947,12.2546416 L136.029947,13.7168238 L130.374389,13.7168238 L130.374389,15.8762709 L135.71413,15.8762709 L135.71413,17.7427711 L130.742753,23.2086688 L136.108662,28.6969045 L130.900183,28.6969045 L128.18803,25.9751779 L125.712872,28.6969045 L120.181344,28.6969045 L125.311107,23.0734706 L120.550346,18.2153795 L125.849985,18.2153795 L127.849662,20.2847299 L130.531925,17.3380276 L120.680864,17.3380276 L120.680864,15.8762709 L125.902532,15.8762709 L125.902532,13.7168238 L120.247719,13.7168238 L120.247719,12.2546416 Z M109.989042,22.0615589 L112.40878,21.9040227 L112.40878,14.6164073 L109.989042,14.6164073 L109.989042,13.1545443 L112.40878,13.1545443 L112.40878,11.3550582 L116.880637,11.3550582 L116.880637,13.1545443 L119.458655,13.1545443 L119.458655,14.6164073 L116.880637,14.6164073 L116.880637,21.6341584 L119.458655,21.4540714 L119.458655,22.9162536 L116.880637,23.0960214 L116.880637,26.6048969 C116.880637,27.1745161 116.652363,27.6543578 116.196562,28.0445283 C115.74076,28.4343797 115.179225,28.6290395 114.513446,28.6290395 L110.778106,28.6290395 L110.778106,27.1671765 L111.632056,27.1671765 C111.839161,27.1671765 112.020737,27.1033536 112.176146,26.9761333 C112.331448,26.8484876 112.40878,26.6873348 112.40878,26.4922495 L112.40878,23.3658858 L109.989042,23.523422 L109.989042,22.0615589 Z" id="Fill-37" fill="#FFFFFF" fill-rule="nonzero"></path>
            <path d="M158.493048,28.6290395 L154.942261,15.2913342 L159.414118,15.2913342 L162.938737,28.6290395 L158.493048,28.6290395 Z M136.845284,28.6290395 L140.369903,15.2913342 L144.841759,15.2913342 L141.290973,28.6290395 L136.845284,28.6290395 Z M147.656029,28.6290395 L147.656029,14.4139824 L136.845284,14.4139824 L136.845284,12.9522258 L147.656029,12.9522258 L147.656029,11.2650679 L152.127885,11.2650679 L152.127885,12.9522258 L156.07331,12.9522258 L155.652504,11.4673864 L160.124467,11.4673864 L160.545272,12.9522258 L162.938737,12.9522258 L162.938737,14.4139824 L152.127885,14.4139824 L152.127885,28.6290395 L147.656029,28.6290395 Z" id="Fill-39" fill="#FFFFFF" fill-rule="nonzero"></path>
            <path d="M9.72626683,10.5806952 C11.0554846,9.45049834 12.5130928,8.30838793 14.0184618,7.31562308 C12.8753941,11.0904272 12.6590345,19.2134842 21.346073,20.5808894 C27.869303,21.6081186 29.5157206,23.6774691 28.751548,34.0050747 C27.4083955,34.6384103 26.0752419,35.1643109 24.7126234,35.6526623 C25.5750833,31.3711045 26.5281716,23.6914038 20.3108659,22.4399435 C12.7354092,20.9157468 8.80317522,19.9154295 9.72626683,10.5806952" id="Fill-41" fill="#FFFFFF" fill-rule="nonzero"></path>
            <path d="M15.0494141,6.6393452 C16.3402318,5.81943394 17.6169021,5.10887255 19.050364,4.34140244 C17.5744599,11.2548031 18.0682362,17.2503244 26.1622538,18.5147619 C30.9551393,19.2639362 34.6743112,20.9973656 33.7136704,31.2830608 C32.4422123,32.0966961 31.2787212,32.7299255 29.98918,33.4094264 C30.6992095,29.304977 30.7179309,21.0188526 25.0412049,20.1451174 C16.5070223,18.8302597 13.925174,16.4989163 15.0494141,6.6393452" id="Fill-43" fill="#FFFFFF" fill-rule="nonzero"></path>
            <path d="M20.2460324,3.76928351 C21.5898231,3.16817836 23.4675986,2.36432919 24.2109225,2.15818129 C22.74523,7.35751211 23.4906812,15.584494 30.1587892,16.6772481 C36.3948164,17.7001161 39.2606764,21.1798458 38.601067,27.804448 C37.3323745,28.8080627 36.1672878,29.6677569 34.8717898,30.5381946 C35.9762447,24.1626081 33.6057566,18.7380888 29.1981486,18.0982645 C19.7318327,16.7243706 18.6719475,12.7626718 20.2460324,3.76928351" id="Fill-45" fill="#FFFFFF" fill-rule="nonzero"></path>
            <path d="M7.77012748,12.4192409 C1.62419696,18.2227616 -1.66991458,25.9733057 0.854599406,31.6104615 C3.73269214,38.0354044 14.2794229,39.2138938 22.4725786,36.3170797 C24.2126031,28.726412 25.0959117,24.510379 18.1245386,23.1687156 C7.96968033,21.2130763 7.85054428,17.1935114 7.77012748,12.4192409" id="Fill-47" fill="#FFFFFF" fill-rule="nonzero"></path>
            <g id="Fill-49-Clipped" transform="translate(25.298098, 0.000000)">
                <mask id="mask-2" fill="white">
                    <use xlink:href="#path-1"></use>
                </mask>
                <g id="path-1"></g>
                <path d="M15.651981,25.6770293 C21.66633,19.7984102 25.8335385,11.8000207 22.8019518,5.8719389 C19.3758332,-0.828931551 8.55296214,-1.01348605 1.15067822,1.45411921 C-1.02610744,7.38432839 -0.426491495,14.7698056 5.66986992,15.6564118 C14.5222096,16.9432937 14.8748311,20.6506584 15.651981,25.6770293" id="Fill-49" fill="#FFFFFF" fill-rule="nonzero" mask="url(#mask-2)"></path>
            </g>
            <path d="M9.72626683,10.5795464 C11.0554846,9.44934952 12.5130928,8.30723912 14.0184618,7.31341057 C12.8753941,11.0893848 12.6590345,19.2112717 21.346073,20.5787832 C27.869303,21.6059061 29.5157206,23.6763203 28.751548,34.0028622 C27.4083955,34.6372615 26.0752419,35.1631621 24.7126234,35.6515135 C25.5750833,31.3699556 26.5281716,23.690255 20.3108659,22.4387947 C12.7354092,20.914598 8.80317522,19.9143871 9.72626683,10.5795464" id="Fill-51" fill="#FFFFFF" fill-rule="nonzero"></path>
            <path d="M15.0494141,6.63835594 C16.3402318,5.8172746 17.6169021,5.10777693 19.050364,4.33924309 C17.5744599,11.2537074 18.0682362,17.2493351 26.1622538,18.5137727 C30.9551393,19.2628406 34.6743112,20.9962699 33.7136704,31.2819651 C32.4422123,32.0957068 31.2787212,32.7288298 29.98918,33.4083307 C30.6992095,29.3038814 30.7179309,21.017757 25.0412049,20.1430644 C16.5070223,18.8292705 13.925174,16.4980334 15.0494141,6.63835594" id="Fill-53" fill="#FFFFFF" fill-rule="nonzero"></path>
            <path d="M20.2460324,3.76819852 C21.5898231,3.16613602 23.4675986,2.36207412 24.2109225,2.15603259 C22.74523,7.35642717 23.4906812,15.5834091 30.1587892,16.6761631 C36.3948164,17.6979674 39.2606764,21.1787608 38.601067,27.803363 C37.3323745,28.8058077 36.1672878,29.6656082 34.8717898,30.5360459 C35.9762447,24.1615231 33.6057566,18.7370039 29.1981486,18.0962222 C19.7318327,16.7223283 18.6719475,12.7616932 20.2460324,3.76819852" id="Fill-55" fill="#FFFFFF" fill-rule="nonzero"></path>
        </g>
    </g>
</svg>