<?xml version="1.0" standalone="no"?><!DOCTYPE svg PUBLIC "-//W3C//DTD SVG 1.1//EN" "http://www.w3.org/Graphics/SVG/1.1/DTD/svg11.dtd"><svg t="1658750337839" class="icon" viewBox="0 0 1024 1024" version="1.1" xmlns="http://www.w3.org/2000/svg" p-id="10019" width="64" height="64" xmlns:xlink="http://www.w3.org/1999/xlink"><defs><style type="text/css">@font-face { font-family: feedback-iconfont; src: url("//at.alicdn.com/t/font_1031158_u69w8yhxdu.woff2?t=1630033759944") format("woff2"), url("//at.alicdn.com/t/font_1031158_u69w8yhxdu.woff?t=1630033759944") format("woff"), url("//at.alicdn.com/t/font_1031158_u69w8yhxdu.ttf?t=1630033759944") format("truetype"); }
</style></defs><path d="M233.3 894.2V647.3h80.5c82.7 0 123.9 40.2 123.9 120.5 0 38.1-11.5 68.9-34.8 91.9-23.3 23-53.1 34.7-89.6 34.7h-80v-0.2z m49.7-204v160.9h27.1c23.6 0 42-7.5 55.5-22.3 13.5-15 20.2-35 20.2-60.4 0-24.5-7.1-43.7-21-57.5-14.1-13.8-32.2-20.6-54.7-20.6H283v-0.1zM477 894.2V647.3h82.7c25.3 0 44.9 5.1 58.7 15.3 13.8 10.2 20.5 24.3 20.5 42.4 0 13.4-4.3 25.2-12.8 35.2-8.5 10-19.2 17-32.2 20.9v0.7c16.2 2.2 29.3 8.5 39.3 19.2 9.9 10.7 14.9 24 14.9 40 0 22.5-7.5 40.3-22.6 53.6-15.1 13.3-35.6 19.9-61.6 19.9H477v-0.3z m49.6-207.6v61.1h23.6c11.4 0 20.2-2.9 26.8-8.7 6.6-5.8 9.8-13.8 9.8-24.2 0-18.9-13-28.4-39.1-28.4l-21.1 0.2z m0 100.5v67.7h29.5c12.5 0 22.3-3.1 29.3-9.2S596 830.9 596 820c0-10.4-3.5-18.5-10.6-24.3-7.1-5.8-17-8.7-30-8.7l-28.8 0.1zM732.6 851.5h98.8v42.9H676.5V876c0-12.9 2.2-24.7 6.7-35.2s10.6-20.6 18.4-29.8c7.9-9.2 19.9-19.9 36.4-32.3 15.1-11.9 25.5-22.5 31.6-31.6 6.1-9.2 9-18.9 9-29.3 0-22.3-11.4-33.3-34.3-33.3-20 0-39.1 8.5-57.4 25.5v-46c20.4-14 43.1-20.9 68.6-20.9 23.3 0 41.7 6.3 55.2 18.9 13.5 12.6 20.4 29.9 20.4 52.1 0 12.4-1.9 23.5-5.9 33.3-3.8 9.9-9.6 19.2-17 28.1-7.4 8.7-19.2 19.2-35.6 31.5-15.7 11.9-26.3 21.1-31.7 27.6-5.4 6.5-8.3 11.9-8.3 16.9z" p-id="10020" data-spm-anchor-id="a313x.7781069.0.i53" class="" fill="#038ed8"></path><path d="M82.1 171.6h173.3v26H82.1zM280 171.6v26h247.1s-25.8-26-58.2-26H280zM576.3 171.6v26.2h149.9l-8.8-26.2zM973.3 171.6H833.6l-8.8 26.2h148.5zM82.1 222.6h173.3v26H82.1zM280 248.7h276.8s-2.6-20.6-9-26H280v26zM576.3 248.7H743l-7.5-26.1H576.3zM973.3 248.7v-26.1H815.7l-7.7 26.1zM132.4 272h75v26h-75zM330.5 272h75v26h-75zM479.3 298h75s5.1-13.8 5.1-26h-80.2v26h0.1zM626.8 272v26h133.1l-8.8-26zM791.1 298h134.6v-26H800zM132.4 322.7h75v26h-75zM330.5 348.7h192.7s15.6-13.8 20.7-26H330.5v26zM775.6 344.8l-6.4-22.1H626.8v26h75v-15l5.2 15h138.5l5-15v15h75.2v-26H783.1zM132.4 373.4h75v26h-75zM330.5 399.6h213.4c-5.1-12.4-20.7-26-20.7-26H330.5v26zM626.8 373.4h75v26h-75zM837.6 373.4H715.9l9.2 26.2h103.6zM849.3 373.4h75v26h-75zM132.4 424.2h75v26h-75zM330.5 424.2h75v26h-75zM554.3 424.2h-75v26h80.2c-0.1-12.3-5.2-26-5.2-26zM626.8 424.2h75v26h-75zM820.8 424.2h-88l9.1 26.1h69.9zM849.3 424.2h75v26h-75zM83.4 473.6h173.3v26H83.4zM557 473.6H280v26h267.8c5.2-5.4 9.2-26 9.2-26zM577.7 473.6h124.1v26H577.7zM802.5 473.6h-52.9l9.2 26h34.7zM849.3 473.6h125.5v26H849.3zM83.4 524.6h173.3v26H83.4zM527.2 524.6H280v26h188.9c33.6-0.1 58.3-26 58.3-26zM577.7 524.6h124.1v26H577.7zM776.7 550.5l9.3-25.9h-19.7l9.3 25.9zM849.3 524.6h125.5v26H849.3z" p-id="10021" data-spm-anchor-id="a313x.7781069.0.i50" class="" fill="#038ed8"></path></svg>