<?xml version="1.0" standalone="no"?><!DOCTYPE svg PUBLIC "-//W3C//DTD SVG 1.1//EN" "http://www.w3.org/Graphics/SVG/1.1/DTD/svg11.dtd"><svg t="1658303663882" class="icon" viewBox="0 0 1024 1024" version="1.1" xmlns="http://www.w3.org/2000/svg" p-id="6974" width="32" height="32" xmlns:xlink="http://www.w3.org/1999/xlink"><defs><style type="text/css">@font-face { font-family: feedback-iconfont; src: url("//at.alicdn.com/t/font_1031158_u69w8yhxdu.woff2?t=1630033759944") format("woff2"), url("//at.alicdn.com/t/font_1031158_u69w8yhxdu.woff?t=1630033759944") format("woff"), url("//at.alicdn.com/t/font_1031158_u69w8yhxdu.ttf?t=1630033759944") format("truetype"); }
</style></defs><path d="M981.333333 968.533333c0 29.866667-25.6 55.466667-59.733333 55.466667H102.4c-34.133333 0-59.733333-25.6-59.733333-55.466667V55.466667C42.666667 25.6 68.266667 0 102.4 0H768V102.4L861.866667 213.333333H981.333333v755.2z" fill="#50C28B" p-id="6975"></path><path d="M256 896h512V384H256z" fill="#FEFEFE" p-id="6976"></path><path d="M768 0V89.6c0 8.533333 21.333333 115.2 34.133333 123.733333L981.333333 341.333333V213.333333l-213.333333-213.333333z" fill="#318459" p-id="6977"></path><path d="M768 0v170.666667c0 25.6 21.333333 42.666667 42.666667 42.666666h170.666666l-213.333333-213.333333z" fill="#91DBB1" p-id="6978"></path><path d="M341.333333 768h46.933334v-213.333333l93.866666 128h55.466667l102.4-128v213.333333h42.666667v-256h-64L512 644.266667 405.333333 512H341.333333z" fill="#50C28B" p-id="6979"></path></svg>