<?xml version="1.0" standalone="no"?><!DOCTYPE svg PUBLIC "-//W3C//DTD SVG 1.1//EN" "http://www.w3.org/Graphics/SVG/1.1/DTD/svg11.dtd"><svg t="1658303686826" class="icon" viewBox="0 0 1024 1024" version="1.1" xmlns="http://www.w3.org/2000/svg" p-id="7174" width="32" height="32" xmlns:xlink="http://www.w3.org/1999/xlink"><defs><style type="text/css">@font-face { font-family: feedback-iconfont; src: url("//at.alicdn.com/t/font_1031158_u69w8yhxdu.woff2?t=1630033759944") format("woff2"), url("//at.alicdn.com/t/font_1031158_u69w8yhxdu.woff?t=1630033759944") format("woff"), url("//at.alicdn.com/t/font_1031158_u69w8yhxdu.ttf?t=1630033759944") format("truetype"); }
</style></defs><path d="M870.4 1024H153.6c-35.84 0-64-28.16-64-64V64c0-35.84 28.16-64 64-64h576l204.8 204.8v755.2c0 35.84-28.16 64-64 64z" fill="#F2F2F2" p-id="7175"></path><path d="M934.4 204.8H747.52c-10.24 0-17.92-7.68-17.92-17.92V0" fill="#DDDDDD" p-id="7176"></path><path d="M870.4 1024H153.6c-35.84 0-64-28.16-64-64V640h844.8v320c0 35.84-28.16 64-64 64z" fill="#EF4545" p-id="7177"></path><path d="M193.28 756.48v55.04h84.48v-55.04c0-7.68 1.28-14.08 5.12-17.92 3.84-3.84 7.68-6.4 14.08-6.4 6.4 0 10.24 2.56 14.08 6.4 3.84 3.84 5.12 10.24 5.12 17.92v151.04c0 7.68-1.28 14.08-5.12 17.92s-8.96 6.4-14.08 6.4c-6.4 0-10.24-2.56-14.08-6.4-3.84-3.84-5.12-10.24-5.12-17.92v-65.28h-84.48v65.28c0 7.68-1.28 14.08-5.12 17.92s-8.96 6.4-14.08 6.4c-6.4 0-10.24-2.56-14.08-6.4-3.84-3.84-6.4-10.24-6.4-17.92V756.48c0-7.68 1.28-14.08 5.12-17.92 3.84-3.84 7.68-6.4 14.08-6.4 6.4 0 10.24 2.56 14.08 6.4 3.84 3.84 6.4 8.96 6.4 17.92zM482.56 768h-42.24v139.52c0 7.68-1.28 14.08-5.12 17.92-3.84 3.84-7.68 6.4-14.08 6.4-6.4 0-10.24-2.56-14.08-6.4-3.84-3.84-5.12-10.24-5.12-17.92V768H358.4c-6.4 0-11.52-1.28-15.36-3.84-3.84-2.56-5.12-6.4-5.12-11.52s1.28-8.96 5.12-11.52c3.84-2.56 7.68-3.84 14.08-3.84h124.16c6.4 0 11.52 1.28 15.36 3.84 3.84 2.56 5.12 6.4 5.12 11.52s-1.28 8.96-5.12 11.52c-2.56 2.56-7.68 3.84-14.08 3.84zM591.36 898.56l-30.72-122.88V908.8c0 7.68-1.28 12.8-5.12 16.64-3.84 3.84-7.68 5.12-12.8 5.12s-8.96-1.28-12.8-5.12c-3.84-3.84-5.12-8.96-5.12-16.64V756.48c0-8.96 2.56-14.08 6.4-16.64 3.84-2.56 10.24-3.84 17.92-3.84h11.52c7.68 0 12.8 1.28 15.36 2.56 3.84 1.28 5.12 3.84 7.68 7.68 1.28 3.84 3.84 8.96 5.12 16.64l28.16 104.96 28.16-104.96c2.56-7.68 3.84-12.8 5.12-16.64 1.28-3.84 3.84-6.4 7.68-7.68 3.84-1.28 8.96-2.56 15.36-2.56h11.52c7.68 0 12.8 1.28 17.92 3.84 3.84 2.56 6.4 8.96 6.4 16.64V908.8c0 7.68-1.28 12.8-5.12 16.64-3.84 3.84-7.68 5.12-12.8 5.12s-8.96-1.28-12.8-5.12-5.12-8.96-5.12-16.64V776.96l-30.72 122.88c-2.56 7.68-3.84 14.08-5.12 17.92-1.28 3.84-3.84 7.68-6.4 10.24s-7.68 5.12-14.08 5.12c-5.12 0-8.96-1.28-11.52-2.56-2.56-2.56-5.12-3.84-7.68-7.68-1.28-2.56-2.56-6.4-3.84-10.24-1.28-5.12-1.28-10.24-2.56-14.08zM788.48 756.48V896h79.36c6.4 0 11.52 1.28 14.08 5.12 3.84 2.56 5.12 6.4 5.12 11.52s-1.28 8.96-5.12 11.52c-3.84 2.56-7.68 3.84-14.08 3.84h-94.72c-8.96 0-14.08-1.28-17.92-5.12-3.84-3.84-5.12-10.24-5.12-17.92V756.48c0-7.68 1.28-14.08 5.12-17.92 3.84-3.84 7.68-6.4 14.08-6.4 6.4 0 10.24 2.56 14.08 6.4 2.56 3.84 5.12 8.96 5.12 17.92z" fill="#FFFFFF" p-id="7178"></path><path d="M414.72 472.32c-5.12 0-10.24-1.28-14.08-5.12l-126.72-126.72 126.72-126.72c7.68-7.68 19.2-7.68 26.88 0s7.68 19.2 0 26.88l-99.84 99.84 99.84 99.84c7.68 7.68 7.68 19.2 0 26.88-2.56 2.56-7.68 5.12-12.8 5.12zM609.28 472.32c-5.12 0-10.24-1.28-14.08-5.12-7.68-7.68-7.68-19.2 0-26.88l99.84-99.84-99.84-99.84c-7.68-7.68-7.68-19.2 0-26.88s19.2-7.68 26.88 0l126.72 126.72-126.72 126.72c-2.56 2.56-7.68 5.12-12.8 5.12zM477.44 486.4c-1.28 0-3.84 0-5.12-1.28-10.24-2.56-16.64-12.8-12.8-23.04l70.4-256c2.56-10.24 12.8-16.64 23.04-12.8 10.24 2.56 16.64 12.8 12.8 23.04l-70.4 256c-2.56 8.96-10.24 14.08-17.92 14.08z" fill="#DDDDDD" p-id="7179"></path></svg>