<?xml version="1.0" standalone="no"?><!DOCTYPE svg PUBLIC "-//W3C//DTD SVG 1.1//EN" "http://www.w3.org/Graphics/SVG/1.1/DTD/svg11.dtd"><svg t="1658303319954" class="icon" viewBox="0 0 1024 1024" version="1.1" xmlns="http://www.w3.org/2000/svg" p-id="6770" width="32" height="32" xmlns:xlink="http://www.w3.org/1999/xlink"><defs><style type="text/css">@font-face { font-family: feedback-iconfont; src: url("//at.alicdn.com/t/font_1031158_u69w8yhxdu.woff2?t=1630033759944") format("woff2"), url("//at.alicdn.com/t/font_1031158_u69w8yhxdu.woff?t=1630033759944") format("woff"), url("//at.alicdn.com/t/font_1031158_u69w8yhxdu.ttf?t=1630033759944") format("truetype"); }
</style></defs><path d="M142.336 167.936h624.64v798.72h-624.64z" fill="#F2DBB6" p-id="6771"></path><path d="M89.088 89.088h605.184v78.848H89.088z" fill="#FFF2E3" p-id="6772"></path><path d="M723.968 723.968m-241.664 0a241.664 241.664 0 1 0 483.328 0 241.664 241.664 0 1 0-483.328 0Z" fill="#FFF2E3" p-id="6773"></path><path d="M995.328 723.968c0-118.784-75.776-219.136-181.248-256V149.504h-60.416V89.088h60.416V28.672H118.784c-2.048 0-21.504 0-44.032 10.24-22.528 10.24-48.128 38.912-47.104 79.872v817.152c0 60.416 60.416 60.416 60.416 60.416h637.952c149.504-2.048 269.312-122.88 269.312-272.384z m-880.64-575.488c-5.12-1.024-13.312-3.072-17.408-7.168-4.096-4.096-8.192-7.168-8.192-22.528 1.024-19.456 6.144-20.48 13.312-25.6 4.096-2.048 9.216-3.072 12.288-4.096 3.072-1.024 4.096 0 4.096-1.024h574.464v60.416H118.784c0 1.024-1.024 1.024-4.096 0z m34.816 786.432V209.92h605.184v243.712c-10.24-1.024-20.48-2.048-30.72-2.048-64.512 0-123.904 22.528-171.008 60.416H209.92v60.416h287.744c-12.288 18.432-22.528 38.912-29.696 60.416H209.92v60.416h243.712c-1.024 10.24-2.048 20.48-2.048 30.72 0 86.016 39.936 161.792 101.376 211.968H149.504z m574.464 0C607.232 934.912 512 840.704 512 723.968 512 607.232 607.232 512 723.968 512c116.736 0 210.944 95.232 211.968 211.968-1.024 116.736-95.232 210.944-211.968 210.944z" fill="#CC9933" p-id="6774"></path><path d="M209.92 391.168h483.328v60.416H209.92z m475.136 377.856c0-60.416 68.608-69.632 68.608-112.64 0-19.456-18.432-34.816-39.936-34.816-23.552 0-45.056 18.432-45.056 18.432L638.976 604.16s29.696-30.72 77.824-30.72c47.104 0 90.112 29.696 90.112 77.824 0 68.608-72.704 76.8-72.704 122.88v16.384h-51.2v-20.48h2.048z m0 57.344h51.2v49.152h-51.2v-49.152z" fill="#CC9933" p-id="6775"></path></svg>