<?xml version="1.0" standalone="no"?><!DOCTYPE svg PUBLIC "-//W3C//DTD SVG 1.1//EN" "http://www.w3.org/Graphics/SVG/1.1/DTD/svg11.dtd"><svg t="1658303696471" class="icon" viewBox="0 0 1024 1024" version="1.1" xmlns="http://www.w3.org/2000/svg" p-id="7374" width="32" height="32" xmlns:xlink="http://www.w3.org/1999/xlink"><defs><style type="text/css">@font-face { font-family: feedback-iconfont; src: url("//at.alicdn.com/t/font_1031158_u69w8yhxdu.woff2?t=1630033759944") format("woff2"), url("//at.alicdn.com/t/font_1031158_u69w8yhxdu.woff?t=1630033759944") format("woff"), url("//at.alicdn.com/t/font_1031158_u69w8yhxdu.ttf?t=1630033759944") format("truetype"); }
</style></defs><path d="M901.631708 926.720073a48.947163 48.947163 0 0 1-48.639964 48.639963H170.496256a47.564764 47.564764 0 0 1-34.303974-14.335989 48.486364 48.486364 0 0 1-14.335989-34.303974V48.640732a47.564764 47.564764 0 0 1 14.335989-34.303975A47.564764 47.564764 0 0 1 170.496256 0.000768h418.815686a49.663963 49.663963 0 0 1 34.815974 14.335989l263.679802 263.679802a48.742363 48.742363 0 0 1 14.335989 34.815974V926.720073z" fill="#EBECF0" p-id="7375"></path><path d="M901.631708 926.720073v48.639963a47.564764 47.564764 0 0 1-14.335989 34.303975 48.486364 48.486364 0 0 1-34.303975 14.335989H170.496256a48.639964 48.639964 0 0 1-48.639963-48.639964V926.720073a48.947163 48.947163 0 0 0 48.639963 48.639963h682.495488a48.639964 48.639964 0 0 0 48.639964-48.639963z" fill="#C1C7D0" p-id="7376"></path><path d="M24.064366 536.576366h975.359268v243.711817a48.639964 48.639964 0 0 1-48.639963 48.639963H73.216329a47.564764 47.564764 0 0 1-34.303974-14.335989 48.742363 48.742363 0 0 1-14.335989-34.815974v-243.199817z" fill="#FF1D1D" p-id="7377"></path><path d="M121.856293 536.576366V438.784439L24.064366 536.576366z m779.775415 0l1.023999-97.791927 97.279927 97.791927z" fill="#D30000" p-id="7378"></path><path d="M901.631708 312.832533v6.655995h-263.679802a48.639964 48.639964 0 0 1-48.639964-48.639963V0.000768a49.663963 49.663963 0 0 1 34.815974 14.335989l264.191802 263.679802a47.871964 47.871964 0 0 1 13.31199 34.815974z" fill="#C1C7D0" p-id="7379"></path><path d="M276.940976 586.291528h66.55995c41.727969 0 76.083143 14.745589 76.083143 61.439954 0 45.004766-34.867174 64.819151-74.803144 64.819152H322.560142v62.873552h-45.619166z m65.382351 90.572732c22.118383 0 32.767975-10.239992 32.767976-28.979178s-12.185591-25.599981-34.047975-25.599981H322.560142v54.579159zM451.686445 586.291528h54.476759c57.702357 0 95.897528 27.750379 95.897528 93.59353s-38.195171 95.692728-93.38873 95.692728H451.686445z m51.660761 152.627086c30.719977 0 52.121561-13.97759 52.121561-59.033556s-21.606384-57.446357-52.121561-57.446357h-6.092795v116.479913zM637.183906 586.291528h120.831909v37.631972h-75.315143V665.600269H747.519823v37.939171h-64.819151v72.243146h-45.516766z" fill="#FDFEFF" p-id="7380"></path></svg>