<?xml version="1.0" encoding="utf-8"?>
<!-- Generator: Adobe Illustrator 22.1.0, SVG Export Plug-In . SVG Version: 6.00 Build 0)  -->
<svg version="1.1" id="图层_1" xmlns="http://www.w3.org/2000/svg" xmlns:xlink="http://www.w3.org/1999/xlink" x="0px" y="0px"
	 viewBox="0 0 300 57" style="enable-background:new 0 0 300 57;" xml:space="preserve">
<style type="text/css">
	.st0{fill:#01111C;}
	.st1{fill:#EC6C00;}
	.st2{fill:#231815;}
	.st3{fill:none;}
</style>
<g>
	<g>
		<g>
			<rect x="26.3" y="5.2" class="st0" width="22.8" height="5.4"/>
			<rect x="34.8" y="0.7" class="st0" width="5.9" height="9.4"/>
			<rect x="26.3" y="39.4" class="st0" width="22.8" height="5.4"/>
			<rect x="35.1" y="34.9" class="st0" width="5.4" height="21.3"/>
			<g>
				<path class="st0" d="M37.8,37.8c-7.1,0-12.8-5.8-12.8-12.8c0-7.1,5.8-12.8,12.8-12.8c7.1,0,12.8,5.8,12.8,12.8
					C50.6,32.1,44.8,37.8,37.8,37.8z M37.8,17.5c-4.1,0-7.5,3.3-7.5,7.5c0,4.1,3.3,7.5,7.5,7.5c4.1,0,7.5-3.3,7.5-7.5
					C45.2,20.9,41.9,17.5,37.8,17.5z"/>
				<path class="st1" d="M42.1,25c0,2.4-1.9,4.3-4.3,4.3c-2.4,0-4.3-1.9-4.3-4.3c0-2.4,1.9-4.3,4.3-4.3C40.1,20.7,42.1,22.6,42.1,25
					z"/>
			</g>
		</g>
		<g>
			<polygon class="st0" points="55,16.6 52,11.5 70.7,0.5 89.4,11.5 86.4,16.6 70.7,7.4 			"/>
		</g>
		<g>
			<rect x="107.6" y="7.3" class="st0" width="52" height="5.5"/>
			<rect x="130.6" y="2.8" class="st0" width="5.9" height="7.9"/>
		</g>
		<g>
			<path class="st1" d="M133.6,20.9c-2.4,0-4.3,2-4.3,4.4c0,2.4,1.9,4.4,4.3,4.4c2.4,0,4.3-2,4.3-4.4
				C137.9,22.8,136,20.9,133.6,20.9z M133.6,35c-5.4,0-9.7-4.4-9.7-9.7c0-5.4,4.4-9.7,9.7-9.7c5.4,0,9.7,4.4,9.7,9.7
				C143.3,30.6,138.9,35,133.6,35z"/>
		</g>
		<g>
			<polygon class="st0" points="172.4,56.4 166.5,56.4 166.5,29.7 151.5,29.7 151.5,23.8 172.4,23.8 			"/>
			<polygon class="st0" points="100.6,56.2 94.7,56.2 94.7,23.8 115.8,23.8 115.8,29.7 100.6,29.7 			"/>
		</g>
		<g>
			<polygon class="st0" points="68.7,56.2 63.3,56.2 63.3,29.2 55.7,29.2 55.7,23.9 68.7,23.9 			"/>
			<polygon class="st0" points="56.2,52.4 52,50 56.6,42.3 52,34.6 56.2,32.1 62.2,42.3 			"/>
			<polygon class="st0" points="86.8,56.2 81.4,56.2 81.4,29.2 73.8,29.2 73.8,23.9 86.8,23.9 			"/>
			<polygon class="st0" points="74.3,52.4 70.1,50 74.7,42.3 70.1,34.6 74.3,32.1 80.3,42.3 			"/>
		</g>
		<g>
			<path class="st0" d="M133.6,35c-4.1,0-7.5,3.4-7.5,7.5c0,4.1,3.3,7.5,7.5,7.5c4.1,0,7.5-3.4,7.5-7.5C141,38.3,137.7,35,133.6,35z
				 M133.6,55.3c-7.1,0-12.8-5.8-12.8-12.9c0-7.1,5.8-12.9,12.8-12.9c7.1,0,12.8,5.8,12.8,12.9C146.4,49.5,140.7,55.3,133.6,55.3z"
				/>
		</g>
		<path class="st0" d="M8.7,56.1l-6.3-2.8l8.3-14.1L2,25l6.3-2.8l10.4,16.9L8.7,56.1z M15.3,27.2L4,7.9l6.2-3.6l11.3,19.3L15.3,27.2
			z"/>
	</g>
	<g>
		<g>
			<g>
				<rect x="283.3" y="3.1" class="st2" width="3.1" height="3.1"/>
			</g>
			<g>
				<path class="st2" d="M269.6,31.4h-3.1V7c0-0.8,0.9-1.5,1.9-1.5h29.8v2.4H270c-0.2,0-0.4,0.1-0.4,0.3V31.4z"/>
			</g>
			<g>
				<rect x="272.4" y="12.1" class="st2" width="25.8" height="2.4"/>
			</g>
			<g>
				<path class="st2" d="M298.2,21h-23.8c-0.6,0-1.1-0.2-1.4-0.6s-0.3-0.8,0-1.2l7.8-10.9l2.9,1.1l-6.2,8.7
					c-0.1,0.2,0.1,0.4,0.4,0.4h20.4V21z"/>
			</g>
			<g>
				<rect x="284.2" y="14.2" class="st2" width="3.1" height="17.2"/>
			</g>
			<g>
				<rect x="272.8" y="24.1" class="st2" width="25.4" height="2.4"/>
			</g>
		</g>
		<g>
			<line class="st3" x1="181.7" y1="16" x2="181.7" y2="15.9"/>
		</g>
		<g>
			<g>
				<rect x="184" y="4.6" class="st2" width="3.1" height="3.2"/>
			</g>
			<g>
				<rect x="194.8" y="4.4" class="st2" width="3.1" height="3.5"/>
			</g>
			<g>
				<path class="st2" d="M192,15.7l-3.1,0c-0.1-12.3,0-12.4,0-12.6l3,0"/>
			</g>
			<g>
				<rect x="182.4" y="7.2" class="st2" width="17.6" height="2.4"/>
			</g>
			<g>
				<path class="st2" d="M184.1,31.5l-1.7-2.1l13.7-6.5c0.1-0.1,0.2-0.2,0.2-0.3v-2.8c0-0.2-0.2-0.3-0.4-0.3h-13.4v-2.5h15.8
					c0.7,0,1.2,0.4,1.2,0.9v5.6c0,0.3-0.2,0.6-0.5,0.8L184.1,31.5z"/>
			</g>
			<g>
				<polygon class="st2" points="198.2,31.5 184.6,24.1 185.4,15.7 188.5,15.9 187.8,23 200,29.6 				"/>
			</g>
			<g>
				<path class="st2" d="M202.5,31.4L200,30l13.6-15.1c0-0.1,0.1-0.1,0.1-0.2v-4.7c0-0.2-0.2-0.3-0.4-0.3h-12.6V3.2h3.1v4.2h11.8
					c0.6,0,1.1,0.4,1.1,0.9v7.1c0,0.2-0.1,0.4-0.2,0.5L202.5,31.4z"/>
			</g>
			<g>
				<polygon class="st2" points="214.4,31.3 201,16.3 201,10.3 204,10.3 204,15.5 216.9,29.9 				"/>
			</g>
			<g>
				<polygon class="st2" points="184,15.5 182.2,13.7 186.9,10.5 188.7,10.5 188.7,12.9 187.9,12.9 				"/>
			</g>
			<g>
				<polygon class="st2" points="197,15.5 198.7,13.7 194,10.5 192.2,10.5 192.2,12.9 193.1,12.9 				"/>
			</g>
		</g>
		<g>
			<g>
				<path class="st2" d="M229.5,31.4h-5V29h3.4V3.7h3.1v26.5C231.1,30.9,230.4,31.4,229.5,31.4z"/>
			</g>
			<path class="st2" d="M257.2,3.4H237c-0.8,0-1.5,0.6-1.5,1.2v0.1v6.9v19.7h3.1V12.9h18.6c0.8,0,1.5-0.6,1.5-1.2v-7
				C258.7,4,258,3.4,257.2,3.4z M255.3,10.5h-16.3c-0.2,0-0.4-0.1-0.4-0.3v-4c0-0.2,0.2-0.3,0.4-0.3h16.3c0.2,0,0.4,0.1,0.4,0.3v4
				C255.6,10.3,255.5,10.5,255.3,10.5z"/>
			<g>
				<rect x="239.9" y="15.3" class="st2" width="18.7" height="2.5"/>
			</g>
			<g>
				<rect x="247.3" y="12.7" class="st2" width="3.1" height="8.1"/>
			</g>
			<g>
				<path class="st2" d="M257.1,31.4h-15.9c-0.8,0-1.5-0.6-1.5-1.2v-8.8c0-0.7,0.7-1.2,1.5-1.2h15.9c0.8,0,1.5,0.6,1.5,1.2v8.8
					C258.6,30.9,257.9,31.4,257.1,31.4z M243.1,28.9h12.1c0.2,0,0.4-0.1,0.4-0.3v-5.7c0-0.2-0.2-0.3-0.4-0.3h-12.1
					c-0.2,0-0.4,0.1-0.4,0.3v5.7C242.7,28.8,242.9,28.9,243.1,28.9z"/>
			</g>
			<g>
				<rect x="224.5" y="8.5" class="st2" width="10.2" height="2.5"/>
			</g>
			<g>
				<polygon class="st2" points="225.9,21.2 224.4,19.1 233.2,14.7 234.8,16.8 				"/>
			</g>
		</g>
	</g>
	<g>
		<path class="st2" d="M190.6,40.9h-4.8v3.2h-1.6v-8h1.6v3.2h4.8v-3.2h1.6v8h-1.6V40.9z"/>
		<path class="st2" d="M200.2,36.1h1.6v8h-1.6V36.1z"/>
		<path class="st2" d="M209.8,36.1h8v1.6h-6.4v4.8h4.8v-1.6h-3.2v-1.6h4.8v4.8h-8V36.1z"/>
		<path class="st2" d="M231.7,40.9h-4.8v3.2h-1.6v-8h1.6v3.2h4.8v-3.2h1.6v8h-1.6V40.9z"/>
		<path class="st2" d="M241.3,36.1h8v1.6H243v4.8h4.8v-1.6h-3.2v-1.6h4.8v4.8h-8V36.1z"/>
		<path class="st2" d="M257.4,36.1h8v8h-8V36.1z M259,42.5h4.8v-4.8H259V42.5z"/>
		<path class="st2" d="M184.1,48.4h6.4V50h1.6v4.8h-1.6V50h-4.8v4.8h4.8v1.6h-6.4V48.4z"/>
		<path class="st2" d="M203.6,53.2h-4.8v3.2h-1.6v-8h8v8h-1.6V53.2z M198.8,51.6h4.8V50h-4.8V51.6z"/>
		<path class="st2" d="M209.9,48.4h8V50h-3.2v6.4h-1.6V50h-3.2V48.4z"/>
		<path class="st2" d="M231.7,53.2h-4.8v3.2h-1.6v-8h8v8h-1.6V53.2z M226.9,51.6h4.8V50h-4.8V51.6z"/>
		<path class="st2" d="M247.8,53.2h1.6v3.2h-8v-8h8v3.2h-1.6V53.2z M247.8,50H243v1.6h4.8V50z M243,53.2v1.6h4.8v-1.6H243z"/>
		<path class="st2" d="M263.9,53.2h-4.8v3.2h-1.6v-8h8v8h-1.6V53.2z M259.1,51.6h4.8V50h-4.8V51.6z"/>
		<path class="st2" d="M273.6,48.4h8V50h-6.4v1.6h6.4v4.8h-8v-1.6h6.4v-1.6h-6.4V48.4z"/>
		<path class="st2" d="M289.7,48.4h8V50h-6.4v1.6h3.2v1.6h-3.2v1.6h6.4v1.6h-8V48.4z"/>
	</g>
</g>
</svg>
