<?xml version="1.0" standalone="no"?><!DOCTYPE svg PUBLIC "-//W3C//DTD SVG 1.1//EN" "http://www.w3.org/Graphics/SVG/1.1/DTD/svg11.dtd"><svg t="1660655934321" class="icon" viewBox="0 0 1843 1024" version="1.1" xmlns="http://www.w3.org/2000/svg" p-id="3091" width="115.1875" height="64" xmlns:xlink="http://www.w3.org/1999/xlink"><defs><style type="text/css">@font-face { font-family: feedback-iconfont; src: url("//at.alicdn.com/t/font_1031158_u69w8yhxdu.woff2?t=1630033759944") format("woff2"), url("//at.alicdn.com/t/font_1031158_u69w8yhxdu.woff?t=1630033759944") format("woff"), url("//at.alicdn.com/t/font_1031158_u69w8yhxdu.ttf?t=1630033759944") format("truetype"); }
</style></defs><path d="M396.525568 303.53408h205.041664v28.8768H396.525568v-28.8768z" fill="#0064B4" p-id="3092"></path><path d="M851.324928 303.53408h7.610368l7.192576 1.14688 7.192576 1.355776 7.294976 1.560576 7.294976 2.400256 6.672384 2.711552 6.672384 3.231744 6.774784 3.54304 6.144 4.272128 5.943296 4.272128 4.58752 4.378624h-293.74464v-28.8768z" fill="#0064B4" p-id="3093"></path><path d="M982.462464 303.53408h166.682624l10.215424 28.8768h-176.898048v-28.8768z" fill="#0064B4" p-id="3094"></path><path d="M1284.661248 303.53408h165.117952v28.8768h-175.333376l10.215424-28.8768z" fill="#0064B4" p-id="3095"></path><path d="M396.525568 359.714816h205.041664v28.459008H396.525568v-28.459008z" fill="#0064B4" p-id="3096"></path><path d="M455.10656 415.383552h87.6544v29.0816h-87.6544v-29.0816z" fill="#0064B4" p-id="3097"></path><path d="M455.10656 471.257088h87.6544v29.0816h-87.6544v-29.0816z" fill="#0064B4" p-id="3098"></path><path d="M945.455104 359.714816l1.564672 2.711552 3.231744 6.774784 2.711552 7.503872 3.44064 11.4688h-325.443584v-28.459008z" fill="#0064B4" p-id="3099"></path><path d="M689.545216 415.383552h87.576576v29.0816h-87.576576v-29.0816z" fill="#0064B4" p-id="3100"></path><path d="M959.115264 415.383552l-0.208896 4.58752-0.8192 7.503872-1.14688 7.294976-1.773568 7.192576-0.8192 2.502656h-89.051136v-29.0816z" fill="#0064B4" p-id="3101"></path><path d="M941.912064 471.257088l-2.711552 4.067328-4.58752 5.943296-4.796416 5.627904-5.107712 5.3248-5.627904 4.9152-4.9152 3.231744h-224.620544v-29.0816z" fill="#0064B4" p-id="3102"></path><path d="M982.462464 359.714816h186.277888l10.215424 28.459008h-196.493312v-28.459008z" fill="#0064B4" p-id="3103"></path><path d="M1449.7792 359.714816v28.459008h-194.72384l9.904128-28.459008z" fill="#0064B4" p-id="3104"></path><path d="M1041.154048 415.383552h146.980864l10.215424 29.0816h-157.196288v-29.0816z" fill="#0064B4" p-id="3105"></path><path d="M1392.652288 415.383552v29.0816h-157.2864l10.006528-29.0816z" fill="#0064B4" p-id="3106"></path><path d="M1138.204672 500.338688h157.720576l8.859648-25.849856v25.849856h87.875584v-29.0816h-166.580224l-9.17504 25.853952-9.17504-25.853952h-166.576128v29.0816h87.875584v-26.058752l9.17504 26.058752z" fill="#0064B4" p-id="3107"></path><path d="M396.525568 695.27552h205.041664v29.290496H396.525568v-29.290496z" fill="#0064B4" p-id="3108"></path><path d="M396.525568 638.984192h205.041664v29.290496H396.525568v-29.290496z" fill="#0064B4" p-id="3109"></path><path d="M455.10656 527.446016h87.6544v28.770304h-87.6544v-28.770304z" fill="#0064B4" p-id="3110"></path><path d="M455.10656 583.319552h87.6544v29.0816h-87.6544v-29.0816z" fill="#0064B4" p-id="3111"></path><path d="M914.18624 527.446016l4.9152 3.54304 5.627904 4.796416 5.107712 5.419008 4.796416 5.627904 4.58752 5.943296 2.711552 3.44064h-252.387328v-28.770304z" fill="#0064B4" p-id="3112"></path><path d="M689.545216 583.319552h87.576576v29.0816h-87.576576v-29.0816z" fill="#0064B4" p-id="3113"></path><path d="M954.318848 583.319552l0.8192 2.813952 1.773568 7.192576 1.14688 7.192576 0.8192 7.503872 0.208896 4.378624h-93.7984v-29.0816z" fill="#0064B4" p-id="3114"></path><path d="M956.403712 638.984192l-1.24928 5.943296-2.187264 6.98368-2.711552 6.98368-3.231744 6.774784-1.564672 2.605056h-314.499072v-29.290496z" fill="#0064B4" p-id="3115"></path><path d="M924.71296 695.27552l-5.627904 4.68992-5.943296 4.58752-6.144 4.063232-6.672384 3.547136-6.774784 3.231744-6.672384 2.605056-7.294976 2.502656-7.294976 1.564672-6.98368 1.355776-7.503872 0.8192-7.503872 0.311296h-219.336704v-29.290496z" fill="#0064B4" p-id="3116"></path><path d="M1041.154048 527.446016h87.875584v28.770304h-87.875584v-28.770304z" fill="#0064B4" p-id="3117"></path><path d="M1276.321792 556.21632h-119.148544l-9.904128-28.770304h139.1616l-10.113024 28.770304z" fill="#0064B4" p-id="3118"></path><path d="M1304.776704 527.446016h87.875584v28.770304h-87.875584v-28.770304z" fill="#0064B4" p-id="3119"></path><path d="M1041.154048 583.319552h87.875584v29.0816h-87.875584v-29.0816z" fill="#0064B4" p-id="3120"></path><path d="M1267.458048 583.319552l-10.006528 29.0816h-81.1008l-10.006528-29.0816z" fill="#0064B4" p-id="3121"></path><path d="M1304.776704 583.319552h87.875584v29.0816h-87.875584v-29.0816z" fill="#0064B4" p-id="3122"></path><path d="M982.462464 638.984192h146.563072v29.290496h-146.563072v-29.290496z" fill="#0064B4" p-id="3123"></path><path d="M1248.280576 638.984192l-9.904128 29.290496h-42.94656l-10.006528-29.290496z" fill="#0064B4" p-id="3124"></path><path d="M1304.776704 638.984192h144.9984v29.290496h-144.9984v-29.290496z" fill="#0064B4" p-id="3125"></path><path d="M982.462464 695.27552h146.563072v29.290496h-146.563072v-29.290496z" fill="#0064B4" p-id="3126"></path><path d="M1304.776704 695.27552h144.9984v29.290496h-144.9984v-29.290496z" fill="#0064B4" p-id="3127"></path><path d="M1218.99008 724.566016l10.006528-29.290496h-24.1664l9.900032 29.290496z" fill="#0064B4" p-id="3128"></path></svg>