<?xml version="1.0" standalone="no"?><!DOCTYPE svg PUBLIC "-//W3C//DTD SVG 1.1//EN" "http://www.w3.org/Graphics/SVG/1.1/DTD/svg11.dtd"><svg t="1659163672203" class="icon" viewBox="0 0 1024 1024" version="1.1" xmlns="http://www.w3.org/2000/svg" p-id="12699" width="32" height="32" xmlns:xlink="http://www.w3.org/1999/xlink"><defs><style type="text/css">@font-face { font-family: feedback-iconfont; src: url("//at.alicdn.com/t/font_1031158_u69w8yhxdu.woff2?t=1630033759944") format("woff2"), url("//at.alicdn.com/t/font_1031158_u69w8yhxdu.woff?t=1630033759944") format("woff"), url("//at.alicdn.com/t/font_1031158_u69w8yhxdu.ttf?t=1630033759944") format("truetype"); }
</style></defs><path d="M747.52 302.08l-465.92-1.024C182.272 358.4 103.424 450.56 58.368 563.2 18.432 660.48 9.216 771.072 30.72 891.904 41.984 956.416 98.304 1003.52 163.84 1003.52h701.44c65.536 0 121.856-47.104 133.12-111.616 21.504-121.856 12.288-231.424-27.648-329.728C925.696 450.56 846.848 358.4 747.52 302.08z" fill="#FFC440" p-id="12700"></path><path d="M756.736 70.656l-107.52 5.12c-33.792-38.912-82.944-61.44-135.168-61.44-51.2 0-101.376 22.528-135.168 61.44l-106.496-5.12c-25.6-1.024-49.152 8.192-67.584 25.6-35.84 34.816-35.84 92.16-1.024 126.976l76.8 77.824H747.52l76.8-77.824c17.408-17.408 26.624-41.984 25.6-67.584-2.048-49.152-44.032-88.064-93.184-84.992z" fill="#F4B22F" p-id="12701"></path><path d="M455.68 579.584H573.44l38.912-66.56c7.168-12.288 3.072-28.672-9.216-35.84-12.288-7.168-28.672-3.072-35.84 9.216l-52.224 89.088-52.224-89.088c-7.168-12.288-23.552-16.384-35.84-9.216-12.288 7.168-17.408 23.552-10.24 35.84l38.912 66.56z" fill="#FFFFFF" p-id="12702"></path><path d="M569.344 573.44h41.984c14.336 0 26.624 11.264 26.624 26.624 0 14.336-11.264 26.624-26.624 26.624h-69.632v52.224h69.632c14.336 0 26.624 11.264 26.624 26.624 0 14.336-11.264 26.624-26.624 26.624h-69.632v78.848c0 14.336-11.264 26.624-26.624 26.624-14.336 0-26.624-11.264-26.624-26.624v-78.848h-69.632c-14.336 0-26.624-11.264-26.624-26.624 0-14.336 11.264-26.624 26.624-26.624h69.632v-52.224h-69.632c-14.336 0-26.624-11.264-26.624-26.624 0-14.336 11.264-26.624 26.624-26.624h150.528z" fill="#FCFCF2" p-id="12703"></path></svg>