<?xml version="1.0" standalone="no"?><!DOCTYPE svg PUBLIC "-//W3C//DTD SVG 1.1//EN" "http://www.w3.org/Graphics/SVG/1.1/DTD/svg11.dtd"><svg t="1658740110896" class="icon" viewBox="0 0 1024 1024" version="1.1" xmlns="http://www.w3.org/2000/svg" p-id="3557" width="64" height="64" xmlns:xlink="http://www.w3.org/1999/xlink"><defs><style type="text/css">@font-face { font-family: feedback-iconfont; src: url("//at.alicdn.com/t/font_1031158_u69w8yhxdu.woff2?t=1630033759944") format("woff2"), url("//at.alicdn.com/t/font_1031158_u69w8yhxdu.woff?t=1630033759944") format("woff"), url("//at.alicdn.com/t/font_1031158_u69w8yhxdu.ttf?t=1630033759944") format("truetype"); }
</style></defs><path d="M409.6 624.64v102.4h-61.44c-20.48 0-20.48-10.24-20.48-15.36v-87.04h-40.96v89.6c0 17.92 23.04 33.28 58.88 33.28H409.6v2.56c0 2.56 2.56 15.36-20.48 20.48h-102.4v20.48h107.52c17.92 0 56.32-5.12 56.32-35.84v-128H409.6z m-161.28-58.88c-28.16-10.24-48.64-2.56-58.88 17.92L133.12 716.8 76.8 583.68c-7.68-15.36-20.48-23.04-38.4-23.04-7.68 2.56-12.8 2.56-20.48 5.12-12.8 2.56-17.92 10.24-17.92 25.6v153.6h40.96v-151.04l56.32 128c7.68 15.36 15.36 23.04 35.84 23.04s28.16-5.12 35.84-23.04l56.32-125.44v148.48h40.96v-153.6c0-12.8-5.12-20.48-17.92-25.6z" fill="#017590" p-id="3558"></path><path d="M471.04 604.16v25.6c0 17.92 15.36 33.28 51.2 35.84h53.76c23.04 0 20.48 17.92 20.48 20.48v20.48c0 10.24-7.68 20.48-17.92 20.48h-104.96v20.48h102.4c12.8 0 25.6-2.56 35.84-7.68 17.92-7.68 23.04-17.92 23.04-33.28v-28.16c0-30.72-38.4-33.28-61.44-33.28h-40.96c-15.36 0-17.92-10.24-20.48-20.48v-20.48c2.56-7.68 5.12-20.48 20.48-20.48h102.4V563.2H537.6c-15.36 0-66.56 2.56-66.56 40.96z m368.64 102.4v-102.4c0-20.48-15.36-35.84-43.52-40.96h-99.84c-30.72 5.12-40.96 20.48-40.96 40.96v102.4c0 20.48 10.24 33.28 33.28 38.4 7.68 2.56 12.8 2.56 20.48 2.56h71.68l23.04 20.48h46.08L819.2 739.84c15.36-7.68 20.48-17.92 20.48-33.28z m-43.52 10.24l-10.24-10.24h-46.08l23.04 20.48h-40.96c-12.8 0-23.04-7.68-23.04-20.48v-99.84c0-12.8 10.24-23.04 23.04-23.04h53.76c12.8 0 23.04 7.68 25.6 20.48v102.4c-2.56 2.56-2.56 7.68-5.12 10.24z m133.12 10.24c-20.48 0-28.16-7.68-28.16-20.48V563.2h-40.96v143.36c0 25.6 15.36 38.4 51.2 40.96H1024v-20.48h-94.72z" fill="#F49214" p-id="3559"></path><path d="M706.56 302.08c-5.12 0-7.68 0-10.24 2.56 2.56 5.12 5.12 7.68 7.68 10.24l5.12 12.8c5.12-2.56 5.12-7.68 5.12-12.8-2.56-2.56-2.56-2.56-2.56-5.12s-2.56-5.12-5.12-7.68z" fill="#017590" p-id="3560"></path><path d="M893.44 486.4c5.12 5.12 20.48 7.68 28.16 12.8 5.12 2.56 12.8 5.12 17.92 7.68 10.24 5.12 17.92 12.8 28.16 17.92 7.68 7.68 17.92 10.24 17.92 15.36-23.04 0-38.4 2.56-53.76 7.68-5.12 2.56-10.24 2.56-10.24 7.68 0 5.12 2.56 5.12 5.12 7.68 2.56 5.12 7.68 12.8 15.36 17.92 5.12 5.12 10.24 7.68 17.92 12.8 5.12 2.56 23.04 10.24 33.28 17.92s12.8 7.68 17.92 12.8l7.68 7.68c-2.56-2.56-2.56-5.12-5.12-7.68l-7.68-7.68c-7.68-10.24-17.92-20.48-28.16-28.16-7.68-5.12-28.16-15.36-30.72-23.04 5.12 0 12.8-2.56 17.92-5.12 10.24-2.56 17.92-2.56 28.16-5.12l12.8-2.56v-2.56c-5.12-5.12-7.68-10.24-12.8-15.36-15.36-12.8-28.16-23.04-46.08-33.28-7.68-5.12-20.48-10.24-28.16-12.8-10.24-5.12-7.68-2.56-10.24-5.12-5.12-7.68-7.68-12.8-10.24-20.48-7.68-15.36-15.36-30.72-23.04-48.64-5.12-10.24-7.68-20.48-12.8-30.72-28.16-46.08-58.88-74.24-107.52-102.4-10.24-5.12-23.04-7.68-35.84-10.24l-20.48-2.56c-5.12-2.56-7.68-5.12-12.8-10.24-10.24-5.12-28.16-17.92-46.08-17.92-10.24 0-17.92 5.12-23.04 15.36-7.68 17.92 10.24 35.84 17.92 43.52 5.12 7.68 10.24 12.8 12.8 20.48 2.56 5.12 2.56 10.24 5.12 15.36 5.12 12.8 10.24 25.6 17.92 38.4 2.56 5.12 5.12 12.8 10.24 17.92 2.56 2.56 7.68 5.12 7.68 10.24s-5.12 12.8-7.68 20.48c-10.24 30.72-5.12 69.12 7.68 92.16 5.12 7.68 15.36 23.04 28.16 15.36 15.36-5.12 10.24-20.48 12.8-33.28 0-2.56 0-5.12 2.56-7.68l10.24 23.04c10.24 15.36 23.04 25.6 35.84 35.84 7.68 5.12 10.24 12.8 20.48 15.36-2.56-2.56-5.12-2.56-7.68-5.12l-15.36-15.36c-12.8-15.36-23.04-33.28-30.72-51.2-5.12-7.68-7.68-17.92-12.8-25.6s-2.56-7.68-5.12-10.24c-5.12 7.68-10.24 10.24-12.8 17.92-2.56 7.68-5.12 25.6-7.68 40.96h-2.56c-7.68-2.56-12.8-10.24-15.36-17.92-7.68-23.04-10.24-48.64-2.56-74.24 2.56-5.12 10.24-23.04 7.68-28.16s-7.68-7.68-10.24-12.8c-5.12-5.12-7.68-10.24-10.24-17.92-7.68-15.36-12.8-33.28-20.48-48.64-5.12-7.68-7.68-15.36-12.8-20.48-5.12-7.68-10.24-12.8-15.36-20.48-5.12-7.68-2.56-7.68-2.56-10.24 0-2.56 2.56-2.56 2.56-2.56 2.56-2.56 12.8 0 17.92 2.56 10.24 2.56 17.92 7.68 28.16 12.8 5.12 2.56 7.68 7.68 12.8 10.24h5.12c7.68 2.56 17.92 0 28.16 2.56 12.8 5.12 28.16 10.24 38.4 17.92 35.84 23.04 66.56 53.76 87.04 92.16 2.56 7.68 5.12 12.8 7.68 17.92s12.8 28.16 17.92 40.96c10.24 5.12 17.92 17.92 25.6 28.16z" fill="#017590" p-id="3561"></path></svg>