<?xml version="1.0" standalone="no"?><!DOCTYPE svg PUBLIC "-//W3C//DTD SVG 1.1//EN" "http://www.w3.org/Graphics/SVG/1.1/DTD/svg11.dtd"><svg t="1657866360204" class="icon" viewBox="0 0 1024 1024" version="1.1" xmlns="http://www.w3.org/2000/svg" p-id="3814" width="32" height="32" xmlns:xlink="http://www.w3.org/1999/xlink"><defs><style type="text/css">@font-face { font-family: feedback-iconfont; src: url("//at.alicdn.com/t/font_1031158_u69w8yhxdu.woff2?t=1630033759944") format("woff2"), url("//at.alicdn.com/t/font_1031158_u69w8yhxdu.woff?t=1630033759944") format("woff"), url("//at.alicdn.com/t/font_1031158_u69w8yhxdu.ttf?t=1630033759944") format("truetype"); }
</style></defs><path d="M128 96h768a32 32 0 0 1 32 32v768a32 32 0 0 1-32 32H128a32 32 0 0 1-32-32V128a32 32 0 0 1 32-32z" fill="#FFFFFF" p-id="3815"></path><path d="M128 128v768h768V128H128z m0-32h768a32 32 0 0 1 32 32v768a32 32 0 0 1-32 32H128a32 32 0 0 1-32-32V128a32 32 0 0 1 32-32z m0 192h768v32H128V288z" fill="#5D6D7E" p-id="3816"></path><path d="M224 384h96v96H224v-96z m320 0h96v96h-96v-96zM224 544h96v96H224v-96z m320 0h96v96h-96v-96zM224 704h96v96H224v-96z m320 0h96v96h-96v-96z" fill="#C49F74" p-id="3817"></path><path d="M352 416h128v32h-128v-32z m0 160h128v32h-128v-32z m0 160h128v32h-128v-32z m320-320h128v32h-128v-32z m0 160h128v32h-128v-32z m0 160h128v32h-128v-32z" fill="#979797" p-id="3818"></path></svg>