<?xml version="1.0" standalone="no"?>
<!DOCTYPE svg PUBLIC "-//W3C//DTD SVG 1.1//EN" "http://www.w3.org/Graphics/SVG/1.1/DTD/svg11.dtd">
<svg t="1658303696471" class="icon" viewBox="0 0 1024 1024" version="1.1"
    xmlns="http://www.w3.org/2000/svg" p-id="7374" width="32" height="32"
    xmlns:xlink="http://www.w3.org/1999/xlink">
   <path d="M924.864 720.128c-47.744 24.96-295.424 126.848-348.8 154.88-53.376 27.904-81.92 27.136-123.712 7.168-41.728-19.968-304.448-126.784-352-149.568-24.064-11.264-36.288-20.864-36.288-29.824V612.032s343.168-74.432 398.592-94.528c55.36-20.096 74.56-20.544 121.6-3.328 47.04 17.28 329.152 68.224 375.744 85.12v89.344c0 9.28-10.688 18.304-35.136 31.36v0.064z" fill="#A32422"></path>
        <path d="M924.864 629.952c-47.744 24.832-295.488 126.72-348.8 154.24-53.376 27.456-81.92 27.2-123.712 7.296-41.728-19.84-304.448-126.72-352.064-149.312-47.616-22.592-48.512-38.4-1.856-56.64 46.72-18.24 308.8-120.832 364.16-141.056 55.424-20.16 74.56-20.608 121.6-3.264 47.104 17.28 293.76 115.264 340.16 132.352 46.272 17.088 48.448 31.104 0.512 55.872v0.512z" fill="#DC382C"></path>
        <path d="M924.864 572.544c-47.744 24.896-295.424 126.72-348.8 154.24-53.376 27.456-81.728 27.2-123.456 7.168-41.728-20.032-304.704-126.272-352.32-148.928-24-11.392-36.224-20.928-36.224-30.016V464.704S407.232 389.952 462.656 369.92c55.36-20.096 74.56-20.672 121.6-3.2 47.04 17.536 329.152 67.968 375.744 84.992v89.344c0 9.28-10.688 18.56-35.136 31.488z" fill="#A32422"></path>
        <path d="M924.864 481.92c-47.744 24.96-295.424 126.72-348.8 154.24-53.376 27.52-81.92 27.328-123.712 7.36-41.728-19.968-304.448-126.4-352.064-149.12-47.616-22.784-48.448-38.272-1.856-56.512 46.656-18.24 308.8-121.088 364.16-140.8 55.424-19.584 74.56-20.8 121.6-3.776 47.104 17.088 293.76 115.904 340.16 132.48 46.272 16.64 48.448 31.168 0.512 55.936v0.128z" fill="#DC382C"></path>
        <path d="M924.864 419.328c-47.744 24.96-295.424 126.848-348.8 154.24-53.376 27.52-81.728 27.264-123.456 7.424-41.728-19.904-304.704-126.464-352.32-149.12-24-11.328-36.224-20.928-36.224-29.952V311.232S407.232 236.8 462.656 216.768c55.36-20.032 74.56-20.608 121.6-3.392 47.04 17.28 329.024 68.224 375.68 85.248v89.344c0.064 9.408-10.624 18.56-35.072 31.36z" fill="#A32422"></path>
        <path d="M924.864 328.832c-47.744 24.448-295.488 126.976-348.8 154.24-53.376 27.2-81.92 27.136-123.712 7.296-41.728-19.84-304.448-126.464-352.064-149.12-47.616-22.656-48.512-38.4-1.856-56.576 46.72-18.24 308.8-121.088 364.16-141.056 55.424-19.904 74.56-20.48 121.6-3.264 47.104 17.28 293.76 115.328 340.16 132.352 46.272 17.024 48.448 31.168 0.512 55.936v0.192z" fill="#DC382C"></path>
        <path d="M526.08 200.128l59.136-19.392-16 38.336 60.16 22.464-77.568 8.128-17.408 41.856-28.032-46.72L416.64 236.8l66.944-24.128-20.16-37.12 62.592 24.64zM529.856 444.48l-144.96-60.16 207.616-31.872-62.72 92.032zM328.96 264.832c61.184 0 110.912 19.264 110.912 42.88 0 23.488-49.92 42.752-110.976 42.752s-110.976-19.2-110.976-42.816c0-23.552 49.728-42.88 110.976-42.88z" fill="#FFFFFF"></path>
        <path d="M721.216 252.992l122.816 48.512-122.688 48.576-0.128-97.088z" fill="#741113"></path>
        <path d="M721.216 252.992l0.128 97.088-13.376 5.184-122.752-48.512 136-53.76z" fill="#AC2724"></path>
    
</svg>