<?xml version="1.0" standalone="no"?><!DOCTYPE svg PUBLIC "-//W3C//DTD SVG 1.1//EN" "http://www.w3.org/Graphics/SVG/1.1/DTD/svg11.dtd"><svg t="1701147451871" class="icon" viewBox="0 0 1024 1024" version="1.1" xmlns="http://www.w3.org/2000/svg" p-id="14004" width="32" height="32" xmlns:xlink="http://www.w3.org/1999/xlink"><path d="M923.424 446.656l-113.376-113.408-58.048 58.048V128a16 16 0 0 0-16-16H128a16 16 0 0 0-16 16v768a16 16 0 0 0 16 16h608a16 16 0 0 0 16-16v-269.888l171.424-179.456z" fill="#FFFFFF" p-id="14005"></path><path d="M768 385.632l-32 31.872V128H128v768h608v-243.488l32-40.064V896a32 32 0 0 1-32 32H128a32 32 0 0 1-32-32V128a32 32 0 0 1 32-32h608a32 32 0 0 1 32 32v257.632z" fill="#5D6D7E" p-id="14006"></path><path d="M737.536 428.384L480 685.92V768h114.304l14.848-15.552-87.776-87.776 22.624-22.656 35.68 35.68 204.576-204.576-46.72-44.736z m22.624-22.624l94.112 90.112 46.784-48.96-91.008-91.04-49.888 49.888z m72 113.248l-24.8-23.744-205.056 205.056 28.96 28.992 200.928-210.304z m-22.112-208.384l135.744 135.776L608 800h-160v-127.36L810.048 310.656z" fill="#C49F74" p-id="14007"></path><path d="M224 256h416v32H224V256z m0 128h416v32H224v-32z m0 128h288v32H224v-32z m0 256h160v32H224v-32z" fill="#979797" p-id="14008"></path></svg>