<?xml version="1.0" standalone="no"?><!DOCTYPE svg PUBLIC "-//W3C//DTD SVG 1.1//EN" "http://www.w3.org/Graphics/SVG/1.1/DTD/svg11.dtd"><svg t="1658740099803" class="icon" viewBox="0 0 1024 1024" version="1.1" xmlns="http://www.w3.org/2000/svg" p-id="3313" width="64" height="64" xmlns:xlink="http://www.w3.org/1999/xlink"><defs><style type="text/css">@font-face { font-family: feedback-iconfont; src: url("//at.alicdn.com/t/font_1031158_u69w8yhxdu.woff2?t=1630033759944") format("woff2"), url("//at.alicdn.com/t/font_1031158_u69w8yhxdu.woff?t=1630033759944") format("woff"), url("//at.alicdn.com/t/font_1031158_u69w8yhxdu.ttf?t=1630033759944") format("truetype"); }
</style></defs><path d="M632.96 402.048l-79.104 25.856-68.864 30.336-19.2 5.12c-4.864 4.608-9.984 9.344-15.616 14.208-6.144 5.248-11.776 10.112-16.128 13.568-4.864 3.84-12.032 11.008-15.616 15.488-5.504 6.784-9.728 14.08-11.648 19.584-3.328 10.112-1.664 20.224 4.608 29.568 8.192 11.904 24.32 24.192 43.264 32.512 9.6 4.224 25.856 9.728 38.016 12.8 20.224 5.12 59.52 10.752 81.152 11.52 4.352 0.128 10.24 0.128 10.496 0 0.512-0.256 3.84-6.656 7.68-14.592 13.312-27.136 22.784-52.48 28.032-74.24 3.072-13.184 5.504-30.72 7.168-51.456 0.384-5.76 0.64-25.216 0.256-31.872-0.512-10.752-1.536-19.456-2.944-28.032-0.256-1.28-0.256-2.432-0.128-2.432 0.256-0.128 0.896-0.384 10.752-3.2l-2.176-4.736z m-18.048 10.624c0.768 0 2.688 18.304 3.072 29.952 0.128 2.432 0 4.096 0 4.096-0.512 0-10.112-5.632-17.024-9.984-6.016-3.712-17.408-11.264-19.2-12.8-0.64-0.384-0.512-0.512 4.352-2.176 8.448-2.816 28.16-9.088 28.8-9.088z m-40.32 13.184c0.512 0 1.92 0.768 5.248 2.816 12.288 7.68 29.056 17.024 36.224 20.096 2.176 0.896 2.432 0.64-2.688 4.096-10.88 7.424-24.448 14.72-41.088 22.016-2.944 1.28-5.376 2.304-5.504 2.304-0.128 0 0.256-1.536 0.768-3.328 3.968-14.848 6.272-29.952 6.4-41.984 0.128-5.888 0.128-5.888 0.64-6.016-0.128 0 0 0 0 0z m-8.32 3.2c0.384 0.384 0.128 13.696-0.384 17.408-1.024 8.704-2.688 16.896-5.504 25.984-0.64 2.176-1.28 4.096-1.408 4.224-0.256 0.256-8.448-7.68-11.136-10.88-4.608-5.376-8.32-10.752-11.008-16-1.408-2.688-3.584-7.936-3.328-8.192 1.024-0.512 32.64-12.8 32.768-12.544z m-39.04 15.36c0.256 0.128 0.64 1.024 1.024 2.176 1.92 5.248 6.272 12.8 9.984 17.792 4.096 5.376 9.344 11.136 13.824 14.848 1.408 1.152 2.688 2.304 2.944 2.56 0.384 0.384 0.512 0.256-9.216 3.968-11.264 4.352-23.68 8.576-37.76 13.184-3.328 1.024-6.784 2.176-10.112 3.328-0.512 0.128-0.384-0.128 1.152-2.56 7.04-11.008 17.664-32.384 23.68-47.616 1.024-2.688 2.048-5.248 2.176-5.888 0.256-0.896 0.512-1.152 1.28-1.536a3.968 3.968 0 0 1 1.024-0.256z m-12.032 4.992c0.128 0.128-2.816 6.528-5.888 12.416-5.76 11.264-12.16 22.4-20.608 35.968-1.408 2.304-2.816 4.48-2.944 4.736-0.256 0.384-0.384 0.256-1.408-1.536-2.048-3.968-3.712-9.088-4.608-13.824-0.896-4.608-0.768-12.8 0.256-17.792 0.768-3.712 0.768-3.712 2.56-4.608 7.68-3.968 32.512-15.616 32.64-15.36z m103.168 4.224v2.56c0 13.312-1.408 31.616-3.584 44.928-0.384 2.304-0.64 4.224-0.768 4.352 0 0-1.792-0.512-3.712-1.024-8.96-2.816-18.688-6.912-27.52-11.776-5.76-3.2-14.208-8.32-13.952-8.576 0 0 2.56-1.408 5.504-2.944 11.776-6.144 22.912-12.672 32.768-19.2 3.712-2.432 9.088-6.4 10.368-7.424l0.896-0.896z m-148.224 17.664c0.256 0 0.128 0.512-0.128 2.688-0.256 1.536-0.512 4.48-0.64 6.4-0.512 8.704 0.896 15.232 5.248 24.064 1.152 2.432 2.176 4.48 2.048 4.608-0.384 0.384-40.064 11.904-52.48 15.36-3.712 1.024-6.912 1.92-7.168 1.92-0.384 0.128-0.512 0-0.256-0.896 1.408-8.832 8.064-20.224 17.408-29.952 6.272-6.4 11.136-10.24 19.712-15.104 6.016-3.584 15.36-8.832 16.256-9.088-0.128 0-0.128 0 0 0z m93.312 16.64s1.536 0.768 3.2 1.792c12.8 7.424 30.592 14.336 45.824 17.792l1.408 0.256-1.92 1.024c-7.936 4.48-34.048 15.36-60.8 25.344-3.84 1.408-7.68 2.816-8.448 3.2-0.768 0.256-1.408 0.512-1.408 0.384 0 0 1.024-2.176 2.432-4.736 7.424-13.952 14.976-31.104 18.816-42.88 0.512-1.024 0.768-2.048 0.896-2.176z m-9.6 3.2s-0.384 1.28-1.024 2.688c-5.248 12.672-12.032 26.368-20.736 41.856-2.176 3.968-4.096 7.168-4.096 7.168s-1.792-1.024-3.968-2.432c-12.672-7.808-23.936-17.408-31.232-26.624l-1.024-1.28 5.504-1.536c19.456-5.376 36.096-11.008 52.48-18.176l4.096-1.664z m59.136 20.608c0 1.408-2.944 13.696-5.504 22.656-2.048 7.424-3.84 13.312-7.168 23.68-1.408 4.608-2.688 8.32-2.688 8.32s-0.384 0-0.768-0.128c-17.792-3.2-33.664-7.68-48.64-13.696-4.224-1.664-10.112-4.352-10.496-4.608-0.128-0.128 3.456-1.792 8.064-3.712 27.264-11.904 55.424-25.472 65.152-31.232 1.024-0.896 1.92-1.28 2.048-1.28z m-136.448 4.608c0.128 0.128-7.424 11.008-18.176 25.984-3.712 5.248-8.064 11.264-9.6 13.568-1.664 2.304-4.096 5.888-5.504 8.064l-2.56 3.84-2.688-2.304c-3.2-2.688-8.704-8.192-11.136-11.392-5.12-6.4-8.576-13.184-9.984-19.328-0.64-2.816-0.64-4.352 0-4.48 0.896-0.256 16.896-3.968 31.872-7.424 8.32-1.92 17.92-4.224 21.376-4.992 3.584-0.896 6.4-1.536 6.4-1.536z m7.68 2.944l1.92 2.176a110.72 110.72 0 0 0 28.032 22.912c1.92 1.024 3.328 2.048 3.2 2.048a4370.0096 4370.0096 0 0 1-71.296 25.216s-0.64-0.384-1.152-0.768l-1.024-0.768 1.792-2.56c5.632-8.192 12.672-17.024 28.032-35.584l10.496-12.672z m47.744 34.176s2.688 0.896 5.888 2.048c7.808 2.944 13.952 4.736 22.144 6.912 10.112 2.56 24.832 5.12 33.536 5.76 1.28 0.128 2.048 0.256 1.792 0.384-0.384 0.256-9.216 3.2-15.616 5.248-10.24 3.2-41.728 12.544-67.328 19.84-4.736 1.408-8.832 2.56-9.088 2.56-0.64 0.128-2.56-0.384-2.56-0.64 0-0.128 1.408-1.92 3.2-3.968 8.576-10.24 17.152-21.76 24.32-32.64 2.048-2.944 3.712-5.376 3.712-5.504z m-10.496 0.256s-4.224 6.912-11.648 18.56c-3.2 4.992-6.656 10.624-7.936 12.544-1.152 1.92-2.944 4.864-3.968 6.528l-1.792 3.072-0.896-0.256c-2.176-0.64-17.28-5.888-21.248-7.552-4.992-1.92-10.112-4.352-13.952-6.4-4.736-2.56-10.752-6.4-10.24-6.528 0.128 0 8.32-2.304 18.176-4.992 26.24-7.168 40.704-11.264 50.304-14.208 1.536-0.384 3.072-0.768 3.2-0.768z m74.368 17.536c0.256 0.64-9.344 27.52-12.928 35.968-0.768 1.92-1.024 2.432-1.536 2.304-1.024 0-15.104-2.048-23.68-3.328-14.848-2.304-39.936-6.656-46.208-8.064l-1.408-0.256 8.96-2.048c19.2-4.352 28.288-6.656 37.632-9.472 11.776-3.584 23.424-8.064 35.2-13.568 2.048-0.896 3.584-1.536 3.968-1.536zM551.424 217.6c-1.28-0.128-22.528 7.424-36.224 13.056-18.432 7.552-32.896 14.72-41.728 20.992-3.328 2.304-7.424 6.4-8.064 8.064-0.256 0.64-0.384 1.28-0.384 2.048l8.064 7.552 19.072 6.144 45.44 8.192 51.968 8.96 0.512-4.48h-0.512l-6.784-1.024-1.408-2.432c-7.04-12.416-14.848-27.904-19.328-38.272-3.584-8.064-6.912-17.408-8.704-24.064-1.152-4.48-1.28-4.736-1.92-4.736z m-0.896 3.072c0.128 0 0.384 1.792 0.64 3.712 1.024 8.32 2.816 16.384 5.76 25.216 2.176 6.528 2.176 6.272-0.384 5.504-6.144-1.664-33.408-6.4-53.248-9.088-3.2-0.384-5.888-0.896-5.888-0.896-0.256-0.256 14.336-7.808 20.736-10.88 8.192-3.968 30.72-13.312 32.384-13.568z m-57.728 26.752l2.304 0.768c12.672 4.352 44.544 10.368 62.08 11.904 1.92 0.128 3.712 0.384 3.712 0.384s-1.664 0.896-3.712 1.92c-8.448 4.224-17.792 9.472-24.32 13.44-1.92 1.152-3.712 2.176-3.84 2.176-0.256 0-1.536-0.256-2.816-0.384l-2.432-0.384-6.016-5.888c-10.496-10.24-18.816-18.176-21.888-21.12l-3.072-2.816z m-2.304 1.92l8.448 10.496 10.24 12.8c1.024 1.28 1.792 2.304 1.792 2.304-0.256 0.128-12.16-2.176-18.56-3.584-6.528-1.536-9.216-2.176-13.184-3.456l-3.328-1.024v-0.896c0-3.968 5.12-9.984 13.696-16.128l0.896-0.512z m71.552 14.336c0.256 0 0.512 0.512 1.28 2.176 2.048 4.48 8.32 16.512 9.984 18.944 0.512 0.768 1.28 0.896-7.168-0.512-20.224-3.328-26.752-4.352-26.752-4.48 0 0 0.64-0.512 1.408-0.896 6.272-3.456 12.672-7.936 18.304-12.672 1.408-1.152 2.688-2.176 2.944-2.56-0.128 0 0-0.128 0 0z" fill="#EDEDEE" p-id="3314"></path><path d="M465.792 258.816s-1.28 2.048 0 5.248c0.768 1.92 3.072 4.224 5.632 6.656 0 0 26.624 25.984 29.824 29.696 14.72 17.024 21.12 33.792 21.76 56.832 0.384 14.848-2.432 27.904-9.472 43.008-12.416 27.136-38.656 57.088-79.232 90.368l5.888-1.92c3.84-2.816 9.088-5.888 21.248-12.672 28.16-15.488 59.904-29.568 98.688-44.16 55.936-20.992 147.968-45.696 200.448-53.76l5.504-0.896-0.896-1.28c-4.736-7.424-8.064-12.032-12.032-16.896-11.52-14.208-25.472-25.728-42.496-35.328-23.424-13.056-53.76-23.296-92.16-30.976-7.296-1.408-23.168-4.224-36.096-6.144-27.392-4.224-45.056-7.168-64.64-10.496-7.04-1.152-17.408-2.944-24.448-4.48-3.584-0.768-10.496-2.432-15.872-4.224-4.096-1.792-10.24-3.456-11.648-8.576z m15.488 14.976s1.024 0.256 2.304 0.768a180.6848 180.6848 0 0 0 16.64 4.736c3.584 0.896 6.528 1.792 6.656 1.792 0.384 0.384 6.4 19.712 8.448 27.136 0.768 2.816 1.408 5.248 1.28 5.248 0 0-0.768-0.896-1.536-2.304-7.04-12.288-18.048-24.832-30.848-34.816-1.664-1.408-2.944-2.56-2.944-2.56z m29.44 8.064c0.256 0 1.664 0.128 3.2 0.512 10.112 2.304 28.416 5.76 40.064 7.68 1.92 0.256 3.584 0.64 3.584 0.768s-0.768 0.512-1.664 1.024c-1.92 1.024-9.984 5.76-12.544 7.552-6.656 4.48-12.672 9.216-16.896 13.568l-3.2 3.2s-0.384-1.024-0.64-2.304c-2.176-8.32-6.656-20.608-10.752-29.312-0.64-1.408-1.28-2.56-1.152-2.688-0.128 0.128-0.128 0 0 0z m51.84 9.856c0.384 0.128 0.896 2.176 2.176 6.656 2.176 8.704 3.2 18.304 2.816 27.392-0.128 2.56-0.256 4.864-0.384 5.12l-0.128 0.64-3.072-1.024c-6.4-2.048-16.768-5.12-25.728-7.552-5.12-1.408-9.216-2.688-9.216-2.688 0-0.384 7.424-7.808 10.624-10.624 5.888-5.376 22.272-18.048 22.912-17.92z m4.096 0.64c0.128-0.128 24.704 4.096 35.968 6.272 8.32 1.664 20.352 4.096 21.12 4.48 0.384 0.128-0.896 0.896-4.864 2.688-15.744 7.168-27.52 13.568-39.168 21.248-3.072 2.048-5.632 3.712-5.632 3.712s-0.128-1.792-0.128-3.84c0-11.392-2.304-22.784-6.4-32.512-0.64-1.152-1.024-2.048-0.896-2.048z m63.616 12.544c0.128 0.128-0.64 4.992-1.28 7.936-2.176 8.96-7.936 22.144-15.104 34.56-1.28 2.176-2.432 3.968-2.56 4.096-0.128 0-1.792-0.896-3.584-1.92-6.912-4.096-14.848-7.936-23.424-11.52-2.432-1.024-4.48-1.792-4.608-1.92-0.384-0.384 18.816-13.056 29.056-19.2 8.064-4.992 21.248-12.288 21.504-12.032z m4.48 0.768c0.512 0 11.392 2.944 17.152 4.608 14.08 4.224 30.208 10.112 40.704 14.848l4.352 1.92-3.072 0.768c-25.728 5.888-47.744 12.8-68.992 21.376-1.792 0.768-3.328 1.28-3.456 1.28-0.128 0 0.512-1.408 1.28-3.072 6.4-13.568 10.496-27.776 11.52-39.808 0.128-1.024 0.384-1.92 0.512-1.92z m-108.416 24.832c0.128-0.128 8.448 1.792 12.928 3.072 6.784 1.92 21.248 6.784 21.248 7.168 0 0-1.664 1.408-3.584 3.072-7.808 6.528-15.36 13.44-24.448 22.144-2.688 2.56-4.992 4.608-5.12 4.608-0.128 0-0.128-0.384-0.128-0.896 1.408-10.112 1.024-22.912-0.896-36.096 0.128-1.536 0-2.944 0-3.072z m174.72 0.128c0.128 0.128-3.84 6.4-6.4 9.856-3.584 5.12-8.832 11.904-20.736 26.88-6.272 7.936-13.312 16.768-15.616 19.84-2.432 2.944-4.352 5.504-4.48 5.504 0 0-0.896-1.024-1.664-2.432a122.88 122.88 0 0 0-24.192-26.752c-1.792-1.536-3.712-3.072-4.48-3.584-0.64-0.512-1.152-0.896-1.152-1.024s10.112-4.608 17.92-7.68c13.568-5.504 32-12.032 45.696-16.384 7.296-2.048 14.976-4.224 15.104-4.224z m4.608 1.28c0.256 0 1.664 0.64 3.456 1.664 14.592 8.32 28.8 19.072 40.064 30.08 3.2 3.072 11.008 11.264 10.88 11.264 0 0-2.688 0.256-6.016 0.512-25.216 1.92-57.472 7.296-88.448 14.72-2.048 0.512-3.968 0.896-4.096 0.896s2.176-2.304 5.12-5.12c18.176-17.536 26.496-28.544 36.352-48.384 1.408-2.944 2.56-5.504 2.688-5.632z m-133.12 13.568c0.896 0.128 8.576 3.84 14.464 6.784 5.376 2.688 13.44 7.04 13.824 7.296 0 0-2.816 1.536-6.4 3.328-11.264 5.632-20.864 11.008-30.976 17.024-2.816 1.792-5.248 3.2-5.376 3.2-0.256 0-0.128-0.256 1.408-3.2 5.376-9.856 9.728-21.504 12.16-32.896 0.384-0.896 0.64-1.536 0.896-1.536z m-7.808 1.536c0.128 0.128-1.792 7.552-3.072 11.52-2.432 7.552-6.528 17.152-10.624 24.32-0.896 1.664-2.432 4.096-3.2 5.504l-1.536 2.432-3.328-3.2c-3.84-3.712-7.04-6.144-11.136-8.192-1.664-0.896-2.816-1.536-2.816-1.664 0-0.512 10.24-9.728 18.048-16.384 5.632-5.12 17.408-14.592 17.664-14.336z m47.488 19.456l2.944 1.92c6.656 4.352 14.592 10.112 20.608 15.232 3.456 2.816 9.984 8.704 11.264 10.112l0.768 0.768-4.864 1.408a863.232 863.232 0 0 0-73.216 23.424c-2.688 1.024-5.12 1.792-5.248 1.792-0.384 0-0.64 0.256 5.504-5.376 15.744-14.592 29.824-30.592 40.192-46.208l2.048-3.072z m-12.416 3.2c0.128 0.128-8.064 11.648-12.928 18.176-5.888 7.808-16.256 20.864-23.424 29.312-2.944 3.584-5.504 6.4-5.632 6.528-0.128 0-0.256-0.896-0.256-2.176 0-7.296-1.792-14.976-5.12-21.504-1.408-2.688-1.664-3.456-1.28-3.712 1.152-1.024 18.56-11.008 29.568-16.896 7.296-3.968 18.816-9.856 19.072-9.728z m-75.648 18.56c0.128 0 1.536 0.768 3.072 1.536 3.84 2.048 7.296 4.48 10.24 6.912 0.128 0.128-1.408 1.408-3.456 2.816-5.632 4.096-14.336 10.624-19.328 14.592-5.248 4.224-5.504 4.352-4.864 3.456 3.968-6.016 5.888-9.472 8.064-13.824 1.792-3.84 3.712-8.448 4.992-12.544 0.512-1.664 1.152-2.944 1.28-2.944z m20.224 15.744c0.256 0 0.64 0.512 2.304 2.816 3.456 5.12 6.016 11.904 6.656 17.408l0.128 1.152-8.192 3.2c-14.592 5.632-28.16 11.264-37.376 15.488-2.56 1.152-7.04 3.328-9.984 4.736-2.944 1.536-5.376 2.688-5.376 2.56s1.792-1.408 4.096-3.072c17.92-12.928 33.408-27.264 44.928-41.472 1.408-1.408 2.56-2.816 2.816-2.816z m-9.344 2.304c0.256 0.256-6.528 7.936-11.264 12.672-11.52 11.776-22.912 20.992-37.12 29.952-1.792 1.152-3.456 2.176-3.584 2.304-0.384 0.256 0.128-0.384 6.4-7.168 3.968-4.224 6.912-7.808 10.368-12.288 2.304-2.944 2.688-3.328 6.016-5.632 8.704-6.4 28.928-20.096 29.184-19.84z" fill="#E0372E" p-id="3315"></path><path d="M276.096 653.952c-1.152 0-2.176 0.128-3.328 0.128-22.272 1.152-37.376 11.008-46.08 30.208-7.552 17.28-6.656 39.936 0.128 57.344 7.936 17.024 20.608 25.984 41.856 29.44 4.48 0.768 7.552 3.2 16.256 13.44l10.752 12.544h19.456l-12.928-13.056c-7.168-7.168-12.928-13.312-12.928-13.952 0-0.512 2.688-1.792 6.016-2.816 10.88-3.328 19.968-11.776 26.368-24.704 5.12-10.368 5.888-13.568 6.656-26.496 1.792-38.272-18.432-62.336-52.224-62.08z m17.152 100.48c-9.472 4.608-23.168 5.504-32.128 2.176-9.216-3.456-18.304-13.056-22.272-23.936-4.48-11.904-3.84-33.92 1.28-43.776 8.192-15.744 19.2-23.04 35.072-23.04 23.68 0 37.12 14.464 38.912 41.728 1.28 22.784-6.4 39.808-20.864 46.848z m335.872-67.712c-8.192 0-14.464 3.328-18.56 9.856l-3.328 5.12v-13.44h-14.08v80.256h14.08v-25.728c0-23.424 0.256-26.24 3.584-32.64 4.48-8.832 12.288-13.184 19.84-11.136l4.992 1.408v-13.952l-6.528 0.256z m-82.944-0.64c-2.816 0-5.76 0.384-8.576 1.024-18.944 4.992-29.568 23.04-28.928 41.6 0 15.616 3.072 23.424 10.496 31.488 15.36 12.672 29.312 13.696 48.128 6.912l6.656-2.944v-12.672l-6.656 3.456c-15.232 6.656-26.624 6.656-35.84-1.152-5.888-6.016-8.448-13.056-9.6-21.248h56.96v-10.88c0-22.016-13.312-35.968-32.64-35.584z m-23.04 35.2s2.048-13.824 9.856-19.2c3.712-2.688 8.064-3.968 12.288-3.968 4.224 0 8.448 1.408 11.904 3.968 7.168 5.504 8.32 18.944 8.32 18.944l-42.368 0.256z m-340.352-14.464c-15.36-9.216-22.144-16-21.248-23.808 2.432-21.76 29.312-18.816 44.288-10.496l0.128-14.72s-8.192-3.584-20.096-3.712c-18.176-0.256-29.824 5.632-35.328 17.792-8.064 17.92-0.896 31.36 24.96 46.336 14.464 8.448 20.864 15.744 20.864 23.808 0 16.512-19.84 22.272-40.448 11.904-4.224-2.048-7.808-3.84-7.936-3.84-0.768 4.736-0.384 15.872-0.384 15.872s6.272 2.688 15.744 4.48c23.424 4.736 44.8-6.272 46.848-24.192 1.664-16.896-4.352-25.728-27.392-39.424z m571.264-20.992c-2.816 0-5.632 0.384-8.704 1.024-18.816 4.992-29.44 23.04-28.8 41.6 0 15.616 3.072 23.296 10.496 31.488 15.36 12.672 29.312 13.696 48.256 6.912l6.656-2.944v-12.672l-6.656 3.456c-15.232 6.656-26.752 6.656-35.84-1.152-5.888-5.888-8.448-13.056-9.6-21.248h56.832v-10.88c0-21.888-13.312-35.84-32.64-35.584z m-23.04 35.2s2.176-13.696 9.856-19.2c3.712-2.688 8.064-3.968 12.288-3.968 4.224 0 8.448 1.408 11.904 4.096 7.168 5.504 8.32 19.072 8.32 19.072h-42.368z m-258.688-14.08c-15.36-9.216-22.016-16-21.248-23.808 2.432-21.76 29.312-18.816 44.288-10.496l0.128-14.72s-8.192-3.584-20.096-3.712c-18.176-0.256-29.824 5.632-35.328 17.792-8.064 17.92-0.768 31.36 24.96 46.336 14.464 8.448 20.864 15.616 20.864 23.68 0 16.512-19.84 22.4-40.448 11.904-4.224-2.048-7.808-3.84-7.936-3.84-0.768 4.736-0.384 15.872-0.384 15.872s6.272 2.56 15.616 4.48c23.424 4.736 44.8-6.272 46.848-24.192 1.664-16.768-4.352-25.472-27.264-39.296z m364.672-20.352c-8.192 0-14.464 3.328-18.56 9.856l-3.328 5.12v-13.312h-14.08v80.256h14.08v-25.728c0-23.424 0.256-26.24 3.584-32.64 4.48-8.832 12.288-13.184 19.84-11.136l4.992 1.408v-13.952l-6.528 0.128z m-476.928 19.84v-51.2h-14.336v113.28h59.904v-13.44h-45.568v-48.64z m329.088 16l-11.776 30.464-11.264-30.72-11.52-34.048h-14.464c9.472 26.752 19.712 54.016 30.08 80.384 4.48 0.128 8.96 0 13.44 0l15.872-39.808 16.128-40.576h-13.952c0 0.128-6.144 16.256-12.544 34.304z m-296.32-97.92c2.304 0 4.224-0.768 5.76-2.304s2.432-3.328 2.432-5.632-0.768-4.224-2.432-5.632a8.1536 8.1536 0 0 0-5.632-2.176c-2.304 0-4.224 0.768-5.76 2.304s-2.304 3.456-2.304 5.632c0 2.304 0.768 4.224 2.304 5.632 1.408 1.408 3.328 2.176 5.632 2.176z m-5.12-13.056c1.408-1.408 3.072-2.048 5.12-2.048s3.712 0.64 4.992 2.048c1.408 1.408 2.048 3.072 2.048 4.992 0 2.048-0.768 3.712-2.048 5.12-1.408 1.408-3.072 2.048-4.992 2.048-2.048 0-3.712-0.64-4.992-2.048a6.848 6.848 0 0 1-2.048-5.12c0-1.92 0.64-3.584 1.92-4.992z m3.456 5.76h0.896c0.64 0 1.28 0.64 1.792 1.792l1.152 2.432H396.8l-1.408-2.816c-0.512-1.152-1.152-1.792-1.792-1.92 0.768-0.128 1.408-0.512 1.92-1.024 0.512-0.512 0.64-1.152 0.64-1.792 0-0.896-0.256-1.408-0.768-1.92-0.64-0.512-1.664-0.768-2.944-0.768h-2.944v10.24h1.408v-4.352l0.256 0.128z m0-4.736h1.28c0.896 0 1.536 0.128 1.92 0.512 0.384 0.256 0.384 0.64 0.384 1.28 0 1.152-0.768 1.792-2.048 1.792h-1.536v-3.584z m-235.136 3.84c0-3.584-0.128-6.272-0.128-7.808h0.128c0.384 1.792 0.768 3.2 1.152 4.096l13.696 30.464h2.304l13.696-30.848c0.384-0.896 0.768-2.048 1.152-3.84h0.128c-0.256 3.072-0.384 5.76-0.384 7.808v26.88h4.736v-40.064h-5.888l-12.544 27.904c-0.512 1.152-1.152 2.816-1.92 4.992h-0.128c-0.256-1.024-0.896-2.688-1.792-4.736l-12.288-28.16h-6.272v40.064h4.48l-0.128-26.752z m46.592 0h4.096v24.96h-4.096v-24.96z m2.048-9.088c0.896 0 1.536-0.256 2.048-0.896 0.512-0.512 0.896-1.28 0.896-2.048s-0.256-1.536-0.896-2.048a3.0848 3.0848 0 0 0-2.176-0.896c-0.768 0-1.536 0.256-2.048 0.896-0.512 0.512-0.896 1.28-0.896 2.048 0 0.896 0.256 1.536 0.896 2.048 0.64 0.64 1.28 0.896 2.176 0.896z m30.72 34.688v-4.352c-2.176 1.664-4.608 2.432-7.04 2.432-2.944 0-5.376-1.024-7.04-2.944-1.792-1.92-2.688-4.608-2.688-7.936 0-3.456 0.896-6.272 2.816-8.32 1.792-2.048 4.224-3.072 7.168-3.072 2.432 0 4.736 0.768 6.784 2.176v-4.736a13.824 13.824 0 0 0-6.656-1.536c-4.608 0-8.192 1.536-10.88 4.352-2.688 2.816-3.968 6.656-3.968 11.392 0 4.096 1.152 7.68 3.712 10.24 2.56 2.688 5.888 4.096 9.856 4.096 3.2 0.128 5.76-0.512 7.936-1.792z m11.648-13.312c0-3.328 0.768-5.888 2.048-7.808 1.28-1.664 2.816-2.432 4.736-2.432 1.536 0 2.688 0.256 3.456 0.896v-4.736a7.4752 7.4752 0 0 0-2.688-0.384c-1.664 0-3.072 0.512-4.352 1.536-1.408 1.024-2.432 2.688-3.072 4.864h-0.128v-5.888h-4.608v28.544h4.608v-14.592z m26.24 15.232c4.352 0 7.808-1.408 10.368-4.096 2.56-2.688 3.84-6.4 3.84-11.008 0-4.736-1.152-8.192-3.584-10.88s-5.632-3.968-9.984-3.968-7.808 1.28-10.368 3.712c-2.816 2.688-4.224 6.528-4.224 11.52 0 4.352 1.152 7.936 3.712 10.496 2.56 2.816 6.016 4.224 10.24 4.224z m-6.528-23.296c1.792-1.792 4.096-2.816 6.912-2.816 2.944 0 5.12 0.896 6.784 2.816s2.432 4.608 2.432 8.32c0 3.456-0.768 6.272-2.304 8.064-1.536 1.92-3.84 2.944-6.912 2.944a8.704 8.704 0 0 1-6.912-2.944c-1.792-1.92-2.56-4.608-2.56-8.064-0.128-3.456 0.768-6.272 2.56-8.32z m40.832 20.736c1.792-1.536 2.688-3.456 2.688-5.888a7.68 7.68 0 0 0-2.048-5.248c-1.152-1.152-2.816-2.048-5.376-3.072-2.176-0.896-3.584-1.792-4.352-2.432a3.8528 3.8528 0 0 1-1.152-2.944c0-1.152 0.512-2.048 1.408-2.816s2.048-1.152 3.712-1.152c2.432 0 4.608 0.64 6.528 2.048v-4.608c-1.792-0.896-3.84-1.408-6.144-1.408-2.944 0-5.376 0.768-7.296 2.432-1.92 1.536-2.816 3.584-2.816 5.888 0 2.048 0.64 3.84 1.792 5.12 1.024 1.152 2.688 2.176 5.12 3.2 2.304 1.024 3.84 1.92 4.736 2.688 0.768 0.768 1.152 1.664 1.152 2.688 0 2.688-1.792 4.096-5.376 4.096-2.816 0-5.248-0.896-7.424-2.688v4.992c2.048 1.152 4.352 1.792 7.04 1.792 3.328-0.128 5.888-1.024 7.808-2.688z m21.76-27.52c-4.352 0-7.808 1.28-10.368 3.712-2.688 2.688-4.224 6.528-4.224 11.52 0 4.352 1.152 7.936 3.712 10.496 2.56 2.816 6.016 4.096 10.24 4.096 4.352 0 7.808-1.408 10.368-4.096 2.56-2.688 3.84-6.4 3.84-11.008 0-4.736-1.152-8.192-3.584-10.88-2.432-2.56-5.76-3.84-9.984-3.84z m8.96 15.104c0 3.456-0.768 6.272-2.304 8.064-1.536 1.92-3.84 2.944-6.912 2.944a8.704 8.704 0 0 1-6.912-2.944c-1.792-1.92-2.56-4.608-2.56-8.064 0-3.712 0.896-6.528 2.816-8.448 1.792-1.792 3.968-2.816 6.912-2.816 2.816 0 5.12 0.896 6.784 2.816 1.28 2.048 2.176 4.736 2.176 8.448z m12.416 14.336h4.608v-24.704h6.656v-3.84h-6.656v-4.352c0-3.968 1.536-6.016 4.736-6.016 1.024 0 2.176 0.256 2.944 0.768v-4.096a7.8848 7.8848 0 0 0-3.328-0.512c-2.432 0-4.48 0.768-6.144 2.304-1.92 1.792-2.944 4.224-2.944 7.424v4.736h-4.864v3.84h4.864l0.128 24.448z m18.688-7.808c0 5.632 2.432 8.448 7.552 8.448 1.792 0 3.2-0.256 4.352-0.896v-3.968a4.992 4.992 0 0 1-2.944 0.896c-1.536 0-2.688-0.384-3.328-1.152-0.64-0.768-1.024-2.176-1.024-4.096v-16.128h7.296v-3.84h-7.296v-8.448c-1.536 0.512-3.072 1.024-4.608 1.408v6.912h-4.992v3.84h4.992v17.024z m492.032 52.736a8.1536 8.1536 0 0 0-5.632-2.176 7.808 7.808 0 0 0-5.76 2.304c-1.536 1.536-2.304 3.456-2.304 5.632 0 2.304 0.768 4.224 2.304 5.632 1.536 1.408 3.456 2.176 5.76 2.176s4.224-0.768 5.76-2.304 2.304-3.456 2.304-5.632a7.9104 7.9104 0 0 0-2.432-5.632z m-0.768 10.752c-1.408 1.408-3.072 2.048-4.992 2.048-2.048 0-3.712-0.64-4.992-2.048-1.408-1.408-2.048-3.072-2.048-5.12s0.64-3.712 2.048-4.992c1.408-1.408 3.072-2.048 5.12-2.048s3.712 0.64 4.992 2.048c1.408 1.408 2.048 3.072 2.048 4.992-0.128 2.048-0.768 3.712-2.176 5.12z m-4.096-4.608c0.768-0.128 1.536-0.512 1.92-1.024 0.512-0.512 0.64-1.152 0.64-1.792 0-0.768-0.256-1.536-0.768-1.92-0.64-0.512-1.664-0.768-2.944-0.768h-2.944v10.24h1.536v-4.352h0.896c0.64 0 1.28 0.64 1.792 1.792l1.152 2.432h1.792l-1.408-2.816c-0.64-1.152-1.152-1.664-1.664-1.792z m-1.024-1.024h-1.664v-3.456h1.28c0.896 0 1.536 0.128 1.92 0.512 0.384 0.256 0.512 0.64 0.512 1.28 0 1.152-0.768 1.664-2.048 1.664z m-255.744-79.872h1.28v-10.24h3.456v-1.28h-8.064v1.28h3.456l-0.128 10.24z m7.808-7.68c0-1.024 0-1.792-0.128-2.304 0.128 0.512 0.256 0.896 0.384 1.152l3.968 8.832h0.64l3.968-8.832c0.128-0.256 0.128-0.64 0.384-1.152-0.128 0.896-0.128 1.664-0.128 2.176v7.808h1.408v-11.52h-1.664l-3.584 7.936c-0.128 0.256-0.384 0.896-0.512 1.536h-0.128c-0.128-0.384-0.256-0.768-0.512-1.408l-3.584-8.064h-1.792v11.52h1.28v-7.68z" fill="#231F1F" p-id="3316"></path></svg>