<?xml version="1.0" standalone="no"?><!DOCTYPE svg PUBLIC "-//W3C//DTD SVG 1.1//EN" "http://www.w3.org/Graphics/SVG/1.1/DTD/svg11.dtd"><svg t="1657846575696" class="icon" viewBox="0 0 1561 1024" version="1.1" xmlns="http://www.w3.org/2000/svg" p-id="2540" width="24.390625" height="16" xmlns:xlink="http://www.w3.org/1999/xlink"><defs><style type="text/css">@font-face { font-family: feedback-iconfont; src: url("//at.alicdn.com/t/font_1031158_u69w8yhxdu.woff2?t=1630033759944") format("woff2"), url("//at.alicdn.com/t/font_1031158_u69w8yhxdu.woff?t=1630033759944") format("woff"), url("//at.alicdn.com/t/font_1031158_u69w8yhxdu.ttf?t=1630033759944") format("truetype"); }
</style></defs><path d="M373.940521 705.143261C423.742324 661.591433 471.998133 616.455612 515.337962 566.40181c36.193857-41.793835 68.14973-86.855656 74.792704-143.479433 9.047964-76.981696-5.852977-148.147414-59.747764-207.536179-18.779926-20.681918-39.890842-39.245845-55.61878-62.728752-9.047964-13.535946-13.786945-27.503891-10.411959-43.732827 5.16998-6.822973 9.191964-1.041996 12.889949 1.614994 5.242979 3.734985 9.371963 8.833965 14.326944 12.962949 23.661906 20.824918 54.002786 23.984905 82.834672 31.165876 12.135952 2.943988 24.379904 5.205979 36.803855 6.570974 1.830993 0.251999 3.625986 0.681997 5.385978 1.184996 16.264936 4.236983 33.140869 4.919981 49.585804 8.257967 19.353923 3.123988 38.994846 4.129984 58.16777 8.545966 13.212948 3.661986 28.078889 0.753997 39.819843 10.12496 70.949719 12.135952 142.655436 20.897917 211.378164 43.339829 101.2556 33.032869 192.24124 82.869672 261.217967 166.71034 7.036972 8.545966 12.60195 18.312928 19.962921 29.155885-45.994818 6.606974-89.549646 12.028952-132.779475 19.245924-81.507678 13.571946-162.691357 29.083885-241.971043 52.96179-7.54097 8.293967-18.851925 6.965972-28.042889 11.058957-23.842906 6.785973-47.862811 12.889949-71.237719 21.219916-18.886925 6.427975-38.455848 10.771957-57.162774 17.809929-24.738902 7.251971-48.07781 18.383927-72.529713 26.318896-10.412959 3.302987-19.892921 8.976964-30.26988 12.459951a202.664198 202.664198 0 0 0-8.939965 4.199983c-10.19596 5.529978-21.507915 8.653966-31.704874 14.182944-25.061901 12.279951-50.303801 24.200904-74.146707 38.779847-11.237956 5.241979-22.439911 10.589958-32.674871 17.77293-7.359971 3.985984-15.007941 7.395971-22.296912 11.525954-25.456899 10.663958-48.04181 27.609891-75.186702 34.612863-2.871989-0.825997-4.98998-2.082992-3.841985-5.565978z" fill="#B61C1C" p-id="2541"></path><path d="M620.794545 586.904729c9.622962-4.235983 19.209924-8.473966 28.831886-12.74595 13.428947 27.576891 25.565899 55.976779 50.5918 76.479698 7.755969-25.887898 12.171952-52.817791 16.552934-79.747685 1.327995-8.149968 2.046992-16.552935 7.935969-23.122908 18.059929-8.689966 37.197853-14.075944 56.659776-18.598927 28.221888 5.779977 52.386793 22.152912 80.78768 31.883874 0.466998-19.101924-5.636978-35.869858-8.831965-53.03379 9.119964-4.019984 18.562927-6.892973 28.616887-7.251972 11.380955 35.869858 15.509939 73.175711 17.62893 110.230564 7.46897 129.261489-18.562927 251.594005-79.710685 366.242552-24.739902 46.353817-24.129905 48.544808-76.623697 46.102818-112.099557-5.206979-222.043122-22.620911-324.626716-71.057719-31.022877-14.649942-59.746764-33.499868-82.655673-60.573761-40.107841-47.396813-29.191885-100.393603 0.251999-142.797435 8.078968-11.598954 17.989929-21.939913 27.035893-32.85587 4.308983-3.552986 9.336963-5.599978 14.685942-6.928973 24.954901-12.243952 49.874803-24.487903 74.828704-36.731854 1.866993 11.812953-8.653966 14.757942-15.18894 19.496923-26.209896 19.029925-49.046806 41.472836-69.836723 66.103738-3.518986 4.164984-10.01796 9.083964-6.390975 15.18794 2.907988 4.883981 9.909961 2.153991 15.07994 2.47699 30.664879 1.939992 60.286762-5.529978 90.231643-10.304959 12.60295-2.009992 15.368939-6.892973 10.844957-19.424923-10.01796-27.682891-16.516935-56.084778-3.626985-84.989664 10.05296-7.109972 20.789918-12.924949 32.386872-17.090932 5.636978 14.397943-3.518986 27.431892-3.984985 41.399836-0.646997 18.131928 2.045992 35.007862 9.514963 53.319789 31.094877-42.261833 51.632796-87.359654 69.513725-133.857471 10.05296-6.426975 20.897917-11.094956 32.279872-14.504942 6.354975 6.569974 2.082992 13.463947 0.250999 19.998921-11.130956 39.064845-28.365888 75.474701-48.760807 110.518562-3.266987 5.565978-7.324971 10.770957-9.909961 19.353924 10.843957-1.723993 19.569923-6.211975 28.616887-9.551962 28.402888-10.519958 56.229778-22.439911 83.58967-35.43886 18.813926-8.939965 19.065925-9.945961 4.344982-23.913906-22.477911-21.363916-36.552855-48.00681-49.299805-75.581701a15.906937 15.906937 0 0 1-1.614993-8.689965z m-7.289971-421.537333c-13.571946 0.574998-26.425895-2.655989-39.136846-6.964972-18.850925-10.735958-28.293888-29.944882-41.075837-46.066818-14.255944-17.989929-24.954901-17.62993-37.522852 2.189991-2.51299 3.949984-3.086988 9.119964-7.53997 11.812953-10.376959-2.51299-11.130956-18.275928-23.949905-17.414931 16.194936-31.237876 45.816819-45.061822 75.7977-58.345769 51.345797-22.69291 105.815581-35.260861 160.069367-48.509808 18.455927-4.523982 20.573919-2.656989 20.861917 16.229936 1.004996 60.357761 13.859945 117.771534 43.05183 171.055323-13.213948-2.045992-26.463895-4.056984-39.676843-6.103976-0.537998-13.392947-4.811981-29.299884-13.033948-35.43886-12.243952-9.119964-19.065925 10.843957-29.837882 15.582939-6.318975 2.764989-11.991953 7.396971-17.70193 11.525954-16.910933-2.835989-34.289864-3.374987-50.519801-9.658962 9.622962-8.006968 21.436915-12.423951 31.669875-19.424923 9.693962-6.642974 20.32192-12.099952 31.309876-23.697906-36.013858-6.856973-69.837724-12.74695-106.06658-20.465919 10.556958 18.885925 25.3499 31.523875 36.121857 47.143813 3.374987 4.95498 10.627958 8.545966 7.179972 16.552935z" fill="#6F6F6F" p-id="2542"></path><path d="M377.853506 709.129245c-3.912985 4.415983-8.903965 6.499974-14.684942 6.929973 2.368991-4.810981 5.887977-8.545966 10.771957-10.915957 1.291995 1.329995 2.61999 2.657989 3.912985 3.985984z" fill="#C25E60" p-id="2543"></path><path d="M1210.875211 408.955433c-78.169691 10.447959-152.745396 23.265908-230.626088 40.178841 24.021905-29.370884 46.031818-55.079782 64.271746-83.55367 10.556958-16.516935 19.963921-33.750867 29.945881-50.6278 2.44199-4.127984 2.871989-11.273955 10.879957-6.677973 46.139818 26.425895 88.149651 57.916771 125.527504 100.680602z m-349.294619-41.077838c61.864755-27.179893 122.869514-47.861811 188.289256-63.08575-8.795965 21.219916-20.895917 38.275849-32.672871 55.43978-17.880929 26.029897-37.736851 50.5548-58.957767 73.929708-3.733985 4.128984-6.821973 10.735958-13.751946 2.942988-23.518907-26.317896-51.525796-47.393813-82.906672-69.225726z m-240.786047 219.029134c9.873961 11.417955 13.786945 26.102897 21.255916 38.884846 11.489955 19.677922 26.031897 36.732855 42.620831 52.243793 3.302987 3.087988 10.986957 7.53997 2.153992 12.029953-44.702823 22.79991-90.805641 42.295833-141.039443 58.453769 4.380983-15.07994 12.854949-24.379904 18.599927-35.115862 21.040917-39.209845 41.507836-78.634689 49.191805-123.193512a335.813672 335.813672 0 0 1 7.216972-3.303987z m310.299772-126.245501c-60.214762 14.541942-116.766538 30.483879-177.914296 49.585804 7.862969-10.664958 12.818949-17.449931 17.879929-24.165904 21.939913-29.010885 42.154833-59.135766 61.004759-90.230644 3.016988-4.99098 4.632982-13.572946 14.146944-7.324971 30.41288 20.034921 58.742768 42.332833 84.882664 72.135715zM473.830126 660.979436c-1.363995 24.056905-4.522982 48.221809 3.769985 71.811716 0.395998 1.113996 0.467998 2.334991 0.539998 3.519986 0.645997 10.08896 15.725938 19.064925 6.462974 28.292888-6.103976 6.103976-18.670926 6.282975-28.509887 8.007968-31.524875 5.456978-63.15875 9.657962-95.329623 8.185968-10.664958-0.502998-12.60395-2.692989-6.355975-12.135952 23.589907-35.833858 56.012778-62.476753 89.908645-87.610654 3.337987-2.47799 7.251971-4.129984 8.365967-8.653965 7.037972-3.805985 14.109944-7.61297 21.147916-11.417955zM863.590584 338.90271c14.721942-31.956874 26.606895-60.321761 34.685863-90.016644 1.973992-7.252971 4.630982-8.940965 12.422951-7.109972 40.57384 9.479963 80.429682 20.933917 121.614519 40.107841-57.736772 15.654938-111.991557 32.74587-168.723333 57.018775z m-282.328883 265.811948c3.123988 14.541942-5.852977 25.923897-10.735957 38.09585-14.793941 36.911854-35.36786 70.73472-58.38277 104.666586-21.292916-34.541863-16.013937-68.939727-5.924976-103.589591 23.769906-15.473939 48.724807-28.615887 75.043703-39.172845z m143.409433-56.911775c-4.99098 36.695855-10.376959 73.28471-22.369912 111.27356-26.498895-24.559903-47.93481-49.406805-52.709791-84.881664 24.809902-9.443963 49.011806-20.609918 75.079703-26.391896zM619.143551 272.116974c24.450903-22.72791 48.329809-40.106841 73.713709-55.546781 7.755969-4.739981 11.921953-4.271983 15.619938 4.847981 8.903965 21.829914 12.171952 44.450824 11.991952 67.861732-0.072 8.653966-4.019984 10.12596-11.237955 7.57697-28.437888-10.12596-57.736772-17.378931-90.087644-24.739902z m139.673448 41.794834c36.875854-25.2419 72.279714-46.677815 112.278556-65.56474-9.155964 34.793862-23.662906 64.846744-38.957846 94.648625-2.657989 5.205979-5.672978 4.236983-10.08996 2.009992-20.538919-10.339959-41.256837-20.32292-63.22975-31.093877z m-92.279635-111.559558c-24.665902 16.802934-46.245817 32.637871-65.454741 51.416796-5.709977 5.564978-9.156964 7.863969-13.895945-1.686993-13.499947-27.181892-32.85487-50.232801-58.16877-74.792704 48.11481 8.796965 91.524638 16.695934 137.519456 25.061901z m-48.472808 188.039256c0.287999-33.355868-4.199983-62.475753-12.206952-93.319631 32.997869 3.805985 63.014751 13.895945 96.335619 23.912905-28.149889 23.231908-54.684784 45.134821-84.128667 69.406726zM746.467048 290.502901c-0.358999-28.079889-3.949984-53.14179-14.504943-79.532685a197941.627125 197941.627125 0 0 0 118.094533 18.384927c-37.558851 20.14292-70.267722 39.244845-103.58959 61.146758z m-19.963921 210.875166c-6.713973-16.085936-14.181944-30.053881-25.923898-41.183837-4.236983-4.021984-5.349979-6.713973 0.932996-10.484959 28.941886-17.377931 58.492769-33.644867 88.796649-48.544808 1.292995-0.646997 3.302987 0.214999 7.144972 0.574998-21.579915 35.258861-45.169821 67.359734-70.949719 99.638606z m-120.716523 62.081754c22.943909-27.001893 44.523824-53.06979 64.235746-80.68068 5.601978-7.863969 9.694962-9.372963 15.367939-0.969997 3.984984 5.888977 8.580966 11.489955 11.705954 17.80993 10.913957 21.902913 9.191964 25.599899-13.572946 34.218865-25.959897 9.765961-51.811795 19.711922-77.736693 29.621882z m111.631559-153.389393c8.185968-22.011913 14.865941-42.226833 20.10792-62.872751 2.189991-8.616966 3.769985-12.63895 13.607946-7.71997 16.732934 8.401967 34.074865 15.618938 54.217786 24.739902-31.237876 16.299936-59.566764 31.094877-87.933652 45.850819zM488.229069 126.33755c-0.107-18.706926 14.075944-25.887898 27.289892-33.929865 7.323971-4.453982 9.191964 2.224991 12.169952 6.030976 15.619938 19.927921 31.131877 39.963842 46.642815 59.999762-30.627879-5.459978-61.685756-9.874961-86.102659-32.099873z m365.020556 381.716491c15.009941 16.911933 9.909961 38.419848 17.054933 61.507756-32.85287-14.146944-62.080754-24.523903-88.974648-40.35884 23.374908-9.047964 47.432812-15.869937 71.919715-21.147916z m-145.778423-150.769404c-6.856973 26.355896-20.14392 49.873803-33.319868 73.463709-2.692989 4.811981-5.709977 3.913985-10.12596 2.154992-37.558851-14.936941-37.701851-15.009941-7.57597-40.752839 15.546939-13.285947 31.632875-25.960897 47.502812-38.922846 1.149995 1.364995 2.334991 2.692989 3.519986 4.056984z m-43.661827-182.294279c11.849953-18.275928 32.639871-25.636899 47.86381-41.579836 5.815977 14.865941 10.770957 28.006889 16.156936 40.969838 1.902992 4.559982 2.656989 7.826969-3.409986 8.939965a35068.688301 35068.688301 0 0 0-60.60976-8.329967z m-50.375801 335.578673c-21.543915 28.077889-46.677815 52.601792-75.402702 73.462709 18.239928-31.345876 41.579836-57.592772 75.402702-73.463709z m33.104869-57.306774a30629.08886 30629.08886 0 0 1-46.784815 31.739875c2.979988-8.652966 4.883981-14.038944 6.677974-19.387924 10.16196-29.945882 10.16196-29.945882 40.107841-12.351951z" fill="#FFFFFF" p-id="2544"></path><path d="M529.341906 591.321711c-0.323999 6.175976-4.308983 7.719969-10.341959 9.874961 1.974992-6.104976 4.273983-9.264963 10.341959-9.874961z" fill="#C85555" p-id="2545"></path><path d="M673.971334 853.579674c68.36473-29.730882 129.907486-63.015751 193.462235-98.56161-6.139976 43.516828-17.019933 82.511674-30.735878 120.859522-2.62199 7.323971-7.073972 8.759965-13.499947 8.113968-49.551804-5.13498-98.455611-13.141948-149.22641-30.41188zM423.168326 903.165478c26.929893-32.74687 51.057798-61.793756 74.827704-91.12964 14.864941-18.346927 14.361943-18.275928 31.919874-2.871988 21.147916 18.526927 47.073814 29.657883 73.46371 45.815818-58.13177 23.626907-115.259544 41.650835-180.211288 48.18581z m53.894787-109.441567c-13.393947 25.3849-32.78287 42.297833-48.293809 62.116754-10.951957 14.003945-23.697906 26.570895-35.762858 39.676843-3.589986 3.913985-6.929973 8.006968-13.464947 3.374987-26.102897-18.562927-42.153833-42.94283-44.666823-75.329702-0.609998-7.899969 1.543994-14.435943 11.273955-14.614942 43.231829-0.716997 86.03166-5.349979 130.914482-15.22394z m300.352812 113.571551c-65.995739 27.251892-134.145469 40.249841-206.712182 52.816791 13.859945-17.054933 25.601899-31.129877 36.947854-45.52882 9.119964-11.632954 18.527927-23.230908 26.282896-35.761859 4.95598-8.042968 9.730962-8.221967 17.486931-5.458978 39.101845 14.003945 78.992688 24.847902 120.356524 29.694882 1.471994 0.179999 2.729989 1.974992 5.637977 4.237984zM836.94669 742.521113c-57.484773 31.416876-110.339564 60.60976-169.009332 85.240663 5.743977-22.549911 18.706926-39.065845 25.2779-58.23977 6.139976-17.952929 14.145944-35.223861 19.963921-53.247789 3.409987-10.556958 7.969968-11.597954 16.695934-6.499974 31.561875 18.527927 66.139738 27.75589 107.070577 32.74687z m38.203849-131.739479c-1.579994 35.977858 2.979988 67.215734-3.015988 98.346611-1.076996 5.601978-2.046992 10.951957-9.406963 10.23396-39.388844-3.878985-78.34669-9.659962-117.126537-29.299884 43.482828-25.923897 85.92266-48.759807 129.549488-79.280687zM682.6973 721.371197c-13.319947 41.831835-30.160881 76.768696-49.980802 110.412563-2.010992 3.445986-4.020984 5.492978-8.437967 3.409987-31.058877-14.720942-61.649756-30.159881-89.585646-56.407777 50.4478-15.906937 97.592614-33.859866 148.004415-57.413773z m44.451824-51.236797c10.735958-39.999842 17.054933-75.9767 22.261912-112.099557 1.291995-8.903965 3.769985-11.595954 12.422951-7.71897 30.771878 13.823945 61.686756 27.324892 94.432626 41.759835-41.003838 28.974885-83.229671 52.314793-129.117489 78.058692z m-119.746526 313.638759c70.591721-16.587934 141.110442-33.355868 211.559163-65.527741-11.598954 29.262884-24.559903 52.349793-38.168849 75.114703-4.200983 7.001972-11.417955 5.493978-17.77393 5.241979-47.395813-1.722993-94.684626-5.06198-141.46944-13.391947-4.667982-0.825997-9.442963-0.969996-14.146944-1.435994z m-13.105948-92.852633c-16.336935 18.706926-32.602871 37.485852-48.975807 56.157778-12.099952 13.822945-25.959897 18.454927-44.235825 11.453955-22.620911-8.653966-45.743819-15.869937-71.273718-29.336884 58.490769-7.323971 110.877561-22.188912 161.93636-41.900834a130.944482 130.944482 0 0 1 2.54999 3.625985zM702.87522 94.993674c-47.035814-5.923977-91.559638-15.583938-140.571444-25.529899 35.942858-14.827941 69.334726-23.732906 102.619594-32.92487 1.687993-0.466998 3.554986-0.394998 5.278979-0.825996 24.379904-5.923977 23.948905-5.887977 26.174897 18.526926 1.149995 12.889949 4.020984 25.565899 6.499974 40.753839z m-89.369646 70.375722c-15.18894-23.625907-37.80885-41.722835-53.21279-69.692724 42.94383 8.185968 82.691673 15.761938 126.137501 24.056904-23.301908 20.896917-45.49282 37.413852-73.140711 45.59982 0-0.036 0.214999 0.036 0.215 0.036z" fill="#FFFFFF" p-id="2546"></path></svg>