<?xml version="1.0" standalone="no"?><!DOCTYPE svg PUBLIC "-//W3C//DTD SVG 1.1//EN" "http://www.w3.org/Graphics/SVG/1.1/DTD/svg11.dtd"><svg t="1657866331257" class="icon" viewBox="0 0 1024 1024" version="1.1" xmlns="http://www.w3.org/2000/svg" p-id="3131" width="32" height="32" xmlns:xlink="http://www.w3.org/1999/xlink"><defs><style type="text/css">@font-face { font-family: feedback-iconfont; src: url("//at.alicdn.com/t/font_1031158_u69w8yhxdu.woff2?t=1630033759944") format("woff2"), url("//at.alicdn.com/t/font_1031158_u69w8yhxdu.woff?t=1630033759944") format("woff"), url("//at.alicdn.com/t/font_1031158_u69w8yhxdu.ttf?t=1630033759944") format("truetype"); }
</style></defs><path d="M112 112m32 0l736 0q32 0 32 32l0 736q0 32-32 32l-736 0q-32 0-32-32l0-736q0-32 32-32Z" fill="#FFFFFF" p-id="3132"></path><path d="M128 96h768a32 32 0 0 1 32 32v768a32 32 0 0 1-32 32H128a32 32 0 0 1-32-32V128a32 32 0 0 1 32-32z m0 32v768h768V128H128z" fill="#5D6D7E" p-id="3133"></path><path d="M320 800h160v-128H320v128z m-32 0v-128H192v-32h96v-128H192v-32h96V352h32v128h160V352h32v128h128V352h32v128h128V352h32v480H192v-32h96z m32-288v128h160v-128H320z m192 288h128v-128h-128v128z m0-160h128v-128h-128v128z m160-128v128h128v-128h-128z m0 288h128v-128h-128v128z" fill="#ACB4C0" p-id="3134"></path><path d="M96 96h832v192H96V96z m480 96v32h160V192h-160z m192 0v32h64V192h-64z" fill="#3B97D3" p-id="3135"></path></svg>