<?xml version="1.0" standalone="no"?><!DOCTYPE svg PUBLIC "-//W3C//DTD SVG 1.1//EN" "http://www.w3.org/Graphics/SVG/1.1/DTD/svg11.dtd"><svg t="1665300470968" class="icon" viewBox="0 0 1024 1024" version="1.1" xmlns="http://www.w3.org/2000/svg" p-id="3647" width="32" height="32" xmlns:xlink="http://www.w3.org/1999/xlink"><path d="M724.992 555.3152l-305.7152 305.7152c-29.0304 29.0304-78.848 26.2144-111.36-6.2464l-237.4144-237.4144c-32.4608-32.4608-35.2768-82.3296-6.2464-111.36l306.8928-306.8928c16.7424-16.7424 41.4208-23.552 66.4576-18.3296l209.9712 43.8784c19.7632 4.1472 36.1472 20.0192 40.96 39.68l54.1696 221.7472c6.2976 25.9072-0.3072 51.8144-17.7152 69.2224z" fill="#FFB357" p-id="3648"></path><path d="M962.048 522.752l-349.5936 349.5936c-33.1776 33.1776-86.9888 33.1776-120.1664 0L249.7536 629.76c-33.1776-33.1776-33.1776-86.9888 0-120.1664L600.6784 158.72c19.1488-19.1488 46.2848-28.0064 73.0624-23.9104l224.6656 34.7136c21.1456 3.2768 37.888 19.456 41.9328 40.448l45.1584 236.7488c5.2224 27.6992-3.5328 56.1664-23.4496 76.032z" fill="#FFAC3E" p-id="3649"></path><path d="M724.992 555.3152c17.408-17.408 24.0128-43.3152 17.7152-69.2224l-54.1696-221.7472c-4.8128-19.6608-21.1968-35.5328-40.96-39.68l-93.3888-19.5072-304.4352 304.4352c-33.1776 33.1776-33.1776 86.9888 0 120.1664l200.3968 200.3968 274.8416-274.8416z" fill="#FF7C0E" p-id="3650"></path><path d="M803.6864 307.7632m-44.6464 0a44.6464 44.6464 0 1 0 89.2928 0 44.6464 44.6464 0 1 0-89.2928 0Z" fill="#FFFFFF" p-id="3651"></path></svg>