<?xml version="1.0" standalone="no"?><!DOCTYPE svg PUBLIC "-//W3C//DTD SVG 1.1//EN" "http://www.w3.org/Graphics/SVG/1.1/DTD/svg11.dtd"><svg t="1658750560017" class="icon" viewBox="0 0 1024 1024" version="1.1" xmlns="http://www.w3.org/2000/svg" p-id="13563" width="64" height="64" xmlns:xlink="http://www.w3.org/1999/xlink"><defs><style type="text/css">@font-face { font-family: feedback-iconfont; src: url("//at.alicdn.com/t/font_1031158_u69w8yhxdu.woff2?t=1630033759944") format("woff2"), url("//at.alicdn.com/t/font_1031158_u69w8yhxdu.woff?t=1630033759944") format("woff"), url("//at.alicdn.com/t/font_1031158_u69w8yhxdu.ttf?t=1630033759944") format("truetype"); }
</style></defs><path d="M859.14 292.08L530.38 102.34c-11.27-5.64-24.42-5.64-35.69 0.94L165.92 293.02c-10.33 5.64-17.85 16.91-17.85 30.06v379.48c0 12.21 7.51 23.48 17.85 31l329.7 189.74c10.33 6.58 24.42 6.58 35.69 0l328.76-189.74c10.33-6.58 17.85-17.85 17.85-31V323.08c-0.94-13.15-8.45-25.36-18.78-31z m-52.61 390.76l-294 170.02-294-170.02V343.75l293.06-170.02 294 170.02v339.09h0.94z" fill="#f73131" p-id="13564"></path><path d="M284.28 478.07l123.99-72.33-6.58 309.97 93.93 50.73 1.88-402.97 117.42-63.87-97.69-53.54-232.95 128.68z" fill="#f73131" p-id="13565"></path><path d="M549.16 766.44l96.75-46.03V323.08l-96.75 51.66z" fill="#f73131" p-id="13566"></path></svg>