<?xml version="1.0" standalone="no"?><!DOCTYPE svg PUBLIC "-//W3C//DTD SVG 1.1//EN" "http://www.w3.org/Graphics/SVG/1.1/DTD/svg11.dtd"><svg t="1657866345104" class="icon" viewBox="0 0 1024 1024" version="1.1" xmlns="http://www.w3.org/2000/svg" p-id="3426" width="32" height="32" xmlns:xlink="http://www.w3.org/1999/xlink"><defs><style type="text/css">@font-face { font-family: feedback-iconfont; src: url("//at.alicdn.com/t/font_1031158_u69w8yhxdu.woff2?t=1630033759944") format("woff2"), url("//at.alicdn.com/t/font_1031158_u69w8yhxdu.woff?t=1630033759944") format("woff"), url("//at.alicdn.com/t/font_1031158_u69w8yhxdu.ttf?t=1630033759944") format("truetype"); }
</style></defs><path d="M112 112m32 0l736 0q32 0 32 32l0 736q0 32-32 32l-736 0q-32 0-32-32l0-736q0-32 32-32Z" fill="#FFFFFF" p-id="3427"></path><path d="M128 96h768a32 32 0 0 1 32 32v768a32 32 0 0 1-32 32H128a32 32 0 0 1-32-32V128a32 32 0 0 1 32-32z m0 32v768h768V128H128z" fill="#5D6D7E" p-id="3428"></path><path d="M224 384h64v64H224V384z m0 128h64v64H224v-64z m0 128h64v64H224v-64z m0 128h64v64H224v-64zM544 384h64v64h-64V384z m0 128h64v64h-64v-64z m0 128h64v64h-64v-64z m0 128h64v64h-64v-64z" fill="#808FA1" p-id="3429"></path><path d="M320 384h160v64H320V384z m0 128h160v64H320v-64z m0 128h160v64H320v-64z m0 128h160v64H320v-64zM640 384h160v64h-160V384z m0 128h160v64h-160v-64z m0 128h160v64h-160v-64z m0 128h160v64h-160v-64z" fill="#ACB4C0" p-id="3430"></path><path d="M224 224h576v96H224z" fill="#30AD98" p-id="3431"></path></svg>