<?xml version="1.0" standalone="no"?><!DOCTYPE svg PUBLIC "-//W3C//DTD SVG 1.1//EN" "http://www.w3.org/Graphics/SVG/1.1/DTD/svg11.dtd"><svg t="1679046233287" class="icon" viewBox="0 0 1024 1024" version="1.1" xmlns="http://www.w3.org/2000/svg" p-id="6688" width="48" height="48" xmlns:xlink="http://www.w3.org/1999/xlink"><path d="M793.6 682.8288V460.8H243.2v221.7088C108.3008 675.904 0 565.5424 0 431.5904c0-129.856 98.1248-234.56 230.4-251.2512C281.6 79.8336 388.224 12.8 512 12.8c157.8496 0 285.8496 108.8768 315.7248 251.2384C934.4 272.4096 1024 364.544 1024 473.3824c0 117.2864-93.8752 209.4464-213.376 209.4464H793.6z" fill="#ff9933" opacity=".3" p-id="6689"></path><path d="M518.4 833.4336c-151.9872 0-275.2-42.9824-275.2-96V864c0 53.0176 123.2128 96 275.2 96S793.6 917.0176 793.6 864v-126.5664c0 53.0176-123.2128 96-275.2 96z m0-197.184c-151.9872 0-275.2-42.9696-275.2-96V672c0 53.0176 123.2128 96 275.2 96S793.6 725.0176 793.6 672V540.2496c0 53.0304-123.2128 96-275.2 96zM243.2 467.2c0 53.0176 123.2128 96 275.2 96S793.6 520.2176 793.6 467.2c0-53.0176-123.2128-96-275.2-96S243.2 414.1824 243.2 467.2z" fill="#ff9933" p-id="6690"></path></svg>