<?xml version="1.0" standalone="no"?>
<!DOCTYPE svg PUBLIC "-//W3C//DTD SVG 1.1//EN" "http://www.w3.org/Graphics/SVG/1.1/DTD/svg11.dtd">
<svg t="1658303696471" class="icon" viewBox="0 0 1024 1024" version="1.1"
    xmlns="http://www.w3.org/2000/svg" p-id="7374" width="32" height="32"
    xmlns:xlink="http://www.w3.org/1999/xlink">
   <path d="M735.98887 32.01113l95.677217 191.354435-1.29113 0.623305H193.580522l-1.26887-0.623305 95.677218-191.376695h448z" fill="#E0EBFE"></path>
        <path d="M288.01113 800.01113a32.01113 32.01113 0 1 0 64 0 32.01113 32.01113 0 0 0-64.02226 0zM384 800.01113a32.01113 32.01113 0 1 0 64 0 32.01113 32.01113 0 0 0-64 0zM559.994435 832h160.01113a16.005565 16.005565 0 0 0 0-32.01113h-160.01113a16.005565 16.005565 0 0 0 0 32.01113zM288.01113 576a32.01113 32.01113 0 1 0 64 0 32.01113 32.01113 0 0 0-64.02226 0zM384 576a32.01113 32.01113 0 1 0 64 0 32.01113 32.01113 0 0 0-64 0zM559.994435 608.01113h160.01113a16.005565 16.005565 0 0 0 0-32.01113h-160.01113a16.005565 16.005565 0 0 0 0 32.01113zM288.01113 352.01113a32.01113 32.01113 0 1 0 64 0 32.01113 32.01113 0 0 0-64.02226 0zM384 352.01113a32.01113 32.01113 0 1 0 64 0 32.01113 32.01113 0 0 0-64 0zM559.994435 384h160.01113a16.005565 16.005565 0 0 0 0-32.01113h-160.01113a16.005565 16.005565 0 0 0 0 32.01113z" fill="#5465CF"></path>
        <path d="M764.638609 17.697391A10.462609 10.462609 0 0 0 762.88 15.36c-0.400696-0.445217-0.801391-0.890435-1.157565-1.380174l-0.601044-0.890435a24.486957 24.486957 0 0 0-3.539478-4.407652c-1.246609-1.135304-2.626783-1.981217-4.029217-2.82713a83.878957 83.878957 0 0 1-2.404174-1.491479 21.504 21.504 0 0 0-3.873392-2.092521c-1.936696-0.712348-3.940174-0.979478-5.965913-1.246609l-0.890434-0.133565a16.695652 16.695652 0 0 1-1.736348-0.400696 10.017391 10.017391 0 0 0-2.671305-0.489739H287.966609c-0.934957 0-1.78087 0.222609-2.604522 0.467478a14.113391 14.113391 0 0 1-1.80313 0.445218l-0.890435 0.111304c-2.048 0.26713-4.029217 0.534261-5.965913 1.246609a20.368696 20.368696 0 0 0-3.851131 2.092521 63.398957 63.398957 0 0 1-1.268869 0.779131l-1.113044 0.667826c-1.424696 0.868174-2.849391 1.714087-4.096 2.871652-1.335652 1.224348-2.359652 2.693565-3.383652 4.185044l-0.75687 1.090782a13.57913 13.57913 0 0 1-1.202086 1.446957c-0.623304 0.690087-1.246609 1.380174-1.669566 2.292869L163.194435 209.986783c-3.428174 7.123478-4.006957 15.270957-1.625044 22.817391v695.206956c0 17.65287 14.313739 31.98887 31.98887 31.98887h94.430609v32.01113a32.01113 32.01113 0 0 0 64 0v-32.01113h320v32.01113a32.01113 32.01113 0 0 0 64 0v-32.01113h94.386087c17.697391 0 32.01113-14.336 32.01113-32.01113V224.033391a31.298783 31.298783 0 0 0-3.650783-14.157913l1.558261-0.801391L764.66087 17.697391z m-456.859826 46.302609h408.442434l64 128H243.778783l64-128zM225.591652 896v-192h572.794435v192h-572.772174z m572.794435-224.01113h-572.772174v-192h572.772174v192z m-572.772174-223.98887V256h572.772174v192h-572.772174z" fill="#5465CF"></path>
    
</svg>