<?xml version="1.0" standalone="no"?>
<!DOCTYPE svg PUBLIC "-//W3C//DTD SVG 1.1//EN" "http://www.w3.org/Graphics/SVG/1.1/DTD/svg11.dtd">
<svg t="1658303696471" class="icon" viewBox="0 0 1024 1024" version="1.1"
    xmlns="http://www.w3.org/2000/svg" p-id="7374" width="32" height="32"
    xmlns:xlink="http://www.w3.org/1999/xlink">
   <path d="M553.152 779.456a27.456 27.456 0 1 0 54.848 0 27.456 27.456 0 0 0-54.848 0zM416 244.544a27.456 27.456 0 1 0 54.848 0 27.456 27.456 0 0 0-54.848 0z"></path>
        <path d="M809.152 306.304h-91.456V214.848C717.696 167.04 678.784 128 630.848 128H393.152c-47.936 0-86.848 38.976-86.848 86.848v91.456H214.848C167.04 306.304 128 345.216 128 393.152v237.696c0 47.936 38.976 86.848 86.848 86.848h91.456v91.456c0 47.872 38.912 86.848 86.848 86.848h237.696c47.936 0 86.848-38.976 86.848-86.848v-91.456h91.456c47.872 0 86.848-38.912 86.848-86.848V393.152c0-47.936-38.976-86.848-86.848-86.848z m-594.304 356.544a32 32 0 0 1-32-32V393.152a32 32 0 0 1 32-32h267.456a27.392 27.392 0 1 0 0-54.848H361.152V214.848a32 32 0 0 1 32-32h237.696a32 32 0 0 1 32 32v246.208a23.488 23.488 0 0 1-23.488 23.488H384.64c-43.264 0-78.336 35.2-78.336 78.4v99.904H214.848z m626.304-32a32 32 0 0 1-32 32H541.696a27.392 27.392 0 1 0 0 54.848h121.152v91.456a32 32 0 0 1-32 32H393.152a32 32 0 0 1-32-32V562.944c0-12.992 10.496-23.488 23.488-23.488h254.72c43.264 0 78.336-35.2 78.336-78.4V361.152h91.456a32 32 0 0 1 32 32v237.696z"></path>
    
</svg>