<?xml version="1.0" standalone="no"?>
<!DOCTYPE svg PUBLIC "-//W3C//DTD SVG 1.1//EN" "http://www.w3.org/Graphics/SVG/1.1/DTD/svg11.dtd">
<svg t="1658303696471" class="icon" viewBox="0 0 1024 1024" version="1.1"
    xmlns="http://www.w3.org/2000/svg" p-id="7374" width="32" height="32"
    xmlns:xlink="http://www.w3.org/1999/xlink">
   <path d="M512 512m-512 0a512 512 0 1 0 1024 0 512 512 0 1 0-1024 0Z" fill="#FEF9F1"></path>
        <path d="M666.581333 373.632l-16.170666-16.149333a3.157333 3.157333 0 0 0-4.330667 0l-29.013333 29.013333a75.904 75.904 0 0 0-42.709334-13.077333 75.946667 75.946667 0 0 0-53.888 22.314666l-38.826666 38.826667a3.029333 3.029333 0 0 0 0 4.288l103.488 103.509333a3.029333 3.029333 0 0 0 2.197333 0.874667 3.2 3.2 0 0 0 2.133333-0.874667l38.826667-38.826666a76.245333 76.245333 0 0 0 9.28-96.533334l29.013333-29.013333a3.093333 3.093333 0 0 0 0-4.352z m-129.130666 151.573333a3.050667 3.050667 0 0 0-4.288 0l-25.365334 25.365334-34.410666-34.368 25.450666-25.408a3.029333 3.029333 0 0 0 0.64-3.328 3.072 3.072 0 0 0-0.64-1.002667l-13.866666-13.866667a3.029333 3.029333 0 0 0-3.306667-0.64 3.072 3.072 0 0 0-1.002667 0.64l-25.429333 25.429334-16.384-16.384a2.986667 2.986667 0 0 0-2.197333-0.874667 3.221333 3.221333 0 0 0-2.133334 0.874667l-38.762666 38.826666a76.245333 76.245333 0 0 0-9.258667 96.533334l-29.013333 29.013333a3.050667 3.050667 0 0 0 0 4.288l16.149333 16.170667a3.178667 3.178667 0 0 0 4.352 0l29.013333-29.013334c12.8 8.746667 27.733333 13.098667 42.666667 13.098667 19.498667 0 38.997333-7.445333 53.930667-22.336l38.826666-38.826667a3.050667 3.050667 0 0 0 0-4.309333l-16.405333-16.362667 25.386667-25.429333a3.050667 3.050667 0 0 0 0-4.266667l-13.930667-13.824zM445.568 366.336c7.893333-1.834667 12.8 1.216 14.613333 9.130667l5.482667 23.765333c1.834667 7.914667-1.216 12.8-9.130667 14.613333-7.914667 1.834667-12.8-1.216-14.613333-9.130666l-5.504-23.765334c-1.813333-7.893333 1.237333-12.8 9.152-14.613333zM660.544 568.362667c-1.834667 7.914667-6.72 10.965333-14.634667 9.130666l-23.744-5.482666c-7.914667-1.813333-10.965333-6.698667-9.152-14.613334 1.834667-7.914667 6.72-10.965333 14.634667-9.130666l23.744 5.482666c7.936 1.834667 10.965333 6.698667 9.152 14.613334zM380.565333 427.797333c3.690667-7.253333 9.152-9.024 16.384-5.333333l21.738667 11.072c7.253333 3.690667 9.002667 9.152 5.333333 16.384-3.712 7.253333-9.173333 9.024-16.426666 5.333333l-21.717334-11.072c-7.232-3.690667-9.002667-9.152-5.333333-16.384zM578.496 589.205333c7.466667-3.178667 12.8-1.024 16 6.464l9.514667 22.442667c3.178667 7.466667 1.024 12.8-6.464 15.978667-7.466667 3.178667-12.8 1.024-16-6.464l-9.514667-22.442667c-3.178667-7.466667-1.024-12.8 6.464-16z" fill="#FA9600"></path>
    
</svg>