<?xml version="1.0" standalone="no"?>
<!DOCTYPE svg PUBLIC "-//W3C//DTD SVG 1.1//EN" "http://www.w3.org/Graphics/SVG/1.1/DTD/svg11.dtd">
<svg t="1658303696471" class="icon" viewBox="0 0 1024 1024" version="1.1"
    xmlns="http://www.w3.org/2000/svg" p-id="7374" width="32" height="32"
    xmlns:xlink="http://www.w3.org/1999/xlink">
   <path d="M102.4 102.4m341.333333 0l68.266667 0q341.333333 0 341.333333 341.333333l0 0q0 341.333333-341.333333 341.333334l-68.266667 0q-341.333333 0-341.333333-341.333334l0 0q0-341.333333 341.333333-341.333333Z" fill="#FFFFFF"></path>
        <path d="M361.813333 307.2a20.48 20.48 0 0 1 20.48 20.48v232.106667a20.48 20.48 0 1 1-40.96 0V327.68a20.48 20.48 0 0 1 20.48-20.48z m119.466667 0a20.48 20.48 0 0 1 20.48 20.48v232.106667a20.48 20.48 0 1 1-40.96 0V327.68a20.48 20.48 0 0 1 20.48-20.48z m139.946667 20.48a20.48 20.48 0 1 0-40.96 0v232.106667a20.48 20.48 0 1 0 40.96 0V327.68z" fill="#1890FF"></path>
    
</svg>