<?xml version="1.0" standalone="no"?>
<!DOCTYPE svg PUBLIC "-//W3C//DTD SVG 1.1//EN" "http://www.w3.org/Graphics/SVG/1.1/DTD/svg11.dtd">
<svg t="1658303696471" class="icon" viewBox="0 0 1024 1024" version="1.1"
    xmlns="http://www.w3.org/2000/svg" p-id="7374" width="32" height="32"
    xmlns:xlink="http://www.w3.org/1999/xlink">
   <path d="M511.069091 957.253818c-80.151273 0-153.693091-24.994909-201.076364-62.370909-24.064 6.702545-54.830545 17.501091-74.24 30.859636-16.616727 11.450182-14.568727 23.086545-11.589818 27.787637 13.172364 20.712727 225.605818 13.218909 286.952727 6.795636v-3.072z" fill="#FAAD08"></path>
        <path d="M496.64 957.253818c80.151273 0 153.739636-24.994909 201.076364-62.370909 24.110545 6.702545 54.877091 17.501091 74.286545 30.859636 16.616727 11.450182 14.568727 23.086545 11.543273 27.787637-13.125818 20.712727-225.559273 13.218909-286.906182 6.795636v-3.072z" fill="#FAAD08"></path>
        <path d="M497.105455 474.530909c131.956364-0.884364 237.707636-25.786182 273.50109-35.374545 8.564364-2.234182 13.125818-6.330182 13.125819-6.330182 0-1.163636 0.558545-20.945455 0.558545-31.185455 0-171.799273-83.176727-344.436364-287.650909-344.436363s-287.650909 172.637091-287.650909 344.436363c0 10.24 0.512 30.021818 0.558545 31.185455 0 0 3.723636 3.816727 10.519273 5.678545 33.047273 8.983273 140.8 35.141818 276.107636 36.026182h0.93091zM860.299636 619.799273a1469.579636 1469.579636 0 0 0-30.440727-85.736728s-6.469818-0.791273-9.728 0.139637c-100.724364 29.230545-222.766545 47.802182-315.810909 46.685091h-0.930909c-92.485818 1.117091-213.736727-17.268364-314.088727-46.173091-3.863273-1.117091-11.450182-0.651636-11.450182-0.651637-11.170909 29.230545-22.295273 59.624727-30.394182 85.736728-38.725818 124.369455-26.205091 175.848727-16.616727 177.012363 20.48 2.466909 79.778909-93.649455 79.778909-93.649454 0 97.652364 88.296727 247.621818 290.536727 249.018182h5.399273c202.24-1.396364 290.583273-151.365818 290.583273-249.018182 0 0 59.252364 96.116364 79.778909 93.649454 9.541818-1.163636 22.062545-52.642909-16.616728-177.012363z" fill="#000000"></path>
        <path d="M434.362182 316.928c-27.880727 1.210182-51.712-30.114909-53.201455-69.957818-1.536-39.889455 19.828364-73.216 47.755637-74.472727 27.880727-1.210182 51.665455 30.114909 53.201454 70.004363 1.536 39.842909-19.828364 73.169455-47.755636 74.426182z m206.661818-69.957818c-1.442909 39.842909-25.320727 71.214545-53.201455 69.957818-27.927273-1.256727-49.291636-34.583273-47.755636-74.472727 1.536-39.842909 25.367273-71.214545 53.201455-69.957818 27.927273 1.256727 49.338182 34.583273 47.802181 74.472727z" fill="#FFFFFF"></path>
        <path d="M683.938909 368.64c-7.307636-17.640727-81.082182-37.236364-172.357818-37.236364h-0.930909c-91.322182 0-165.050182 19.595636-172.404364 37.236364a6.237091 6.237091 0 0 0 0.465455 5.864727c6.190545 9.774545 88.064 58.042182 171.892363 58.042182h0.977455c83.828364 0 165.701818-48.267636 171.892364-58.042182a6.237091 6.237091 0 0 0 0.465454-5.911272z" fill="#FAAD08"></path>
        <path d="M467.642182 256.372364c1.256727 15.872-7.400727 30.021818-19.269818 31.557818-11.915636 1.536-22.574545-10.100364-23.831273-25.972364-1.256727-15.918545 7.354182-30.021818 19.223273-31.557818 11.962182-1.536 22.621091 10.100364 23.877818 25.972364z m73.076363 7.912727c2.56-4.096 19.828364-25.739636 55.621819-17.873455 9.402182 2.094545 13.777455 5.12 14.661818 6.330182 1.396364 1.768727 1.722182 4.282182 0.372363 7.68-2.746182 6.749091-8.378182 6.516364-11.450181 5.213091-2.001455-0.837818-26.949818-15.872-49.896728 6.562909-1.582545 1.536-4.421818 2.094545-7.121454 0.232727-2.653091-1.815273-3.770182-5.538909-2.187637-8.098909z" fill="#000000"></path>
        <path d="M504.32 584.471273h-0.930909c-63.581091 0.791273-140.660364-7.447273-215.319273-21.876364-6.376727 36.258909-10.24 81.826909-6.935273 136.192 8.378182 137.355636 91.648 223.744 220.16 225.000727h5.213091c128.465455-1.256727 211.735273-87.645091 220.113455-225.000727a580.747636 580.747636 0 0 0-6.981818-136.238545c-74.612364 14.429091-151.738182 22.714182-215.319273 21.922909z" fill="#FFFFFF"></path>
        <path d="M323.258182 577.024v137.448727s64.977455 12.706909 130.048 3.909818V591.592727a1232.942545 1232.942545 0 0 1-130.048-14.568727z" fill="#EB1C26"></path>
        <path d="M788.107636 432.546909s-121.949091 40.401455-283.741091 41.518546h-0.930909c-161.512727-1.117091-283.368727-41.425455-283.787636-41.518546l-40.866909 106.961455c102.213818 32.302545 228.864 53.108364 324.608 51.898181h0.930909c95.790545 1.210182 222.440727-19.595636 324.608-51.898181l-40.820364-106.961455z" fill="#EB1C26"></path>
    
</svg>