<?xml version="1.0" standalone="no"?>
<!DOCTYPE svg PUBLIC "-//W3C//DTD SVG 1.1//EN" "http://www.w3.org/Graphics/SVG/1.1/DTD/svg11.dtd">
<svg t="1658303696471" class="icon" viewBox="0 0 1024 1024" version="1.1"
    xmlns="http://www.w3.org/2000/svg" p-id="7374" width="32" height="32"
    xmlns:xlink="http://www.w3.org/1999/xlink">
   <path d="M156.336008 361.393695v-25.214108l96.103726-83.338817h29.079419L156.318943 361.393695zM156.336008 426.011782v-25.214108l170.62827-147.956904h29.079419L156.336008 426.011782zM156.336008 490.629869v-25.214109l245.144281-212.57499h29.079419L156.327475 490.629869zM156.336008 555.256489V530.050913l319.677358-277.20161h29.070886L156.327475 555.256489zM156.336008 619.883109v-25.214109L550.529377 252.84077h29.079419L156.318943 619.883109zM186.746527 658.126641h-29.079419l467.395346-405.285871h29.070886L186.746527 658.126641zM261.271071 658.126641H232.174587l467.395345-405.285871h29.079419L261.262539 658.126641zM335.795615 658.126641h-29.079419l467.386813-405.285871h29.079419L335.795615 658.126641zM410.320159 658.126641H381.24074l467.395346-405.285871h29.079419L410.320159 658.126641zM484.844703 658.126641h-29.087951l467.395345-405.285871h29.079419L484.844703 658.126641zM559.360715 658.126641h-29.079419l467.395345-405.285871h29.079419L559.360715 658.126641zM633.893791 658.126641h-29.079419l467.386813-405.285871h29.079419L633.893791 658.126641zM708.418335 658.126641h-29.079419l467.395346-405.285871h29.070886L708.418335 658.126641zM782.934347 658.126641H753.86346l467.395346-405.285871h29.079419L782.934347 658.126641zM857.458891 658.126641h-29.079419l467.395345-405.285871h29.079419L857.458891 658.126641zM931.983435 658.126641h-29.070887l467.386813-405.285871h29.079419L931.983435 658.126641zM1006.516511 658.126641h-29.079419l467.386813-405.285871h29.079419L1006.516511 658.126641zM1081.032523 658.126641h-29.079419l467.395345-405.285871h2.337958v23.191861l-440.653884 382.09401zM1155.557067 658.126641h-29.079419l395.208759-342.690032v25.214109l-366.12934 317.484455zM1230.081611 658.126641h-29.079419l320.684215-278.063412v25.214109l-291.604796 252.857835zM1304.614687 658.126641h-29.079419l246.151139-213.436793v25.214109l-217.07172 188.231216zM1379.130699 658.126641h-29.07942l171.635128-148.818706v25.214109l-142.555708 123.613129zM1453.655243 658.126641h-29.07942l97.110584-84.200619v25.222642l-68.031164 58.986509zM1521.686407 638.552642v19.582531h-22.58604l22.58604-19.582531zM206.986076 252.84077l-50.650068 43.926306v-25.214109l21.579182-18.712197h29.070886z" fill="#1D1D1B"></path>
        <path d="M341.188278 652.520661v25.214109l68.17622-59.1145h-29.079419l-39.096801 33.900391zM454.809623 618.62027L341.188278 717.147281v25.214109L483.889042 618.62027h-29.079419zM529.325634 618.62027l-188.145889 163.145098v25.214109L558.422118 618.62027h-29.087951zM603.858711 618.62027L341.179745 846.391987v25.214109L632.929597 618.62027H603.858711zM678.383255 618.62027l-337.194977 292.389804v25.222642L707.462674 618.62027h-29.079419zM752.907799 618.62027l-411.719521 357.016424v25.214109L781.987218 618.62027h-29.079419zM827.42381 618.62027l-467.395345 405.294403h29.079419L856.511762 618.62027h-29.079419zM901.948354 618.62027l-467.386813 405.294403h29.070887L931.036306 618.62027h-29.079419zM976.472898 618.62027l-467.386813 405.294403h29.079419L1005.552317 618.62027h-29.079419zM1051.005975 618.62027l-467.395346 405.294403h29.079419L1080.085394 618.62027h-29.079419zM1125.521986 618.62027L658.126641 1023.914673h29.079419L1154.601405 618.62027h-29.079419zM1200.04653 618.62027l-467.386813 405.294403h29.070887L1229.134482 618.62027h-29.079419zM1274.571074 618.62027l-467.386813 405.294403h29.079419L1303.650493 618.62027h-29.079419zM1349.104151 618.62027l-467.395346 405.294403h29.079419L1378.18357 618.62027h-29.079419zM1423.620162 618.62027l-467.395346 405.294403h29.07942L1452.699581 618.62027h-29.079419zM1498.144706 618.62027L1030.74936 1023.914673h29.07942L1527.224125 618.62027h-29.079419zM1572.66925 618.62027l-467.386813 405.294403h29.079419L1601.748669 618.62027h-29.079419zM1647.202326 618.62027l-467.395345 405.294403h29.079419L1676.273213 618.62027h-29.070887zM1706.538676 631.777683L1254.322992 1023.923206h29.079419L1706.538676 657.000325v-25.222642zM1706.538676 696.404303L1328.847536 1023.923206h29.079419L1706.538676 721.618412v-25.214109zM1706.538676 761.030923L1403.380613 1023.923206h29.070886L1706.538676 786.245032V761.030923zM1706.538676 825.657542l-228.633519 198.257131h29.079419L1706.538676 850.871651v-25.214109zM1706.538676 890.275629l-154.117508 133.639044h29.079419L1706.538676 915.489738v-25.214109zM1706.538676 954.902249l-79.592964 69.012424h29.079419l50.513545-43.798315v-25.214109zM1706.538676 1019.520336l-5.06842 4.394337H1706.538676v-4.394337z" fill="#1D1D1B"></path>
        <path d="M1614.061345 490.126441H268.899299v442.778524h1345.162046V490.126441z" fill="#000000"></path>
        <path d="M1599.393645 518.719496H283.566999v414.202535h1315.826646V518.719496z" fill="#1D1D1B"></path>
        <path d="M1459.960903 490.126441H283.566999v100.020231h1176.393904V490.117908z" fill="#000000"></path>
        <path d="M1429.209076 115.908107H84.04703v442.778525h1345.162046V115.908107z" fill="#0080FF"></path>
        <path d="M1399.865143 117.648776H84.038497v414.202535h1315.826646V117.648776z" fill="#0095FF"></path>
        <path d="M1429.209076 115.91664L176.771809 190.355857 84.04703 558.703697V115.91664h1345.162046z" fill="#FFFFFF" opacity=".25"></path>
        <path d="M268.899299 932.913498l1252.428735-74.439217 92.733311-368.34784v442.787057H268.899299z" fill="#FFFFFF" opacity=".05"></path>
        <path d="M377.588748 803.464007h-47.83428v45.991217h47.83428v-45.991217zM365.105417 894.303061H349.669775v14.829821h15.427109v-14.829821zM279.496904 836.033298h-27.927505v26.860918h27.927505V836.033298zM265.537418 931.352015h-47.825746v45.991218h47.825746v-45.991218zM217.259439 784.632353h-39.139465v37.629177h39.139465v-37.629177zM149.868227 879.242857h-16.85207v16.203585h16.85207v-16.203585zM287.986934 1003.658059h-16.962994v16.305977h16.962994v-16.305977zM178.119974 1006.473848h-11.109566v10.682932h11.109566v-10.682932z" fill="#0095FF"></path>
        <path d="M1310.365723 216.500029h47.834279v-45.991217h-47.834279v45.991217zM1322.849053 125.660975h15.42711V110.839687h-15.42711v14.829821zM1408.449033 183.939271h27.936038v-26.869451h-27.936038v26.869451zM1422.417052 88.612021h47.834279v-45.991218h-47.834279v45.991218zM1470.686499 235.331683h39.139464v-37.63771h-39.139464v37.629178zM1538.094776 140.721179h16.843537v-16.203584h-16.843537v16.212117zM1399.967536 16.297444h16.962994V0h-16.962994v16.297444zM1509.825963 13.481656h11.109567V2.790191h-11.109567v10.674399zM98.17717 60.940496l30.57264-18.925514-18.686598-7.713555-18.678066-7.705022 6.792024 34.344091zM35.717854 120.993592l-19.693456 29.403662L8.020732 132.427401 0 114.474614l35.717854 6.527511zM59.882442 84.320076l-10.665867-53.883959-22.637235 21.596247L3.942104 73.637144l55.940338 10.682932z" fill="#1D1D1B"></path>
        <path d="M454.280596 819.02764c-10.751194 0-20.478464-1.3311-29.181812-3.993301-8.703347-2.6622-16.12679-6.655501-22.270329-11.971369-6.143539-5.324401-10.921848-12.056696-14.334925-20.205418-3.242423-8.148722-4.863635-17.705339-4.863636-28.686915V648.416435h54.523911v103.510104c0 5.819297 1.194577 10.316026 3.583731 13.473123 2.559808 2.986443 6.740828 4.488197 12.54306 4.488196 5.802231 0 9.897924-1.493221 12.287078-4.488196 2.559808-3.157097 3.839712-7.653826 3.839712-13.473123v-103.501571h54.779892v105.745669c0 10.981576-1.706539 20.538193-5.119616 28.686915-3.242423 8.148722-8.020732 14.881017-14.334925 20.205418-6.143539 5.324401-13.566982 9.309168-22.27033 11.971369-8.703347 2.6622-18.430618 3.993301-29.181811 3.993301z m0-29.932689c-25.59808 0-38.39712-12.22735-38.397121-36.664983V668.365873h-6.6555v84.047029c0 13.976552 3.839712 24.702147 11.519136 32.18532 7.850078 7.312518 19.027906 10.973044 33.533485 10.973043 14.505579 0 25.683407-3.660525 33.533485-10.973043 7.850078-7.483172 11.775117-18.208768 11.775116-32.176787V668.365873h-6.911481v84.047029c0 24.446167-12.79904 36.673516-38.39712 36.673517zM675.243223 711.771684c0 11.476473-2.047846 21.28907-6.143539 29.437792a52.476064 52.476064 0 0 1-16.894733 19.454541c-6.996809 4.983093-15.273521 8.643618-24.830137 10.973044-9.385963 2.320893-19.539868 3.489872-30.461716 3.489871v39.659959h-54.523911V648.416435h54.523911c10.921848 0 21.075753 1.160446 30.461716 3.498405 9.556617 2.320893 17.833329 5.972885 24.830137 10.973043 7.167462 4.983093 12.79904 11.553267 16.894733 19.701989 4.095693 7.978068 6.143539 17.705339 6.143539 29.181812z m-24.830137 0c0-7.483172-1.365231-13.968019-4.095693-19.454541-2.559808-5.486522-6.228866-9.983251-11.007175-13.473123-4.778308-3.489872-10.495213-6.058212-17.150713-7.73062a78.074144 78.074144 0 0 0-21.246407-2.738995h-28.92583v126.454516h6.6555v-39.659959h22.27033c7.679424 0 14.76156-0.827671 21.246407-2.491546 6.655501-1.825996 12.372405-4.488197 17.150713-7.978068 4.778308-3.498404 8.447366-7.986601 11.007175-13.473123 2.730462-5.486522 4.095693-11.971369 4.095693-19.454541z m-7.167463 0c0 7.150397-1.279904 13.140348-3.839712 17.961319-2.559808 4.820972-5.972885 8.643618-10.239232 11.46794-4.266347 2.832854-9.215309 4.906299-14.846886 6.237399-5.460924 1.168979-11.263155 1.749202-17.406695 1.749202h-22.27033v-74.831721h22.27033c6.143539 0 11.945771 0.66555 17.406695 1.996651 5.631578 1.160446 10.58054 3.157097 14.846886 5.98995 4.266347 2.815789 7.679424 6.655501 10.239232 11.46794 2.559808 4.829504 3.839712 10.810923 3.839712 17.96132z m-46.332525 18.456216h2.303827c7.167462 0 12.287078-1.578548 15.358848-4.735645 3.242423-3.32775 4.863635-7.901274 4.863636-13.720571s-1.621212-10.307494-4.863636-13.473123c-3.07177-3.32775-8.191386-4.983093-15.358848-4.983093h-2.303827v36.912432zM796.919431 705.039389c-3.07177-2.6622-6.911482-4.658851-11.519136-5.989951a43.764184 43.764184 0 0 0-13.566982-2.244098c-4.948962 0-9.47129 0.912998-13.566983 2.747527-4.095693 1.663875-7.679424 4.070095-10.751194 7.227191-2.901116 2.994975-5.204943 6.655501-6.911481 10.981577-1.706539 4.317543-2.559808 8.976393-2.559808 13.968019a34.898716 34.898716 0 0 0 10.495213 25.18851c3.242423 2.986443 6.996809 5.401195 11.263155 7.235724 4.437001 1.663875 9.129982 2.491546 14.078944 2.491547 5.802231 0 11.092501-1.160446 15.87081-3.498404a39.224791 39.224791 0 0 0 12.287078-9.974719h-15.358848v-34.915781h65.787066v55.37718c-3.925039 6.817622-8.61802 13.055021-14.078944 18.703664-5.460924 5.486522-11.604463 10.222167-18.430618 14.215467-6.655501 3.993301-13.90829 7.06507-21.758368 9.232374-7.850078 2.158771-15.956137 3.242423-24.318176 3.242424-12.287078 0-23.891541-2.244098-34.813389-6.740828a91.453408 91.453408 0 0 1-28.66985-18.456216 89.294636 89.294636 0 0 1-19.19856-27.68859c-4.607654-10.640269-6.911482-22.108209-6.911482-34.412352 0-11.979902 2.2185-23.28572 6.655501-33.925989a86.572707 86.572707 0 0 1 18.174637-27.68859 84.814972 84.814972 0 0 1 27.645927-18.703664 86.009549 86.009549 0 0 1 34.557408-6.988276c9.556617 0 17.833329 0.921531 24.830138 2.747527 6.996809 1.825996 12.884367 3.907974 17.662675 6.228866 5.631578 2.670733 10.324559 5.580381 14.078944 8.737478l-30.973677 42.902383z m2.559808-32.176787a42.834121 42.834121 0 0 0-7.423443-2.500079 73.7822 73.7822 0 0 0-8.447367-1.74067c-3.242423-0.503429-6.826155-0.750877-10.751193-0.750877a67.237624 67.237624 0 0 0-25.3421 4.744178c-7.850078 3.157097-14.676233 7.559966-20.478464 13.217142a60.309077 60.309077 0 0 0-13.822963 19.949437c-3.242423 7.815947-4.863635 16.468098-4.863635 25.939388 0 9.479822 1.706539 18.131973 5.119616 25.939388 3.413077 7.82448 8.106059 14.556775 14.078944 20.205418 5.972885 5.495055 12.884367 9.812597 20.734445 12.969694 8.020732 3.157097 16.553425 4.744178 25.59808 4.744177 11.775117 0 22.440984-2.6622 31.9976-7.986601a68.526061 68.526061 0 0 0 23.294253-21.698639v-32.680216h-27.133965v5.989951h20.478464v24.949595a57.083719 57.083719 0 0 1-20.734445 18.208768c-8.36204 4.488197-17.662675 6.732295-27.901907 6.732295-8.191386 0-15.87081-1.3311-23.038272-3.9933a61.7767 61.7767 0 0 1-18.686599-11.723921 57.425026 57.425026 0 0 1-12.543059-18.208768c-3.07177-7.150397-4.607654-14.966344-4.607654-23.439308 0-8.481497 1.450558-16.212117 4.351673-23.200394 3.07177-7.150397 7.167462-13.225675 12.287079-18.208767a53.209876 53.209876 0 0 1 18.430617-11.723921 60.240815 60.240815 0 0 1 22.782292-4.240749c3.07177 0 5.972885 0.255981 8.703347 0.750877 2.730462 0.494896 5.119616 0.998325 7.167462 1.493222 2.389154 0.66555 4.607654 1.3311 6.655501 1.99665l4.095693-5.73397zM919.858477 756.918164c6.655501 0 13.140348-0.66555 19.454541-1.99665l24.318176 39.907407h7.935405l-25.59808-41.895524c9.215309-3.165629 16.553425-7.986601 22.014349-14.471448 5.460924-6.655501 8.191386-15.213792 8.191386-25.69194 0-7.321051-1.450558-13.720571-4.351674-19.19856a39.165063 39.165063 0 0 0-12.031098-13.729104c-4.948962-3.822647-10.836521-6.655501-17.662675-8.472964-6.826155-1.99665-14.249598-2.994975-22.27033-2.994976h-27.645926v126.454516h6.655501v-37.910757h20.990425z m-20.990425-5.98995v-76.572391h20.990425c15.529502 0 27.645927 3.32775 36.349274 9.983252 8.874001 6.646968 13.311002 16.12679 13.311002 28.430934s-4.437001 21.783966-13.311002 28.430934c-8.703347 6.484847-20.819772 9.72727-36.349274 9.727271h-20.990425z m-32.253581-102.511779h58.875584c10.921848 0 20.990426 1.416427 30.205734 4.240749 9.385963 2.824322 17.492021 6.988276 24.318177 12.474798 6.826155 5.486522 12.116425 12.304144 15.870809 20.452866 3.925039 7.978068 5.887558 17.210443 5.887559 27.680057 0 8.319376-1.194577 15.384446-3.583731 21.203743-2.389154 5.819297-5.034289 10.640269-7.935405 14.462915-3.413077 4.326076-7.252789 7.986601-11.519136 10.981577l31.9976 54.865218h-63.995201l-25.59808-42.151505v42.151505h-54.52391V648.424968z m54.52391 81.811465h2.815789c6.484847 0 11.945771-1.407894 16.382771-4.240749 4.607654-2.824322 6.911482-7.559966 6.911482-14.215467 0-6.655501-2.303827-11.391146-6.911482-14.215467-4.437001-2.832854-9.897924-4.240749-16.382771-4.240749h-2.815789v36.912432zM1078.037547 648.416435h40.956928l64.763143 166.370456h-53.755968l-5.631578-14.966344h-51.708122l-5.631577 14.966344h-53.755969l64.763143-166.370456z m31.9976 114.739128l-11.519136-29.181811-11.519136 29.181811h23.038272z m-58.619603 31.673358l4.863635-12.466265h84.473665l4.863635 12.466265h7.167462l-49.404294-126.454516h-9.727271l-49.404295 126.454516h7.167463z m47.100467-120.473098l39.933005 102.016882h-79.86601l39.933005-102.016882zM1187.588798 814.786891V648.416435h47.356448c16.041464 0 30.291062 1.749202 42.748794 5.239074 12.628386 3.498404 23.208926 8.728945 31.741619 15.717221a66.043047 66.043047 0 0 1 19.710522 26.186836c4.607654 10.307494 6.911482 22.278862 6.911481 35.92264 0 13.626711-2.303827 25.683407-6.911481 36.161554a66.418485 66.418485 0 0 1-19.710522 25.939388c-8.532693 6.988276-19.113233 12.304144-31.741619 15.956137-12.457732 3.498404-26.70733 5.247606-42.748794 5.247606h-47.356448z m32.25358-25.939388V674.355823h15.102868c21.673041 0 38.482447 4.820972 50.428218 14.471448 12.116425 9.47129 18.174637 23.69529 18.174637 42.646402 0 18.959645-6.058212 33.260439-18.174637 42.902382-11.945771 9.641944-28.755177 14.471448-50.428218 14.471448h-15.102868z m-6.6555 5.981418h21.758368c24.915465 0 43.68739-5.486522 56.315776-16.468098 12.79904-11.135165 19.19856-26.767059 19.19856-46.88715s-6.39952-35.666658-19.19856-46.639702c-12.628386-10.973044-31.400312-16.468098-56.315776-16.468098h-21.758368v126.463048z m28.92583-27.432609c12.79904 0 22.696964-2.909648 29.693773-8.728945 6.996809-5.989951 10.495213-15.051671 10.495213-27.193694 0-12.13349-3.498404-21.118416-10.495213-26.937713-6.996809-5.819297-16.894733-8.728945-29.693773-8.728946v71.589298zM1350.076878 648.416435h100.600455v43.65326h-46.076545v18.456216h45.308602v41.400628h-45.308602v19.207093h47.86841v43.653259h-102.39232V648.416435z m83.449741 146.421019v-5.989951h-51.19616v-54.626303h48.636352v-5.989951h-48.636352v-53.875426h51.19616v-5.981418h-57.851661v126.454516h57.851661zM1517.778433 648.416435h58.363623l-8.703347 117.239207h-40.956928l-8.703348-117.239207z m32.253581 101.513454v-83.057238h-6.143539v83.057238h6.143539z m-30.461715 23.200393h54.779891v41.656609h-54.779891v-41.656609z m39.421043 23.695289v-5.73397h-24.062195v5.73397h24.062195zM308.729912 284.949295H273.046188v-49.472556h135.191994v49.472556h-35.683724v139.082903h-63.824546v-139.082903z m35.683724 116.471265V264.871868h41.485955v-6.783491H295.384779v6.783491h41.485956v136.531627h7.542901zM418.340891 235.485272h65.565216v188.546926h-65.565216V235.476739z m36.554059 165.926755V258.096909h-7.542901v143.315118h7.542901zM504.179787 235.485272h51.059637l50.479414 72.35724 50.189302-72.35724h51.059637v188.546926h-61.793765v-67.843445l-39.455174 56.537626-39.745286-56.537626v67.834912h-61.793765V235.485272z m36.554058 165.926755V271.663892l64.984993 92.153088 64.694881-92.153088v129.748135h7.542901V258.096909h-7.542901l-64.694881 93.006358-64.984993-93.006358h-7.542901v143.315118h7.542901zM727.15613 235.485272H841.152914v49.464023h-52.220084v20.922165h51.349749v46.929813h-51.349749v21.758368h54.250865v49.472557h-116.04463V235.476739z m94.567841 165.926755v-6.783491h-58.022315v-61.90469h55.121199v-6.783492h-55.121199v-61.059953h58.022315v-6.783492H756.167287v143.315118h65.565216zM944.202251 284.949295h-35.683723v-49.472556h135.191994v49.472556h-35.683724v139.082903h-63.824547v-139.082903z m35.683724 116.471265V264.871868h41.485955v-6.783491h-90.514811v6.783491h41.485955v136.531627h7.542901zM1040.672883 329.899524c0-13.566982 2.611004-26.383088 7.833012-38.448316a101.300136 101.300136 0 0 1 21.758369-31.374714 101.240407 101.240407 0 0 1 32.492496-21.203743 99.576532 99.576532 0 0 1 39.455174-7.918339c13.925356 0 27.082769 2.645135 39.455174 7.918339a97.784666 97.784666 0 0 1 32.202385 21.203743 95.096868 95.096868 0 0 1 21.758368 31.374714c5.41826 12.065228 8.123124 24.881334 8.123124 38.448316 0 13.566982-2.704864 26.383088-8.123124 38.439784a98.27103 98.27103 0 0 1-21.758368 31.656292c-9.087318 8.865468-19.821447 15.930539-32.202385 21.212276a102.733628 102.733628 0 0 1-39.455174 7.628228c-13.925356 0-27.074236-2.542743-39.455174-7.636761a107.930039 107.930039 0 0 1-32.492496-21.19521 104.858269 104.858269 0 0 1-21.758369-31.656292 95.719754 95.719754 0 0 1-7.833012-38.448317z m27.270488 0c0 9.983251 1.936921 19.411877 5.802231 28.268813a73.628611 73.628611 0 0 0 15.956137 22.893217 75.727654 75.727654 0 0 0 23.499038 15.546567 75.01944 75.01944 0 0 0 29.011157 5.657176c10.256297 0 19.829979-1.885725 28.721046-5.657176a74.618404 74.618404 0 0 0 23.789149-15.546567 73.3385 73.3385 0 0 0 15.956137-22.893217 69.763301 69.763301 0 0 0 5.802231-28.268813c0-9.983251-1.928389-19.318018-5.802231-27.987234a72.434034 72.434034 0 0 0-15.956137-23.183328 74.618404 74.618404 0 0 0-23.789149-15.546567 72.826538 72.826538 0 0 0-28.721046-5.657176c-10.247765 0-19.915306 1.885725-29.011157 5.657176a75.736186 75.736186 0 0 0-23.499038 15.546567 72.698548 72.698548 0 0 0-15.956137 23.183328 67.928772 67.928772 0 0 0-5.802231 27.987234z m33.652943 0c0 5.460924 1.066587 10.648801 3.191227 15.546568 2.133173 4.710047 5.034289 8.856936 8.703347 12.440666 3.677591 3.583731 7.935405 6.39952 12.764909 8.472965 5.034289 2.073444 10.350157 3.114433 15.956137 3.114433 5.614512 0 10.836521-1.040989 15.666025-3.114433a40.61562 40.61562 0 0 0 13.055021-8.472965c3.677591-3.583731 6.578707-7.73062 8.703347-12.440666 2.133173-4.906299 3.191227-10.085644 3.191228-15.546568 0-5.460924-1.058054-10.554942-3.191228-15.273521a39.438109 39.438109 0 0 0-21.758368-21.19521 39.28452 39.28452 0 0 0-15.666025-3.105901 41.46889 41.46889 0 0 0-15.956137 3.105901 41.69074 41.69074 0 0 0-12.764909 8.481497c-3.669058 3.583731-6.570174 7.815947-8.703347 12.713713a36.699114 36.699114 0 0 0-3.191227 15.273521z m40.61562 65.019124a67.06697 67.06697 0 0 1-26.110042-5.094018 71.759951 71.759951 0 0 1-21.178145-13.848562 69.686507 69.686507 0 0 1-14.215467-20.640585 62.484914 62.484914 0 0 1-5.222008-25.435959c0-9.044655 1.740669-17.432293 5.222008-25.162913a65.164179 65.164179 0 0 1 14.215467-20.632052 69.080686 69.080686 0 0 1 21.178145-14.138673 67.075503 67.075503 0 0 1 26.110042-5.085485c9.28357 0 17.893058 1.698006 25.81993 5.085485 8.123124 3.396012 15.188194 8.106059 21.178145 14.138673a62.800623 62.800623 0 0 1 14.505579 20.632052c3.481339 7.73062 5.222008 16.118258 5.222008 25.162913 0 9.044655-1.740669 17.526152-5.222008 25.435959a66.97311 66.97311 0 0 1-35.683724 34.489147c-7.926872 3.396012-16.53636 5.085485-25.81993 5.085485z" fill="#FFFFFF"></path>
    
</svg>