<?xml version="1.0" standalone="no"?>
<!DOCTYPE svg PUBLIC "-//W3C//DTD SVG 1.1//EN" "http://www.w3.org/Graphics/SVG/1.1/DTD/svg11.dtd">
<svg t="1658303696471" class="icon" viewBox="0 0 1024 1024" version="1.1"
    xmlns="http://www.w3.org/2000/svg" p-id="7374" width="32" height="32"
    xmlns:xlink="http://www.w3.org/1999/xlink">
   <path d="M634.24 327.168l28.672 0.512 77.952-77.952 3.84-33.088A348.992 348.992 0 0 0 511.872 128a351.104 351.104 0 0 0-338.304 258.816c8.512-5.888 26.688-1.472 26.688-1.472l155.84-25.6s8-13.248 12.096-12.608a194.304 194.304 0 0 1 265.92-20.096v0.128z" fill="#EA4335"></path>
        <path d="M850.368 387.2a351.04 351.04 0 0 0-105.792-170.56L634.24 327.104a194.304 194.304 0 0 1 72.64 151.488v19.456c53.76 0 97.344 43.712 97.344 97.344 0 53.76-43.712 97.344-97.344 97.344H512.128l-19.52 19.648v116.8l19.52 19.392h194.688A253.568 253.568 0 0 0 960 595.392a253.312 253.312 0 0 0-109.632-208.256z" fill="#4285F4"></path>
        <path d="M317.184 848.704h194.56v-155.968h-194.56c-13.824 0-27.52-2.944-40.064-8.704l-28.096 8.64-77.952 77.952-6.848 26.368a252.032 252.032 0 0 0 152.96 51.648v0.064z" fill="#34A853"></path>
        <path d="M317.184 342.4A253.568 253.568 0 0 0 64 595.456a252.8 252.8 0 0 0 100.352 201.6l112.896-112.832a97.472 97.472 0 0 1-57.408-88.768c0-53.76 43.712-97.344 97.344-97.344a97.92 97.92 0 0 1 88.768 57.408l112.896-112.896a252.8 252.8 0 0 0-201.6-100.352z" fill="#FBBC05"></path>
   
</svg>