<?xml version="1.0" standalone="no"?>
<!DOCTYPE svg PUBLIC "-//W3C//DTD SVG 1.1//EN" "http://www.w3.org/Graphics/SVG/1.1/DTD/svg11.dtd">
<svg t="1658303696471" class="icon" viewBox="0 0 1024 1024" version="1.1"
    xmlns="http://www.w3.org/2000/svg" p-id="7374" width="32" height="32"
    xmlns:xlink="http://www.w3.org/1999/xlink">
   <path d="M1023.866471 511.998507c0 282.715129-229.218106 511.933235-511.933236 511.933235S0 794.713636 0 511.998507 229.218106 0.065271 511.933235 0.065271s511.933235 229.218106 511.933236 511.933236z" fill="#F4F4F4"></path>
        <path d="M1022.28801 552.185266l-42.53312-3.284905a475.457992 475.457992 0 0 0 0-73.803708l42.53312-3.284905a518.033773 518.033773 0 0 1 0 80.373518z m-23.335623-198.459451l-40.570709 13.224942c-7.678999-23.548929-17.107102-46.287297-28.198989-68.001798l37.968381-19.410802c12.115753 23.719573 22.43974 48.505674 30.801317 74.230319z m-97.693926-174.185283a515.21814 515.21814 0 0 0-56.824589-56.82459l-27.729717 32.422439c18.685563 15.997914 36.091293 33.403644 52.089207 52.089206l32.422438-27.729717z m-156.864876-123.75986l-19.410802 37.968382c-21.757163-11.091887-44.452869-20.519991-67.959137-28.156328l13.182281-40.61337c25.681984 8.361576 50.468085 18.685563 74.230319 30.801316zM552.119994 1.601071l-3.284905 42.53312a476.311214 476.311214 0 0 0-73.803708 0l-3.284905-42.53312a518.886995 518.886995 0 0 1 80.373518 0zM353.660543 24.979356l13.224942 40.570709c-23.548929 7.678999-46.287297 17.107102-68.001798 28.198989l-19.410802-37.968382A508.733653 508.733653 0 0 1 353.660543 24.979356z m-174.185283 97.693925l27.729717 32.4651c-18.728224 15.997914-36.133954 33.403644-52.131868 52.089206l-32.422438-27.729717c17.40573-20.349346 36.432582-39.376198 56.824589-56.781928zM55.7154 279.580818l37.968382 19.410802c-11.091887 21.757163-20.519991 44.452869-28.156328 67.959137L24.871423 353.725815c8.361576-25.681984 18.685563-50.468085 30.801316-74.230319z m-54.1796 192.273591a518.886995 518.886995 0 0 0 0 80.373518l42.533119-3.284905a476.311214 476.311214 0 0 1 0-73.803708l-42.533119-3.284905z m23.378284 198.459451l40.570709-13.224942c7.678999 23.548929 17.107102 46.287297 28.198989 68.001798l-37.968382 19.410802a508.861636 508.861636 0 0 1-30.801316-74.230319z m97.693926 174.227944l32.465099-27.729717c15.997914 18.685563 33.403644 36.091293 52.089207 52.089207l-27.729717 32.422438a515.175479 515.175479 0 0 1-56.781928-56.781928z m156.864875 123.717199l19.410802-37.968382c21.757163 11.091887 44.452869 20.562652 67.959137 28.156328l-13.182281 40.61337a508.861636 508.861636 0 0 1-74.230319-30.801316z m192.273591 54.179601l3.284905-42.53312a475.457992 475.457992 0 0 0 73.803708 0l3.284905 42.53312a518.033773 518.033773 0 0 1-80.373518 0z m198.459451-23.378285l-13.224942-40.570709c23.548929-7.678999 46.287297-17.107102 68.001798-28.198989l19.410802 37.968382c-23.719573 12.115753-48.505674 22.43974-74.230319 30.801316z m174.227945-97.693926l-27.729717-32.465099c18.685563-15.997914 36.091293-33.403644 52.089207-52.089207l32.422438 27.729717a515.346124 515.346124 0 0 1-56.781928 56.781928z m123.717198-156.864875l-37.968381-19.410802c11.091887-21.757163 20.562652-44.452869 28.156328-67.959137l40.61337 13.182281a508.989619 508.989619 0 0 1-30.801317 74.230319z" fill="#000000" fill-opacity=".25"></path>
        <path d="M255.966618 256.031889h511.933235v511.933236H255.966618z" fill="#000000" fill-opacity=".25" opacity=".01"></path>
        <path d="M644.865232 578.037894a186.983614 186.983614 0 0 1 55.032823 128.836531 4.010144 4.010144 0 0 1-3.967483 4.095466h-30.033416a3.967483 3.967483 0 0 1-3.967483-3.88216 149.057894 149.057894 0 0 0-43.940936-102.173342A148.972571 148.972571 0 0 0 511.933235 561.016114c-40.101437 0-77.72853 15.613964-106.098163 43.940936a149.057894 149.057894 0 0 0-43.898275 102.173342 4.010144 4.010144 0 0 1-3.967482 3.88216h-29.990756a4.010144 4.010144 0 0 1-4.010143-4.095466 187.794175 187.794175 0 0 1 55.032823-128.79387 186.215714 186.215714 0 0 1 60.36546-40.528047 123.973165 123.973165 0 1 1 145.175734-0.042661l0.298627 0.127983 0.298628 0.085322c22.397079 9.513426 42.490459 23.036996 59.725544 40.314742z m-193.724068-80.202873c16.211219 16.211219 37.840398 25.170051 60.792071 25.17005s44.538191-8.958832 60.792072-25.17005c16.211219-16.296541 25.170051-37.883059 25.170051-60.834733 0-22.951673-8.958832-44.538191-25.170051-60.792072-16.211219-16.211219-37.840398-25.170051-60.792072-25.170051s-44.538191 8.958832-60.792071 25.170051c-16.211219 16.25388-25.170051 37.840398-25.170051 60.792072s8.958832 44.538191 25.170051 60.792072z" fill="#000000" fill-opacity=".25"></path>
    
</svg>