<?xml version="1.0" standalone="no"?>
<!DOCTYPE svg PUBLIC "-//W3C//DTD SVG 1.1//EN" "http://www.w3.org/Graphics/SVG/1.1/DTD/svg11.dtd">
<svg t="1658303696471" class="icon" viewBox="0 0 1024 1024" version="1.1"
    xmlns="http://www.w3.org/2000/svg" p-id="7374" width="32" height="32"
    xmlns:xlink="http://www.w3.org/1999/xlink">
   <path d="M0 0h1024v1024H0z" fill="#000000" opacity=".01"></path>
        <path d="M404.736 317.76l2.496 56.768-39.488 74.048-61.696 120.96-12.352 101.12 44.416 143.104 101.184 56.768h152.96l143.168-108.544 64.128-170.24L651.52 411.52l-41.92-101.12-204.8 7.36z" fill="#ECEFF1"></path>
        <path d="M755.2 458.432c-39.488-56.704-71.616-91.264-88.896-162.816-17.28-71.616 4.992-51.84-9.856-113.536a193.856 193.856 0 0 0-32.064-71.552c-14.784-17.28-32.064-27.136-41.92-29.632-22.272-12.352-74.048-32.064-138.24 2.496-66.56 34.56-59.2 108.544-46.848 259.072 0 9.856-2.496 22.208-7.424 32.064-9.856 22.208-27.136 41.984-41.92 59.264-17.28 24.64-34.56 49.344-46.912 76.48-29.632 56.768-56.768 128.32-49.344 155.52 12.352-2.56 167.808 234.368 167.808 239.36 9.856-2.56 51.84-2.56 88.832-2.56 51.84-2.432 81.408-4.864 123.392 4.992 0-7.424-2.496-14.784-2.496-22.208 0-14.848 2.496-27.136 4.928-44.416 2.496-12.352 4.928-24.704 7.424-39.488-24.704 22.208-69.12 46.848-111.04 54.272-37.056 7.424-98.688-4.928-128.32-41.92 2.432 0 7.36 0 9.856-2.496 7.424-2.432 14.784-4.928 17.28-9.856 7.424-12.352 2.496-24.704-2.496-32.064-4.928-7.424-41.92-34.56-59.2-49.344-17.28-14.848-27.136-22.272-36.992-32.128l-19.776-19.712c-4.928-4.928-7.36-9.92-9.856-12.352a91.648 91.648 0 0 1-4.928-46.912c2.432-27.136 12.352-49.28 24.64-73.984 4.992-9.92 17.28-29.632 17.28-29.632s-41.92 103.68-19.712 135.68c0 0 2.432-32 12.352-64.128 7.36-22.208 19.712-54.272 34.56-71.552 14.72-17.28 51.84-81.408 54.272-120.96 0-17.28 2.432-34.56 2.432-46.848-9.856-9.856 162.88-34.56 172.8-7.424 2.432 9.92 36.992 98.752 56.704 145.6 9.856 22.208 22.208 41.984 29.632 66.624a405.12 405.12 0 0 1 12.352 101.184c0 7.424 0 19.776-2.496 32.064 4.928 0 101.12-103.616-12.352-189.952 0 0 69.12 32 71.552 96.192 2.496 51.84-19.712 93.76-24.64 101.184 2.432 0 51.84 22.208 54.272 22.208 9.856 0 29.632-7.424 29.632-7.424 2.432-7.36 9.856-27.136 9.856-34.56 17.28-56.704-24.704-148.032-64.128-204.8z" fill="#263238"></path>
        <path d="M441.792 295.68c17.728 0 32.064-22.08 32.064-49.28 0-27.328-14.336-49.408-32.064-49.408s-32.064 22.08-32.064 49.344c0 27.264 14.336 49.344 32 49.344zM552.832 300.608c23.168 0 41.92-25.408 41.92-56.704 0-31.36-18.752-56.768-41.92-56.768-23.168 0-41.984 25.408-41.984 56.768s18.816 56.704 41.984 56.704z" fill="#ECEFF1"></path>
        <path d="M459.712 249.664c-2.048-16.256-11.392-28.416-20.864-27.2-9.472 1.216-15.488 15.36-13.44 31.552 2.112 16.192 11.392 28.416 20.864 27.2 9.472-1.216 15.488-15.36 13.44-31.552zM550.4 285.76c13.568 0 24.64-14.336 24.64-32 0-17.792-11.072-32.128-24.704-32.128-13.632 0-24.64 14.336-24.64 32.064s11.008 32.064 24.64 32.064z" fill="#212121"></path>
        <path d="M878.528 796.608c-9.856-4.928-27.136-12.288-41.92-34.56-7.424-12.288-4.928-46.848-17.28-61.632-7.424-9.92-17.28-4.928-19.776-4.928-22.208 4.928-73.984 39.424-108.544 0-4.928-4.992-12.352-12.352-24.704-12.352-12.288 0-17.28 4.928-22.208 14.784-4.928 9.856-4.928 17.28-4.928 41.984 0 19.712 0 41.92-2.432 59.2-4.928 41.92-12.352 66.624-12.352 91.328 0 27.136 7.424 44.416 17.28 51.84 7.424 7.36 19.712 12.288 46.848 12.288 27.2 0 44.48-9.856 61.696-27.136 12.352-12.352 22.208-17.28 56.768-41.92 27.136-17.28 69.12-39.488 76.544-46.912 4.928-4.928 12.288-7.424 12.288-22.208 0-12.352-9.856-17.28-17.28-19.776zM382.528 804.032c-24.64-39.488-27.136-46.912-44.416-71.616-14.784-24.64-46.848-71.552-66.56-71.552-14.848 0-22.272 7.424-32.128 17.28-9.856 9.856-19.712 32.064-36.992 44.416-14.848 12.352-56.768 9.856-66.624 24.704-9.92 14.784 9.856 36.992 9.856 73.984 0 14.848-12.352 24.704-14.784 34.56-2.496 12.352-4.992 19.776 0 29.632 9.856 14.784 22.208 19.712 106.048 36.992 44.48 9.92 86.4 34.56 113.536 37.056 27.136 2.432 74.048 0 74.048-66.624 2.432-39.488-19.776-49.408-41.984-88.896zM429.44 357.376c-14.784-9.856-27.136-19.712-27.136-34.56 0-14.72 9.856-19.712 24.64-32 2.496-2.56 29.632-27.2 56.768-27.2s59.264 17.28 71.552 22.208c22.208 4.928 44.416 9.856 41.984 27.136-2.496 24.704-4.928 29.632-29.632 41.984-17.28 4.928-49.344 32.064-71.552 32.064-9.856 0-24.704 0-34.56-2.496-7.36-2.432-19.712-14.72-32.064-27.136z" fill="#FFC107"></path>
        <path d="M424.512 337.6a53.76 53.76 0 0 0 19.712 12.352c4.928 2.432 12.352 4.928 12.352 4.928h22.208c12.352 0 29.632-4.928 46.912-14.848 17.28-7.36 19.712-12.288 32-17.28 12.416-7.36 24.768-14.72 19.84-17.28-4.992-2.432-9.92 0-27.2 9.92-14.784 9.856-27.136 14.784-41.92 22.208-7.424 2.432-17.28 7.424-24.704 7.424h-22.208c-7.36 0-12.352-2.496-19.712-4.992-4.928-2.432-7.424-4.928-9.856-4.928-4.992-2.432-14.848-12.288-19.776-14.784 0 0-4.928 0-2.432 2.496l14.72 14.72zM498.56 283.392c2.432 4.928 7.36 4.928 9.856 7.36a7.68 7.68 0 0 0 4.928 2.496c2.432-2.496 0-7.424-2.496-7.424 0-4.928-12.288-4.928-12.288-2.432zM459.072 288.256c0 2.496 4.928 4.928 4.928 2.496 2.432-2.496 4.928-4.928 7.36-4.928 4.992-2.496 2.496-4.928-4.928-4.928-4.928 2.432-4.928 4.928-7.36 7.36z" fill="#634703"></path>
        <path d="M698.432 725.056v7.36c4.928 9.856 17.28 12.352 27.136 12.352 14.784 0 29.632-9.856 36.992-19.776 0-2.432 2.496-4.928 4.928-7.36 4.928-7.424 7.424-12.352 9.856-14.784 0 0-2.432-2.496-2.432-4.992-2.496-4.928-9.856-9.856-19.776-12.288a108.8 108.8 0 0 0-24.64-4.992c-22.208-2.432-34.56 4.992-41.92 12.352 0 0 2.432 0 2.432 2.496a22.4 22.4 0 0 1 7.424 17.28c2.432 4.928 0 7.36 0 12.352z" fill="#455A64"></path>
    
</svg>