<?xml version="1.0" standalone="no"?>
<!DOCTYPE svg PUBLIC "-//W3C//DTD SVG 1.1//EN" "http://www.w3.org/Graphics/SVG/1.1/DTD/svg11.dtd">
<svg t="1658303696471" class="icon" viewBox="0 0 1024 1024" version="1.1"
    xmlns="http://www.w3.org/2000/svg" p-id="7374" width="32" height="32"
    xmlns:xlink="http://www.w3.org/1999/xlink">
   <path d="M511.36 64.192a448 448 0 1 0 0 896.064 448 448 0 0 0 0-896z m0 821.312a373.76 373.76 0 0 1-373.376-373.312A373.76 373.76 0 0 1 511.36 138.88a373.76 373.76 0 0 1 373.312 373.312 373.76 373.76 0 0 1-373.312 373.312z" fill="#000000" fill-opacity=".65"></path>
        <path d="M305.984 456.192a56.064 56.064 0 1 0 0.064 112.064 56.064 56.064 0 0 0 0-112z m410.688 0A56.064 56.064 0 1 0 716.8 568.32a56.064 56.064 0 0 0-0.128-112z m-205.376 0A56.064 56.064 0 1 0 511.36 568.32a56.064 56.064 0 0 0 0-112z" fill="#000000" fill-opacity=".65"></path>
    
</svg>