<?xml version="1.0" standalone="no"?>
<!DOCTYPE svg PUBLIC "-//W3C//DTD SVG 1.1//EN" "http://www.w3.org/Graphics/SVG/1.1/DTD/svg11.dtd">
<svg t="1658303696471" class="icon" viewBox="0 0 1024 1024" version="1.1"
    xmlns="http://www.w3.org/2000/svg" p-id="7374" width="32" height="32"
    xmlns:xlink="http://www.w3.org/1999/xlink">
    <path d="M859.136 292.096L530.368 102.336a37.12 37.12 0 0 0-35.648 0.96L165.888 292.992a34.432 34.432 0 0 0-17.792 30.08v379.52c0 12.16 7.488 23.424 17.792 30.976l329.728 189.76a34.752 34.752 0 0 0 35.712 0l328.768-189.76a37.12 37.12 0 0 0 17.792-31.04V323.072a38.912 38.912 0 0 0-18.752-30.976z m-52.608 390.72l-294.016 170.048-293.952-170.048V343.744l293.056-169.984 293.952 169.984v339.072h0.96z" fill="#E30823"></path>
        <path d="M284.288 478.08l123.968-72.32-6.592 309.952 93.952 50.752 1.92-403.008 117.376-63.872-97.664-53.504-232.96 128.64V478.08z" fill="#E30823"></path>
        <path d="M549.12 766.464l96.768-46.08V323.072l-96.704 51.648v391.68z" fill="#E30823"></path>
    
</svg>