<?xml version="1.0" standalone="no"?>
<!DOCTYPE svg PUBLIC "-//W3C//DTD SVG 1.1//EN" "http://www.w3.org/Graphics/SVG/1.1/DTD/svg11.dtd">
<svg t="1658303696471" class="icon" viewBox="0 0 1024 1024" version="1.1"
    xmlns="http://www.w3.org/2000/svg" p-id="7374" width="32" height="32"
    xmlns:xlink="http://www.w3.org/1999/xlink">
    <path d="M478.144 784.32l211.2-37.312 1.92-0.448-108.608-129.152c-36.032-42.496-74.176-87.424-107.84-129.984 0-0.64 112.128-309.376 112.704-310.528 0.256-0.32 76.608 131.456 184.96 319.36l186.048 322.496 1.408 2.496-345.152-0.128H269.696l209.152-36.928-0.64 0.128zM64 745.024l113.664-197.376 113.664-197.12 132.48-111.168C496.832 178.24 556.672 128 556.928 128a28.544 28.544 0 0 1-2.112 5.376l-144 308.608-141.248 303.04-102.784 0.128c-56.512 0.128-102.72 0-102.72-0.128z" fill="#0089D6"></path>
</svg>