<?xml version="1.0" standalone="no"?>
<!DOCTYPE svg PUBLIC "-//W3C//DTD SVG 1.1//EN" "http://www.w3.org/Graphics/SVG/1.1/DTD/svg11.dtd">
<svg t="1658303696471" class="icon" viewBox="0 0 1024 1024" version="1.1"
    xmlns="http://www.w3.org/2000/svg" p-id="7374" width="32" height="32"
    xmlns:xlink="http://www.w3.org/1999/xlink">
   <path d="M501.333333 21.077333C285.013333 21.077333 100.693333 158.08 30.421333 350.037333l204.544 597.205334a498.986667 498.986667 0 0 0 266.368 76.544c276.906667 0 501.333333-224.426667 501.333334-501.333334S778.24 21.12 501.333333 21.12z" fill="#82E8F1"></path>
        <path d="M501.333333 931.712a409.258667 409.258667 0 1 0-409.258666-409.258667 409.258667 409.258667 0 0 0 409.258666 409.258667z" fill="#B7EFFF"></path>
        <path d="M789.248 252.757333h-23.168v-109.653333h23.168c11.008 0 19.925333 8.96 19.925333 19.968v69.717333c0 11.050667-8.917333 19.968-19.925333 19.968z" fill="#FEF056"></path>
        <path d="M789.248 211.84h-23.168v40.96h23.168c11.008 0 19.925333-8.96 19.925333-20.010667v-40.917333c0 11.008-8.917333 19.968-19.925333 19.968z" fill="#FEDF30"></path>
        <path d="M705.152 295.424a23.552 23.552 0 0 1-21.930667-14.933333L610.133333 94.378667l-56.106666-11.392a23.552 23.552 0 0 1 9.386666-46.122667l68.608 13.952a23.552 23.552 0 0 1 17.237334 14.464l77.824 197.973333a23.552 23.552 0 0 1-21.888 32.170667z" fill="#5844A0"></path>
        <path d="M850.432 574.506667L764.288 346.453333l-37.290667-91.221333h-88.448a116.224 116.224 0 0 0-0.725333 89.984 296.277333 296.277333 0 0 1-23.04 197.376c-70.954667 143.914667-281.386667 128.896-333.738667-22.698667v-0.085333a98.048 98.048 0 0 0-94.378666-71.338667 135.381333 135.381333 0 0 0-135.381334 135.381334v63.402666a137.386667 137.386667 0 0 0 137.386667 137.386667h91.008l55.338667 41.642667h324.522666l179.413334-116.608h-6.869334a240.896 240.896 0 0 0 18.346667-135.253334z" fill="#FE646F"></path>
        <path d="M186.666667 448.512H5.418667a505.514667 505.514667 0 0 0 21.162666 235.349333l76.544 100.821334V546.56c0-51.754667 40.106667-94.122667 90.88-97.749333a97.493333 97.493333 0 0 0-7.338666-0.298667zM727.168 255.744l-25.6-62.549333a116.224 116.224 0 0 0-63.232 62.549333h88.832z" fill="#FD3581"></path>
        <path d="M825.642667 964.053333a137.728 137.728 0 1 0 0-275.498666 137.728 137.728 0 0 0 0 275.498666z" fill="#574D56"></path>
        <path d="M779.648 826.325333c0-59.989333 38.357333-111.018667 91.861333-129.877333a137.728 137.728 0 1 0 0 259.797333 137.770667 137.770667 0 0 1-91.861333-129.92z" fill="#433D41"></path>
        <path d="M825.642667 872.32a46.037333 46.037333 0 1 0 0-92.032 46.037333 46.037333 0 0 0 0 92.032z" fill="#6C5E69"></path>
        <path d="M168.874667 688.597333l-66.304 137.728A504.149333 504.149333 0 0 0 234.965333 947.2a137.685333 137.685333 0 0 0-66.090666-258.602667z" fill="#574D56"></path>
        <path d="M168.874667 688.597333l-66.261334 137.728c7.125333 9.301333 14.506667 18.346667 22.272 27.178667h179.072a137.728 137.728 0 0 0-135.04-164.906667z" fill="#433D41"></path>
        <path d="M168.874667 872.32a46.037333 46.037333 0 1 0 0-92.032 46.037333 46.037333 0 0 0 0 92.032z" fill="#6C5E69"></path>
        <path d="M214.912 826.325333a46.037333 46.037333 0 1 0-83.157333 27.178667h74.24c5.632-7.637333 8.917333-17.024 8.917333-27.178667z" fill="#574D56"></path>
        <path d="M705.109333 196.949333c0 34.986667 23.210667 64.554667 55.04 74.154667a17.322667 17.322667 0 0 0 22.442667-16.512V139.349333a17.322667 17.322667 0 0 0-22.442667-16.554666 77.482667 77.482667 0 0 0-55.04 74.154666z" fill="#FE646F"></path>
        <path d="M760.149333 225.28a77.610667 77.610667 0 0 1-51.541333-51.2 77.482667 77.482667 0 0 0 51.584 97.066667 17.322667 17.322667 0 0 0 22.4-16.554667V208.768a17.322667 17.322667 0 0 1-22.442667 16.554667z" fill="#FD3581"></path>
        <path d="M199.808 349.653333H51.285333v98.986667h148.522667a49.493333 49.493333 0 0 0 0-98.986667z" fill="#6953B5"></path>
        <path d="M64.768 448.682667a49.493333 49.493333 0 0 0 0-99.029334H30.592a498.005333 498.005333 0 0 0-25.173333 98.986667h59.306666z" fill="#5844A0"></path>
        <path d="M705.109333 223.573333h-138.666666a26.581333 26.581333 0 0 1 0-53.205333h138.666666a26.581333 26.581333 0 1 1 0 53.205333z" fill="#FFFFFF"></path>
        <path d="M607.402667 223.573333h-40.96a26.581333 26.581333 0 1 1 0-53.205333h40.96a26.581333 26.581333 0 0 1 0 53.205333z" fill="#E7D4CF"></path>
        <path d="M835.285333 519.978667l-68.821333-168.234667c-36.266667 18.944-61.354667 59.093333-61.354667 105.6 0 64.682667 48.512 117.162667 108.373334 117.162667 12.544 0 24.618667-2.346667 35.84-6.570667a240.085333 240.085333 0 0 0-14.037334-47.957333z" fill="#6953B5"></path>
        <path d="M765.226667 428.074667c0-18.688 4.053333-36.266667 11.221333-51.968l-9.984-24.362667c-36.266667 18.944-61.354667 59.093333-61.354667 105.6 0 64.682667 48.512 117.162667 108.373334 117.162667 12.544 0 24.618667-2.346667 35.84-6.570667a240.042667 240.042667 0 0 0-6.784-27.605333c-44.714667-14.421333-77.312-59.221333-77.312-112.256z" fill="#5844A0"></path>
        <path d="M168.874667 624.938667a200.746667 200.746667 0 0 0-142.293334 58.922666 500.053333 500.053333 0 0 0 76.032 142.464h232.405334c20.181333 0 35.413333-18.389333 31.658666-38.229333a201.429333 201.429333 0 0 0-197.76-163.157333z" fill="#FD3581"></path>
        <path d="M135.594667 788.096a201.685333 201.685333 0 0 1 115.541333-145.621333 200.576 200.576 0 0 0-82.261333-17.536 200.746667 200.746667 0 0 0-142.293334 58.922666 500.053333 500.053333 0 0 0 76.032 142.464H167.253333a32.213333 32.213333 0 0 1-31.658666-38.229333z" fill="#FD3581"></path>
        <path d="M546.389333 115.626667a22.528 22.528 0 0 1-22.485333-22.485334V22.741333a22.528 22.528 0 1 1 45.013333 0v70.4a22.528 22.528 0 0 1-22.528 22.485334z" fill="#6953B5"></path>
        <path d="M546.389333 115.626667a22.528 22.528 0 0 1-22.485333-22.485334v-15.146666a22.528 22.528 0 1 1 45.013333 0v15.104a22.528 22.528 0 0 1-22.528 22.528z" fill="#5844A0"></path>
        <path d="M596.522667 792.405333h-134.954667c-16.981333 0-43.008 13.781333-43.008 30.72h-2.048c0 17.024 28.074667 30.762667 45.056 30.762667h134.997333a30.72 30.72 0 1 0 0-61.482667z" fill="#6953B5"></path>
        <path d="M430.506667 823.168c0-16.981333 13.738667-30.762667 30.72-30.762667H369.493333a30.72 30.72 0 0 0 0 61.525334h91.733334a30.762667 30.762667 0 0 1-30.72-30.762667z" fill="#5844A0"></path>
        <path d="M825.642667 624.938667a201.472 201.472 0 0 0-197.76 163.157333 32.213333 32.213333 0 0 0 31.658666 38.229333h332.202667c20.224 0 35.498667-18.389333 31.658667-38.229333a201.429333 201.429333 0 0 0-197.76-163.157333z" fill="#FD3581"></path>
        <path d="M765.653333 788.096a201.685333 201.685333 0 0 1 128.853334-151.04 201.429333 201.429333 0 0 0-266.666667 151.04 32.213333 32.213333 0 0 0 31.701333 38.229333h137.728a32.213333 32.213333 0 0 1-31.616-38.229333z" fill="#FD3581"></path>
    
</svg>