<?xml version="1.0" standalone="no"?>
<!DOCTYPE svg PUBLIC "-//W3C//DTD SVG 1.1//EN" "http://www.w3.org/Graphics/SVG/1.1/DTD/svg11.dtd">
<svg t="1658303696471" class="icon" viewBox="0 0 1024 1024" version="1.1"
    xmlns="http://www.w3.org/2000/svg" p-id="7374" width="32" height="32"
    xmlns:xlink="http://www.w3.org/1999/xlink">
   <path d="M511.999787 511.999787m-511.999787 0a511.999787 511.999787 0 1 0 1023.999573 0 511.999787 511.999787 0 1 0-1023.999573 0Z" fill="#FFC143"></path>
        <path d="M468.095805 472.277137m-420.053158 0a420.053158 420.053158 0 1 0 840.106316 0 420.053158 420.053158 0 1 0-840.106316 0Z" fill="#FFCD6B"></path>
        <path d="M135.85061 859.306309v-265.813223h752.298353v265.813223A510.634454 510.634454 0 0 1 511.999787 1023.999573a510.634454 510.634454 0 0 1-376.149177-164.693264z" fill="#008D1C"></path>
        <path d="M204.799915 921.599616v-328.10653h683.349048v265.813223A510.634454 510.634454 0 0 1 511.999787 1023.999573c-115.242619 0-221.610574-38.101317-307.199872-102.399957z" fill="#00A42C"></path>
        <path d="M511.871787 331.221195l68.863971 68.863972a90.325296 90.325296 0 0 0 127.70128 0l4.991998-4.991998a90.325296 90.325296 0 0 0 0-127.743947l-4.991998-4.949331a90.325296 90.325296 0 0 0-127.70128 0l-68.863971 68.821304z" fill="#FF6930"></path>
        <path d="M511.999787 331.221195L443.178482 262.399891a90.325296 90.325296 0 0 0-127.743947 0l-4.949331 4.949331a90.325296 90.325296 0 0 0 0 127.743947l4.949331 4.949331a90.325296 90.325296 0 0 0 127.743947 0L511.999787 331.221195z" fill="#FF6930"></path>
        <path d="M457.642476 315.562535a54.314644 54.314644 0 1 1 108.671955 0v68.949305h-108.629288V315.562535zM457.642476 1021.140908V593.493086h108.671955v427.647822a518.229117 518.229117 0 0 1-108.629288 0z" fill="#FF7D43"></path>
        <path d="M81.493299 384.51184m104.490624 0l652.031728 0q104.490623 0 104.490623 104.490623l0 0q0 104.490623-104.490623 104.490623l-652.031728 0q-104.490623 0-104.490624-104.490623l0 0q0-104.490623 104.490624-104.490623Z" fill="#00A42C"></path>
        <path d="M169.258596 384.51184m104.490623 0l564.223765 0q104.490623 0 104.490623 104.490623l0 0q0 104.490623-104.490623 104.490623l-564.223765 0q-104.490623 0-104.490623-104.490623l0 0q0-104.490623 104.490623-104.490623Z" fill="#00B327"></path>
        <path d="M438.86915 384.51184h150.485271v208.981246h-150.485271z" fill="#FF9568"></path>
        <path d="M333.397194 652.031728h-2.261332c0-18.431992-6.99733-34.517319-20.906658-48.25598a67.583972 67.583972 0 0 0-49.02398-20.650658v-2.218665c18.687992 0 35.029319-6.911997 48.981313-20.650658 13.951994-13.823994 20.949325-29.909321 20.949325-48.25598h2.261332c0 18.389326 6.99733 34.517319 20.949325 48.213313 13.951994 13.781328 30.293321 20.650658 48.981313 20.650658v2.261332c-18.687992 0-34.986652 6.86933-48.981313 20.607992-13.951994 13.781328-20.906658 29.866654-20.906658 48.298646zM722.133032 261.205224h-2.303999c0-18.389326-6.99733-34.474652-20.906658-48.213313a67.583972 67.583972 0 0 0-48.981312-20.650658v-2.218666c18.687992 0 34.986652-6.911997 48.938646-20.693324 13.951994-13.781328 20.949325-29.866654 20.949324-48.213314h2.303999c0 18.389326 6.954664 34.474652 20.906658 48.213314 13.994661 13.781328 30.293321 20.650658 48.981313 20.650658v2.261332c-18.687992 0-34.986652 6.86933-48.938646 20.607992-13.994661 13.781328-20.949325 29.866654-20.949325 48.255979zM675.754385 741.887691h-1.493333a41.941316 41.941316 0 0 0-13.567994-30.975987 43.946648 43.946648 0 0 0-31.658653-13.226661v-1.450666c12.074662 0 22.613324-4.437331 31.658653-13.226662a42.111982 42.111982 0 0 0 13.567994-30.975987h1.493333c0 11.818662 4.522665 22.101324 13.525328 30.933321 9.04533 8.831996 19.626658 13.226661 31.70132 13.226661v1.450666a43.946648 43.946648 0 0 0-31.70132 13.226661 42.026649 42.026649 0 0 0-13.525328 31.018654zM544.085107 892.330295h-1.493333a41.941316 41.941316 0 0 0-13.525328-30.933321 43.946648 43.946648 0 0 0-31.70132-13.226661v-1.493332c12.117328 0 22.655991-4.394665 31.70132-13.226662a42.111982 42.111982 0 0 0 13.525328-30.975987h1.493333c0 11.818662 4.522665 22.143991 13.567994 30.975987 9.002663 8.831996 19.583992 13.226661 31.658653 13.226662v1.450666a43.946648 43.946648 0 0 0-31.658653 13.226661 42.026649 42.026649 0 0 0-13.567994 30.975987z" fill="#FFFFFF"></path>
    
</svg>