<?xml version="1.0" standalone="no"?>
<!DOCTYPE svg PUBLIC "-//W3C//DTD SVG 1.1//EN" "http://www.w3.org/Graphics/SVG/1.1/DTD/svg11.dtd">
<svg t="1658303696471" class="icon" viewBox="0 0 1024 1024" version="1.1"
    xmlns="http://www.w3.org/2000/svg" p-id="7374" width="32" height="32"
    xmlns:xlink="http://www.w3.org/1999/xlink">
   <path d="M500.82048 1024c276.565333 0 500.778667-229.248 500.778667-512S777.385813 0 500.863147 0C224.255147 0 0.08448 229.248 0.08448 512s224.213333 512 500.736 512z" fill="#46CC8D"></path>
        <path d="M500.82048 0C420.863147 0 345.257813 19.2 278.271147 53.248l-15.616 15.701333-37.589334 15.658667A507.093333 507.093333 0 0 0 121.68448 177.536l75.221333 741.418667A491.52 491.52 0 0 0 500.82048 1024c276.565333 0 500.778667-229.248 500.778667-512S777.385813 0 500.863147 0z" fill="#46CC8D"></path>
        <path d="M500.82048 929.962667c225.792 0 408.789333-187.136 408.789333-417.962667 0-230.826667-183.04-417.962667-408.746666-417.962667-225.792 0-408.789333 187.136-408.789334 417.962667 0 230.826667 183.04 417.962667 408.746667 417.962667z" fill="#A2E62E"></path>
        <path d="M649.727147 281.984A209.152 209.152 0 0 0 469.417813 177.493333h-347.733333a515.072 515.072 0 0 0-114.944 250.453334l747.008 31.701333-104.106667-177.706667z" fill="#A35CB8"></path>
        <path d="M875.177813 741.504l81.706667-17.706667c10.112-22.741333 18.645333-46.378667 25.472-70.784a293.845333 293.845333 0 0 0-2.474667-10.24l-56.704-112.256c-50.346667-62.165333-125.013333-102.570667-208.341333-102.570666H271.657813v313.557333H875.177813z" fill="#B275C3"></path>
        <path d="M572.24448 775.722667c-7.168-11.093333-23.253333-7.253333-34.261333-6.997334-16.725333 0.426667-33.152 2.944-49.749334 4.48-18.645333 1.792-37.546667 1.066667-56.149333-0.426666-17.834667-1.365333-38.101333-2.645333-54.442667-10.922667-17.365333-8.789333-20.053333-29.568-24.405333-46.890667-5.76-22.741333-21.290667-42.496-37.461333-58.624a319.445333 319.445333 0 0 0-28.714667-24.96c-8.917333-6.954667-18.261333-13.226667-25.429333-22.186666-12.970667-16.128-18.346667-36.053333-20.053334-56.618667-3.328-41.045333 10.24-84.394667-1.024-124.586667H6.825813a526.805333 526.805333 0 0 0 12.16 223.829334l273.92 161.152h252.586667l31.658667-6.869334c0.170667-10.026667 0.554667-21.973333-4.864-30.378666z" fill="#A35CB8"></path>
        <path d="M979.881813 642.816l-61.269333 89.258667 70.741333-15.36c0-25.344-3.285333-50.176-9.472-73.898667z" fill="#B275C3"></path>
        <path d="M968.91648 700.16h-146.346667v112.768h146.346667c30.464 0 55.168-25.216 55.168-56.405333 0-31.146667-24.704-56.405333-55.168-56.405334z" fill="#6953B5"></path>
        <path d="M904.78848 808.192c0-94.037333-69.12-171.605333-158.293333-182.4l-0.597334-0.085333a176.981333 176.981333 0 0 0-150.826666 55.765333 185.429333 185.429333 0 0 0-49.536 131.498667h359.168l0.085333-4.778667zM18.985813 651.818667c4.053333 14.677333 8.746667 29.056 14.037334 43.136l207.445333 117.973333h52.437333c3.626667-146.645333-153.770667-237.013333-273.92-161.109333z" fill="#6953B5"></path>
        <path d="M558.847147 781.610667h-201.813334a20.693333 20.693333 0 0 1-20.48-21.418667c1.621333-64.810667-34.389333-124.373333-91.733333-151.765333-7.125333-3.413333-12.970667-10.752-13.013333-18.773334v-161.706666h40.874666v148.693333a206.336 206.336 0 0 1 104.192 163.157333h181.973334v41.813334z" fill="#6953B5"></path>
        <path d="M113.321813 668.288l-40.661333 75.008 90.154667 146.389333c10.922667 10.24 22.314667 20.010667 34.133333 29.226667a140.757333 140.757333 0 0 0 53.205333-110.72c0-77.226667-61.226667-139.904-136.832-139.904z" fill="#574D56"></path>
        <path d="M113.321813 668.288c-29.994667 0-57.728 9.898667-80.298666 26.666667 5.205333 13.909333 11.008 27.52 17.322666 40.832l29.653334 11.392a138.624 138.624 0 0 1 74.922666-72.277334 133.888 133.888 0 0 0-41.6-6.613333z" fill="#433D41"></path>
        <path d="M141.993813 716.842667l-83.328 24.618666 71.082667 114.304c10.496 11.818667 21.504 23.168 33.024 33.92a96.298667 96.298667 0 0 0 44.373333-81.493333c0-42.752-27.349333-78.933333-65.152-91.306667z" fill="#FFFFFF"></path>
        <path d="M113.321813 712.32c-24.021333 0-45.909333 9.216-62.506666 24.405333 6.698667 13.994667 13.952 27.605333 21.845333 40.874667l9.728-1.962667a95.018667 95.018667 0 0 1 59.605333-58.752 91.818667 91.818667 0 0 0-28.672-4.565333z" fill="#F4E3DE"></path>
        <path d="M597.545813 293.461333a162.730667 162.730667 0 0 0-13.226666-19.285333L487.63648 216.746667a155.690667 155.690667 0 0 0-26.453333-2.261334H271.06048v171.093334h354.56a209.066667 209.066667 0 0 0-28.16-92.074667z" fill="#B7EFFF"></path>
        <path d="M234.19648 274.304c0-22.058667 6.314667-42.624 17.237333-59.861333H191.529813c-57.642667 0-104.405333 47.786667-104.405333 106.752 0 58.965333 46.762667 106.752 104.405333 106.752h40.277334l20.48-17.792 20.394666 17.792h8.32l94.293334-22.314667 57.642666 22.314667h167.808a25.642667 25.642667 0 0 0 25.386667-25.941334v-2.816c0-4.821333-0.170667-9.6-0.512-14.378666h-283.306667c-59.733333 0-108.117333-49.493333-108.117333-110.506667z" fill="#82E8F1"></path>
        <path d="M923.177813 530.517333h0.64c-19.797333 0-33.877333 19.797333-27.733333 39.082667l16.810667 52.650667a29.226667 29.226667 0 0 0 27.733333 20.565333h39.253333a297.685333 297.685333 0 0 0-56.704-112.298667z" fill="#FEDF30"></path>
        <path d="M916.991147 622.250667l-16.810667-52.650667a29.866667 29.866667 0 0 1 23.296-38.698667l-0.298667-0.384h-36.138666c-19.84 0-33.877333 19.797333-27.733334 39.082667l16.768 52.650667a29.226667 29.226667 0 0 0 27.733334 20.565333h40.917333a29.226667 29.226667 0 0 1-27.733333-20.565333z" fill="#FFC25E"></path>
        <path d="M231.807147 205.781333h40.874666v222.165334h-40.874666V205.781333z" fill="#A35CB8"></path>
        <path d="M375.081813 534.186667h-26.282666a20.693333 20.693333 0 0 1-20.437334-20.906667c0-11.52 9.173333-20.864 20.48-20.864h26.24c11.264 0 20.437333 9.386667 20.437334 20.906667s-9.173333 20.906667-20.48 20.906666z" fill="#6953B5"></path>
        <path d="M725.119147 948.096c75.562667 0 136.832-62.634667 136.832-139.904 0-77.226667-61.269333-139.904-136.832-139.904s-136.832 62.634667-136.832 139.946667c0 77.226667 61.269333 139.861333 136.832 139.861333z" fill="#574D56"></path>
        <path d="M774.655147 938.666667c-55.253333-18.048-95.232-70.912-95.232-133.333334 0-59.392 36.224-110.122667 87.296-130.432a134.058667 134.058667 0 0 0-41.6-6.613333c-75.562667 0-136.832 62.634667-136.832 139.946667 0 77.226667 61.269333 139.861333 136.832 139.861333 17.493333 0 34.133333-3.370667 49.493333-9.472z" fill="#433D41"></path>
        <path d="M753.791147 716.842667l-12.458667 1.877333c-49.578667 7.381333-84.096 54.229333-77.397333 105.045333 6.016 45.354667 45.141333 78.378667 89.856 75.776a95.744 95.744 0 0 0 65.152-91.306666c0-42.794667-27.349333-78.976-65.152-91.392z" fill="#FFFFFF"></path>
        <path d="M688.639147 808.192c0-42.752 27.349333-78.933333 65.152-91.306667a91.861333 91.861333 0 0 0-28.672-4.565333c-51.797333 0-93.781333 42.922667-93.781334 95.872 0 52.992 41.984 95.914667 93.781334 95.914667 10.026667 0 19.626667-1.621333 28.672-4.565334a95.744 95.744 0 0 1-65.152-91.306666z" fill="#F4E3DE"></path>
        <path d="M725.119147 859.861333c27.904 0 50.517333-23.125333 50.517333-51.626666 0-28.586667-22.613333-51.712-50.517333-51.712-27.904 0-50.517333 23.168-50.517334 51.669333 0 28.586667 22.613333 51.669333 50.517334 51.669333zM113.321813 756.565333c-16.682667 0-31.488 8.277333-40.661333 21.034667 16.810667 28.288 36.266667 54.784 57.984 79.146667a51.626667 51.626667 0 0 0 33.237333-48.554667c0-28.501333-22.613333-51.626667-50.56-51.626667z" fill="#574D56"></path>
        <path d="M487.593813 216.746667l-162.986666 166.570666 40.106666 28.245334 48.597334-0.469334 62.08-26.282666 108.885333-110.634667a158.293333 158.293333 0 0 0-96.682667-57.472z" fill="#FFFFFF"></path>
        <path d="M342.271147 384.853333a106.24 106.24 0 0 1-17.621334-1.536L281.001813 427.946667h151.936l42.453334-43.093334H342.271147z" fill="#B7EFFF"></path>
    
</svg>