<?xml version="1.0" standalone="no"?>
<!DOCTYPE svg PUBLIC "-//W3C//DTD SVG 1.1//EN" "http://www.w3.org/Graphics/SVG/1.1/DTD/svg11.dtd">
<svg t="1658303696471" class="icon" viewBox="0 0 1024 1024" version="1.1"
    xmlns="http://www.w3.org/2000/svg" p-id="7374" width="32" height="32"
    xmlns:xlink="http://www.w3.org/1999/xlink">
   <path d="M0 0h1024v1024H0z" fill="#FFFFFF" opacity=".01"></path>
        <path d="M581.568 491.84l-415.36-358.272C150.72 120.32 128 132.288 128 153.728v716.48c0 21.504 22.72 33.536 38.208 20.224l415.36-358.272a27.264 27.264 0 0 0 0-40.32z" fill="#FFFFFF"></path>
        <path d="M855.296 128H598.272c-2.56 0-4.736 3.904-4.736 8.704v69.824c0 4.8 2.112 8.768 4.736 8.768h107.84l-92.8 593.408H516.672c-2.56 0-4.736 3.968-4.736 8.768v69.76c0 4.864 2.112 8.768 4.736 8.768h257.088c2.56 0 4.736-3.904 4.736-8.704v-69.824c0-4.8-2.112-8.768-4.736-8.768h-111.04l92.8-593.408h99.776c2.56 0 4.736-3.968 4.736-8.768v-69.76c0-4.864-2.176-8.768-4.8-8.768z" fill="#FFFFFF"></path>
    
</svg>