<?xml version="1.0" standalone="no"?>
<!DOCTYPE svg PUBLIC "-//W3C//DTD SVG 1.1//EN" "http://www.w3.org/Graphics/SVG/1.1/DTD/svg11.dtd">
<svg t="1658303696471" class="icon" viewBox="0 0 1024 1024" version="1.1"
    xmlns="http://www.w3.org/2000/svg" p-id="7374" width="32" height="32"
    xmlns:xlink="http://www.w3.org/1999/xlink">
   <path d="M256 597.333333c-94.122667 0-170.666667 76.544-170.666667 170.666667s76.544 170.666667 170.666667 170.666667a170.794667 170.794667 0 0 0 170.581333-169.813334H426.666667V682.666667h170.666666v86.997333h0.170667A170.752 170.752 0 0 0 768 938.666667c94.122667 0 170.666667-76.544 170.666667-170.666667s-76.544-170.666667-170.666667-170.666667h-85.333333v-170.666666h85.333333c94.122667 0 170.666667-76.544 170.666667-170.666667s-76.544-170.666667-170.666667-170.666667-170.666667 76.544-170.666667 170.666667v85.333333h-170.666666V255.146667h-0.085334A170.794667 170.794667 0 0 0 256 85.333333C161.877333 85.333333 85.333333 161.877333 85.333333 256s76.544 170.666667 170.666667 170.666667h85.333333v170.666666H256z m85.333333 170.666667c0 47.872-37.504 85.333333-85.333333 85.333333s-85.333333-37.461333-85.333333-85.333333 37.504-85.333333 85.333333-85.333333h85.333333v85.333333z m341.333334-512c0-47.872 37.504-85.333333 85.333333-85.333333s85.333333 37.461333 85.333333 85.333333-37.504 85.333333-85.333333 85.333333h-85.333333V256z m0 426.666667h85.333333c47.829333 0 85.333333 37.461333 85.333333 85.333333s-37.504 85.333333-85.333333 85.333333-85.333333-37.461333-85.333333-85.333333v-85.333333z m-256-256h170.666666v170.666666h-170.666666v-170.666666zM256 341.333333c-47.829333 0-85.333333-37.461333-85.333333-85.333333s37.504-85.333333 85.333333-85.333333 85.333333 37.461333 85.333333 85.333333v85.333333H256z" fill=""></path>
    
</svg>