<?xml version="1.0" standalone="no"?>
<!DOCTYPE svg PUBLIC "-//W3C//DTD SVG 1.1//EN" "http://www.w3.org/Graphics/SVG/1.1/DTD/svg11.dtd">
<svg t="1658303696471" class="icon" viewBox="0 0 1024 1024" version="1.1"
    xmlns="http://www.w3.org/2000/svg" p-id="7374" width="32" height="32"
    xmlns:xlink="http://www.w3.org/1999/xlink">
   <path d="M887.46666667 207.53066667a80.55466667 80.55466667 0 0 0-79.18933334-68.26666667h-101.71733333V102.4a32.08533333 32.08533333 0 0 0-10.24-23.89333333 32.08533333 32.08533333 0 0 0-23.89333333-10.24H354.304a33.45066667 33.45066667 0 0 0-24.576 10.24 34.13333333 34.13333333 0 0 0-9.55733333 23.89333333v34.13333333H207.53066667a79.872 79.872 0 0 0-68.26666667 79.18933334v668.33066666a79.872 79.872 0 0 0 79.18933333 68.26666667h600.064a79.18933333 79.18933333 0 0 0 68.26666667-79.18933333V207.53066667z m-499.712-68.26666667h250.53866666v68.26666667H387.75466667z m431.44533333 736.59733333v4.096a10.92266667 10.92266667 0 0 1-4.096 5.46133334 9.55733333 9.55733333 0 0 1-6.144 0H212.992a10.92266667 10.92266667 0 0 1-8.192-10.92266667V212.992a10.24 10.24 0 0 1 4.096-6.144 11.60533333 11.60533333 0 0 1 6.82666667 0h104.448V238.93333333a34.13333333 34.13333333 0 0 0 9.55733333 23.89333334 33.45066667 33.45066667 0 0 0 24.576 10.24h318.12266667a34.816 34.816 0 0 0 34.13333333-34.13333334v-34.13333333h105.13066667a10.92266667 10.92266667 0 0 1 5.46133333 4.096 11.60533333 11.60533333 0 0 1 0 6.82666667z"></path>
    
</svg>