<?xml version="1.0" standalone="no"?>
<!DOCTYPE svg PUBLIC "-//W3C//DTD SVG 1.1//EN" "http://www.w3.org/Graphics/SVG/1.1/DTD/svg11.dtd">
<svg t="1658303696471" class="icon" viewBox="0 0 1024 1024" version="1.1"
    xmlns="http://www.w3.org/2000/svg" p-id="7374" width="32" height="32"
    xmlns:xlink="http://www.w3.org/1999/xlink">
    <path d="M402.285714 775.314286h58.514286c21.942857 29.257143 43.885714 51.2 65.828571 65.828571H102.4c-14.628571 0-29.257143-14.628571-29.257143-29.257143V212.114286c0-14.628571 14.628571-29.257143 29.257143-29.257143H877.714286c14.628571 0 29.257143 14.628571 29.257143 29.257143v336.457143c-21.942857-14.628571-43.885714-21.942857-65.828572-29.257143V438.857143H643.657143v80.457143c-10.971429 3.657143-20.114286 7.314286-29.257143 10.971428-9.142857 3.657143-18.285714 7.314286-29.257143 10.971429V438.857143H402.285714v153.6h117.028572c-21.942857 14.628571-43.885714 36.571429-58.514286 58.514286h-58.514286v124.342857z m446.171429-526.628572H650.971429v124.342857h197.485714V248.685714zM585.142857 248.685714H402.285714v124.342857H585.142857V248.685714z m-446.171428 526.628572h197.485714V650.971429H138.971429v124.342857z m0-182.857143h197.485714V438.857143H138.971429v153.6z m0-212.114286h197.485714V248.685714H138.971429v131.657143z m607.085714 182.857143c-102.4 0-197.485714 58.514286-234.057143 153.6 36.571429 87.771429 124.342857 153.6 234.057143 153.6 109.714286 0 197.485714-65.828571 234.057143-153.6-36.571429-95.085714-124.342857-153.6-234.057143-153.6z m0 234.057143c-43.885714 0-80.457143-36.571429-80.457143-80.457143 0-43.885714 36.571429-80.457143 80.457143-80.457143 43.885714 0 80.457143 36.571429 80.457143 80.457143 7.314286 43.885714-29.257143 80.457143-80.457143 80.457143z m0-29.257143a51.2 51.2 0 1 0 0-102.4 51.2 51.2 0 0 0 0 102.4z"></path>
    
</svg>