<?xml version="1.0" standalone="no"?>
<!DOCTYPE svg PUBLIC "-//W3C//DTD SVG 1.1//EN" "http://www.w3.org/Graphics/SVG/1.1/DTD/svg11.dtd">
<svg t="1658303696471" class="icon" viewBox="0 0 1024 1024" version="1.1"
    xmlns="http://www.w3.org/2000/svg" p-id="7374" width="32" height="32"
    xmlns:xlink="http://www.w3.org/1999/xlink">
   <path d="M192 176v672C192 909.888 335.168 960 512 960c176.768 0 320-50.112 320-112V176H192z" fill="#627AB1"></path>
        <path d="M192 624c0 61.824 143.296 112 320 112s320-50.176 320-112v-224C832 461.824 688.704 512 512 512s-320-50.176-320-112v224z" fill="#7C94CC"></path>
        <path d="M192 400C192 461.824 335.296 512 512 512s320-50.176 320-112v-224c0 61.824-143.296 112-320 112s-320-50.176-320-112v224z" fill="#9FB5E9"></path>
        <path d="M832 176c0 33.6-42.112 63.552-108.544 84.032A740.416 740.416 0 0 1 512 288c-176.832 0-320-50.112-320-112S335.168 64 512 64c176.768 0 320 50.112 320 112z" fill="#D3E0FF"></path>
    
</svg>