<?xml version="1.0" standalone="no"?>
<!DOCTYPE svg PUBLIC "-//W3C//DTD SVG 1.1//EN" "http://www.w3.org/Graphics/SVG/1.1/DTD/svg11.dtd">
<svg t="1658303696471" class="icon" viewBox="0 0 1024 1024" version="1.1"
    xmlns="http://www.w3.org/2000/svg" p-id="7374" width="32" height="32"
    xmlns:xlink="http://www.w3.org/1999/xlink">
   <path d="M908.288 322.56l-204.8-204.8c-8.704-8.704-23.04-10.752-33.28-0.512l-52.736 52.736 90.624 90.624a14.272 14.272 0 1 1-10.24 24.576 14.272 14.272 0 0 1-10.24-4.096L596.992 190.464l-50.688 50.688 138.752 138.752c2.56 2.56 4.096 6.144 4.096 10.24s-1.536 7.68-4.096 10.24a14.272 14.272 0 0 1-10.24 4.096 14.272 14.272 0 0 1-10.24-4.096L525.824 261.632l-50.688 50.688L565.76 402.944a14.272 14.272 0 1 1-10.24 24.576 14.272 14.272 0 0 1-10.24-4.096L454.656 332.8l-50.688 50.688L542.72 522.24a14.272 14.272 0 1 1-10.24 24.576 14.272 14.272 0 0 1-10.24-4.096L383.488 403.968l-50.688 50.688L423.424 545.28a14.272 14.272 0 1 1-10.24 24.576 15.232 15.232 0 0 1-10.24-4.096L312.32 475.136l-50.688 50.688 138.752 138.752a14.272 14.272 0 1 1-10.24 24.576 15.232 15.232 0 0 1-10.24-4.096L241.152 546.304l-50.688 50.688 90.624 90.624c2.56 2.56 4.096 6.144 4.096 10.24s-1.536 7.68-4.096 10.24a14.272 14.272 0 0 1-10.24 4.096 14.272 14.272 0 0 1-10.24-4.096L169.984 617.472l-53.248 53.248a23.68 23.68 0 0 0 1.024 32.256l204.288 204.288c7.68 7.68 20.992 9.728 29.696 1.024l554.496-554.496c7.168-6.656 10.752-22.528 2.048-31.232z" fill="#FA7800"></path>
    
</svg>