<?xml version="1.0" standalone="no"?>
<!DOCTYPE svg PUBLIC "-//W3C//DTD SVG 1.1//EN" "http://www.w3.org/Graphics/SVG/1.1/DTD/svg11.dtd">
<svg t="1658303696471" class="icon" viewBox="0 0 1024 1024" version="1.1"
    xmlns="http://www.w3.org/2000/svg" p-id="7374" width="32" height="32"
    xmlns:xlink="http://www.w3.org/1999/xlink">
    <path d="M251.392 512a260.654545 260.654545 0 0 1 13.777455-83.176727L110.964364 313.530182A440.180364 440.180364 0 0 0 64 512c0 71.307636 16.896 138.612364 46.871273 198.283636l154.112-115.432727A260.002909 260.002909 0 0 1 251.392 512" fill="#FBBC05"></path>
        <path d="M522.193455 247.296c64.512 0 122.833455 22.341818 168.634181 59.019636l133.306182-130.327272c-81.221818-69.213091-185.344-111.988364-301.940363-111.988364-181.061818 0-336.709818 101.376-411.229091 249.483636l154.251636 115.339637c35.514182-105.611636 136.750545-181.527273 256.930909-181.527273z" fill="#EA4335"></path>
        <path d="M522.193455 776.704c-120.226909 0-221.509818-75.915636-257.070546-181.527273l-154.158545 115.293091c74.472727 148.154182 230.120727 249.530182 411.229091 249.530182 111.709091 0 218.391273-38.818909 298.496-111.662545l-146.385455-110.778182c-41.285818 25.460364-93.277091 39.144727-152.157091 39.144727" fill="#34A853"></path>
        <path d="M959.534545 512c0-26.484364-4.189091-54.970182-10.426181-81.454545h-426.961455v173.102545h245.76a201.588364 201.588364 0 0 1-93.556364 133.911273l146.33891 110.778182c84.107636-76.427636 138.845091-190.277818 138.84509-336.337455" fill="#4285F4"></path>
    
</svg>