<?xml version="1.0" standalone="no"?>
<!DOCTYPE svg PUBLIC "-//W3C//DTD SVG 1.1//EN" "http://www.w3.org/Graphics/SVG/1.1/DTD/svg11.dtd">
<svg t="1658303696471" class="icon" viewBox="0 0 1024 1024" version="1.1"
    xmlns="http://www.w3.org/2000/svg" p-id="7374" width="32" height="32"
    xmlns:xlink="http://www.w3.org/1999/xlink">
   <path d="M512 512m-512 0a512 512 0 1 0 1024 0 512 512 0 1 0-1024 0Z" fill="#000000" fill-opacity=".07"></path>
        <path d="M170.666667 170.666667h682.666666v682.666666H170.666667z" fill="#000000" opacity=".01"></path>
        <path d="M532.010667 272h-40.021334c-3.541333 0-5.333333 1.792-5.333333 5.333333v209.322667H288c-3.541333 0-5.333333 1.792-5.333333 5.333333v40.021334c0 3.541333 1.792 5.333333 5.333333 5.333333h198.656V746.666667c0 3.541333 1.792 5.333333 5.333333 5.333333h40.021334c3.541333 0 5.333333-1.792 5.333333-5.333333v-209.322667h198.656c3.541333 0 5.333333-1.792 5.333333-5.333333v-40.021334c0-3.541333-1.792-5.333333-5.333333-5.333333h-198.656V277.333333c0-3.541333-1.792-5.333333-5.333333-5.333333z m5.333333 214.656h-50.688v50.688h50.688v-50.688z" fill="#000000"></path>
    
</svg>