<?xml version="1.0" standalone="no"?>
<!DOCTYPE svg PUBLIC "-//W3C//DTD SVG 1.1//EN" "http://www.w3.org/Graphics/SVG/1.1/DTD/svg11.dtd">
<svg t="1658303696471" class="icon" viewBox="0 0 1024 1024" version="1.1"
    xmlns="http://www.w3.org/2000/svg" p-id="7374" width="32" height="32"
    xmlns:xlink="http://www.w3.org/1999/xlink">
   <path d="M365.49973333 684.10026667a34.13333333 34.13333333 0 0 1 3.8912 43.55413334l-3.8912 4.77866666-136.53333333 136.53333334a34.13333333 34.13333333 0 0 1-43.55413333 3.8912l-4.77866667-3.8912-68.26666667-68.26666667a34.13333333 34.13333333 0 0 1 43.55413334-52.224l4.77866666 3.8912 44.10026667 44.16853333 112.36693333-112.4352a34.13333333 34.13333333 0 0 1 48.3328 0zM887.46666667 742.40000001a34.13333333 34.13333333 0 0 1 0 68.26666666h-409.6a34.13333333 34.13333333 0 0 1 0-68.26666666h409.6zM365.49973333 411.03360001a34.13333333 34.13333333 0 0 1 3.8912 43.55413333l-3.8912 4.77866667-136.53333333 136.53333333a34.13333333 34.13333333 0 0 1-43.55413333 3.8912l-4.77866667-3.8912-68.26666667-68.26666667a34.13333333 34.13333333 0 0 1 43.55413334-52.224l4.77866666 3.8912 44.10026667 44.16853334 112.36693333-112.4352a34.13333333 34.13333333 0 0 1 48.3328 0zM887.46666667 469.33333334a34.13333333 34.13333333 0 0 1 0 68.26666667h-409.6a34.13333333 34.13333333 0 0 1 0-68.26666667h409.6zM365.49973333 137.96693334a34.13333333 34.13333333 0 0 1 3.8912 43.55413333l-3.8912 4.77866667-136.53333333 136.53333333a34.13333333 34.13333333 0 0 1-43.55413333 3.8912l-4.77866667-3.8912-68.26666667-68.26666666a34.13333333 34.13333333 0 0 1 43.55413334-52.224l4.77866666 3.8912 44.10026667 44.16853333 112.36693333-112.4352a34.13333333 34.13333333 0 0 1 48.3328 0zM887.46666667 196.26666667a34.13333333 34.13333333 0 0 1 0 68.26666667h-409.6a34.13333333 34.13333333 0 0 1 0-68.26666667h409.6z"></path>
    
</svg>