<?xml version="1.0" standalone="no"?>
<!DOCTYPE svg PUBLIC "-//W3C//DTD SVG 1.1//EN" "http://www.w3.org/Graphics/SVG/1.1/DTD/svg11.dtd">
<svg t="1658303696471" class="icon" viewBox="0 0 1024 1024" version="1.1"
    xmlns="http://www.w3.org/2000/svg" p-id="7374" width="32" height="32"
    xmlns:xlink="http://www.w3.org/1999/xlink">
   <path d="M326.016 664H104a16 16 0 0 0-16 16v48c0 8.768 7.232 16 16 16h174.016v176c0 8.768 7.168 16 16 16h48a16 16 0 0 0 16-16v-224a32 32 0 0 0-32-32z m16-576h-48a16 16 0 0 0-16 16v176H104a16 16 0 0 0-16 16v48c0 8.832 7.232 16 16 16h222.016a32 32 0 0 0 32-32v-224a16 16 0 0 0-16-16z m577.984 576h-222.016a32 32 0 0 0-32 32v224c0 8.768 7.232 16 16 16h48a16 16 0 0 0 16-16v-176h174.016a16 16 0 0 0 16-16v-48a16 16 0 0 0-16-16z m0-384h-174.016v-176a16 16 0 0 0-16-16h-48a16 16 0 0 0-16 16v224a32 32 0 0 0 32 32h222.016a16 16 0 0 0 16-16v-48a16 16 0 0 0-16-16z" fill="#000000" opacity=".65"></path>
    
</svg>