<?xml version="1.0" standalone="no"?>
<!DOCTYPE svg PUBLIC "-//W3C//DTD SVG 1.1//EN" "http://www.w3.org/Graphics/SVG/1.1/DTD/svg11.dtd">
<svg t="1658303696471" class="icon" viewBox="0 0 1024 1024" version="1.1"
    xmlns="http://www.w3.org/2000/svg" p-id="7374" width="32" height="32"
    xmlns:xlink="http://www.w3.org/1999/xlink">
   <path d="M139.904 386.56v240.192h20.608c29.824 0 51.136-9.088 63.808-27.264 12.672-18.304 19.008-49.408 19.008-93.248 0-43.52-6.336-74.304-19.008-92.48-12.672-18.176-33.92-27.264-63.808-27.264h-20.608zM64 320h81.28c62.848 0 108.032 14.592 135.68 43.776 27.584 28.992 41.408 76.48 41.408 142.464 0 66.176-13.824 113.92-41.472 143.232-27.584 29.184-72.768 43.776-135.552 43.776H64V320zM457.472 386.56v240.192h20.544c29.888 0 51.2-9.088 63.808-27.264 12.736-18.304 19.072-49.408 19.072-93.248 0-43.52-6.4-74.304-19.072-92.48-12.672-18.176-33.92-27.264-63.808-27.264h-20.544zM381.568 320h81.28c62.784 0 107.968 14.592 135.616 43.776 27.584 28.992 41.408 76.48 41.408 142.464 0 66.176-13.76 113.92-41.408 143.232-27.648 29.184-72.832 43.776-135.616 43.776h-81.28V320zM721.728 693.248V320h75.904v308.224H960v65.024h-238.272z"></path>
    
</svg>