<?xml version="1.0" standalone="no"?>
<!DOCTYPE svg PUBLIC "-//W3C//DTD SVG 1.1//EN" "http://www.w3.org/Graphics/SVG/1.1/DTD/svg11.dtd">
<svg t="1658303696471" class="icon" viewBox="0 0 1024 1024" version="1.1"
    xmlns="http://www.w3.org/2000/svg" p-id="7374" width="32" height="32"
    xmlns:xlink="http://www.w3.org/1999/xlink">
   <path d="M328.832 744.32h-59.072a227.008 227.008 0 0 1-165.376-70.848 225.536 225.536 0 0 1-63.04-167.36 222.784 222.784 0 0 1 72.128-156.8 237.312 237.312 0 0 1 162.24-63.744h173.248c21.376 0.32 42.56 3.648 63.04 9.792a228.672 228.672 0 0 1 126.08 92.608c15.872 23.232 27.2 49.28 33.408 76.8 3.84 16.768 5.76 33.92 5.952 51.2 0.32 11.84-0.384 23.68-1.92 35.392-5.376 10.688-11.84 15.808-19.712 15.808H588.8a21.312 21.312 0 0 1-3.008 0.192 17.28 17.28 0 0 1-17.408-14.976 19.264 19.264 0 0 1 0.64-8.896l0.896-4.352c1.856-7.616 2.88-15.36 3.072-23.168 0-17.536-3.328-34.944-9.856-51.2a124.352 124.352 0 0 0-53.12-61.056 156.672 156.672 0 0 0-63.04-15.744h-179.2a129.92 129.92 0 0 0-95.232 41.6 123.136 123.136 0 0 0-32.768 94.272 129.28 129.28 0 0 0 131.904 118.144h11.84a20.672 20.672 0 0 1 17.728 9.792 172.8 172.8 0 0 0 17.728 31.488l21.632 27.584a20.416 20.416 0 0 1 2.88 20.672 19.328 19.328 0 0 1-14.656 12.8z m431.744-7.68c-3.392 0-6.848 0-10.304-0.192h-179.2a234.24 234.24 0 0 1-63.04-9.792A228.416 228.416 0 0 1 382.08 634.112a199.04 199.04 0 0 1-33.472-74.88 227.712 227.712 0 0 1-5.888-51.2c-0.32-11.84 0.32-23.68 1.92-35.392 5.376-10.688 11.84-15.808 19.712-15.808h66.944a21.248 21.248 0 0 1 3.008-0.192 17.28 17.28 0 0 1 14.016 6.784 19.264 19.264 0 0 1 2.624 17.088l-0.832 4.416c-1.856 7.552-2.88 15.36-3.072 23.168 0 17.536 3.328 34.944 9.856 51.2 10.432 25.728 29.12 47.168 53.184 60.992 19.712 9.6 41.152 14.976 63.04 15.744h179.2a129.92 129.92 0 0 0 95.232-41.6 123.072 123.072 0 0 0 32.768-94.272 129.28 129.28 0 0 0-131.968-118.144h-11.776a20.672 20.672 0 0 1-17.728-9.792c-10.88-21.12-24.064-40.96-39.424-59.072a18.24 18.24 0 0 1-1.92-19.712 19.712 19.712 0 0 1 17.664-11.776l53.184 1.92h3.712a231.104 231.104 0 0 1 230.656 220.544 225.92 225.92 0 0 1-63.744 165.632 218.688 218.688 0 0 1-158.336 66.944z" fill="#FC3E40"></path>
    
</svg>