<?xml version="1.0" standalone="no"?>
<!DOCTYPE svg PUBLIC "-//W3C//DTD SVG 1.1//EN" "http://www.w3.org/Graphics/SVG/1.1/DTD/svg11.dtd">
<svg t="1658303696471" class="icon" viewBox="0 0 1024 1024" version="1.1"
    xmlns="http://www.w3.org/2000/svg" p-id="7374" width="32" height="32"
    xmlns:xlink="http://www.w3.org/1999/xlink">
   <path d="M251.392 512c0-29.12 4.992-56.96 13.76-83.2L110.912 313.6A440.192 440.192 0 0 0 64 512c0 71.296 16.896 138.624 46.912 198.336L264.96 594.816A260.032 260.032 0 0 1 251.392 512" fill="#FBBC05"></path>
        <path d="M522.24 247.296c64.448 0 122.752 22.4 168.576 59.008l133.312-130.304A462.08 462.08 0 0 0 522.24 64C341.12 64 185.6 165.376 110.976 313.536L265.216 428.8c35.52-105.6 136.768-181.568 256.96-181.568z" fill="#EA4335"></path>
        <path d="M522.24 776.704c-120.32 0-221.568-75.904-257.088-181.568l-154.24 115.328C185.536 858.624 341.12 960 522.24 960c111.744 0 218.432-38.848 298.496-111.68l-146.368-110.72c-41.28 25.408-93.248 39.104-152.128 39.104" fill="#34A853"></path>
        <path d="M959.552 512c0-26.432-4.224-55.04-10.432-81.472H522.176v173.12h245.76a201.6 201.6 0 0 1-93.568 133.888l146.304 110.848c84.16-76.48 138.88-190.336 138.88-336.384" fill="#4285F4"></path>
    
</svg>