<?xml version="1.0" standalone="no"?>
<!DOCTYPE svg PUBLIC "-//W3C//DTD SVG 1.1//EN" "http://www.w3.org/Graphics/SVG/1.1/DTD/svg11.dtd">
<svg t="1658303696471" class="icon" viewBox="0 0 1024 1024" version="1.1"
    xmlns="http://www.w3.org/2000/svg" p-id="7374" width="32" height="32"
    xmlns:xlink="http://www.w3.org/1999/xlink">
   <path d="M512 22.016L121.344 153.6a42.944 42.944 0 0 0-29.632 41.216V554.88c0 234.688 244.288 332.16 420.288 447.168 176-115.072 420.288-212.48 420.288-447.168V194.816a42.88 42.88 0 0 0-29.632-41.216L512 22.016z" fill="#0062D9"></path>
        <path d="M511.872 926.976c38.016-23.552 76.8-46.016 115.008-69.376 113.28-69.376 242.048-154.688 242.048-302.784V209.088L512 88.96 155.072 209.088V554.88c0 44.16 10.688 84.416 33.28 122.432 61.76 104 212.48 181.888 323.52 249.728z" fill="#4EB1FC"></path>
        <path d="M584.832 396.544h58.24V316.096A131.52 131.52 0 0 0 512 184.96 131.52 131.52 0 0 0 380.8 316.096v80.448h58.24V316.096C439.168 276.032 472 243.2 512 243.2s72.832 32.832 72.832 72.896v80.448z" fill="#FFFFFF"></path>
        <path d="M668.16 391.296H352.832a45.568 45.568 0 0 0-45.504 45.568v223.616c0 25.152 20.352 45.504 45.504 45.504h315.456a45.568 45.568 0 0 0 45.504-45.504V436.864a45.568 45.568 0 0 0-45.504-45.568z" fill="#FDC72E"></path>
        <path d="M493.44 480.64A38.336 38.336 0 0 1 515.2 550.4v54.848a21.952 21.952 0 0 1-21.888 21.888 21.952 21.952 0 0 1-21.888-21.888V550.4a38.272 38.272 0 0 1 21.888-69.76z" fill="#FDC72E"></path>
        <path d="M512 480.64a38.336 38.336 0 0 1 21.888 69.76v54.848A21.952 21.952 0 0 1 512 627.2a21.952 21.952 0 0 1-21.888-21.888V550.4A38.272 38.272 0 0 1 512 480.64z" fill="#FFFFFF"></path>
    
</svg>