<?xml version="1.0" standalone="no"?>
<!DOCTYPE svg PUBLIC "-//W3C//DTD SVG 1.1//EN" "http://www.w3.org/Graphics/SVG/1.1/DTD/svg11.dtd">
<svg t="1658303696471" class="icon" viewBox="0 0 1024 1024" version="1.1"
    xmlns="http://www.w3.org/2000/svg" p-id="7374" width="32" height="32"
    xmlns:xlink="http://www.w3.org/1999/xlink">
   <path d="M746.176 190.72a31.936 31.936 0 0 1 45.12-0.064l0.128 0.128 30.72 30.656V85.376a32 32 0 1 1 64 0V221.44l30.72-30.72a32 32 0 0 1 45.184 45.248L876.8 321.344a32 32 0 0 1-45.248 0L746.24 235.968a32 32 0 0 1 0-45.184z" fill="#49AA19"></path>
        <path d="M512.128 938.816a426.688 426.688 0 0 0 412.928-533.504 12.8 12.8 0 0 0-16.192-8.064 195.648 195.648 0 0 1-75.968 7.04 192 192 0 0 1-154.368-270.528 12.992 12.992 0 0 0-6.656-17.216 416.384 416.384 0 0 0-172.16-31.104A426.688 426.688 0 0 0 85.248 524.16a431.36 431.36 0 0 0 426.88 414.72zM338.944 603.328c40.256 29.312 101.12 47.104 172.992 47.104 71.872 0 132.672-17.792 172.928-47.104v47.104c0 47.68-77.376 86.4-172.928 86.4-95.616 0-172.992-38.72-172.992-86.4v-47.104zM512 512c71.808 0 132.672-17.792 172.928-47.104V512c0 47.68-77.376 86.4-172.928 86.4-95.616 0-172.992-38.72-172.992-86.4v-47.104c40.32 29.312 101.12 47.104 172.992 47.104z m0-51.904c-95.488 0-172.992-38.784-172.992-86.528 0-47.68 77.44-86.4 172.992-86.4 95.552 0 172.928 38.656 172.928 86.4C684.864 421.376 607.36 460.16 512 460.16z" fill="#49AA19"></path>
    
</svg>