<?xml version="1.0" standalone="no"?>
<!DOCTYPE svg PUBLIC "-//W3C//DTD SVG 1.1//EN" "http://www.w3.org/Graphics/SVG/1.1/DTD/svg11.dtd">
<svg t="1658303696471" class="icon" viewBox="0 0 1024 1024" version="1.1"
    xmlns="http://www.w3.org/2000/svg" p-id="7374" width="32" height="32"
    xmlns:xlink="http://www.w3.org/1999/xlink">
   <path d="M91.575 731.429c-12.288 0-18.432-7.68-18.432-22.967V315.538c0-15.36 6.144-22.967 18.432-22.967h40.082c12.288 0 18.432 7.68 18.432 22.967v392.924c0 15.36-6.144 22.967-18.432 22.967H91.575z m161.353 0c-12.288 0-18.432-7.68-18.432-22.967V315.538c0-15.36 6.144-22.967 18.432-22.967h91.94c80.897 0 135.534 19.018 163.987 56.906 28.672 38.034 42.935 91.94 42.935 161.938 0 69.924-14.263 124.123-42.935 162.45-28.526 38.4-83.09 57.564-163.986 57.564h-91.941z m58.514-75.923h28.453c54.491 0 89.673-11.703 105.691-35.108 16.019-23.699 23.991-59.977 23.991-108.983s-8.046-85.138-23.99-108.398c-15.946-23.406-51.2-35.108-105.692-35.108h-28.526v287.597z m306.835 75.923c-16.896 0-20.261-8.778-10.021-26.332l116.736-200.119-107.3-186.075c-10.167-17.554-6.803-26.332 10.02-26.332h53.248c9.362 0 17.262 5.998 23.771 18.067l71.9 132.169 71.972-132.17c6.583-12.068 14.41-18.066 23.772-18.066h53.248c16.823 0 20.187 8.778 9.947 26.332L828.05 504.978l117.029 200.12c10.24 17.553 6.875 26.33-10.02 26.33h-53.98c-9.143 0-17.042-5.997-23.772-18.066l-80.676-146.285-80.604 146.285c-6.729 12.069-14.628 18.067-23.771 18.067h-53.98z"></path>
    
</svg>