<?xml version="1.0" standalone="no"?>
<!DOCTYPE svg PUBLIC "-//W3C//DTD SVG 1.1//EN" "http://www.w3.org/Graphics/SVG/1.1/DTD/svg11.dtd">
<svg t="1658303696471" class="icon" viewBox="0 0 1024 1024" version="1.1"
    xmlns="http://www.w3.org/2000/svg" p-id="7374" width="32" height="32"
    xmlns:xlink="http://www.w3.org/1999/xlink">
   <path d="M0 0h1024v1024H0z" fill="#000000" opacity=".01"></path>
        <path d="M360.064 484.032c0 8.896 0.512 17.664 1.408 26.368a8 8 0 0 1-5.952 8.704 225.728 225.728 0 0 0-104.704 59.712 226.048 226.048 0 0 0-66.752 153.472 7.936 7.936 0 0 1-8 7.68h-56.064a8 8 0 0 1-8-8.192 297.408 297.408 0 0 1 87.808-203.968 300.608 300.608 0 0 1 86.464-60.416 199.552 199.552 0 0 1-74.176-155.52c0-110.72 92.416-201.6 203.328-199.872a200.32 200.32 0 0 1 175.68 109.888 8 8 0 0 1-6.336 11.584c-19.072 2.048-37.696 6.336-55.296 12.416a8 8 0 0 1-9.28-3.2 127.872 127.872 0 0 0-106.432-58.816 127.36 127.36 0 0 0-93.184 38.72 127.36 127.36 0 0 0-36.288 85.632 127.552 127.552 0 0 0 75.584 120.448 8.064 8.064 0 0 1 4.48 8.832 254.528 254.528 0 0 0-4.288 46.464z m464.128 215.872a301.632 301.632 0 0 0-86.4-60.416 199.552 199.552 0 0 0 74.24-155.52 201.216 201.216 0 0 0-203.264-200 200.128 200.128 0 0 0-122.752 355.52c-31.744 14.72-60.928 34.88-86.4 60.416a298.048 298.048 0 0 0-87.68 203.904 8 8 0 0 0 8.064 8.192h56A7.936 7.936 0 0 0 384 904.32a225.984 225.984 0 0 1 66.688-153.536 226.56 226.56 0 0 1 161.28-66.752c60.928 0 118.208 23.68 161.28 66.752a226.88 226.88 0 0 1 66.752 153.536c0.128 4.288 3.712 7.68 8 7.68h56c4.48 0 8.128-3.712 8-8.192a297.344 297.344 0 0 0-87.808-203.904zM611.968 612.032a126.912 126.912 0 0 1-90.496-37.504 128.192 128.192 0 0 1 89.216-218.496 128.768 128.768 0 0 1 91.008 36.544c24.768 24.32 38.4 56.832 38.4 91.392 0 34.24-13.312 66.304-37.504 90.56a127.296 127.296 0 0 1-90.624 37.44z" fill="#000000"></path>
    
</svg>