<?xml version="1.0" standalone="no"?>
<!DOCTYPE svg PUBLIC "-//W3C//DTD SVG 1.1//EN" "http://www.w3.org/Graphics/SVG/1.1/DTD/svg11.dtd">
<svg t="1658303696471" class="icon" viewBox="0 0 1024 1024" version="1.1"
    xmlns="http://www.w3.org/2000/svg" p-id="7374" width="32" height="32"
    xmlns:xlink="http://www.w3.org/1999/xlink">
    <path d="M404.48 600.896a29.696 29.696 0 0 1-39.488-12.096l-1.92-4.288-81.6-178.944a14.912 14.912 0 0 1 22.4-18.24l96.32 68.48a44.48 44.48 0 0 0 39.808 4.544l452.608-201.472c-81.088-95.616-214.72-158.08-365.952-158.08-247.488 0-448 167.104-448 373.312 0 112.512 60.288 213.76 154.752 282.24a29.824 29.824 0 0 1 11.008 33.856l-20.224 75.328c-0.96 3.52-2.432 7.168-2.432 10.88 0 8.256 6.72 14.912 14.976 14.912 3.2 0 5.888-1.152 8.64-2.752L343.424 832a46.976 46.976 0 0 1 23.808-6.848 44.8 44.8 0 0 1 13.184 1.92c45.76 13.184 95.104 20.48 146.24 20.48 247.424 0 448-167.168 448-373.376a323.2 323.2 0 0 0-51.008-172.992L407.808 599.04l-3.328 1.92z" fill="#00C800"></path>
    
</svg>