<?xml version="1.0" standalone="no"?>
<!DOCTYPE svg PUBLIC "-//W3C//DTD SVG 1.1//EN" "http://www.w3.org/Graphics/SVG/1.1/DTD/svg11.dtd">
<svg t="1658303696471" class="icon" viewBox="0 0 1024 1024" version="1.1"
    xmlns="http://www.w3.org/2000/svg" p-id="7374" width="32" height="32"
    xmlns:xlink="http://www.w3.org/1999/xlink">
    <path d="M832 464.011636h-67.956364V239.988364a128 128 0 0 0-128-128h-248.087272a128 128 0 0 0-128 128V464.058182h-67.956364a31.976727 31.976727 0 0 0-32.023273 31.976727v384c0 17.687273 14.336 32.023273 32.023273 32.023273h640c17.687273 0 32.023273-14.336 32.023273-32.023273v-384a31.976727 31.976727 0 0 0-32.023273-31.976727z m-291.979636 236.962909v53.061819a8.005818 8.005818 0 0 1-8.005819 7.959272h-40.02909a8.005818 8.005818 0 0 1-8.005819-8.005818V700.974545a48.034909 48.034909 0 1 1 55.994182 0zM331.962182 464.058182V239.988364c0-30.906182 25.134545-55.994182 56.040727-55.994182h247.994182c30.906182 0 55.994182 25.134545 55.994182 55.994182V464.058182H332.008727z" fill="#00B794"></path>
    
</svg>