<?xml version="1.0" standalone="no"?>
<!DOCTYPE svg PUBLIC "-//W3C//DTD SVG 1.1//EN" "http://www.w3.org/Graphics/SVG/1.1/DTD/svg11.dtd">
<svg t="1658303696471" class="icon" viewBox="0 0 1024 1024" version="1.1"
    xmlns="http://www.w3.org/2000/svg" p-id="7374" width="32" height="32"
    xmlns:xlink="http://www.w3.org/1999/xlink">
   <path d="M515.456 192c125.632 0 231.936 80.64 267.52 191.808a191.36 191.36 0 0 0-40-0.576 214.016 214.016 0 0 0-47.808 10.24C665.792 325.44 596.416 277.76 515.456 277.76c-96.512 0-176.576 67.84-191.872 156.928a268.544 268.544 0 0 0-86.08-3.712C254.912 296.256 372.736 192 515.456 192z" fill="#006DFE"></path>
        <path d="M271.424 429.376c52.48 0 100.288 19.392 136.832 51.392l84.16 73.92-7.104-6.272-59.264 58.624-52.352-52.352c-32.96-33.024-63.616-46.208-102.272-46.208a128.64 128.64 0 0 0 0 257.28c10.24 0 28.224 0.64 54.016 2.176l-87.04 74.24a207.808 207.808 0 0 1 33.024-412.8z" fill="#00CDD8"></path>
        <path d="M671.104 443.392a207.744 207.744 0 1 1 162.304 382.464c-14.72 6.272-36.736 15.36-60.8 15.616-69.376 0.64-235.008 0.896-496.96 0.896h-41.088c127.552-121.984 254.912-244.096 382.144-366.4 17.6-16.96 39.616-26.24 54.4-32.576z m40.32 77.568c-8.96 3.776-22.208 9.408-32.768 19.584-29.056 28.032-105.856 101.696-230.464 221.056h51.392c142.592 0 233.664-0.256 273.088-0.576 14.528-0.128 27.776-5.632 36.672-9.472a125.248 125.248 0 1 0-97.92-230.592z" fill="#00A2FF"></path>
    
</svg>