<?xml version="1.0" standalone="no"?>
<!DOCTYPE svg PUBLIC "-//W3C//DTD SVG 1.1//EN" "http://www.w3.org/Graphics/SVG/1.1/DTD/svg11.dtd">
<svg t="1658303696471" class="icon" viewBox="0 0 1024 1024" version="1.1"
    xmlns="http://www.w3.org/2000/svg" p-id="7374" width="32" height="32"
    xmlns:xlink="http://www.w3.org/1999/xlink">
   <path d="M608.036571 111.981714A303.981714 303.981714 0 0 0 367.908571 602.477714l-41.106285 41.106286-62.317715-62.317714a8.118857 8.118857 0 0 0-11.410285 0l-39.789715 39.862857a8.118857 8.118857 0 0 0 0 11.337143l62.317715 62.317714-44.909715 44.909714-62.317714-62.317714a8.118857 8.118857 0 0 0-11.410286 0l-39.789714 39.789714a8.118857 8.118857 0 0 0 0 11.410286l62.317714 62.317714-65.316571 65.316572a8.045714 8.045714 0 0 0 0 11.264l42.349714 42.349714a8.045714 8.045714 0 0 0 11.264 0L421.376 656.091429a303.981714 303.981714 0 1 0 186.587429-544.182858z m161.133715 465.188572a226.230857 226.230857 0 0 1-161.206857 66.852571A226.230857 226.230857 0 0 1 446.902857 577.097143a226.230857 226.230857 0 0 1-66.852571-161.206857c0-60.854857 23.698286-118.198857 66.852571-161.133715a226.230857 226.230857 0 0 1 161.206857-66.852571c60.854857 0 118.198857 23.698286 161.133715 66.852571 43.154286 42.934857 66.852571 100.205714 66.852571 161.206858 0 60.854857-23.698286 118.198857-66.852571 161.133714z" fill="#FA9600"></path>
    
</svg>