<?xml version="1.0" standalone="no"?>
<!DOCTYPE svg PUBLIC "-//W3C//DTD SVG 1.1//EN" "http://www.w3.org/Graphics/SVG/1.1/DTD/svg11.dtd">
<svg t="1658303696471" class="icon" viewBox="0 0 1024 1024" version="1.1"
    xmlns="http://www.w3.org/2000/svg" p-id="7374" width="32" height="32"
    xmlns:xlink="http://www.w3.org/1999/xlink">
   <path d="M444.544 192.064a153.472 153.472 0 0 0-116.288 54.4c-45.568 62.72-12.48 150.912 12.416 201.216s136.64 230.4 140.8 234.496c4.096 4.096 8.32 4.16 8.32 0 0-4.224 12.352-268.096 4.096-331.136-11.52-54.4-28.032-107.648-49.28-158.976zM200.32 313.408c-8.32 0-66.304 62.72-74.624 117.376-8.32 54.656 20.672 96.384 86.976 142.336 70.4 50.24 231.936 138.048 236.288 134.208 4.032-8.448-62.08-125.312-120.192-213.76-58.112-88.384-120.256-180.16-128.448-180.16z m20.672 536.32c49.664 20.928 128.32-29.44 148.992-41.92l58.112-41.856-281.728 8.32c18.176 30.976 43.84 56.896 74.624 75.392z m8.192-230.4c-49.664-25.216-153.088-83.84-157.312-83.84-4.224 0-20.672 75.456 12.416 129.92 33.152 54.528 95.36 71.616 124.224 75.456 33.28 4.096 223.744 4.096 223.744 0-4.16-4.288-153.344-96.512-203.072-121.536z m464-372.928A153.792 153.792 0 0 0 577.216 192a665.6 665.6 0 0 0-45.568 155.008c-8.32 62.656 4.096 331.136 4.096 331.136 0 4.096 4.032 4.096 8.32 0 4.16-4.096 120.064-188.8 140.736-234.88 20.672-45.952 53.696-134.208 8.32-196.864V246.4z m260.992 289.088c-4.16 0-107.392 58.624-157.44 83.84s-198.784 117.312-202.88 121.536c0 4.096 190.528 4.096 223.744 0 28.992-4.224 91.072-21.056 124.16-75.456 29.056-54.464 12.48-129.92 12.48-129.92h-0.064z m-302.464 272.32c20.672 12.608 99.456 62.656 149.12 41.92 32.768-17.856 58.88-45.76 74.496-79.68l-281.664-8.32 58.048 46.08z m244.736-377.024c-4.032-54.528-66.368-117.376-74.56-117.376-8.256 0-78.72 92.16-132.544 180.16-53.888 88-120.512 205.312-116.288 213.76 4.224 8.384 165.696-83.84 236.032-134.272 66.304-46.016 91.2-83.776 86.976-142.4l0.384 0.128z" fill="#EA020A"></path>
    
</svg>