<?xml version="1.0" standalone="no"?>
<!DOCTYPE svg PUBLIC "-//W3C//DTD SVG 1.1//EN" "http://www.w3.org/Graphics/SVG/1.1/DTD/svg11.dtd">
<svg t="1658303696471" class="icon" viewBox="0 0 1024 1024" version="1.1"
    xmlns="http://www.w3.org/2000/svg" p-id="7374" width="32" height="32"
    xmlns:xlink="http://www.w3.org/1999/xlink">
   <path d="M567.04 512l318.592-319.36c4.992-4.928 1.472-13.632-5.632-13.632h-90.496a7.68 7.68 0 0 0-5.632 2.304l-273.28 273.984L420.352 364.8a152.064 152.064 0 1 0-284.288-74.816A152.064 152.064 0 0 0 364.096 421.76L453.952 512 363.904 602.24A152.064 152.064 0 1 0 288 886.016 152.064 152.064 0 0 0 420.288 659.2l90.24-90.496 273.28 273.984a7.872 7.872 0 0 0 5.568 2.304h90.624c7.04 0 10.688-8.576 5.632-13.696L567.04 512zM288 369.984c-44.16 0-80-35.84-80-80 0-44.096 35.84-80 80-80s80 35.904 80 80c0 44.16-35.84 80-80 80z m0 444.032c-44.16 0-80-35.904-80-80 0-44.16 35.84-80 80-80s80 35.84 80 80c0 44.096-35.84 80-80 80z"></path>
    
</svg>