<?xml version="1.0" standalone="no"?>
<!DOCTYPE svg PUBLIC "-//W3C//DTD SVG 1.1//EN" "http://www.w3.org/Graphics/SVG/1.1/DTD/svg11.dtd">
<svg t="1658303696471" class="icon" viewBox="0 0 1024 1024" version="1.1"
    xmlns="http://www.w3.org/2000/svg" p-id="7374" width="32" height="32"
    xmlns:xlink="http://www.w3.org/1999/xlink">
   <path d="M992 384v256H32v-256h960z m-176 128c0-26.56-21.44-48-48-48s-48 21.44-48 48 21.44 48 48 48 48-21.44 48-48z m-384 0c0-8.96-7.04-16-16-16s-16 7.04-16 16 7.04 16 16 16 16-7.04 16-16z m-96 0c0-8.96-7.04-16-16-16s-16 7.04-16 16 7.04 16 16 16 16-7.04 16-16z m-96 0c0-8.96-7.04-16-16-16s-16 7.04-16 16 7.04 16 16 16 16-7.04 16-16z" fill="#E0EBFE"></path>
        <path d="M768 224c35.296 0 64-28.704 64-64s-28.704-64-64-64-64 28.704-64 64 28.704 64 64 64z m0-96a32.032 32.032 0 1 1-32 32c0-17.632 14.336-32 32-32zM224 192c17.92 0 32-14.08 32-32s-14.08-32-32-32-32 14.08-32 32 14.08 32 32 32zM320 192c17.92 0 32-14.08 32-32s-14.08-32-32-32-32 14.08-32 32 14.08 32 32 32zM416 192c17.92 0 32-14.08 32-32s-14.08-32-32-32-32 14.08-32 32 14.08 32 32 32z" fill="#5465CF"></path>
        <path d="M992 0H32a32 32 0 0 0-32 32v256a32 32 0 0 0 32 32h960a32 32 0 0 0 32-32V32a32 32 0 0 0-32-32z m-32 256H64V64h896v192zM768 576c35.296 0 64-28.704 64-64s-28.704-64-64-64-64 28.704-64 64 28.704 64 64 64z m0-96a32.032 32.032 0 1 1-32 32c0-17.632 14.336-32 32-32zM224 544c17.92 0 32-14.08 32-32s-14.08-32-32-32-32 14.08-32 32 14.08 32 32 32zM320 544c17.92 0 32-14.08 32-32s-14.08-32-32-32-32 14.08-32 32 14.08 32 32 32zM416 544c17.92 0 32-14.08 32-32s-14.08-32-32-32-32 14.08-32 32 14.08 32 32 32z" fill="#5465CF"></path>
        <path d="M992 352H32a32 32 0 0 0-32 32v256a32 32 0 0 0 32 32h960a32 32 0 0 0 32-32v-256a32 32 0 0 0-32-32z m-32 256H64v-192h896v192zM768 928c35.296 0 64-28.704 64-64s-28.704-64-64-64-64 28.704-64 64 28.704 64 64 64z m0-96a32.032 32.032 0 1 1-32 32c0-17.632 14.336-32 32-32zM224 896c17.92 0 32-14.08 32-32s-14.08-32-32-32-32 14.08-32 32 14.08 32 32 32zM320 896c17.92 0 32-14.08 32-32s-14.08-32-32-32-32 14.08-32 32 14.08 32 32 32zM416 896c17.92 0 32-14.08 32-32s-14.08-32-32-32-32 14.08-32 32 14.08 32 32 32z" fill="#5465CF"></path>
        <path d="M992 704H32a32 32 0 0 0-32 32v256a32 32 0 0 0 32 32h960a32 32 0 0 0 32-32v-256a32 32 0 0 0-32-32z m-32 256H64v-192h896v192z" fill="#5465CF"></path>
    
</svg>