<?xml version="1.0" standalone="no"?>
<!DOCTYPE svg PUBLIC "-//W3C//DTD SVG 1.1//EN" "http://www.w3.org/Graphics/SVG/1.1/DTD/svg11.dtd">
<svg t="1658303696471" class="icon" viewBox="0 0 1024 1024" version="1.1"
    xmlns="http://www.w3.org/2000/svg" p-id="7374" width="32" height="32"
    xmlns:xlink="http://www.w3.org/1999/xlink">
   <path d="M427.392 115.84c-46.016 28.48-86.912 54.784-89.792 57.664-3.648 2.944 18.24 20.48 47.424 39.488 29.248 18.24 62.848 41.6 74.496 51.072l20.48 17.536-44.544 56.256c-40.192 50.368-117.568 190.592-117.568 213.184 0 4.416-2.944 16.832-7.36 27.072l-6.528 18.944-40.192-17.536c-35.008-15.36-61.312-32.128-121.216-75.904-13.12-9.536-13.888-4.416-13.12 103.68l0.704 113.92 95.68 60.608c52.544 33.6 99.328 62.784 102.976 64.96 4.352 2.944 8-27.712 8.768-83.968 0.704-48.192 4.352-90.56 7.296-93.44 2.88-2.944 29.184-0.768 56.96 5.12 67.2 13.12 175.232 13.12 251.2-0.768 34.304-5.824 62.784-9.472 64.96-8 7.296 7.296 16.832 120.448 12.416 148.224-2.176 17.536-2.176 31.36 1.472 31.36 2.944 0 31.36-14.592 63.552-32.832 31.36-18.24 58.368-32.832 59.84-32.832 1.472 0 19.008-10.24 39.424-22.656l36.48-22.656V517.504l-68.608 32.832c-78.08 37.248-113.92 46.72-113.92 30.72 0-26.368-83.2-174.592-131.392-234.432-51.136-63.552-51.84-65.024-38.72-79.616 15.36-17.536 75.2-56.256 115.392-75.2 17.536-8.768 24.064-15.36 17.536-17.536-5.888-1.472-30.72-16.064-56.256-31.36-24.832-15.36-46.72-27.776-48.896-27.776-1.472 0-21.952-11.712-45.312-25.6C537.664 75.712 517.184 64 515.008 64c-2.176 0-41.6 23.36-87.616 51.84z m135.808 37.248l40.96 22.656-27.776 24.064c-53.312 44.544-54.784 44.544-100.8 10.24-22.656-17.536-38.72-33.6-35.776-36.48 16.768-14.656 65.024-43.84 73.024-43.84 5.824 0 27.776 10.24 50.368 23.36z m50.432 276.736c38.656 56.96 75.2 129.28 81.024 158.464 5.12 27.008 0 28.48-97.856 39.424-78.08 8.768-215.424-0.64-230.016-15.36-21.888-21.824 56.256-186.88 126.336-266.496l24.064-27.008 32.192 31.36c18.24 17.6 46.72 53.376 64.256 79.616zM244.864 627.712c43.776 19.776 50.368 24.832 46.72 38.016-2.176 8.768-5.824 31.36-8.768 50.368l-5.12 34.304-45.248-27.712-46.08-27.008v-46.08c0-24.768 1.536-45.248 4.48-45.248 2.112 0 26.24 10.24 54.016 23.36z m635.264 26.304c0 32.128-3.648 46.016-12.416 54.08-12.416 10.88-70.848 42.304-78.08 42.304-4.48 0-21.952-101.504-18.304-104.384 7.296-5.888 84.736-32.896 96.384-33.6 10.24-0.768 12.416 5.824 12.416 41.6z" fill="#FF6A00"></path>
        <path d="M191.552 248.768L128 286.016v148.928l24.832 19.008c13.888 10.24 27.008 19.008 29.184 19.008 2.24 0 4.416-35.072 4.416-78.912v-78.08l59.136-35.84c32.128-18.944 57.664-35.776 56.256-36.48-1.472-0.768-12.416-8.768-24.128-16.832l-21.888-15.36-64.256 37.312zM780.16 226.816l-23.424 8.768 59.904 37.248 59.84 37.248 2.176 81.088c0.768 45.248 3.712 81.792 5.888 81.792 2.176 0 13.824-5.888 25.6-12.416l21.12-12.416V277.952l-51.136-29.952c-54.016-32.832-62.784-34.304-100.032-21.12zM399.68 854.144c2.176 29.184 3.648 31.36 63.488 67.84l60.608 38.016 57.728-31.36c89.792-49.728 86.848-47.488 86.848-77.44 0-15.36-2.176-27.776-5.12-27.776-2.88 0-34.304 16.064-69.312 36.48-35.072 19.776-65.728 36.544-67.968 36.544-2.176 0-29.888-16.768-62.08-36.48-32.064-20.48-59.84-36.48-62.08-36.48-2.88 0-3.584 13.824-2.112 30.656z" fill="#FF6A00"></path>
    
</svg>