<?xml version="1.0" standalone="no"?>
<!DOCTYPE svg PUBLIC "-//W3C//DTD SVG 1.1//EN" "http://www.w3.org/Graphics/SVG/1.1/DTD/svg11.dtd">
<svg t="1658303696471" class="icon" viewBox="0 0 1024 1024" version="1.1"
    xmlns="http://www.w3.org/2000/svg" p-id="7374" width="32" height="32"
    xmlns:xlink="http://www.w3.org/1999/xlink">
   <path d="M512 512m-512 0a512 512 0 1 0 1024 0 512 512 0 1 0-1024 0Z" fill="#7395B4"></path>
        <path d="M307.2 307.2h409.6v409.6H307.2z" fill="#3D7AB4" opacity=".01"></path>
        <path d="M543.957333 332.8a21.333333 21.333333 0 0 1 21.333334 21.333333v128.810667H669.866667a21.333333 21.333333 0 0 1 21.333333 21.333333V669.866667a21.333333 21.333333 0 0 1-21.333333 21.333333H354.133333a21.333333 21.333333 0 0 1-21.333333-21.333333V354.133333a21.333333 21.333333 0 0 1 21.333333-21.333333h189.824z m-7.722666 29.056H361.813333v300.288h38.741334v-96.853333h96.853333v96.853333h38.784V361.856zM662.101333 512h-96.853333v150.144h96.853333V512z m-193.706666 82.346667h-38.741334v67.797333h38.741334v-67.84z m28.458666-111.402667V512h-96.853333v-29.056h96.853333z m0-67.84v29.098667h-96.853333V415.146667h96.853333z" fill="#FFFFFF"></path>
    
</svg>