<?xml version="1.0" standalone="no"?>
<!DOCTYPE svg PUBLIC "-//W3C//DTD SVG 1.1//EN" "http://www.w3.org/Graphics/SVG/1.1/DTD/svg11.dtd">
<svg t="1658303696471" class="icon" viewBox="0 0 1024 1024" version="1.1"
    xmlns="http://www.w3.org/2000/svg" p-id="7374" width="32" height="32"
    xmlns:xlink="http://www.w3.org/1999/xlink">
   <path d="M145.314909 279.272727c39.098182 0 71.028364 10.24 95.790546 30.626909 25.181091 20.014545 37.794909 50.176 37.794909 90.577455v7.168h-78.196364v-5.213091c0-17.361455-4.980364-31.278545-14.987636-41.704727-10.007273-10.426182-23.691636-15.639273-41.053091-15.639273-18.245818 0-32.349091 4.142545-42.356364 12.381091a39.563636 39.563636 0 0 0-14.987636 31.930182c0 11.310545 3.258182 20.619636 9.774545 28.020363 6.981818 6.981818 15.406545 12.567273 25.413818 16.942546 10.007273 4.328727 24.110545 9.309091 42.356364 14.987636 25.6 7.819636 46.498909 15.825455 62.557091 24.110546 16.523636 7.819636 30.394182 20.014545 41.704727 36.491636 11.729455 16.058182 17.594182 37.562182 17.594182 64.512 0 44.730182-13.032727 77.730909-39.098182 99.048727-25.6 20.852364-61.021091 31.278545-106.216727 31.278546-25.6 0-49.338182-4.794182-71.028364-14.336a125.812364 125.812364 0 0 1-51.479272-43.659637c-12.567273-19.083636-18.897455-42.356364-18.897455-69.725091v-13.032727h80.151273l-0.651637 9.774546c0 19.549091 5.632 35.374545 16.942546 47.569454 11.729455 11.729455 28.020364 17.594182 48.872727 17.594182 21.271273 0 36.910545-4.561455 46.917818-13.684364a46.08 46.08 0 0 0 14.987637-34.536727c0-13.498182-3.723636-24.529455-11.077819-33.233454a69.306182 69.306182 0 0 0-26.71709-20.200728 373.806545 373.806545 0 0 0-44.311273-16.942545c-24.762182-8.238545-44.962909-16.290909-60.602182-24.110546a116.922182 116.922182 0 0 1-39.749818-36.491636c-10.845091-16.523636-16.290909-38.213818-16.290909-65.163636 0-24.762182 6.050909-45.847273 18.245818-63.208728 12.567273-17.361455 29.090909-30.394182 49.524364-39.098181 20.852364-8.704 43.892364-13.032727 69.073454-13.032728zM473.041455 279.272727c39.098182 0 71.028364 10.24 95.790545 30.626909 25.181091 20.014545 37.794909 50.176 37.794909 90.577455v7.168h-78.196364v-5.213091c0-17.361455-4.980364-31.278545-14.987636-41.704727-10.007273-10.426182-23.691636-15.639273-41.053091-15.639273-18.245818 0-32.349091 4.142545-42.356363 12.381091a39.563636 39.563636 0 0 0-14.987637 31.930182c0 11.310545 3.258182 20.619636 9.774546 28.020363 6.981818 6.981818 15.406545 12.567273 25.413818 16.942546 10.007273 4.328727 24.110545 9.309091 42.356363 14.987636 25.6 7.819636 46.498909 15.825455 62.557091 24.110546 16.523636 7.819636 30.394182 20.014545 41.704728 36.491636 11.729455 16.058182 17.594182 37.562182 17.594181 64.512 0 44.730182-13.032727 77.730909-39.098181 99.048727-25.6 20.852364-61.021091 31.278545-106.216728 31.278546-25.6 0-49.338182-4.794182-71.028363-14.336a125.812364 125.812364 0 0 1-51.479273-43.659637c-12.567273-19.083636-18.897455-42.356364-18.897455-69.725091v-13.032727h80.151273l-0.651636 9.774546c0 19.549091 5.632 35.374545 16.942545 47.569454 11.729455 11.729455 28.020364 17.594182 48.872728 17.594182 21.271273 0 36.910545-4.561455 46.917818-13.684364a46.08 46.08 0 0 0 14.987636-34.536727c0-13.498182-3.723636-24.529455-11.077818-33.233454a69.306182 69.306182 0 0 0-26.717091-20.200728 373.853091 373.853091 0 0 0-44.311273-16.942545c-24.762182-8.238545-44.962909-16.290909-60.602182-24.110546a116.922182 116.922182 0 0 1-39.749818-36.491636c-10.845091-16.523636-16.290909-38.213818-16.290909-65.163636 0-24.762182 6.050909-45.847273 18.245818-63.208728 12.567273-17.361455 29.090909-30.394182 49.524364-39.098181 20.852364-8.704 43.892364-13.032727 69.073455-13.032728zM828.136727 279.272727c54.318545 0 96.209455 17.826909 125.765818 53.434182 29.975273 35.188364 44.962909 88.436364 44.96291 159.650909 0 70.795636-14.987636 124.043636-44.96291 159.650909-29.556364 35.188364-71.447273 52.782545-125.765818 52.782546s-96.442182-17.594182-126.417454-52.782546c-29.556364-35.607273-44.311273-88.855273-44.311273-159.650909 0-70.795636 14.754909-124.043636 44.311273-159.650909C731.694545 297.099636 773.864727 279.272727 828.136727 279.272727z m0 65.815273c-29.975273 0-52.782545 11.729455-68.421818 35.188364-15.220364 23.04-22.807273 55.389091-22.807273 97.093818v29.975273c0 41.704727 7.586909 74.053818 22.807273 97.093818 15.639273 23.04 38.446545 34.536727 68.421818 34.536727s52.782545-11.496727 68.421818-34.536727c15.639273-23.04 23.458909-55.389091 23.45891-97.093818v-29.975273c0-41.704727-7.819636-74.053818-23.45891-97.093818-15.639273-23.458909-38.446545-35.188364-68.421818-35.188364z" fill="#000000" fill-opacity=".85"></path>
    
</svg>