<?xml version="1.0" standalone="no"?>
<!DOCTYPE svg PUBLIC "-//W3C//DTD SVG 1.1//EN" "http://www.w3.org/Graphics/SVG/1.1/DTD/svg11.dtd">
<svg t="1658303696471" class="icon" viewBox="0 0 1024 1024" version="1.1"
    xmlns="http://www.w3.org/2000/svg" p-id="7374" width="32" height="32"
    xmlns:xlink="http://www.w3.org/1999/xlink">
   <path d="M522.678857 96.036571h8.557714c30.573714 0.219429 61.147429 2.048 91.501715 5.339429l14.628571 1.682286 15.36 2.194285 15.140572 2.340572 7.533714 1.389714 14.921143 2.779429c125.220571 25.380571 212.845714 79.506286 216.210285 150.674285l0.146286 4.242286V714.605714c0 73.216-88.722286 129.024-216.356571 154.843429l-14.921143 2.925714-7.533714 1.243429-15.140572 2.413714-15.36 2.121143c-36.352 4.681143-74.825143 7.094857-114.688 7.094857-39.862857 0-78.409143-2.413714-114.688-7.094857l-15.36-2.194286-15.140571-2.340571c-137.069714-23.186286-235.227429-79.506286-238.738286-154.916572l-0.073143-4.096V266.678857l0.073143-4.242286c3.364571-71.168 91.062857-125.293714 216.283429-150.674285l14.921142-2.779429 7.533715-1.389714 15.140571-2.340572 15.36-2.194285c32.402286-4.022857 65.024-6.363429 97.645714-6.875429l17.042286-0.146286zM667.794286 638.976l-15.140572 2.413714-15.36 2.121143c-36.352 4.608-74.825143 7.094857-114.688 7.094857-39.862857 0-78.409143-2.486857-114.688-7.094857l-15.36-2.194286-15.140571-2.340571c-71.460571-12.068571-132.388571-33.206857-174.811429-61.293714V714.605714c0 20.918857 24.137143 42.788571 65.097143 61.147429l9.728 4.242286c14.994286 6.144 31.963429 11.922286 50.614857 16.969142l12.653715 3.364572c13.385143 3.291429 26.916571 6.217143 40.594285 8.704l14.336 2.413714 14.774857 2.194286c10.166857 1.462857 20.333714 2.633143 30.573715 3.657143l15.725714 1.389714 16.091429 1.097143 16.384 0.804571c22.235429 0.877714 44.617143 0.877714 66.852571 0l16.384-0.731428 16.091429-1.170286 15.725714-1.462857c10.24-0.950857 20.48-2.194286 30.573714-3.584l14.774857-2.194286 14.336-2.486857c14.189714-2.486857 27.794286-5.485714 40.594286-8.630857l12.653714-3.364572a441.782857 441.782857 0 0 0 50.614857-16.969142l9.728-4.242286c39.350857-17.700571 63.195429-38.546286 64.950858-58.733714l0.146285-2.413715V577.682286c-42.422857 28.16-103.350857 49.298286-174.811428 61.366857z m174.811428-274.651429c-40.301714 26.697143-97.28 47.104-164.205714 59.465143l-10.678857 1.828572-15.067429 2.413714-15.433143 2.121143c-36.278857 4.681143-74.752 7.094857-114.614857 7.094857-34.230857 0-67.364571-1.755429-99.035428-5.266286l-15.652572-1.828571-15.36-2.194286-15.140571-2.340571c-71.533714-12.068571-132.388571-33.206857-174.811429-61.293715v115.565715c0 20.992 24.137143 42.788571 65.097143 61.220571l9.654857 4.169143c15.067429 6.217143 32.036571 11.922286 50.614857 17.042286l12.653715 3.291428c13.458286 3.364571 26.989714 6.217143 40.594285 8.777143l14.409143 2.413714 14.701715 2.194286c10.24 1.389714 20.406857 2.633143 30.573714 3.657143l15.798857 1.389714 16.091429 1.097143 16.310857 0.731429c22.308571 0.950857 44.617143 0.950857 66.925714 0l16.384-0.731429 16.091429-1.097143 15.725714-1.462857c10.24-0.950857 20.406857-2.194286 30.573714-3.657143l14.701714-2.194285 14.409143-2.413715c14.189714-2.56 27.721143-5.485714 40.594286-8.704l12.653714-3.291428c18.578286-5.12 35.547429-10.825143 50.614857-17.042286l9.728-4.169143c39.277714-17.700571 63.195429-38.546286 64.950858-58.806857l0.146285-2.340571V364.397714zM522.678857 159.963429l-8.484571 0.073142-12.580572 0.219429-12.434285 0.438857-16.310858 0.731429-16.091428 1.170285-15.798857 1.389715c-6.875429 0.731429-13.750857 1.462857-20.48 2.340571l-10.020572 1.316572-14.774857 2.194285-14.336 2.413715a665.088 665.088 0 0 0-30.866286 6.363428l-9.728 2.340572-12.653714 3.291428a463.872 463.872 0 0 0-42.934857 13.970286l-7.68 3.072-9.801143 4.169143c-40.886857 18.432-65.097143 40.228571-65.097143 61.220571 0 20.041143 22.162286 40.886857 59.904 58.733714l5.193143 2.413715 9.801143 4.242285c12.434286 5.12 26.331429 9.947429 41.398857 14.409143l9.216 2.56 12.653714 3.291429c9.581714 2.413714 19.675429 4.681143 29.988572 6.729143l10.605714 1.974857 14.336 2.486857 14.774857 2.194286c6.582857 0.950857 13.385143 1.755429 20.187429 2.56l10.386286 1.097143 15.725714 1.389714 16.091428 1.097143 16.384 0.804571c18.578286 0.731429 37.229714 0.877714 55.808 0.365714l11.044572-0.365714 16.384-0.731428 16.091428-1.170286 15.725715-1.462857c6.948571-0.658286 13.750857-1.462857 20.48-2.194286L634.88 365.714286l14.774857-2.194286 14.336-2.486857c10.313143-1.828571 20.626286-3.949714 30.866286-6.290286l9.728-2.340571 12.653714-3.364572c15.506286-4.242286 29.915429-8.923429 42.934857-13.897143l7.68-3.072 9.728-4.242285c40.96-18.358857 65.097143-40.228571 65.097143-61.147429 0-20.041143-22.162286-40.886857-59.830857-58.806857l-5.266286-2.413714-9.728-4.169143a424.228571 424.228571 0 0 0-41.472-14.409143l-9.142857-2.633143-12.653714-3.291428a623.323429 623.323429 0 0 0-30.061714-6.729143l-10.532572-1.974857-14.336-2.413715-14.774857-2.194285a767.268571 767.268571 0 0 0-20.187429-2.56l-10.386285-1.097143-15.725715-1.462857-16.091428-1.024-16.384-0.804572c-7.314286-0.365714-14.701714-0.512-22.162286-0.658286h-11.264z"></path>
    
</svg>