<?xml version="1.0" standalone="no"?>
<!DOCTYPE svg PUBLIC "-//W3C//DTD SVG 1.1//EN" "http://www.w3.org/Graphics/SVG/1.1/DTD/svg11.dtd">
<svg t="1658303696471" class="icon" viewBox="0 0 1024 1024" version="1.1"
    xmlns="http://www.w3.org/2000/svg" p-id="7374" width="32" height="32"
    xmlns:xlink="http://www.w3.org/1999/xlink">
    <path d="M502.272 90.752H110.464v357.44l61.632-38.784a64.512 64.512 0 0 1 11.904-74.816 65.088 65.088 0 0 1 91.52 0l6.208 6.144 44.032-27.712c17.6-14.976 65.152-30.784 88.064-32.128h95.936l46.72-18.496a47.296 47.296 0 0 1 34.304 7.04l62.912 41.856s82.752-22.016 100.352-13.248c5.76 2.624 18.944 43.584 21.12 74.432a44.48 44.48 0 0 1-19.776 39.616l-5.312 3.52-8.768 52.352s-165.504 121.92-244.288 270.336c-31.744 59.84-57.728 130.688-77.504 194.56h83.2a421.312 421.312 0 0 0 421.248-421.312 422.144 422.144 0 0 0-421.696-420.8z" fill="#FF6A00"></path>
        <path d="M414.72 363.2l94.592-8.768-19.392-23.808a18.496 18.496 0 0 0-25.088-3.072l-50.176 35.648z m223.552-18.496l5.76 17.6c3.072 8.832 10.56 15.424 20.224 16.32l54.592 6.592 32.128-25.536a20.032 20.032 0 0 0 6.208-22.912l-9.28-22.848a9.152 9.152 0 0 0-10.112-5.312l-93.312 24.64a8.64 8.64 0 0 0-6.208 11.52zM203.84 438.464c-9.28-9.216-19.84-18.048-26.432-29.44-13.632-24.704-6.592-55.936 14.528-73.984a59.072 59.072 0 0 1 75.264 0c8.832 7.04 16.704 15.872 24.64 23.744 4.864 4.864 12.8-2.56 7.488-7.488-13.184-13.184-25.536-28.16-42.688-35.648a70.72 70.72 0 0 0-74.368 12.8 71.04 71.04 0 0 0-21.568 64.64c4.352 22.976 19.776 37.056 35.2 52.864 4.8 4.864 12.8-2.624 7.936-7.488z m408.96-135.104L618.432 320l34.752-8.768-34.304-13.696c-3.52-1.28-7.488 2.24-6.208 5.76zM394.432 933.248l40.96-40.96c0.832-3.008 2.176-6.08 3.072-9.216l-50.176 50.176h6.144z m-22.912 0l76.16-76.16c1.28-3.072 2.24-6.592 3.52-9.6l-85.824 85.76h6.144z m-22.016 0l110.976-110.912c1.28-3.52 2.56-6.592 3.968-10.112l-121.088 121.024h6.144z m-22.016 0l147.968-147.84c1.728-4.032 3.52-7.936 5.248-11.52l-159.36 159.36h6.144z m-22.4 0l193.28-193.216c3.008-5.312 6.08-10.56 9.216-15.36l-209.152 209.024 6.656-0.448z m245.12-273.28l-273.28 273.28h6.144l259.712-259.712m-292.288 259.776h6.144l491.712-491.776 2.176-8.32-500.032 500.032z m472.32-497.024L225.92 933.248h6.144l502.272-502.656c-3.52 1.728-7.488 3.52-11.456 5.696z m-37.824 11.456l-485.12 485.504h6.144l487.744-488.128-8.768 2.56z m-45.824 20.224l-442.88 442.88c-2.56 4.416-4.8 8.768-7.04 13.184l461.824-461.76c-3.968 1.728-7.936 3.968-11.904 5.76z m-52.352 26.88l-354.816 354.816c-3.072 5.248-6.592 10.56-9.664 15.808l378.112-378.112c-4.864 2.176-9.28 4.8-13.632 7.488zM278.208 564.352l0.448 0.896 0.448-0.448-0.896-0.448z" fill="#FF6A00"></path>
        <path d="M279.04 564.8l-0.384 0.448 2.624 3.968 1.792-1.728-3.968-2.688z m16.32 10.56l-6.592 7.04 2.176 3.968 8.384-8.32-3.968-2.688z m16.32 10.624l-13.248 13.184 2.24 3.968 14.976-14.528-3.968-2.624z m16.704 10.944l-19.392 18.56c0.896 1.28 2.24 2.176 3.136 3.072l19.84-19.84c-0.96-0.448-2.24-1.28-3.584-1.792z m18.048 7.936l-23.296 23.36c1.28 0.896 2.56 1.28 3.904 2.176l24.256-24.192c-1.28-0.896-3.072-0.896-4.864-1.28z m33.024-0.832a32.96 32.96 0 0 1-7.04 1.728l-29.952 29.952c1.792 0.448 3.52 0.448 5.312 0.896l33.024-33.024-1.344 0.448z m31.232-10.176l-40.448 40.512c3.072-0.896 6.592-2.176 9.6-3.52l40.128-40.064-9.28 3.072z m39.232-11.84l-23.808 23.296 14.08-7.936 18.944-18.496-9.216 3.136z m34.752-11.008l-3.968 3.968 11.456-6.208-7.488 2.24z" fill="#FF6A00"></path>
   
</svg>