<?xml version="1.0" standalone="no"?>
<!DOCTYPE svg PUBLIC "-//W3C//DTD SVG 1.1//EN" "http://www.w3.org/Graphics/SVG/1.1/DTD/svg11.dtd">
<svg t="1658303696471" class="icon" viewBox="0 0 1024 1024" version="1.1"
    xmlns="http://www.w3.org/2000/svg" p-id="7374" width="32" height="32"
    xmlns:xlink="http://www.w3.org/1999/xlink">
   <path d="M904 160H120a8 8 0 0 0-8 8v64c0 4.416 3.584 8 8 8h784a8 8 0 0 0 8-8v-64a8 8 0 0 0-8-8zM904 784H120a8 8 0 0 0-8 8v64c0 4.416 3.584 8 8 8h784a8 8 0 0 0 8-8v-64a8 8 0 0 0-8-8zM120 472h784c4.416 0 8 3.584 8 8v64a8 8 0 0 1-8 8H120A8 8 0 0 1 112 544v-64c0-4.416 3.584-8 8-8z"></path>
    
</svg>