<?xml version="1.0" standalone="no"?>
<!DOCTYPE svg PUBLIC "-//W3C//DTD SVG 1.1//EN" "http://www.w3.org/Graphics/SVG/1.1/DTD/svg11.dtd">
<svg t="1658303696471" class="icon" viewBox="0 0 1024 1024" version="1.1"
    xmlns="http://www.w3.org/2000/svg" p-id="7374" width="32" height="32"
    xmlns:xlink="http://www.w3.org/1999/xlink">
   <path d="M46.545455 46.545455h930.90909v930.90909H46.545455z" fill="#D8D8D8" opacity=".01"></path>
        <path d="M810.123636 425.704727a325.352727 325.352727 0 0 0-76.706909-107.892363l-26.949818-24.994909a7.447273 7.447273 0 0 0-12.008727 3.118545l-12.055273 34.909091c-7.493818 21.876364-21.271273 44.311273-40.820364 66.280727a5.771636 5.771636 0 0 1-3.770181 1.861818 5.073455 5.073455 0 0 1-4.002909-1.396363 5.585455 5.585455 0 0 1-1.861819-4.468364c3.444364-56.366545-13.218909-119.947636-49.710545-189.160727-30.161455-57.483636-72.098909-102.4-124.462546-133.632l-38.260363-22.760727c-4.980364-2.978909-11.357091 0.930909-11.077818 6.842181l2.001454 44.962909c1.396364 30.72-2.094545 57.856-10.426182 80.430546a267.869091 267.869091 0 0 1-43.52 76.334545 274.804364 274.804364 0 0 1-43.985454 43.147637A329.402182 329.402182 0 0 0 219.694545 413.044364a328.750545 328.750545 0 0 0-7.912727 271.825454 327.307636 327.307636 0 0 0 173.521455 173.847273A322.56 322.56 0 0 0 512 884.363636a324.096 324.096 0 0 0 230.306909-95.511272A325.445818 325.445818 0 0 0 837.818182 557.661091c0-45.707636-9.262545-90.112-27.694546-131.956364z" fill="#FC5417"></path>
        <path d="M639.767273 706.001455a127.488 127.488 0 0 0-32.861091-41.937455l-11.543273-9.774545c-1.722182-1.396364-4.421818-0.744727-5.166545 1.256727l-5.166546 13.544727c-3.211636 8.517818-9.122909 17.221818-17.501091 25.786182a2.56 2.56 0 0 1-1.629091 0.744727 2.327273 2.327273 0 0 1-1.675636-0.558545 2.048 2.048 0 0 1-0.791273-1.722182c1.442909-21.922909-5.678545-46.685091-21.317818-73.541818a135.214545 135.214545 0 0 0-53.341091-51.991273l-16.384-8.843636c-2.141091-1.163636-4.887273 0.325818-4.794182 2.653091l0.930909 17.454545c0.558545 11.962182-0.930909 22.528-4.514909 31.278545-4.375273 10.752-10.658909 20.759273-18.618181 29.696a113.198545 113.198545 0 0 1-18.897455 16.756364 131.584 131.584 0 0 0-39.749818 44.264727A118.225455 118.225455 0 0 0 372.363636 757.294545c0 17.175273 3.723636 33.792 10.984728 49.524364 7.074909 15.080727 17.128727 28.718545 29.975272 40.354909s27.741091 20.852364 44.357819 27.229091c17.221818 6.609455 35.467636 9.960727 54.318545 9.960727s37.096727-3.351273 54.318545-9.960727c16.616727-6.376727 31.557818-15.499636 44.404364-27.182545 12.846545-11.636364 22.900364-25.274182 29.928727-40.401455a116.503273 116.503273 0 0 0-0.884363-100.817454z" fill="#FFFFFF"></path>
    
</svg>