<?xml version="1.0" standalone="no"?>
<!DOCTYPE svg PUBLIC "-//W3C//DTD SVG 1.1//EN" "http://www.w3.org/Graphics/SVG/1.1/DTD/svg11.dtd">
<svg t="1658303696471" class="icon" viewBox="0 0 1024 1024" version="1.1"
    xmlns="http://www.w3.org/2000/svg" p-id="7374" width="32" height="32"
    xmlns:xlink="http://www.w3.org/1999/xlink">
   <path d="M454.208 832.64a24.064 24.064 0 0 1-16.96-40.96l58.624-58.624-55.424-55.488a24 24 0 0 1 33.92-33.92l72.448 72.448a24 24 0 0 1 0 33.92L471.168 825.6a24.064 24.064 0 0 1-16.96 7.04z" fill="#1890FF"></path>
        <path d="M100.416 495.488l132.032-319.168h78.08l132.032 319.168H363.136L331.968 421.76h-120.96L179.84 495.36H100.416z m171.328-242.112L226.304 364.8h90.88l-45.44-111.488z" fill="#99999D"></path>
        <path d="M627.584 865.6V546.432h180.352c28.416 0 48.96 3.328 61.76 9.984 14.976 7.36 26.304 19.648 33.92 36.864a87.36 87.36 0 0 1-5.056 83.2 69.76 69.76 0 0 1-33.216 29.696c30.912 14.08 46.4 39.104 46.4 75.136 0 20.736-4.928 38.144-14.848 52.16-8.576 12.16-19.584 20.48-32.96 25.152-13.44 4.608-33.28 6.912-59.84 6.912H627.584v0.064z m67.968-188.096h92.352c9.856 0 16.96-0.448 21.248-1.408a37.76 37.76 0 0 0 27.52-37.76c0-12.8-4.608-22.208-13.888-28.288-6.656-4.48-17.92-6.656-33.472-6.656h-93.824v74.112z m0 131.136h92.352c9.856 0 17.088-0.512 21.504-1.408a28.608 28.608 0 0 0 12.416-6.272 37.76 37.76 0 0 0 14.848-31.616c0-12.8-4.608-22.144-13.888-28.224-6.656-4.48-17.92-6.656-33.472-6.656h-93.824v74.176z m-216.64-52.608H350.528c-52.672 0-95.552-42.88-95.552-95.552V572.16a24 24 0 0 1 48 0v88.32c0 26.24 21.312 47.488 47.552 47.488h128.384a24 24 0 0 1 0 48z" fill="#1890FF"></path>
    
</svg>