<?xml version="1.0" standalone="no"?>
<!DOCTYPE svg PUBLIC "-//W3C//DTD SVG 1.1//EN" "http://www.w3.org/Graphics/SVG/1.1/DTD/svg11.dtd">
<svg t="1658303696471" class="icon" viewBox="0 0 1024 1024" version="1.1"
    xmlns="http://www.w3.org/2000/svg" p-id="7374" width="32" height="32"
    xmlns:xlink="http://www.w3.org/1999/xlink">
   <path d="M798.016 160h-432a8 8 0 0 0-8 8v64c0 4.416 3.584 8 8 8H547.2l-156.032 544H229.056a8 8 0 0 0-8 8v64c0 4.416 3.584 8 8 8h432a8 8 0 0 0 8-8v-64a8 8 0 0 0-8-8H474.432l155.968-544h167.616a8 8 0 0 0 8-8v-64a8 8 0 0 0-8-8z"></path>
    
</svg>