<?xml version="1.0" standalone="no"?>
<!DOCTYPE svg PUBLIC "-//W3C//DTD SVG 1.1//EN" "http://www.w3.org/Graphics/SVG/1.1/DTD/svg11.dtd">
<svg t="1658303696471" class="icon" viewBox="0 0 1024 1024" version="1.1"
    xmlns="http://www.w3.org/2000/svg" p-id="7374" width="32" height="32"
    xmlns:xlink="http://www.w3.org/1999/xlink">
   <path d="M298.682182 554.682182H213.317818a42.682182 42.682182 0 0 0-42.635636 42.635636v256c0 23.598545 19.083636 42.682182 42.635636 42.682182h85.364364c23.552 0 42.635636-19.083636 42.635636-42.682182v-256a42.682182 42.682182 0 0 0-42.635636-42.635636z" fill="#5EA3FC"></path>
        <path d="M810.682182 85.317818H384a42.682182 42.682182 0 0 0-42.682182 42.682182v725.317818c0 23.598545 19.083636 42.682182 42.682182 42.682182h426.682182c23.552 0 42.635636-19.083636 42.635636-42.682182V128a42.682182 42.682182 0 0 0-42.635636-42.682182z" fill="#006EFB"></path>
        <path d="M554.682182 213.317818h-85.364364v85.364364h85.364364V213.317818zM725.317818 213.317818H640v85.364364h85.317818V213.317818zM554.682182 362.682182h-85.364364v85.317818h85.364364V362.682182zM554.682182 512h-85.364364v85.317818h85.364364V512zM725.317818 362.682182H640v85.317818h85.317818V362.682182zM725.317818 512H640v85.317818h85.317818V512zM725.317818 661.317818H640v85.364364h85.317818v-85.364364zM554.682182 661.317818h-85.364364v85.364364h85.364364v-85.364364z" fill="#FFFFFF"></path>
    
</svg>