<?xml version="1.0" standalone="no"?>
<!DOCTYPE svg PUBLIC "-//W3C//DTD SVG 1.1//EN" "http://www.w3.org/Graphics/SVG/1.1/DTD/svg11.dtd">
<svg t="1658303696471" class="icon" viewBox="0 0 1024 1024" version="1.1"
    xmlns="http://www.w3.org/2000/svg" p-id="7374" width="32" height="32"
    xmlns:xlink="http://www.w3.org/1999/xlink">
   <path d="M980.002908 534.019879C980.002908 804.609737 760.612645 1024 489.980121 1024c-16.767867 0-33.322403-0.853327-49.663607-2.474647-9.386592-0.938659-6.229284-14.847882-15.445211-16.298538C201.513071 969.72843 30.037096 792.407167 15.10388 562.819651c-0.426663-7.125277-14.847882-10.751915-14.975881-17.919858L0 533.977213C0 263.387355 219.390263 43.954425 489.980121 43.954425c270.632524 0 490.022787 219.390263 490.022787 490.022788z" fill="#0055CA"></path>
        <path d="M465.660314 927.702096c-0.511996 31.445084-9.727923 63.359498-25.3438 93.823257C196.563777 996.949547 5.546623 793.772489 0.127999 544.857127a258.984616 258.984616 0 0 1 9.002595-1.27999c15.487877-1.919985 100.863201-12.245236 168.532 39.466354 62.719503 47.914287 41.941001 97.023232 107.220484 142.462872 50.730265 35.32772 77.908717 15.829208 119.465721 50.5596 61.567513 51.412926 61.439514 143.870861 61.311515 151.636133z" fill="#80CF00"></path>
        <path d="M268.371209 791.041844c30.719757 3.882636 100.9912 12.842565 121.044375 64.340824 11.690574 30.079762 5.631955 73.087421-18.389188 87.295309-25.727796 15.189213-62.378173-8.191935-107.220484-36.778375-24.789137-15.786542-107.348483-68.351459-96.511236-98.004558 10.11192-27.861113 95.956574-17.493195 101.119199-16.8532z m-216.488953-153.726783c-6.399949 6.954612 6.655947 30.506425 32.682408 77.652719 11.647908 21.119833 16.639868 27.135785 24.490473 29.610432 21.333164 6.613281 54.484902-16.085206 56.191555-37.802367 3.114642-39.850351-98.55922-85.631322-113.364436-69.460784z" fill="#A3E72D"></path>
        <path d="M245.843387 473.945688c3.498639 15.658543-1.151991 37.41837-16.298538 45.823637-17.066532 9.429259-37.845034-3.199975-50.943596-11.221244-3.626638-2.175983-45.524973-27.733114-38.698361-51.924923 5.290625-18.858517 36.181047-23.253149 37.674369-23.46648 27.391783-3.541305 61.95151 12.458568 68.266126 40.78901z m-168.87333-12.20257c-5.589289 1.322656-12.885231 5.46129-14.805216 12.373235-2.986643 10.666582 7.935937 23.893144 20.565171 27.135785 13.653225 3.498639 29.695765-4.693296 31.274419-13.994555 2.09065-12.117237-19.75451-29.610432-37.034374-25.514465z" fill="#80BE1C"></path>
        <path d="M554.662276 88.327407a20.010508 20.010508 0 0 1-26.367792 10.197253L399.57017 41.309113A19.967842 19.967842 0 1 1 415.826041 4.701403l128.724315 57.17288a20.010508 20.010508 0 0 1 10.154586 26.453124zM1019.298597 608.216625l-57.17288-128.724314a20.010508 20.010508 0 1 0-36.565044 16.213205l57.17288 128.76698a19.967842 19.967842 0 1 0 36.565044-16.255871zM397.607519 104.540612A45.012977 45.012977 0 1 0 333.992023 168.113442 45.012977 45.012977 0 0 0 397.607519 104.540612z m76.372729 76.372729A45.012977 45.012977 0 1 0 410.364751 244.486171a45.012977 45.012977 0 0 0 63.615497-63.615496z m369.106411 369.063745a45.012977 45.012977 0 1 0-63.615496 63.658163 45.012977 45.012977 0 0 0 63.615496-63.615497z m76.372729 76.372729a45.012977 45.012977 0 1 0-63.658163 63.658162 45.012977 45.012977 0 0 0 63.658163-63.615496z" fill="#83BFFF"></path>
        <path d="M762.703295 192.561249l-179.32658 179.369247L311.037538 99.591318a66.260809 66.260809 0 0 1 0-93.737924 20.010508 20.010508 0 0 1 22.271823-4.138634l429.393934 190.846489z m-351.143887 431.783248l-140.372222-140.372222a19.925176 19.925176 0 0 1 22.186491-32.255744l201.29974 89.471291-83.156675 83.156675z" fill="#9AE7FD"></path>
        <path d="M1018.146606 712.962462a66.260809 66.260809 0 0 1-93.737924 0l-272.339178-272.339177 179.369247-179.32658 190.846489 429.393934a20.010508 20.010508 0 0 1-4.138634 22.271823z m-535.334428-183.635879l89.471291 201.29974a19.925176 19.925176 0 0 1-32.298411 22.186491l-140.329555-140.372222 83.156675-83.114009z" fill="#C9F0FF"></path>
        <path d="M864.121159 257.712733l-185.342533 181.331898c-17.621194 17.578528-50.943597 46.634297-90.367284 78.207381-5.973286 4.778629-2.431981 19.327847-8.661265 24.191808-80.212698 62.847502-178.174589 130.302968-221.992909 136.020257a10.026587 10.026587 0 0 1-11.221245-11.221245c9.087928-69.631449 174.078622-276.008482 228.776856-330.664049l183.849211-183.891877c52.479585-52.479585 117.332404-79.188706 170.025321-75.306071a19.967842 19.967842 0 0 1 18.431854 18.431854c0.597329 7.893271 0.46933 15.999873-0.298665 24.319808-0.639995 7.253276-13.01323 16.127872-14.677217 23.551813-9.215927 41.557004-30.67709 77.183389-68.522124 115.028423z" fill="#C9F0FF"></path>
        <path d="M585.723363 536.750524c-37.119706 29.311768-85.332658-18.858517-55.978223-56.02089 35.285054-44.714313 68.607457-83.284674 88.020636-102.697853l183.891878-183.849212c44.62898-44.62898 98.217889-70.655441 145.662846-75.007406-4.394632 47.444958-30.378426 101.033867-75.050072 145.662847l-183.849211 183.891878c-19.41318 19.370513-57.940875 52.692916-102.697854 88.020636z m-229.331518 159.273406l100.991201-100.991201a20.010508 20.010508 0 1 0-28.287776-28.287776L328.104069 667.736154a20.010508 20.010508 0 0 0 28.287776 28.287776z" fill="#FFFFFF"></path>
        <path d="M856.825217 198.918532l-31.743749-31.743749A20.010508 20.010508 0 0 1 853.326578 138.887007l31.743749 31.743749a20.010508 20.010508 0 0 1-28.287777 28.287776z" fill="#83BFFF"></path>
        <path d="M675.621318 380.165097a15.018548 15.018548 0 0 1 0 21.205165l-7.082611 7.039945a15.018548 15.018548 0 1 1-21.205165-21.205166l7.082611-7.08261a15.018548 15.018548 0 0 1 21.205165 0z m140.884218-140.926884a15.018548 15.018548 0 0 0-21.205165 0l-7.082611 7.08261a15.018548 15.018548 0 1 0 21.205165 21.205166l7.082611-7.082611a15.018548 15.018548 0 0 0 0-21.205165zM722.596946 333.232135a14.975881 14.975881 0 0 0-21.247832 0l-7.039944 7.039945a15.018548 15.018548 0 1 0 21.205166 21.247831l7.08261-7.08261a15.018548 15.018548 0 0 0 0-21.205166z m25.727796-46.975628l-7.08261 7.082611a15.018548 15.018548 0 1 0 21.205165 21.205165l7.082611-7.08261a15.018548 15.018548 0 0 0-21.205166-21.205166z" fill="#9AE7FD"></path>
        <path d="M80.255365 409.860862a14.933215 14.933215 0 0 1-10.623916-25.599797L259.41128 194.566566a15.018548 15.018548 0 0 1 21.247831 21.205166L90.879281 405.46623a14.933215 14.933215 0 0 1-10.623916 4.394632z m146.857504-41.941001L336.040006 258.992723a15.018548 15.018548 0 1 0-21.205165-21.247832L205.907703 346.714695a15.018548 15.018548 0 1 0 21.205166 21.205166z m102.825852-2.730645l65.32215-65.364816a15.018548 15.018548 0 0 0-21.205166-21.205166L308.69089 343.98405a15.018548 15.018548 0 1 0 21.205165 21.205166z m277.032474 560.635561a14.933215 14.933215 0 0 0 25.599797 10.666582l189.737165-189.737164a15.018548 15.018548 0 0 0-21.205166-21.247832l-189.737164 189.737165a14.933215 14.933215 0 0 0-4.394632 10.623916z m37.546369-136.190922a14.933215 14.933215 0 0 0 25.599798 10.58125l108.927137-108.927138a15.018548 15.018548 0 0 0-21.205165-21.205165l-108.927138 108.927138a14.933215 14.933215 0 0 0-4.394632 10.623915z m2.730645-102.825852a14.933215 14.933215 0 0 0 25.599798 10.623916l65.364815-65.364816a15.018548 15.018548 0 1 0-21.205165-21.205166l-65.364816 65.364816a14.933215 14.933215 0 0 0-4.394632 10.58125z" fill="#0077F0"></path>
    
</svg>