<?xml version="1.0" standalone="no"?>
<!DOCTYPE svg PUBLIC "-//W3C//DTD SVG 1.1//EN" "http://www.w3.org/Graphics/SVG/1.1/DTD/svg11.dtd">
<svg t="1658303696471" class="icon" viewBox="0 0 1024 1024" version="1.1"
    xmlns="http://www.w3.org/2000/svg" p-id="7374" width="32" height="32"
    xmlns:xlink="http://www.w3.org/1999/xlink">
    <path d="M730.88 737.664l51.84 56.128v1.408l137.728-126.08a38.08 38.08 0 0 0 12.416-28.416c0-10.944-4.352-21.12-12.416-28.48l-137.792-126.08-51.712 56.128 65.28 59.52a257.856 257.856 0 0 0-231.552 256.128V960h76.608v-102.784a180.544 180.544 0 0 1 153.92-178.176l-64.256 58.624z"></path>
        <path d="M459.008 960h-220.16A110.912 110.912 0 0 1 128 848.448V174.784A110.72 110.72 0 0 1 238.784 64h455.68a111.36 111.36 0 0 1 111.552 110.784v288h-76.544v-49.6H203.84v196.864H495.36v76.544H203.84v161.92c0 18.88 15.296 34.24 34.944 34.24h220.16V960zM203.84 336.64h525.632V174.784a34.88 34.88 0 0 0-34.24-34.944H238.72a35.008 35.008 0 0 0-34.944 34.944v161.92z"></path>
        <path d="M612.096 282.688a43.904 43.904 0 0 0 43.776-43.712 43.904 43.904 0 0 0-43.776-43.776 43.84 43.84 0 0 0-43.776 43.776c0 24.064 19.712 43.712 43.776 43.712zM466.304 282.688a43.84 43.84 0 0 0 43.712-43.712 43.84 43.84 0 0 0-43.712-43.776 43.84 43.84 0 0 0-43.776 43.776c0 24.064 19.712 43.712 43.776 43.712zM320.448 282.688a43.84 43.84 0 0 0 43.776-43.712 43.84 43.84 0 0 0-43.776-43.776 43.84 43.84 0 0 0-43.712 43.776c0 24.064 19.648 43.712 43.712 43.712z"></path>
    
</svg>