<?xml version="1.0" standalone="no"?>
<!DOCTYPE svg PUBLIC "-//W3C//DTD SVG 1.1//EN" "http://www.w3.org/Graphics/SVG/1.1/DTD/svg11.dtd">
<svg t="1658303696471" class="icon" viewBox="0 0 1024 1024" version="1.1"
    xmlns="http://www.w3.org/2000/svg" p-id="7374" width="32" height="32"
    xmlns:xlink="http://www.w3.org/1999/xlink">
   <path d="M589.76 184.64l-102.528-102.4A140.8 140.8 0 0 0 387.648 40.96a131.136 131.136 0 0 0-91.456 36.8A133.952 133.952 0 0 0 294.4 268.672L480.384 454.4a21.248 21.248 0 0 0 29.184 0l80.064-80c5.056-5.952 88.768-101.44 0.128-189.76z" fill="#15A9CA"></path>
        <path d="M757.76 348.16c-19.584-18.944-39.808-38.4-58.112-59.52V288a36.096 36.096 0 0 0-1.472 5.888c-7.68 44.8-29.696 85.888-62.72 117.12a88580.48 88580.48 0 0 0-322.688 322.112l-14.208 14.08c-21.76 20.032-36.48 46.528-41.856 75.52a145.856 145.856 0 0 0 37.568 114.752 122.88 122.88 0 0 0 96.64 41.408c42.048 0.64 62.592-4.928 93.248-34.688 113.152-110.656 225.984-221.568 338.56-332.864 43.776-43.52 53.824-115.584 22.784-164.096a563.2 563.2 0 0 0-87.808-99.072z" fill="#52CAA3"></path>
        <path d="M163.52 284.032V736a25.152 25.152 0 0 0 42.944 17.792l227.84-227.456a23.168 23.168 0 0 0 0-32.64L206.464 266.24a24.576 24.576 0 0 0-17.536-7.36 25.408 25.408 0 0 0-25.408 25.152z" fill="#5268AD"></path>
    
</svg>