<?xml version="1.0" standalone="no"?>
<!DOCTYPE svg PUBLIC "-//W3C//DTD SVG 1.1//EN" "http://www.w3.org/Graphics/SVG/1.1/DTD/svg11.dtd">
<svg t="1658303696471" class="icon" viewBox="0 0 1024 1024" version="1.1"
    xmlns="http://www.w3.org/2000/svg" p-id="7374" width="32" height="32"
    xmlns:xlink="http://www.w3.org/1999/xlink">
   <path d="M511.963523 527.962383m-495.964663 0a495.964663 495.964663 0 1 0 991.929325 0 495.964663 495.964663 0 1 0-991.929325 0Z" fill="#93D0FD"></path>
        <path d="M511.963523 527.962383m-495.964663 0a495.964663 495.964663 0 1 0 991.929325 0 495.964663 495.964663 0 1 0-991.929325 0Z" fill="#93D0FD"></path>
        <path d="M467.977323 367.973782A367.973782 367.973782 0 0 1 835.951105 0v455.988844h-367.973782V367.931118z" fill="#4BCD5C"></path>
        <path d="M539.950862 296.000243A296.000243 296.000243 0 0 1 835.951105 0v471.987704h-296.000243V295.914916z" fill="#91DE93"></path>
        <path d="M755.956805 72.016202a20.009241 20.009241 0 0 1 39.975818 0v319.977202a20.009241 20.009241 0 0 1-39.975818 0v-319.977202zM667.941742 120.012782a20.009241 20.009241 0 1 1 40.018483 0v271.980622a20.009241 20.009241 0 1 1-40.018483 0V119.927455zM587.947442 184.008223a20.009241 20.009241 0 1 1 40.018482 0v207.985181a20.009241 20.009241 0 1 1-40.018482 0V183.922895z" fill="#4BCD5C"></path>
        <path d="M0 264.002523c0-8.874034 7.167489-15.99886 15.99886-15.99886H543.961243c8.831371 0 15.99886 7.124826 15.99886 15.99886v47.99658a15.99886 15.99886 0 0 1-15.99886 15.99886H15.99886A15.99886 15.99886 0 0 1 0 311.999103V264.002523z" fill="#00A42C"></path>
        <path d="M75.983919 264.002523c0-8.874034 7.167489-15.99886 15.998861-15.99886H543.961243c8.831371 0 15.99886 7.124826 15.99886 15.99886v47.99658a15.99886 15.99886 0 0 1-15.99886 15.99886H91.98278a15.99886 15.99886 0 0 1-15.998861-15.99886V264.002523z" fill="#00B327"></path>
        <path d="M15.99886 327.997963v223.984042h0.554627C29.096594 814.704619 246.0838 1023.927045 511.963523 1023.927045c10.751234 0 21.417141-0.341309 31.99772-1.023927V327.997963H15.99886z" fill="#008D1C"></path>
        <path d="M100.003541 804.209367V327.9553H543.961243v694.990482A495.495363 495.495363 0 0 1 100.003541 804.209367z" fill="#00A42C"></path>
        <path d="M1007.373558 551.982005C994.830452 814.704619 777.843245 1023.927045 511.963523 1023.927045c-9.385998 0-18.729332-0.255982-27.98734-0.767945V551.982005h523.397375z" fill="#00B327"></path>
        <path d="M136.011643 403.981883c0-8.831371 7.124826-15.99886 15.956196-15.99886h80.036964c8.831371 0 15.99886 7.167489 15.99886 15.99886v119.970119a15.99886 15.99886 0 0 1-15.99886 15.99886H152.010503a15.99886 15.99886 0 0 1-16.041524-15.99886V404.024547z" fill="#E5C965"></path>
        <path d="M563.970484 623.955543c0-8.831371 7.167489-15.99886 15.99886-15.99886h47.99658c8.831371 0 15.99886 7.167489 15.99886 15.99886v120.012783a15.99886 15.99886 0 0 1-15.99886 15.99886h-47.99658a15.99886 15.99886 0 0 1-15.99886-15.99886v-120.012783zM563.970484 823.962626c0-8.874034 7.167489-15.99886 15.99886-15.99886h47.99658c8.831371 0 15.99886 7.124826 15.99886 15.99886v119.970119a15.99886 15.99886 0 0 1-15.99886 15.99886h-47.99658a15.99886 15.99886 0 0 1-15.99886-15.99886v-120.012783z" fill="#FFC143"></path>
        <path d="M699.939463 623.955543c0-8.831371 7.167489-15.99886 15.99886-15.99886h47.99658c8.831371 0 15.99886 7.167489 15.99886 15.99886v120.012783a15.99886 15.99886 0 0 1-15.99886 15.99886h-47.99658a15.99886 15.99886 0 0 1-15.99886-15.99886v-120.012783z" fill="#008D1C"></path>
        <path d="M779.891099 945.425972c-7.892771 5.034308-15.913533 9.897961-24.062285 14.505633h-39.890491a15.99886 15.99886 0 0 1-15.99886-15.99886v-120.012783c0-8.831371 7.167489-15.99886 15.99886-15.99886h47.99658c8.831371 0 15.99886 7.167489 15.99886 15.99886v120.012783a17.065451 17.065451 0 0 1-0.042664 1.493227zM835.951105 623.955543c0-8.831371 7.167489-15.99886 15.99886-15.99886h47.99658c8.831371 0 15.99886 7.167489 15.998861 15.99886v120.012783a15.99886 15.99886 0 0 1-15.998861 15.99886h-47.99658a15.99886 15.99886 0 0 1-15.99886-15.99886v-120.012783z" fill="#E5C965"></path>
        <path d="M914.622833 817.605746a498.951116 498.951116 0 0 1-78.671728 85.881881v-79.525001c0-8.874034 7.167489-15.99886 15.99886-15.99886h47.99658c6.570199 0 12.201797 3.967717 14.676288 9.64198z" fill="#008D1C"></path>
        <path d="M303.978342 403.981883c0-8.831371 7.167489-15.99886 15.99886-15.99886h79.9943c8.831371 0 15.99886 7.167489 15.99886 15.99886v119.970119a15.99886 15.99886 0 0 1-15.99886 15.99886H319.977202a15.99886 15.99886 0 0 1-15.99886-15.99886V404.024547zM303.978342 611.967064c0-8.831371 7.167489-15.99886 15.99886-15.99886h79.9943c8.831371 0 15.99886 7.167489 15.99886 15.99886v119.970119a15.99886 15.99886 0 0 1-15.99886 15.99886H319.977202a15.99886 15.99886 0 0 1-15.99886-15.99886v-119.970119zM136.011643 611.967064c0-8.831371 7.124826-15.99886 15.956196-15.99886h80.036964c8.831371 0 15.99886 7.167489 15.99886 15.99886v119.970119a15.99886 15.99886 0 0 1-15.99886 15.99886H152.010503a15.99886 15.99886 0 0 1-16.041524-15.99886v-119.970119z" fill="#E5C965"></path>
        <path d="M439.989984 1018.722083a492.423581 492.423581 0 0 1-136.011642-40.402455v-102.392704a68.005821 68.005821 0 1 1 136.011642 0v142.795159zM248.003663 947.900462a498.652471 498.652471 0 0 1-123.852509-110.754775 68.005821 68.005821 0 0 1 123.852509 38.8239v71.930875z" fill="#008D1C"></path>
        <path d="M463.966942 487.986564c0-8.874034 7.167489-16.041524 15.99886-16.041523h527.962383c8.831371 0 15.99886 7.167489 15.99886 16.041523v47.953917a15.99886 15.99886 0 0 1-15.99886 16.041524H479.965802a15.99886 15.99886 0 0 1-15.99886-16.041524v-47.953917z" fill="#00C53B"></path>
        <path d="M559.960103 487.986564c0-8.874034 7.167489-16.041524 15.99886-16.041523h431.969222c8.831371 0 15.99886 7.167489 15.99886 16.041523v47.953917a15.99886 15.99886 0 0 1-15.99886 16.041524H575.958963a15.99886 15.99886 0 0 1-15.99886-16.041524v-47.953917z" fill="#4BCD5C"></path>
        <path d="M439.435357 287.979481h-2.901127c0-23.678313-8.874034-44.370172-26.536776-62.032913-17.662742-17.662742-38.354601-26.494112-62.032913-26.494112v-2.901127c23.678313 0 44.370172-8.831371 62.032913-26.536776 17.662742-17.790732 26.536776-38.439928 26.536776-62.032913h2.901127c0 23.678313 8.831371 44.370172 26.494112 62.032913 17.662742 17.662742 38.397264 26.494112 62.032914 26.494112v2.901127c-23.678313 0-44.370172 8.874034-62.032914 26.536776-17.662742 17.705405-26.494112 38.397264-26.494112 62.032913zM670.757542 519.984284h-1.621218c0-13.183061-4.906317-24.659576-14.718951-34.47221-9.812634-9.812634-21.331813-14.718951-34.472211-14.718951v-1.621218c13.140397 0 24.659576-4.906317 34.472211-14.761615 9.812634-9.855298 14.718951-21.331813 14.718951-34.429547h1.621218c0 13.140397 4.906317 24.616913 14.718951 34.429547 9.812634 9.812634 21.331813 14.761615 34.472211 14.761615v1.578554c-13.140397 0-24.659576 4.906317-34.472211 14.761615-9.812634 9.812634-14.718951 21.331813-14.718951 34.429547zM838.766905 387.983023h-1.621218c0-13.140397-4.906317-24.659576-14.761615-34.472211-9.812634-9.812634-21.331813-14.718951-34.429547-14.718951v-1.621218c13.140397 0 24.616913-4.906317 34.429547-14.718951 9.812634-9.897961 14.761615-21.374477 14.761615-34.472211h1.578554c0 13.140397 4.948981 24.616913 14.761615 34.472211 9.812634 9.812634 21.331813 14.718951 34.47221 14.718951v1.578554c-13.183061 0-24.659576 4.948981-34.47221 14.761615-9.812634 9.812634-14.761615 21.331813-14.761615 34.472211z" fill="#FFFFFF"></path>
    
</svg>