<?xml version="1.0" standalone="no"?>
<!DOCTYPE svg PUBLIC "-//W3C//DTD SVG 1.1//EN" "http://www.w3.org/Graphics/SVG/1.1/DTD/svg11.dtd">
<svg t="1658303696471" class="icon" viewBox="0 0 1024 1024" version="1.1"
    xmlns="http://www.w3.org/2000/svg" p-id="7374" width="32" height="32"
    xmlns:xlink="http://www.w3.org/1999/xlink">
   <path d="M1024 625.8176c0 4.6848-2.048 9.1648-5.632 12.1856l-268.3904 227.6352a16 16 0 0 1-26.368-12.1856v-97.8176H284.3904a16 16 0 0 1 0-32h455.2704c8.832 0 16 7.168 16 16v79.2576l227.6352-193.0752-227.6352-193.0752V512c0 8.832-7.168 16-16 16H300.3648v97.792a16 16 0 0 1-26.3424 12.2112L5.6576 410.4192a16 16 0 0 1 0-24.4224l268.3648-227.6096a16 16 0 0 1 26.368 12.1856v97.8176h439.2448a16 16 0 1 1 0 32H284.3648a16 16 0 0 1-16-16V205.1072l-227.6352 193.0752 227.6352 193.0752V512c0-8.832 7.168-16 16-16h439.2704v-97.792a16 16 0 0 1 26.368-12.2112l268.3392 227.6096c3.584 3.0464 5.6576 7.5008 5.6576 12.2112z"></path>
    
</svg>