<?xml version="1.0" standalone="no"?>
<!DOCTYPE svg PUBLIC "-//W3C//DTD SVG 1.1//EN" "http://www.w3.org/Graphics/SVG/1.1/DTD/svg11.dtd">
<svg t="1658303696471" class="icon" viewBox="0 0 1024 1024" version="1.1"
    xmlns="http://www.w3.org/2000/svg" p-id="7374" width="32" height="32"
    xmlns:xlink="http://www.w3.org/1999/xlink">
   <path d="M316.288 451.2l1.408-98.048a99.008 99.008 0 0 0-25.28-72.832 107.136 107.136 0 0 0-78.4-23.808c-42.048 0-85.44 16.832-92.48 25.216-1.344 4.224-5.568 33.6 4.224 33.6l1.728 0.064c2.688 0.192 3.968 0.256 12.288-5.632 37.76-14.08 61.632-14.08 64.448-14.08 41.984-4.16 67.2 25.216 63.04 61.696v22.4c-35.072-8.384-56.064-8.384-65.92-8.384-51.776-2.816-102.208 30.784-99.392 84.032-2.816 65.856 58.88 79.872 81.28 78.464a106.368 106.368 0 0 0 88.192-40.64c16.832 39.232 28.032 36.416 28.032 36.416a19.776 19.776 0 0 0 8.32-2.752h0.064l18.24-12.672a9.472 9.472 0 0 0 5.568-8.384c0-2.88-1.728-6.336-4.096-10.944-4.48-9.024-11.264-22.4-11.264-43.712z m-51.84 2.88c-4.224 14.016-23.808 41.984-68.672 41.984-26.624 1.408-43.392-18.176-43.392-41.984-1.408-36.48 37.76-46.272 58.88-44.864 21.12 0 39.808 3.712 53.632 6.528l2.368 0.448c0 15.36 0 23.808-2.816 37.888z m170.88 74.176c-11.2 1.408-16.832-7.04-18.24-14.016L347.072 283.136a40.64 40.64 0 0 1-2.816-12.608c0-4.224 1.408-7.04 5.632-7.04h30.784c12.608-1.408 16.832 8.448 18.24 14.08l50.432 197.44 46.208-197.504 0.256-0.704c1.472-4.672 4.672-14.592 17.92-13.312H537.6c2.752 0 15.36 0 18.176 14.08l46.208 200.192 51.84-200.256c0-2.816 4.224-15.36 18.24-14.016h28.352c1.92-0.128 7.936-0.448 6.656 12.608v0.384a22398.528 22398.528 0 0 0-74.24 237.76c-1.408 8.384-7.04 15.36-18.24 14.016h-26.56c-15.424 1.408-18.24-14.016-18.24-15.36l-46.144-192-46.336 192c0 1.344-2.752 16.768-18.176 15.36h-23.808z m302.528-8.32c32.256 16.768 71.488 16.768 79.872 16.768h0.32c5.248 0.192 71.936 2.624 99.2-46.272 5.504-9.792 18.176-46.208-5.632-76.992-17.152-20.8-33.216-25.6-70.464-36.672a2604.672 2604.672 0 0 1-18.944-5.76c-7.552-2.304-40.896-12.48-40.896-37.44-2.816-33.6 43.392-35.008 53.248-35.008 27.264 0 44.352 6.784 56 11.392 5.12 1.984 9.216 3.648 12.608 4.032 4.224 0 7.04-4.224 7.04-9.792v-14.016a26.176 26.176 0 0 0-2.816-9.856c-14.016-16.768-60.224-22.4-78.464-22.4-63.04 0-99.456 39.232-98.048 78.464 0 53.248 54.656 71.424 61.632 72.832 10.88 3.456 19.84 6.144 27.328 8.448 29.056 8.896 35.776 10.944 46.912 20.992 12.608 12.608 11.2 37.76-7.04 49.024a71.168 71.168 0 0 0-1.088 0.576c-7.232 3.712-29.952 15.552-78.72 4.992a181.952 181.952 0 0 1-33.28-10.944l-7.424-3.072c-4.16-1.408-12.608-2.752-12.608 8.448v15.36a18.176 18.176 0 0 0 11.264 16.832z" fill="#232F3E"></path>
        <path d="M815.616 631.936c35.2-3.52 89.216-8.96 100.16 5.632 12.544 15.424-14.08 81.28-28.096 112.064-2.752 8.448 4.224 12.608 12.608 5.632 53.248-44.864 67.264-137.344 56.064-149.952-9.792-12.608-102.272-23.808-158.272 15.424-8.448 5.632-7.04 14.016 2.752 12.608l14.784-1.408z m-301.824 162.496c120.448 0 263.296-37.824 361.344-110.72 15.424-12.544 1.408-29.376-13.952-23.744a859.072 859.072 0 0 1-339.008 70.016c-155.52 0-309.568-40.64-443.968-117.632-11.2-7.04-19.648 4.16-9.856 12.608a652.48 652.48 0 0 0 445.44 169.472z" fill="#FF9D00"></path>
    
</svg>