<?xml version="1.0" standalone="no"?>
<!DOCTYPE svg PUBLIC "-//W3C//DTD SVG 1.1//EN" "http://www.w3.org/Graphics/SVG/1.1/DTD/svg11.dtd">
<svg t="1658303696471" class="icon" viewBox="0 0 1024 1024" version="1.1"
    xmlns="http://www.w3.org/2000/svg" p-id="7374" width="32" height="32"
    xmlns:xlink="http://www.w3.org/1999/xlink">
   <path d="M509.056 64C382.848 64 280.32 164.288 280.32 288S382.784 512 508.992 512c126.272 0 228.672-100.288 228.672-224S635.392 64 509.056 64z m0 0C382.848 64 280.32 164.288 280.32 288S382.784 512 508.992 512c126.272 0 228.672-100.288 228.672-224S635.392 64 509.056 64zM423.296 586.688C260.224 586.688 128 716.16 128 875.968v18.624C128 959.936 260.224 960 423.36 960h190.528c163.072 0 295.296-2.432 295.296-65.408v-18.56c0-159.808-132.224-289.344-295.296-289.344H423.36z" fill="#1890FF" opacity=".5"></path>
    
</svg>