<?xml version="1.0" standalone="no"?>
<!DOCTYPE svg PUBLIC "-//W3C//DTD SVG 1.1//EN" "http://www.w3.org/Graphics/SVG/1.1/DTD/svg11.dtd">
<svg t="1658303696471" class="icon" viewBox="0 0 1024 1024" version="1.1"
    xmlns="http://www.w3.org/2000/svg" p-id="7374" width="32" height="32"
    xmlns:xlink="http://www.w3.org/1999/xlink">
   <path d="M291.584 512h-7.168c0-58.88-22.016-110.4-66.048-154.368C174.4 313.664 122.88 291.648 64 291.648v-7.232c58.88 0 110.4-22.016 154.368-66.048C262.4 174.08 284.416 122.688 284.416 64h7.168c0 58.88 22.016 110.4 66.048 154.368C401.6 262.336 453.12 284.352 512 284.352v7.232c-58.88 0-110.4 22.016-154.368 65.984C313.6 401.6 291.584 453.12 291.584 512z"></path>
        <path d="M637.952 512h4.096c0-33.728 12.544-63.104 37.76-88.128 25.152-25.152 54.592-37.76 88.192-37.76v-4.16c-33.728 0-63.04-12.608-88.192-37.76-25.152-25.088-37.76-54.592-37.76-88.192h-4.096c0 33.536-12.608 62.912-37.76 88.128-25.152 25.152-54.592 37.76-88.192 37.76v4.16c33.728 0 63.04 12.608 88.192 37.76 25.152 25.088 37.76 54.592 37.76 88.192z"></path>
        <path d="M733.44 320h5.12c0-42.048 15.744-78.848 47.168-110.272 31.488-31.424 68.224-47.168 110.272-47.168v-5.12c-42.112 0-78.848-15.744-110.272-47.168C754.304 78.72 738.56 42.048 738.56 0h-5.12c0 41.92-15.744 78.72-47.168 110.208-31.488 31.488-68.224 47.232-110.272 47.232v5.12c42.112 0 78.848 15.744 110.272 47.168 31.424 31.424 47.168 68.224 47.168 110.272z"></path>
        <path d="M136.192 790.72c-8.32-6.4-10.24-12.864-6.016-19.456l15.488-23.744c5.12-7.808 12.48-8.192 22.272-1.28 7.488 5.376 17.28 10.88 29.312 16.64 12.16 5.632 24.96 8.384 38.336 8.384 9.344 0 18.368-1.088 27.072-3.264a33.6 33.6 0 0 0 26.688-35.008 40.448 40.448 0 0 0-3.008-16.192 25.92 25.92 0 0 0-9.792-11.52 88.064 88.064 0 0 0-14.08-7.552 247.552 247.552 0 0 0-31.936-10.432 384 384 0 0 1-37.76-12.672 111.616 111.616 0 0 1-30.464-18.048 86.016 86.016 0 0 1-21.504-25.792c-5.12-9.6-7.616-22.336-7.616-38.272 0-19.008 6.016-35.2 18.112-48.768 12.032-13.504 25.856-22.208 41.536-25.984 15.616-3.84 31.424-5.76 47.36-5.76 15.808 0 32 2.432 48.768 7.36 16.896 4.928 29.568 11.072 38.144 18.432 8.448 7.232 10.496 13.824 6.208 19.648l-16.256 22.4c-5.44 7.616-12.8 8.192-22.08 1.792a191.168 191.168 0 0 0-24.32-13.696 70.848 70.848 0 0 0-31.872-7.616c-7.872 0-15.168 0.64-21.888 2.048a33.792 33.792 0 0 0-17.472 9.856 26.432 26.432 0 0 0-7.616 19.2c0 7.424 1.92 13.44 5.632 18.048 3.712 4.48 7.872 7.936 12.416 10.24 4.544 2.176 9.216 4.032 13.888 5.568l38.72 12.672c11.392 3.584 21.888 7.488 31.552 11.904 13.376 6.144 23.616 12.288 30.72 18.432 7.04 6.144 12.864 14.528 17.408 25.152 4.736 10.688 7.04 23.36 7.04 38.08 0 21.888-6.848 39.936-20.48 54.272-13.632 14.208-28.8 23.36-45.568 27.52-16.64 4.16-32.768 6.272-48.576 6.272-23.296 0-42.24-2.304-56.768-6.912a131.456 131.456 0 0 1-41.6-21.952zM380.48 665.792c0-47.104 11.968-84.48 35.776-112.192 23.808-27.712 57.792-41.6 101.952-41.6s78.144 13.888 101.952 41.6c23.872 27.712 35.776 65.088 35.776 112.192s-11.904 84.48-35.776 112.256c-18.176 21.12-42.304 34.24-72.448 39.296 1.216 12.288 4.352 21.44 9.472 27.456 5.184 6.144 15.232 9.216 30.08 9.216 6.848 0 13.888-0.96 21.248-2.88 6.72-1.728 10.624-0.256 11.648 4.48l5.632 23.808c1.28 5.312-1.216 8.704-7.232 10.24-15.744 4.224-28.352 6.336-37.76 6.336-35.84 0-59.776-7.68-71.808-23.168a99.712 99.712 0 0 1-20.096-55.488c-30.208-4.928-54.4-17.984-72.64-39.296-23.808-27.712-35.776-65.152-35.776-112.256z m62.656 0c0 34.176 5.952 60.288 17.92 78.464 11.968 17.984 31.04 27.008 57.152 27.008 26.112 0 45.12-8.96 56.96-27.008 12.096-18.176 18.112-44.288 18.112-78.464 0-34.112-6.016-60.16-18.048-78.208-11.904-18.176-30.912-27.264-56.96-27.264-26.176 0-45.248 9.088-57.28 27.264-11.904 17.984-17.856 44.096-17.856 78.208zM719.36 812.672c-9.344 0-14.08-5.12-14.08-15.36v-263.04c0-10.24 4.736-15.36 14.08-15.36h32.512c8 0 12.032 5.12 12.032 15.36v227.584h117.056c10.048 0 15.04 4.48 15.04 13.312v24.192c0 8.832-4.992 13.312-15.04 13.312H719.36z"></path>
    
</svg>