<?xml version="1.0" standalone="no"?>
<!DOCTYPE svg PUBLIC "-//W3C//DTD SVG 1.1//EN" "http://www.w3.org/Graphics/SVG/1.1/DTD/svg11.dtd">
<svg t="1658303696471" class="icon" viewBox="0 0 1024 1024" version="1.1"
    xmlns="http://www.w3.org/2000/svg" p-id="7374" width="32" height="32"
    xmlns:xlink="http://www.w3.org/1999/xlink">
   <path d="M956.416 761.92c-6.784-11.968-22.464-32.448-80.448-71.872-34.56-23.744-70.72-45.184-108.16-64.128-26.432-71.488-77.632-164.224-152.32-275.968-80.384-120.256-173.76-170.88-278.144-150.848a654.08 654.08 0 0 0-35.392-32.576c-26.24-22.592-90.752-41.728-127.808-38.08-16.832 1.664-29.44 7.808-37.504 18.24-18.688 24.128-12.48 58.816 73.92 171.904 16.384 48 19.904 73.152 19.904 85.76 0 26.752 13.824 57.344 43.2 95.744l-27.648 94.592c-24.64 84.48 20.16 193.792 61.888 231.936 22.272 20.352 40.96 17.28 50.24 13.696 18.56-7.296 33.6-25.472 43.264-77.376 4.928 12.16 10.24 25.344 15.744 39.424 29.888 75.84 59.072 117.76 91.904 131.968a27.712 27.712 0 0 0 21.952-50.688c-8.128-3.52-30.528-20.48-62.464-101.568-26.88-68.352-46.528-114.112-59.968-139.84a27.84 27.84 0 0 0-30.528-14.272 27.712 27.712 0 0 0-21.568 25.856c-3.392 78.72-11.328 112.704-16.64 127.04-22.848-26.304-58.88-108.8-40.768-170.688l31.616-108.224a27.584 27.584 0 0 0-5.12-25.28c-35.968-44.224-39.872-65.28-39.872-72.32 0-25.536-8-60.864-24.448-108.16a26.88 26.88 0 0 0-4.096-7.68c-46.528-60.608-63.616-90.944-69.824-105.344 22.144 1.024 64.192 12.992 78.592 25.344 14.848 12.608 28.928 25.984 42.368 40.064a27.52 27.52 0 0 0 27.008 7.68c86.592-22.4 163.264 18.304 234.24 124.416 75.904 113.536 126.272 205.76 149.888 274.176a27.584 27.584 0 0 0 14.08 15.872 867.2 867.2 0 0 1 128.64 77.184h-85.376a27.712 27.712 0 0 0-21.056 45.568c27.456 32.512 55.68 64.32 84.608 95.424a27.52 27.52 0 0 0 48.256-17.92 27.584 27.584 0 0 0-8.064-19.968c-14.72-15.68-29.12-31.616-43.264-47.808h95.104a27.712 27.712 0 0 0 24.064-41.28z" fill="#4479A1"></path>
        <path d="M367.424 326.08c10.944 18.816 19.392 32.256 25.344 40.448 7.168 14.08 18.304 25.28 25.472 39.36l1.728-1.728c12.544-8.64 22.4-42.816 2.368-65.28-10.368-15.68-44.16-15.232-54.912-12.8z" fill="#4479A1"></path>
    
</svg>