<?xml version="1.0" standalone="no"?>
<!DOCTYPE svg PUBLIC "-//W3C//DTD SVG 1.1//EN" "http://www.w3.org/Graphics/SVG/1.1/DTD/svg11.dtd">
<svg t="1658303696471" class="icon" viewBox="0 0 1024 1024" version="1.1"
    xmlns="http://www.w3.org/2000/svg" p-id="7374" width="32" height="32"
    xmlns:xlink="http://www.w3.org/1999/xlink">
   <path d="M73.142857 523.190857V307.712C73.142857 297.691429 79.579429 292.571429 92.452571 292.571429h41.837715c12.873143 0 19.309714 5.046857 19.309714 15.140571v212.699429c0 49.590857 7.241143 80.603429 21.723429 93.110857a75.190857 75.190857 0 0 0 98.962285 0c14.628571-12.434286 21.942857-43.52 21.942857-93.110857V307.712c0-10.093714 6.509714-15.140571 19.309715-15.140571h41.910857c12.873143 0 19.309714 5.046857 19.309714 15.140571v215.478857c0 64.219429-13.604571 109.348571-40.813714 135.241143-27.136 25.673143-64.146286 38.546286-111.030857 38.546286-46.811429 0-83.821714-12.873143-111.030857-38.546286C86.747429 632.539429 73.142857 587.483429 73.142857 523.117714zM484.205714 687.616c-12.873143 0-19.309714-6.875429-19.309714-20.626286V313.197714c0-13.750857 6.436571-20.626286 19.309714-20.626285h40.740572c15.798857 0 27.794286 6.436571 35.84 19.309714l140.434285 225.572571h1.974858a397.750857 397.750857 0 0 1-1.389715-33.060571V313.197714c0-13.750857 6.436571-20.626286 19.309715-20.626285h41.837714c12.873143 0 19.309714 6.875429 19.309714 20.626285V667.062857c0 13.750857-6.436571 20.626286-19.309714 20.626286h-38.034286a39.643429 39.643429 0 0 1-35.84-19.309714l-143.213714-229.668572h-1.901714c0.877714 10.971429 1.389714 21.942857 1.389714 32.987429v195.291428c0 13.824-6.436571 20.699429-19.309714 20.699429H484.205714zM889.709714 687.616c-12.873143 0-19.309714-6.875429-19.309714-20.626286V313.197714c0-13.750857 6.436571-20.626286 19.309714-20.626285h41.837715c12.873143 0 19.309714 6.875429 19.309714 20.626285V667.062857c0 13.750857-6.436571 20.626286-19.309714 20.626286h-41.837715z" fill="#2A5985"></path>
    
</svg>