<?xml version="1.0" standalone="no"?>
<!DOCTYPE svg PUBLIC "-//W3C//DTD SVG 1.1//EN" "http://www.w3.org/Graphics/SVG/1.1/DTD/svg11.dtd">
<svg t="1658303696471" class="icon" viewBox="0 0 1024 1024" version="1.1"
    xmlns="http://www.w3.org/2000/svg" p-id="7374" width="32" height="32"
    xmlns:xlink="http://www.w3.org/1999/xlink">
   <path d="M622.912 486.4v-4.288l-34.112 8.576v4.224c4.288 17.088 8.512 38.4 12.8 55.488-42.688-17.088-93.888-42.688-93.888-42.688-4.224-4.224-12.8 0-17.024 0-4.288 4.288-8.576 8.576-8.576 12.8-4.224 34.176-8.512 68.288-17.024 102.4-29.888-29.824-38.4-64-38.4-68.224V550.4l-34.176 4.288v4.224L371.2 554.688v4.224c-8.512 42.688-29.888 89.6-59.712 132.288-17.088-38.4 4.224-72.512 4.224-76.8L320 610.112l-29.888-17.024-4.224 4.224s0 4.288-4.288 4.288l-4.288-4.288-4.224 4.288c-102.4 64-149.376 128-136.576 187.712 38.4 162.176 418.176 149.312 418.176 149.312 4.224-8.512 136.512-192 68.224-452.224z m-448 277.312c29.888 0 64 0 98.176-8.512-25.6 34.112-51.2 64-64 72.512-17.088-12.8-38.4-38.4-34.176-64z m89.6 98.176c25.6-4.288 55.488-12.8 98.176-25.6-21.376 25.6-34.176 38.4-42.688 46.912-17.088-4.288-38.4-12.8-55.488-21.376zM605.888 678.4c-34.176 0-64-8.512-85.376-17.088l89.6-51.2c0 21.376 0 46.976-4.224 68.288zM409.6 776.512c-12.8-8.512-29.888-12.8-42.688-21.312-8.512-4.288-17.024-8.576-21.312-17.088 34.112-8.512 68.288-25.6 102.4-38.4l-38.4 76.8z m12.8 42.688c34.112 12.8 64 21.312 89.6 25.6-46.912 17.088-102.4 25.6-136.512 34.112 12.8-17.088 29.824-34.112 46.912-59.712z m140.8-110.976c-42.688 21.376-76.8 42.688-110.912 55.488 12.8-25.6 25.6-55.488 34.112-85.312 21.312 12.8 46.912 25.6 76.8 29.824z m-213.312 76.8l25.6 12.8A622.528 622.528 0 0 1 251.712 832c17.088-17.088 38.4-42.688 59.776-72.512l38.4 25.6zM576 814.976c-12.8 0-55.488-4.288-110.912-17.088C503.488 780.8 550.4 755.2 601.6 729.6c-8.512 29.824-17.088 59.712-25.6 85.312z m-17.088 46.912c-12.8 21.376-21.312 38.4-25.6 46.976-34.112 0-72.512-4.288-106.624-8.512 38.4-4.288 85.312-17.088 132.224-38.4z m-55.424-230.4c4.224-25.6 12.8-55.424 17.024-81.024 12.8 8.512 42.688 17.088 68.288 29.888-29.888 21.312-59.712 38.4-85.312 51.2z m-217.6 89.6c-34.176 8.576-68.288 12.8-98.176 12.8 17.088-25.6 46.976-55.424 89.6-81.024a101.12 101.12 0 0 0 8.576 68.288z m166.4-64c-34.176 17.088-68.288 29.888-98.176 42.688 21.376-34.112 42.688-76.8 51.2-110.912 4.288 17.088 21.376 42.688 46.976 68.288zM533.312 247.488c-38.4-59.776-38.4-170.688-38.4-170.688S422.4 89.6 371.2 106.688c-76.8 25.6-110.912 55.424-102.4 85.312 4.288 12.8 8.512 21.312 25.6 29.888l4.288 8.512 17.024-29.888-8.512-4.224C302.912 192 298.688 192 298.688 187.712c0-4.224 8.512-8.512 21.312-17.024 12.8 21.312 42.688 59.712 68.288 81.024 4.224 0 8.512 4.288 8.512 4.288h4.288s38.4-12.8 72.512-46.912c8.512 21.312 17.088 38.4 25.6 55.424l4.288 4.288 29.824-21.312zM443.712 192c-17.024 12.8-34.112 21.312-42.624 25.6-12.8-12.8-25.6-25.6-34.176-42.688 21.376 4.288 46.976 8.576 76.8 17.088z m21.376-34.112c-38.4-8.576-68.288-12.8-85.376-17.088 21.376-4.288 46.976-12.8 81.088-21.312 0 8.512 0 25.6 4.288 38.4z" fill="#BCCBD2"></path>
        <path d="M708.288 277.312c-81.088-29.824-320-51.2-396.8-81.024-25.6-8.576-34.176-38.4-34.176-38.4s-4.224 4.224-8.512 12.8c-17.088 29.824 21.312 68.224 34.112 81.024 29.888 29.888 64 68.288 68.288 166.4 4.288 68.288-38.4 140.8-123.712 200.576-76.8 55.424-98.176 98.112-98.176 98.112S354.112 601.6 422.4 576c332.8-115.2 512-123.712 512-123.712-4.288-21.376-46.912-98.176-226.112-174.976zM640 294.4c29.888 0 81.088 25.6 85.312 25.6-34.112 8.512-72.512 21.312-110.912 38.4 12.8-21.312 21.312-42.688 25.6-64z m-64-12.8c-21.312 12.8-42.688 25.6-59.712 38.4 0-21.312-4.288-34.112-8.576-46.912 21.376 0 42.688 4.224 68.288 8.512z m25.6 25.6c-8.512 21.312-17.088 42.688-29.888 64-12.8-8.512-29.824-12.8-42.624-21.312C550.4 332.8 576 320 601.6 307.2zM507.712 379.712c12.8 0 25.6 8.576 34.176 12.8a465.408 465.408 0 0 0-46.976 25.6c4.288-17.024 8.576-25.6 12.8-38.4z m-29.824-51.2c-25.6-8.512-46.976-12.8-64-17.024 17.024-12.8 34.112-29.888 55.424-38.4 4.288 8.512 12.8 29.824 8.576 55.424z m-21.376 29.888c-17.024 12.8-34.112 29.888-51.2 42.688 0-21.376-4.224-42.688-8.512-59.776 17.088 4.288 38.4 8.576 59.712 17.088zM345.6 243.2c21.312 4.288 46.912 12.8 81.088 17.088-17.088 12.8-34.176 25.6-42.688 34.112-12.8-21.312-25.6-38.4-38.4-51.2z m55.488 217.6c4.224 0 8.512 4.288 12.8 4.288-4.288 4.224-8.576 8.512-17.088 8.512 4.288-4.288 4.288-8.512 4.288-12.8z m12.8 81.088c12.8-17.088 25.6-29.888 38.4-46.976 8.512 8.576 12.8 17.088 12.8 29.888-17.088 4.288-34.176 8.512-51.2 17.088z m29.824-98.176C435.2 439.488 430.912 435.2 422.4 435.2c8.512-12.8 25.6-25.6 42.688-38.4-4.288 12.8-12.8 29.888-21.376 46.912z m29.888 21.376c21.312-12.8 42.688-21.376 59.712-34.176-17.024 25.6-29.824 46.976-42.624 59.776 0-8.576-8.576-17.088-17.088-25.6z m55.488 34.112c17.024-21.312 38.4-51.2 55.424-85.312 25.6 17.024 46.976 34.112 64 51.2-42.624 12.8-81.024 25.6-119.424 34.112zM614.4 392.512c42.688-17.024 89.6-34.112 132.288-42.624-21.376 38.4-55.488 76.8-72.576 98.112-12.8-21.312-34.112-38.4-59.712-55.488z m102.4 59.776c21.312-25.6 51.2-64 68.288-102.4 42.624 25.6 72.512 51.2 93.824 72.512-51.2 8.512-106.624 17.088-162.112 29.888z" fill="#DC2E2E"></path>
    
</svg>