<?xml version="1.0" standalone="no"?>
<!DOCTYPE svg PUBLIC "-//W3C//DTD SVG 1.1//EN" "http://www.w3.org/Graphics/SVG/1.1/DTD/svg11.dtd">
<svg t="1658303696471" class="icon" viewBox="0 0 1024 1024" version="1.1"
    xmlns="http://www.w3.org/2000/svg" p-id="7374" width="32" height="32"
    xmlns:xlink="http://www.w3.org/1999/xlink">
   <path d="M504.256 315.392H173.696v0.512h594.688a213.76 213.76 0 0 0 163.648-76.544A447.104 447.104 0 0 0 576.512 64a450.688 450.688 0 0 0-225.28 60.608 496.96 496.96 0 0 1 152.96 190.72z" fill="#EFBF1B"></path>
        <path d="M933.12 783.04a212.416 212.416 0 0 0-162.624-75.52H173.184v0.576h338.56a501.76 501.76 0 0 1-147.84 198.208 449.344 449.344 0 0 1-183.296-183.872A448.192 448.192 0 0 0 576.512 960a444.48 444.48 0 0 0 356.608-176.96z" fill="#40BEB0"></path>
        <path d="M521.28 637.952h196.096A126.72 126.72 0 0 0 843.84 512c0-69.12-56.32-125.952-125.952-125.952h-197.76c9.6 37.76 15.488 79.744 15.488 125.952s-5.312 88.192-14.336 125.952z" fill="#0AA5DE"></path>
        <path d="M535.616 512c0-46.72-5.888-88.192-15.424-125.952H146.048a448.192 448.192 0 0 0 0 251.904h375.232c8.96-37.76 14.336-79.744 14.336-125.952z" fill="#231F20"></path>
        <path d="M351.168 124.608a453.504 453.504 0 0 0-177.984 190.72h331.072a496.96 496.96 0 0 0-153.088-190.72z" fill="#D7A229"></path>
        <path d="M364.48 906.304a498.048 498.048 0 0 0 147.712-198.208H173.696c2.112 4.8 4.8 9.6 7.424 14.336a443.136 443.136 0 0 0 183.36 183.872z" fill="#009B8F"></path>
    
</svg>