<?xml version="1.0" standalone="no"?>
<!DOCTYPE svg PUBLIC "-//W3C//DTD SVG 1.1//EN" "http://www.w3.org/Graphics/SVG/1.1/DTD/svg11.dtd">
<svg t="1658303696471" class="icon" viewBox="0 0 1024 1024" version="1.1"
    xmlns="http://www.w3.org/2000/svg" p-id="7374" width="32" height="32"
    xmlns:xlink="http://www.w3.org/1999/xlink">
   <path d="M565.899636 221.649455C400.942545 160.023273 159.650909 47.336727 159.650909 47.336727c-17.128727-4.608-19.549091 12.427636-19.549091 12.427637-5.445818 68.328727 36.677818 179.572364 58.507637 204.520727 21.690182 24.948364 348.066909 127.208727 348.066909 127.208727s-250.973091-51.898182-311.528728-69.818182c-60.648727-17.92-41.332364 19.921455-41.332363 19.921455 12.427636 69.026909 70.749091 147.456 116.922182 154.856727 46.08 7.400727 240.128 4.468364 240.128 4.468364s-38.725818 4.608-101.701819 13.312c-46.545455 6.516364-105.797818 13.963636-121.204363 19.921454-36.072727 13.963636 26.205091 70.050909 26.205091 70.050909 92.392727 85.922909 141.498182 56.506182 141.498181 56.506182 36.305455-12.008727 66.978909-20.712727 92.951273-27.089454l-32.209454 136.936727h92.299636L597.876364 977.454545l223.976727-304.22109h-117.294546l24.343273-43.287273c0.325818 0.558545 0.418909 0.884364 0.418909 0.884363s83.223273-136.610909 115.106909-206.336l0.651637-1.11709h-0.139637c5.445818-12.101818 9.402182-22.016 10.938182-28.858182 18.525091-79.778909-124.928-111.243636-289.978182-172.869818z" fill="#0C65FF"></path>
    
</svg>