<?xml version="1.0" standalone="no"?>
<!DOCTYPE svg PUBLIC "-//W3C//DTD SVG 1.1//EN" "http://www.w3.org/Graphics/SVG/1.1/DTD/svg11.dtd">
<svg t="1658303696471" class="icon" viewBox="0 0 1024 1024" version="1.1"
    xmlns="http://www.w3.org/2000/svg" p-id="7374" width="32" height="32"
    xmlns:xlink="http://www.w3.org/1999/xlink">
   <path d="M607.04 163.84a1589.632 1589.632 0 0 1-76.608-99.328 1.664 1.664 0 0 0-2.432 0c-6.656 9.408-39.04 54.72-76.608 99.328-322.816 411.712 50.816 689.472 50.816 689.472l3.136 2.112c2.752 42.88 9.728 104.576 9.728 104.576h27.84s7.04-61.376 9.792-104.576l3.136-2.432c0.32 0.32 373.952-277.44 51.2-689.152z m-78.08 683.2s-16.64-14.272-21.184-21.568v-0.704l20.224-448.256c0-1.408 2.048-1.408 2.048 0l20.224 448.256v0.64c-4.544 7.36-21.248 21.632-21.248 21.632z" fill="#117851"></path>
    
</svg>