<?xml version="1.0" standalone="no"?>
<!DOCTYPE svg PUBLIC "-//W3C//DTD SVG 1.1//EN" "http://www.w3.org/Graphics/SVG/1.1/DTD/svg11.dtd">
<svg t="1658303696471" class="icon" viewBox="0 0 1024 1024" version="1.1"
    xmlns="http://www.w3.org/2000/svg" p-id="7374" width="32" height="32"
    xmlns:xlink="http://www.w3.org/1999/xlink">
   <path d="M512 64c-117.573818-1.210182-230.772364 46.405818-314.786909 132.514909-84.014545 86.109091-131.909818 203.589818-133.213091 326.609455 0.465455 97.28 30.347636 191.813818 85.364364 270.196363 55.016727 78.336 132.375273 136.424727 220.904727 165.888 22.388364 4.282182 30.533818-9.774545 30.533818-22.155636v-78.010182c-124.602182 27.694545-151.086545-61.393455-151.086545-61.393454a121.344 121.344 0 0 0-49.664-67.351273c-40.773818-28.113455 3.258182-27.694545 3.258181-27.694546 14.056727 1.954909 27.508364 7.261091 39.377455 15.453091 11.822545 8.192 21.783273 19.083636 28.997818 31.837091a97.28 97.28 0 0 0 57.762909 46.871273 92.718545 92.718545 0 0 0 72.610909-8.890182c2.234182-23.365818 12.334545-45.149091 28.485819-61.44-99.374545-11.496727-203.636364-50.734545-203.636364-226.769454-0.930909-45.893818 15.36-90.391273 45.195636-124.043637a168.075636 168.075636 0 0 1 4.468364-121.018182s37.888-12.381091 122.228364 46.871273a416.256 416.256 0 0 1 223.976727 0c85.504-59.252364 122.181818-46.917818 122.181818-46.917818a168.029091 168.029091 0 0 1 4.468364 121.064727 181.341091 181.341091 0 0 1 47.662545 123.205818c0 176.500364-105.099636 215.272727-203.636364 226.769455a107.054545 107.054545 0 0 1 24.389819 39.098182c5.306182 14.708364 7.400727 30.487273 6.144 46.173091v125.765818c0 14.894545 8.145455 26.856727 30.533818 22.155636a441.250909 441.250909 0 0 0 220.253091-165.981091 474.810182 474.810182 0 0 0 85.224727-269.684363c-1.303273-123.019636-49.198545-240.500364-133.213091-326.609455-84.014545-86.109091-197.213091-133.725091-314.786909-132.514909" fill="#231F20"></path>
    
</svg>