<?xml version="1.0" standalone="no"?>
<!DOCTYPE svg PUBLIC "-//W3C//DTD SVG 1.1//EN" "http://www.w3.org/Graphics/SVG/1.1/DTD/svg11.dtd">
<svg t="1658303696471" class="icon" viewBox="0 0 1024 1024" version="1.1"
    xmlns="http://www.w3.org/2000/svg" p-id="7374" width="32" height="32"
    xmlns:xlink="http://www.w3.org/1999/xlink">
   <path d="M835.93216 928.01024c59.1872 0 107.52-48.3328 107.52-107.52v-104.98048c0-7.35232-0.63488-14.70464-2.2528-21.42208-9.91232-48.96768-53.43232-86.07744-105.2672-86.07744H218.97216a107.74528 107.74528 0 0 0-105.2672 86.07744c-1.61792 6.71744-2.2528 14.06976-2.2528 21.44256v104.93952c0 59.20768 48.3328 107.52 107.52 107.52h616.96z m-52.49024-208.01536a47.9232 47.9232 0 0 1 48.00512 48.00512 47.9232 47.9232 0 0 1-48.00512 48.00512 47.9232 47.9232 0 0 1-47.98464-48.00512 47.9232 47.9232 0 0 1 47.98464-48.00512z" fill="#E0F7FE"></path>
        <path d="M218.97216 960h616.96a139.6736 139.6736 0 0 0 139.50976-139.53024v-104.93952c0-4.62848-0.28672-9.0112-0.6144-13.23008-0.06144-0.7168-0.04096-1.4336 0-2.12992a12.5952 12.5952 0 0 0-0.14336-3.21536L856.80128 174.1824a96.21504 96.21504 0 0 0-94.47424-78.19264H292.57728c-46.14144 0-85.89312 32.91136-94.26944 77.12768L82.5344 686.63296v0.08192l-2.33472 10.24a31.80544 31.80544 0 0 0-0.16384 12.96384c-0.04096 0.90112-0.16384 1.72032-0.3072 2.53952a19.1488 19.1488 0 0 0-0.3072 3.072v104.93952a139.6736 139.6736 0 0 0 139.53024 139.53024z m41.984-773.87776a31.78496 31.78496 0 0 1 31.62112-26.112h469.74976c15.68768 0 28.672 10.71104 31.82592 27.19744l89.6 397.33248a138.24 138.24 0 0 0-47.8208-8.54016H218.97216c-16.67072 0-32.78848 3.03104-47.77984 8.51968l89.76384-398.39744z m-115.9168 514.41664l0.04096-0.28672a75.65312 75.65312 0 0 1 73.89184-60.25216h616.96a75.9808 75.9808 0 0 1 75.50976 75.53024v104.93952a75.5712 75.5712 0 0 1-75.50976 75.53024H218.97216a75.5712 75.5712 0 0 1-75.53024-75.53024v-104.93952c0-5.38624 0.49152-10.21952 1.61792-14.99136z" fill="#1ABAC4"></path>
        <path d="M847.4624 768a64.06144 64.06144 0 0 1-64.02048 64A64.06144 64.06144 0 0 1 719.4624 768a64.06144 64.06144 0 0 1 64-64A64.06144 64.06144 0 0 1 847.4624 768z m-32.01024 0c0-17.6128-14.37696-32.01024-32.01024-32.01024-17.6128 0-31.98976 14.37696-31.98976 32.01024 0 17.6128 14.37696 32.01024 31.98976 32.01024 17.63328 0 32.01024-14.37696 32.01024-32.01024z" fill="#1ABAC4"></path>
    
</svg>