<?xml version="1.0" standalone="no"?>
<!DOCTYPE svg PUBLIC "-//W3C//DTD SVG 1.1//EN" "http://www.w3.org/Graphics/SVG/1.1/DTD/svg11.dtd">
<svg t="1658303696471" class="icon" viewBox="0 0 1024 1024" version="1.1"
    xmlns="http://www.w3.org/2000/svg" p-id="7374" width="32" height="32"
    xmlns:xlink="http://www.w3.org/1999/xlink">
   <path d="M89.088 192h93.248v332.16H89.088V192z m340.032 0H302.272v324.672h123.136c104.448 0 153.024-55.872 153.024-167.936C574.72 244.224 526.208 192 429.12 192z m-14.848 261.184h-18.624V262.912h18.56c48.512 0 67.2 29.824 67.2 93.248 0 63.36-22.4 97.024-67.2 97.024z m396.096 70.912h18.56c67.264-3.776 119.488-59.712 115.776-126.912h-89.6c0 41.088-18.56 59.648-48.448 59.648-37.312 0-55.872-29.888-55.872-93.248s22.4-104.32 52.16-100.672c29.76 3.648 48.448 18.56 48.448 55.872h89.6C937.216 232.96 888.704 192 802.944 192c-89.6 7.424-138.048 63.488-141.76 167.936-0.192 108.224 48.448 160.384 149.184 164.16zM917.376 575.04H106.688A42.688 42.688 0 0 0 64 617.728v259.136a42.688 42.688 0 0 0 42.688 42.624h810.688a42.688 42.688 0 0 0 42.624-42.624V617.728a42.688 42.688 0 0 0-42.624-42.688zM238.656 780.16h-72.32v-72.256h72.32v72.32z m156.992 0h-72.32v-72.256h72.32v72.32z" fill="#1565FF"></path>
    
</svg>