<?xml version="1.0" standalone="no"?>
<!DOCTYPE svg PUBLIC "-//W3C//DTD SVG 1.1//EN" "http://www.w3.org/Graphics/SVG/1.1/DTD/svg11.dtd">
<svg t="1658303696471" class="icon" viewBox="0 0 1024 1024" version="1.1"
    xmlns="http://www.w3.org/2000/svg" p-id="7374" width="32" height="32"
    xmlns:xlink="http://www.w3.org/1999/xlink">
   <path d="M960 406.848a148.032 148.032 0 0 0-147.84-147.84H576.832l21.12 84.48 202.176 45.248c18.048 3.008 33.152 21.12 33.152 39.232v217.216a41.728 41.728 0 0 1-33.152 39.232l-202.176 45.248-24.128 81.408h235.328a148.096 148.096 0 0 0 147.84-147.84c3.008 0 3.008-256.384 3.008-256.384z m-736.128 274.56a41.792 41.792 0 0 1-33.152-39.232V424.96c0-18.112 15.04-36.224 33.152-39.232l202.176-45.248 21.12-84.48H211.84A148.096 148.096 0 0 0 64 403.84v256.384a148.096 148.096 0 0 0 147.84 147.84h235.328l-21.12-84.48c0 3.072-202.176-42.24-202.176-42.24z m190.08-187.072h193.088V572.8H413.952V494.336z" fill="#FF6A00"></path>
    
</svg>