<?xml version="1.0" standalone="no"?>
<!DOCTYPE svg PUBLIC "-//W3C//DTD SVG 1.1//EN" "http://www.w3.org/Graphics/SVG/1.1/DTD/svg11.dtd">
<svg t="1658303696471" class="icon" viewBox="0 0 1024 1024" version="1.1"
    xmlns="http://www.w3.org/2000/svg" p-id="7374" width="32" height="32"
    xmlns:xlink="http://www.w3.org/1999/xlink">
    <path d="M464 144H160a16 16 0 0 0-16 16v304c0 8.832 7.168 16 16 16h304a16 16 0 0 0 16-16V160a16 16 0 0 0-16-16z m-52.032 268.032H212.032V212.032h200.064v199.936zM864 144H560a16 16 0 0 0-16 16v304c0 8.832 7.232 16 16 16h304a16 16 0 0 0 16-16V160a16 16 0 0 0-16-16z m-52.032 268.032H612.032V212.032h199.936v199.936zM560 544h304a16 16 0 0 1 16 16v304a16 16 0 0 1-16 16H560a16 16 0 0 1-16-16V560a16 16 0 0 1 16-16z m52.032 268.032h199.936V611.968H612.032v200.064z m-316.032-100.032h128c4.416 0 8 3.584 8 8V768a8 8 0 0 1-8 8h-128v128a8 8 0 0 1-8 8h-48a8 8 0 0 1-8-8v-128h-128A8 8 0 0 1 96 768v-48c0-4.416 3.584-8 8-8h128v-128c0-4.416 3.584-8 8-8h48c4.416 0 8 3.584 8 8v128z"></path>
    
</svg>