<?xml version="1.0" standalone="no"?>
<!DOCTYPE svg PUBLIC "-//W3C//DTD SVG 1.1//EN" "http://www.w3.org/Graphics/SVG/1.1/DTD/svg11.dtd">
<svg t="1658303696471" class="icon" viewBox="0 0 1024 1024" version="1.1"
    xmlns="http://www.w3.org/2000/svg" p-id="7374" width="32" height="32"
    xmlns:xlink="http://www.w3.org/1999/xlink">
   <path d="M466.368 136.768a145.024 145.024 0 0 0-44.16-22.72C388.096 102.4 343.296 96 296 96c-47.296 0-92.096 6.4-126.272 18.048-55.872 19.072-67.584 46.72-67.584 66.688v291.712c0 11.456 4.032 28.288 23.488 43.968 10.88 8.832 25.792 16.448 44.16 22.72 34.112 11.648 78.912 18.048 126.208 18.048 47.296 0 92.096-6.4 126.208-18.048 55.936-19.072 67.648-46.72 67.648-66.688V180.736c0-11.456-4.032-28.352-23.488-43.968z m-32.96 187.52c-2.944 3.328-14.08 11.456-39.552 18.624-27.136 7.68-61.888 11.904-97.856 11.904-35.968 0-70.72-4.224-97.92-11.904-25.472-7.168-36.48-15.296-39.488-18.56V243.2c3.584 1.472 7.296 2.816 11.136 4.16 34.176 11.648 78.976 18.048 126.272 18.048 47.232 0 92.096-6.4 126.208-18.048 3.968-1.344 7.68-2.752 11.2-4.16v81.088zM296 152.448c35.968 0 70.72 4.224 97.92 11.904 20.736 5.888 32 12.352 36.992 16.384-5.056 3.968-16.256 10.432-37.056 16.32-27.136 7.68-61.888 11.904-97.856 11.904-35.968 0-70.72-4.224-97.92-11.904-20.736-5.888-32-12.352-36.992-16.32 5.056-4.032 16.192-10.496 37.056-16.384 27.136-7.68 61.888-11.904 97.856-11.904z m97.92 336.384c-27.2 7.68-61.952 11.904-97.92 11.904s-70.72-4.288-97.92-11.904c-25.472-7.232-36.48-15.36-39.488-18.624V389.056c3.584 1.472 7.296 2.88 11.136 4.16 34.176 11.648 78.976 18.048 126.272 18.048 47.232 0 92.096-6.4 126.208-18.048 3.968-1.28 7.68-2.688 11.2-4.096v81.088c-2.944 3.328-14.08 11.392-39.552 18.56z m504.448 18.752a145.088 145.088 0 0 0-44.16-22.72c-34.112-11.648-78.912-18.048-126.208-18.048-47.296 0-92.096 6.4-126.272 18.048-55.872 19.072-67.584 46.72-67.584 66.688v291.776c0 11.392 4.032 28.16 23.488 43.904 10.88 8.832 25.792 16.448 44.16 22.72 34.112 11.648 78.912 18.048 126.208 18.048 47.296 0 92.096-6.4 126.272-18.048 55.872-19.072 67.584-46.72 67.584-66.624v-291.84c0-11.392-4.032-28.224-23.488-43.904z m-32.96 187.52c-2.944 3.392-14.08 11.456-39.552 18.624-27.136 7.68-61.888 11.904-97.856 11.904-35.968 0-70.72-4.224-97.92-11.904-25.472-7.168-36.48-15.232-39.488-18.56V613.952c3.584 1.472 7.296 2.816 11.136 4.16 34.176 11.648 78.976 18.048 126.272 18.048 47.296 0 92.096-6.4 126.272-18.048a216.32 216.32 0 0 0 11.136-4.16v81.088z m-137.408-171.84c35.968 0 70.72 4.288 97.92 11.904 20.736 5.888 32 12.352 36.992 16.384-5.056 3.968-16.256 10.432-37.056 16.32-27.136 7.68-61.888 11.904-97.856 11.904-35.968 0-70.72-4.224-97.92-11.904-20.736-5.888-32-12.352-36.992-16.32 5.056-4.032 16.192-10.496 37.056-16.384 27.136-7.68 61.888-11.904 97.856-11.904z m97.92 336.384c-27.2 7.68-61.952 11.904-97.92 11.904s-70.72-4.224-97.92-11.904c-25.472-7.232-36.48-15.36-39.488-18.624v-81.152c3.584 1.472 7.296 2.88 11.136 4.224 34.176 11.584 78.976 18.048 126.272 18.048 47.296 0 92.096-6.4 126.272-18.112 3.904-1.28 7.68-2.688 11.136-4.096v81.088c-2.944 3.328-14.08 11.392-39.552 18.56z m19.904-605.248l-58.816 30.656a327.488 327.488 0 0 0-210.176-142.08 7.552 7.552 0 0 0-8.896 6.016l-8.448 48.256a7.552 7.552 0 0 0 5.952 8.64 263.552 263.552 0 0 1 164.48 108.864l-56.768 29.568a7.552 7.552 0 0 0 0.32 13.44l144.896 67.584a7.552 7.552 0 0 0 10.56-5.504l27.776-157.44a7.552 7.552 0 0 0-10.88-8zM323.2 688.64l-57.216 29.952a264.32 264.32 0 0 0 172.16 110.144l-10.88 63.04a328.128 328.128 0 0 1-218.304-143.36l-58.112 30.464a7.552 7.552 0 0 1-10.88-8l27.392-157.44a7.552 7.552 0 0 1 10.56-5.504l144.96 67.2a7.488 7.488 0 0 1 0.32 13.44z"></path>
    
</svg>