<?xml version="1.0" standalone="no"?>
<!DOCTYPE svg PUBLIC "-//W3C//DTD SVG 1.1//EN" "http://www.w3.org/Graphics/SVG/1.1/DTD/svg11.dtd">
<svg t="1658303696471" class="icon" viewBox="0 0 1024 1024" version="1.1"
    xmlns="http://www.w3.org/2000/svg" p-id="7374" width="32" height="32"
    xmlns:xlink="http://www.w3.org/1999/xlink">
   <path d="M184.32 17.35111112a72.81777778 72.81777778 0 0 0-72.81777778 72.81777777V490.66666667a36.40888889 36.40888889 0 0 0 72.81777778 0V90.16888889H584.81777778v218.45333333a36.40888889 36.40888889 0 0 0 36.40888889 36.4088889h218.45333333v145.63555555a36.40888889 36.40888889 0 0 0 72.81777778 0V308.62222222a36.33607111 36.33607111 0 0 0-10.63139556-25.77749333l-254.86222222-254.86222222A36.40888889 36.40888889 0 0 0 621.22666667 17.35111112m36.40888888 124.29994666V272.21333334h130.56227556L657.63555555 141.65105778z"></path>
        <path d="M84.41400889 880.60586667c-9.46631111-7.28177778-11.65084445-14.63637333-6.84487111-22.13660445l17.62190222-27.01539555c5.82542222-8.88376889 14.19946667-9.32067555 25.34058667-1.45635555 8.51968 6.11669333 19.6608 12.37902222 33.35054222 18.93262222 13.83537778 6.40796445 28.39893333 9.53912889 43.61784889 9.53912888 10.63139555 0 20.89870222-1.23790222 30.80192-3.71370666a38.22933333 38.22933333 0 0 0 30.36501333-39.83132444 46.02083555 46.02083555 0 0 0-3.42243556-18.42289778 29.4912 29.4912 0 0 0-11.14112-13.1072 100.19726222 100.19726222 0 0 0-16.0199111-8.59249778 281.65916445 281.65916445 0 0 0-36.33607112-11.86929778 436.90666667 436.90666667 0 0 1-42.96248888-14.41792 126.99420445 126.99420445 0 0 1-34.66126223-20.53461333 97.86709333 97.86709333 0 0 1-24.46677333-29.34556445c-5.82542222-10.92266667-8.66531555-25.41340445-8.66531556-43.54503111 0-21.62688 6.84487111-40.04977778 20.60743112-55.48714667 13.68974222-15.36455111 29.41838222-25.26776889 47.25873777-29.56401777 17.76753778-4.36906667 35.75352889-6.5536 53.88515556-6.5536 17.98599111 0 36.40888889 2.76707555 55.48714667 8.37404444 19.22389333 5.60696889 33.64181333 12.59747555 43.39939555 20.97152 9.61194667 8.22840889 11.94211555 15.72864 7.06332445 22.35505778l-18.49571556 25.48622222c-6.18951111 8.66531555-14.56355555 9.32067555-25.12213334 2.03889778a217.50670222 217.50670222 0 0 0-27.67075555-15.58300445 80.60928 80.60928 0 0 0-36.26325333-8.66531555c-8.95658667 0-17.25781333 0.72817778-24.90368 2.33016889a38.44778667 38.44778667 0 0 0-19.87925334 11.21393778 30.07374222 30.07374222 0 0 0-8.66531555 21.84533333c0 8.44686222 2.18453333 15.29173333 6.40796444 20.53461333 4.22343111 5.09724445 8.95658667 9.02940445 14.12664889 11.65084445 5.17006222 2.47580445 10.48576 4.58752 15.80145778 6.33514667l44.05475556 14.41792c12.96156445 4.07779555 24.90368 8.51968 35.89916444 13.54410666 15.21891555 6.99050667 26.86976 13.98101333 34.95253333 20.97152 8.00995555 6.99050667 14.63637333 16.52963555 19.80643556 28.61738667 5.38851555 12.16056889 8.00995555 26.57848889 8.00995555 43.32657777 0 24.90368-7.79150222 45.43829333-23.30168888 61.74947556-15.51018667 16.16554667-32.768 26.57848889-51.84625778 31.31164444-18.93262222 4.73315555-37.28270222 7.13614222-55.26869334 7.13614223-26.50567111 0-48.05973333-2.62144-64.58936888-7.86432a149.56771555 149.56771555 0 0 1-47.33155556-24.97649778zM362.35946667 738.46556445c0-53.59388445 13.61692445-96.11946667 40.70513778-127.64956445 27.08821333-31.53009778 65.75445333-47.33155555 115.99872-47.33155555s88.91050667 15.80145778 115.99872 47.33155555c27.16103111 31.53009778 40.70513778 74.05568 40.70513777 127.64956445s-13.54410667 96.11946667-40.70513777 127.72238222c-20.68024889 24.02986667-48.13255111 38.95751111-82.42972445 44.71011555 1.38353778 13.98101333 4.95160889 24.39395555 10.77703111 31.23882667 5.89824 6.99050667 17.33063111 10.48576 34.22435556 10.48576 7.79150222 0 15.80145778-1.09226667 24.17550222-3.2768 7.64586667-1.96608 12.08775111-0.29127111 13.25283556 5.09724445l6.40796444 27.08821333c1.45635555 6.04387555-1.38353778 9.90321778-8.22840889 11.65084445-17.91317333 4.80597333-32.25827555 7.20896-42.96248889 7.20896-40.77795555 0-68.01180445-8.73813333-81.70154666-26.36003556a113.45009778 113.45009778 0 0 1-22.86478223-63.13301334c-34.36999111-5.60696889-61.89511111-20.46179555-82.64817777-44.71011555-27.08821333-31.53009778-40.70513778-74.12849778-40.70513778-127.72238222z m71.28860444 0c0 38.88469333 6.77205333 68.59434667 20.38897778 89.27459555 13.61692445 20.46179555 35.31662222 30.72910222 65.02627556 30.72910222 29.70965333 0 51.33653333-10.19448889 64.80782222-30.72910222 13.76256-20.68024889 20.60743111-50.38990222 20.60743111-89.27459555 0-38.81187555-6.84487111-68.44871111-20.53461333-88.98332445-13.54410667-20.68024889-35.17098667-31.02037333-64.80782223-31.02037333-29.78247111 0-51.48216889 10.34012445-65.17191111 31.02037333-13.54410667 20.46179555-20.31616 50.17144889-20.31616 88.98332445zM747.9296 905.58236445c-10.63139555 0-16.01991111-5.82542222-16.01991111-17.47626667v-299.28106666c0-11.65084445 5.38851555-17.47626667 16.01991111-17.47626667h36.99143111c9.10222222 0 13.68974222 5.82542222 13.68974222 17.47626667v258.94001777h133.18371556c11.43239111 0 17.11217778 5.09724445 17.11217778 15.14609778v27.52512c0 10.04885333-5.67978667 15.14609778-17.11217778 15.14609778H747.9296z"></path>
    
</svg>