<?xml version="1.0" standalone="no"?>
<!DOCTYPE svg PUBLIC "-//W3C//DTD SVG 1.1//EN" "http://www.w3.org/Graphics/SVG/1.1/DTD/svg11.dtd">
<svg t="1658303696471" class="icon" viewBox="0 0 1024 1024" version="1.1"
    xmlns="http://www.w3.org/2000/svg" p-id="7374" width="32" height="32"
    xmlns:xlink="http://www.w3.org/1999/xlink">
   <path d="M264 112h616a32 32 0 0 1 32 32v616a8 8 0 0 1-8 8h-56a8 8 0 0 1-8-8v-576h-576A8 8 0 0 1 256 176v-56c0-4.416 3.584-8 8-8z"></path>
        <path d="M752 240a32 32 0 0 1 32 32v608a32 32 0 0 1-32 32h-608a32 32 0 0 1-32-32v-608a32 32 0 0 1 32-32h608z m-40 600v-528h-528v528h528z"></path>
    
</svg>