<?xml version="1.0" standalone="no"?>
<!DOCTYPE svg PUBLIC "-//W3C//DTD SVG 1.1//EN" "http://www.w3.org/Graphics/SVG/1.1/DTD/svg11.dtd">
<svg t="1658303696471" class="icon" viewBox="0 0 1024 1024" version="1.1"
    xmlns="http://www.w3.org/2000/svg" p-id="7374" width="32" height="32"
    xmlns:xlink="http://www.w3.org/1999/xlink">
   <path d="M1024 1024H0V0h1024z" fill="#000000" opacity=".01"></path>
        <path d="M860.032 625.024h-72.448a32.256 32.256 0 0 1-24.512-11.392L512 314.432 260.928 613.568a32.192 32.192 0 0 1-24.512 11.392H164.032a7.936 7.936 0 0 1-6.144-13.12L512 190.016l354.112 421.888a7.936 7.936 0 0 1-6.08 13.12z m-696.064 200.96v-64c0-4.416 3.648-8 8.064-8h688c4.352 0 7.936 3.584 7.936 8v64a8 8 0 0 1-7.936 8H172.032a8 8 0 0 1-8.064-8z" fill="#000000"></path>
    
</svg>