<?xml version="1.0" standalone="no"?>
<!DOCTYPE svg PUBLIC "-//W3C//DTD SVG 1.1//EN" "http://www.w3.org/Graphics/SVG/1.1/DTD/svg11.dtd">
<svg t="1658303696471" class="icon" viewBox="0 0 1024 1024" version="1.1"
    xmlns="http://www.w3.org/2000/svg" p-id="7374" width="32" height="32"
    xmlns:xlink="http://www.w3.org/1999/xlink">
    <path d="M519.68 765.568c2.858667 10.965333 6.741333 20.394667 11.690667 28.202667 9.941333 15.744 23.893333 27.861333 39.850666 36.949333-45.141333 14.634667-93.824 22.613333-144.554666 22.613333-51.968 0-101.717333-8.362667-147.754667-23.637333L174.08 887.125333a34.133333 34.133333 0 0 1-49.664-37.632l21.162667-91.221333C56.32 687.872 0 584.533333 0 469.333333c0-212.053333 191.018667-384 426.666667-384s426.666667 171.946667 426.666666 384c0 2.474667 0 4.992-0.085333 7.466667a139.861333 139.861333 0 0 0-39.424-12.288 232.704 232.704 0 0 0-37.376-1.92C772.352 297.898667 619.008 162.133333 426.666667 162.133333c-194.944 0-349.866667 139.434667-349.866667 307.2 0 87.893333 42.410667 170.325333 116.352 228.608l38.272 30.208-10.624 45.781334 50.517333-27.733334 31.786667 10.581334A391.509333 391.509333 0 0 0 426.666667 776.533333c32.256 0 63.445333-3.84 93.013333-10.965333z" fill="#007DDF"></path>
        <path d="M788.608 614.186667a57.6 57.6 0 1 1 58.325333-56.832c-0.128 8.234667 0.938667 28.245333 17.408 47.104 12.288 14.08 28.373333 33.024 48.213334 56.917333a12.714667 12.714667 0 0 1-17.92 17.92c-23.893333-19.712-42.965333-35.584-57.344-47.573333-24.192-20.181333-39.936-17.408-48.64-17.493334z" fill="#2FBF00"></path>
        <path d="M790.058667 851.968A57.6 57.6 0 1 1 731.733333 908.8a69.333333 69.333333 0 0 0-17.408-47.061333c-12.288-14.08-28.373333-33.066667-48.213333-56.96a12.714667 12.714667 0 0 1 17.92-17.92c23.893333 19.754667 42.965333 35.626667 57.344 47.616 24.192 20.181333 39.936 17.408 48.64 17.493333z" fill="#F36705"></path>
        <path d="M670.421333 733.824a57.6 57.6 0 1 1-56.832-58.325333c8.234667 0.085333 28.245333-0.938667 47.104-17.408 14.08-12.288 33.066667-28.373333 56.96-48.213334a12.714667 12.714667 0 0 1 17.92 17.92l-47.616 57.344c-20.181333 24.192-17.408 39.936-17.493333 48.64z" fill="#FDCF00"></path>
        <path d="M966.528 790.698667c-8.704 0.085333-24.490667-2.688-48.64 17.493333-14.378667 11.989333-33.493333 27.861333-57.386667 47.616a12.757333 12.757333 0 0 1-17.92-17.92c19.84-23.893333 35.925333-42.88 48.213334-56.96 16.512-18.858667 17.536-38.826667 17.450666-47.104a57.6 57.6 0 1 1 58.325334 56.832z" fill="#008AE1"></path>
    
</svg>