<?xml version="1.0" standalone="no"?>
<!DOCTYPE svg PUBLIC "-//W3C//DTD SVG 1.1//EN" "http://www.w3.org/Graphics/SVG/1.1/DTD/svg11.dtd">
<svg t="1658303696471" class="icon" viewBox="0 0 1024 1024" version="1.1"
    xmlns="http://www.w3.org/2000/svg" p-id="7374" width="32" height="32"
    xmlns:xlink="http://www.w3.org/1999/xlink">
   <path d="M249.28 704c-3.456 0-6.4-1.28-8.832-3.84a13.056 13.056 0 0 1-3.648-9.344v-303.36H140.48c-3.456 0-6.4-1.28-8.832-3.84A13.056 13.056 0 0 1 128 374.4v-40.64c0-4.032 1.216-7.296 3.648-9.856A11.776 11.776 0 0 1 140.48 320h265.472c3.84 0 6.976 1.28 9.408 3.84 2.432 2.56 3.648 5.824 3.648 9.856v40.64a13.056 13.056 0 0 1-3.648 9.28 12.352 12.352 0 0 1-9.408 3.84H310.208v303.36a13.056 13.056 0 0 1-3.648 9.344 12.352 12.352 0 0 1-9.408 3.84h-47.872zM484.288 704c-3.456 0-6.4-1.28-8.832-3.84a13.056 13.056 0 0 1-3.648-9.344v-357.12c0-4.032 1.28-7.296 3.648-9.856A11.776 11.776 0 0 1 484.288 320h134.848c41.984 0 75.136 10.24 99.456 30.72 24.32 20.48 36.416 50.304 36.416 89.408 0 27.072-6.4 49.536-19.264 67.456-12.48 17.92-29.312 30.912-50.496 38.976l76.032 139.904a14.208 14.208 0 0 1 1.536 6.016 10.624 10.624 0 0 1-3.648 8.256 9.728 9.728 0 0 1-7.296 3.264h-47.36c-5.888 0-10.432-1.664-13.504-4.928a45.184 45.184 0 0 1-7.296-9.856l-67.2-130.048h-72.32v131.648a13.056 13.056 0 0 1-3.648 9.344 10.752 10.752 0 0 1-8.832 3.84h-47.36z m59.904-206.784H617.6c21.12 0 36.928-4.992 47.36-14.848 10.368-10.24 15.616-24.512 15.616-42.752 0-18.304-5.248-32.576-15.616-42.816-10.112-10.624-25.856-15.936-47.36-15.936H544.192V497.28zM834.56 704c-3.456 0-6.4-1.28-8.832-3.84a13.056 13.056 0 0 1-3.648-9.344V333.184c0-3.648 1.216-6.784 3.648-9.344A11.776 11.776 0 0 1 834.56 320h48.96c3.84 0 6.784 1.28 8.832 3.84 2.432 2.56 3.648 5.696 3.648 9.344v357.632a13.056 13.056 0 0 1-3.648 9.344 10.752 10.752 0 0 1-8.832 3.84h-48.96z" fill="#F539E3"></path>
    
</svg>