<?xml version="1.0" standalone="no"?>
<!DOCTYPE svg PUBLIC "-//W3C//DTD SVG 1.1//EN" "http://www.w3.org/Graphics/SVG/1.1/DTD/svg11.dtd">
<svg t="1658303696471" class="icon" viewBox="0 0 1024 1024" version="1.1"
    xmlns="http://www.w3.org/2000/svg" p-id="7374" width="32" height="32"
    xmlns:xlink="http://www.w3.org/1999/xlink">
   <path d="M162.47466667 45.96622222a77.6722963 77.6722963 0 0 0-77.6722963 77.6722963v427.19762963a38.83614815 38.83614815 0 0 0 77.6722963 0V123.63851852H589.6722963v233.01688889a38.83614815 38.83614815 0 0 0 38.83614815 38.83614814h233.01688888v155.3445926a38.83614815 38.83614815 0 0 0 77.6722963 0V356.65540741a38.75847585 38.75847585 0 0 0-11.34015526-27.49599289l-271.85303704-271.85303704A38.83614815 38.83614815 0 0 0 628.50844445 45.96622222m38.83614814 132.58660978V317.81925925h139.26642726L667.34459259 178.552832z"></path>
        <path d="M45.96622222 803.5818003c0-53.59388445 13.59265185-96.23597511 40.77795556-127.77092741 27.1853037-31.5349523 66.48748563-47.30242845 117.75120119-47.30242844 29.51547259 0 54.525952 4.58266548 75.03143821 13.74799644s34.95253333 22.52496592 43.34114134 39.845888c5.59240533 11.49549985 4.66033778 19.26272948-2.79620267 23.30168889l-27.96202667 14.91308089c-9.78670933 5.35938845-17.86462815 2.33016889-24.23375643-8.85464178a53.05017837 53.05017837 0 0 0-22.60263823-19.34040178 81.24522192 81.24522192 0 0 0-38.44778667-8.54395259c-32.62236445 0-55.45801955 10.25274311-68.58463763 30.91357393-13.04894578 20.50548622-19.57341867 50.2539757-19.57341867 89.09012385s6.52447289 68.58463763 19.57341867 89.32314073c13.12661808 20.42781392 35.96227318 30.75822933 68.58463763 30.75822934 17.55393897 0 32.31167525-4.03895941 44.2732089-11.96153362 12.11687822-7.92257422 20.50548622-15.45678697 25.165824-22.52496593 7.61188503-11.65084445 15.68980385-14.680064 24.23375643-8.93231407l27.96202667 18.6413511c7.61188503 5.12637155 8.388608 12.89360118 2.3301689 23.3016889-9.00998637 15.53445925-24.46677333 28.89409422-46.3703609 39.92356028-21.90358755 11.02946608-48.54518518 16.54419911-80.00246518 16.54419912-50.48699259 0-89.55615763-15.76747615-117.20749512-47.38010074-27.49599289-31.5349523-41.24398933-74.09937067-41.24398933-127.69325511zM397.74405215 945.79977482c-9.63136475-7.30119585-11.96153363-14.7577363-6.99050667-22.21427674l17.86462815-27.02995911c5.98076682-8.85464178 14.6023917-9.32067555 25.94254696-1.39810134 8.69929718 6.05843911 20.03945245 12.42756741 34.02046578 18.874368 14.13635792 6.3691283 28.97176652 9.55369245 44.50622578 9.55369245 10.87412148 0 21.35988148-1.16508445 31.45728-3.65059793a39.14683733 39.14683733 0 0 0 23.1463443-14.5247194 41.55467852 41.55467852 0 0 0 7.92257422-25.3988409c0-6.99050667-1.16508445-13.12661808-3.49525334-18.40833422a29.67081718 29.67081718 0 0 0-11.41782755-13.04894578 102.8381203 102.8381203 0 0 0-16.31118223-8.5439526 291.03809422 291.03809422 0 0 0-37.12735763-11.96153362 449.56725097 449.56725097 0 0 1-43.8071751-14.44704711 130.1010963 130.1010963 0 0 1-35.41856712-20.50548622 98.33312711 98.33312711 0 0 1-24.93280711-29.360128c-5.90309452-10.87412148-8.85464178-25.39884089-8.85464177-43.57415822 0-21.67057067 6.99050667-40.15657718 20.97152-55.53569186 13.98101333-15.37911467 30.05917867-25.2434963 48.234496-29.59314489 18.17531733-4.34964859 36.50597925-6.52447289 54.99198577-6.52447288 18.33066192 0 37.28270222 2.79620267 56.7007763 8.388608 19.57341867 5.59240533 34.33115497 12.582912 44.27320889 20.97152 9.78670933 8.23326341 12.19455052 15.68980385 7.22352355 22.36962133l-18.874368 25.39884089c-6.3691283 8.69929718-14.91308089 9.39834785-25.63185778 2.097152a223.30785185 223.30785185 0 0 0-28.19504355-15.53445926 83.65306311 83.65306311 0 0 0-37.12735763-8.69929719c-9.16533097 0-17.63161125 0.77672297-25.39884089 2.33016889a39.45752652 39.45752652 0 0 0-20.19479703 11.18481067 29.74848948 29.74848948 0 0 0-8.93231408 21.98125985c0 8.388608 2.1748243 15.22377008 6.52447288 20.50548622a45.98199941 45.98199941 0 0 0 14.44704712 11.65084445c5.28171615 2.48551348 10.64110459 4.58266548 16.07816533 6.2137837l45.04993185 14.52471941c13.20429037 4.03895941 25.39884089 8.54395259 36.50597927 13.51497956 15.53445925 6.99050667 27.49599289 13.98101333 35.72925629 20.97152 8.23326341 6.99050667 14.99075318 16.54419911 20.27246934 28.66107733 5.43706075 12.11687822 8.15559111 26.56392533 8.1555911 43.34114133 0 24.85513482-7.92257422 45.43829333-23.76772266 61.82714785a109.51793778 109.51793778 0 0 1-52.89483378 31.22426311 232.24016592 232.24016592 0 0 1-56.46775941 7.22352356c-27.02995911 0-48.93354667-2.64085808-65.94377955-7.92257423a153.79114667 153.79114667 0 0 1-48.234496-24.9328071zM677.20897422 651.81013333c-3.88361482-10.25274311-0.23301689-15.37911467 10.95179378-15.37911466h37.04968533c10.48576 0 17.63161125 5.43706075 21.51522608 16.07816533l71.303168 194.64677452c3.57292563 9.94205392 5.67007763 16.62187141 6.2137837 20.03945245 0.69905067 3.26223645 1.39810133 8.77696948 2.1748243 16.54419911h0.93206756c0.77672297-7.76722963 1.47577363-13.20429037 2.097152-16.54419911 0.62137837-3.41758103 2.71853037-10.09739852 6.291456-20.03945245l71.303168-194.64677452c3.88361482-10.71877689 11.02946608-16.07816533 21.43755378-16.07816533h37.12735762c11.18481067 0 14.7577363 5.12637155 10.87412148 15.37911466l-111.38207288 300.04808059c-4.66033778 12.582912-11.96153363 18.874368-21.90358756 18.874368h-32.62236444c-9.94205392 0-17.24324978-6.291456-21.90358756-18.874368L677.20897422 651.81013333z"></path>
    
</svg>