<?xml version="1.0" standalone="no"?>
<!DOCTYPE svg PUBLIC "-//W3C//DTD SVG 1.1//EN" "http://www.w3.org/Graphics/SVG/1.1/DTD/svg11.dtd">
<svg t="1658303696471" class="icon" viewBox="0 0 1024 1024" version="1.1"
    xmlns="http://www.w3.org/2000/svg" p-id="7374" width="32" height="32"
    xmlns:xlink="http://www.w3.org/1999/xlink">
   <path d="M224 128a64 64 0 0 0-64 64v352a32 32 0 0 0 64 0V192H576v192a32 32 0 0 0 32 32h192v128a32 32 0 0 0 64 0V384a31.936 31.936 0 0 0-9.344-22.656l-224-224A32 32 0 0 0 608 128m32 109.248V352h114.752L640 237.248z"></path>
        <path d="M76.608 910.336c-13.44 0-16.128-6.08-8-18.112l93.44-137.92L76.16 626.112c-8.192-12.096-5.504-18.112 8-18.112h42.56c7.488 0 13.76 4.16 19.008 12.416l57.536 91.072 57.6-91.072c5.12-8.32 11.52-12.416 18.944-12.416h42.56c13.504 0 16.192 6.016 8 18.112L244.48 754.304l93.632 137.92c8.128 12.032 5.504 18.112-8 18.112H286.72c-7.296 0-13.632-4.16-18.944-12.416l-64.512-100.8-64.512 100.8c-5.376 8.32-11.648 12.416-19.008 12.416h-43.2zM389.12 910.336c-9.92 0-14.784-5.248-14.784-15.808v-270.72c0-10.56 4.864-15.808 14.72-15.808h61.184c8.128 0 13.952 5.632 17.472 16.896l57.152 184.896c2.56 8 4.288 14.592 5.248 19.84 0.96 4.992 1.856 11.072 2.56 18.112h1.28c0.64-7.04 1.536-13.12 2.496-18.176 0.96-5.184 2.752-11.776 5.248-19.84l57.152-184.832c3.52-11.264 9.344-16.896 17.472-16.896h61.184c9.792 0 14.72 5.248 14.72 15.808v270.72c0 10.56-4.928 15.808-14.72 15.808h-32.064c-9.856 0-14.72-5.248-14.72-15.808v-174.144c0-8.448 0.32-16.896 1.024-25.344h-1.472l-60.928 198.208c-3.52 11.392-9.6 17.088-18.176 17.088h-35.84c-8.576 0-14.592-5.696-18.112-17.088l-60.928-198.208h-1.472c0.704 8.448 1.088 16.896 1.088 25.344v174.08c0 10.624-4.928 15.872-14.784 15.872h-32zM774.464 910.336c-9.856 0-14.72-5.248-14.72-15.808v-270.72c0-10.56 4.864-15.808 14.72-15.808h34.176c8.448 0 12.608 5.248 12.608 15.808v234.24h122.88c10.624 0 15.872 4.544 15.872 13.696v24.896c0 9.152-5.248 13.696-15.808 13.696H774.4z"></path>
    
</svg>