<?xml version="1.0" standalone="no"?>
<!DOCTYPE svg PUBLIC "-//W3C//DTD SVG 1.1//EN" "http://www.w3.org/Graphics/SVG/1.1/DTD/svg11.dtd">
<svg t="1658303696471" class="icon" viewBox="0 0 1024 1024" version="1.1"
    xmlns="http://www.w3.org/2000/svg" p-id="7374" width="32" height="32"
    xmlns:xlink="http://www.w3.org/1999/xlink">
   <path d="M82.56 437.76l10.24-13.44a8.32 8.32 0 0 1 5.76 0h171.52l-8.96 12.8a6.4 6.4 0 0 1-4.48 0l-174.08 0.64zM8.32 483.2l10.24-13.44a6.4 6.4 0 0 1 5.12 0h224.64l-3.84 11.52a5.12 5.12 0 0 1-4.48 0l-231.68 1.92zM127.36 528l7.04-12.8a5.12 5.12 0 0 1 4.48 0h98.56v15.36a3.2 3.2 0 0 1 0 3.2l-110.08-5.76zM638.72 428.8l-82.56 21.76c-7.68 0-8.32 0-14.72-5.12a59.52 59.52 0 0 0-23.04-18.56 85.76 85.76 0 0 0-88.96 7.04 104.96 104.96 0 0 0-50.56 93.44 76.8 76.8 0 0 0 64 77.44 89.6 89.6 0 0 0 83.84-32.64c4.48-5.12 8.32-10.88 13.44-17.92H447.36c-10.24 0-12.8-6.4-8.96-14.72s17.92-40.96 24.96-53.76a14.08 14.08 0 0 1 12.16-7.68h178.56v39.68a213.12 213.12 0 0 1-40.96 96.64 205.504 205.504 0 0 1-140.16 83.84 175.36 175.36 0 0 1-132.48-32.64 152.96 152.96 0 0 1-64-109.44 192 192 0 0 1 41.6-144 217.6 217.6 0 0 1 137.6-85.12 170.24 170.24 0 0 1 128 23.68c25.6 16.96 45.44 41.28 56.96 69.76 5.76 4.48 3.84 6.4-1.92 8.32z"></path>
        <path d="M801.28 700.8a180.48 180.48 0 0 1-119.68-42.88 154.24 154.24 0 0 1-53.12-95.36 187.52 187.52 0 0 1 39.68-148.48 208.64 208.64 0 0 1 137.6-82.56 179.84 179.84 0 0 1 140.16 25.6 151.68 151.68 0 0 1 69.76 109.44 192 192 0 0 1-56.32 167.04 225.28 225.28 0 0 1-118.4 64c-13.44 1.28-26.88 1.92-39.68 3.2z m117.12-199.04a63.744 63.744 0 0 0 0-16 81.152 81.152 0 0 0-100.48-64 107.52 107.52 0 0 0-86.4 85.76 81.92 81.92 0 0 0 45.44 92.8 89.6 89.6 0 0 0 80.64-3.2 104.96 104.96 0 0 0 60.8-95.36z"></path>
    
</svg>