<?xml version="1.0" standalone="no"?>
<!DOCTYPE svg PUBLIC "-//W3C//DTD SVG 1.1//EN" "http://www.w3.org/Graphics/SVG/1.1/DTD/svg11.dtd">
<svg t="1658303696471" class="icon" viewBox="0 0 1024 1024" version="1.1"
    xmlns="http://www.w3.org/2000/svg" p-id="7374" width="32" height="32"
    xmlns:xlink="http://www.w3.org/1999/xlink">
   <path d="M224 128a64 64 0 0 0-64 64v352a32 32 0 0 0 64 0V192H576v192a32 32 0 0 0 32 32h192v128a32 32 0 0 0 64 0V384a31.936 31.936 0 0 0-9.344-22.656l-224-224A32 32 0 0 0 608 128m32 109.248V352h114.752L640 237.248z"></path>
        <path d="M71.552 864.32c-6.272-3.648-8.64-8.064-7.04-13.248l7.36-24.256c2.112-6.912 7.68-7.68 16.64-2.112 7.68 4.864 16.192 7.296 25.6 7.296 13.056 0 21.44-4.48 25.344-13.44 4.032-8.96 6.016-23.936 6.016-44.8V627.264c0-8.832 4.16-13.248 12.416-13.248h26.88c8.256 0 12.352 4.48 12.352 13.248v142.976c0 43.392-7.296 71.552-21.888 84.352-14.528 12.8-34.688 19.136-60.544 19.136-18.048 0-32.448-3.136-43.136-9.344zM254.656 848.768c-7.36-5.504-9.088-11.136-5.312-16.768l13.632-20.544c4.48-6.72 11.008-7.04 19.584-1.088 6.656 4.608 15.232 9.408 25.856 14.336 10.752 4.864 22.016 7.296 33.792 7.296 8.256 0 16.192-0.96 23.872-2.88a29.696 29.696 0 0 0 17.536-10.944 31.552 31.552 0 0 0 6.016-19.264 34.368 34.368 0 0 0-2.688-14.016 22.528 22.528 0 0 0-8.64-9.856 78.528 78.528 0 0 0-12.416-6.592 222.272 222.272 0 0 0-28.16-8.96 343.168 343.168 0 0 1-33.216-11.008 98.88 98.88 0 0 1-26.88-15.552 74.624 74.624 0 0 1-18.944-22.336c-4.48-8.256-6.72-19.264-6.72-33.088 0-16.384 5.312-30.4 15.936-42.112 10.624-11.648 22.848-19.136 36.608-22.4 13.824-3.328 27.712-4.992 41.792-4.992 13.888 0 28.224 2.112 42.944 6.4 14.912 4.224 26.112 9.536 33.664 15.872 7.424 6.272 9.216 11.904 5.44 17.024l-14.336 19.264c-4.8 6.592-11.328 7.168-19.456 1.6a168.64 168.64 0 0 0-21.376-11.84 63.488 63.488 0 0 0-28.16-6.592c-6.912 0-13.376 0.64-19.264 1.792a29.952 29.952 0 0 0-15.36 8.512 22.592 22.592 0 0 0-6.784 16.64c0 6.4 1.664 11.52 4.992 15.552 3.264 3.84 6.976 6.848 10.944 8.832 4.032 1.92 8.064 3.456 12.16 4.8l34.176 10.944c10.048 3.072 19.328 6.464 27.776 10.24 11.84 5.312 20.864 10.624 27.072 16a58.624 58.624 0 0 1 15.36 21.76c4.16 9.152 6.272 20.096 6.272 32.832 0 18.88-6.016 34.56-18.048 46.912a83.136 83.136 0 0 1-40.192 23.68 176.256 176.256 0 0 1-42.816 5.504c-20.48 0-37.184-1.984-50.048-6.016-12.8-3.84-25.088-10.24-36.608-18.944zM469.952 740.864c0-40.704 10.496-72.96 31.488-96.96 20.992-23.936 50.944-35.904 89.856-35.904 38.912 0 68.864 11.968 89.856 35.904 21.056 23.936 31.488 56.32 31.488 96.96 0 40.704-10.432 72.96-31.488 96.96-20.992 23.936-50.944 35.904-89.856 35.904-38.912 0-68.864-11.968-89.856-35.904-20.992-23.936-31.488-56.32-31.488-96.96z m55.168 0c0 29.44 5.248 52.096 15.744 67.776 10.624 15.552 27.456 23.36 50.432 23.36 23.04 0 39.744-7.808 50.24-23.36 10.624-15.68 15.936-38.272 15.936-67.776 0-29.44-5.312-52.032-15.936-67.584-10.496-15.68-27.2-23.552-50.24-23.552-23.04 0-39.808 7.872-50.432 23.552-10.496 15.552-15.744 38.08-15.744 67.584zM768.576 867.712c-8.256 0-12.416-4.48-12.416-13.248V627.2c0-8.832 4.16-13.248 12.416-13.248h26.24c10.112 0 17.728 4.096 22.912 12.352l90.24 144.896h1.28a256 256 0 0 1-0.896-21.184V627.2c0-8.832 4.096-13.248 12.352-13.248h26.88c8.32 0 12.416 4.48 12.416 13.248v227.2c0 8.832-4.16 13.248-12.416 13.248h-24.384a25.472 25.472 0 0 1-23.04-12.416l-91.968-147.52h-1.28c0.64 7.04 0.96 14.144 0.96 21.248v125.44c0 8.832-4.16 13.248-12.416 13.248h-26.88z"></path>
    
</svg>