<?xml version="1.0" standalone="no"?>
<!DOCTYPE svg PUBLIC "-//W3C//DTD SVG 1.1//EN" "http://www.w3.org/Graphics/SVG/1.1/DTD/svg11.dtd">
<svg t="1658303696471" class="icon" viewBox="0 0 1024 1024" version="1.1"
    xmlns="http://www.w3.org/2000/svg" p-id="7374" width="32" height="32"
    xmlns:xlink="http://www.w3.org/1999/xlink">
   <path d="M512 64c-117.568-1.28-230.784 46.4-314.816 132.48C113.28 282.688 65.344 400.128 64 523.2a474.432 474.432 0 0 0 85.376 270.208 440.704 440.704 0 0 0 220.864 165.888c22.4 4.224 30.592-9.792 30.592-22.144v-78.08c-124.672 27.712-151.104-61.376-151.104-61.376a121.344 121.344 0 0 0-49.728-67.328c-40.704-28.16 3.264-27.712 3.264-27.712 14.08 1.92 27.52 7.232 39.424 15.424 11.84 8.256 21.76 19.136 28.992 31.872 12.672 22.976 33.408 39.808 57.792 46.912 24.32 7.04 50.432 3.84 72.576-8.96 2.24-23.36 12.352-45.056 28.48-61.376-99.328-11.52-203.648-50.752-203.648-226.752a181.632 181.632 0 0 1 45.248-124.096 168.064 168.064 0 0 1 4.48-121.024s37.888-12.352 122.176 46.848a416.256 416.256 0 0 1 224 0c85.504-59.2 122.176-46.848 122.176-46.848 16.512 38.208 18.112 81.6 4.48 121.024 30.592 33.024 47.68 77.248 47.616 123.2 0 176.512-105.024 215.296-203.584 226.816 10.752 10.944 19.136 24.32 24.384 39.04 5.312 14.72 7.36 30.528 6.144 46.208v125.76c0 14.912 8.128 26.88 30.528 22.144a441.216 441.216 0 0 0 220.224-165.952A474.816 474.816 0 0 0 960 523.136c-1.28-123.072-49.216-240.512-133.184-326.592C742.784 110.4 629.568 62.72 512 64" fill="#231F20"></path>
    
</svg>