<?xml version="1.0" standalone="no"?>
<!DOCTYPE svg PUBLIC "-//W3C//DTD SVG 1.1//EN" "http://www.w3.org/Graphics/SVG/1.1/DTD/svg11.dtd">
<svg t="1658303696471" class="icon" viewBox="0 0 1024 1024" version="1.1"
    xmlns="http://www.w3.org/2000/svg" p-id="7374" width="32" height="32"
    xmlns:xlink="http://www.w3.org/1999/xlink">
   <path d="M245.312 149.312V512a32 32 0 0 1-21.312 29.888 29.888 29.888 0 0 1-10.688 2.112h-128a32.448 32.448 0 0 1-32-32V149.312A95.552 95.552 0 0 1 143.808 53.76h5.504a96 96 0 0 1 96 95.552z" fill="#145638"></path>
        <path d="M885.312 298.688v587.904a74.688 74.688 0 0 1-110.08 65.728l-13.632-7.68a92.544 92.544 0 0 0-57.6-17.472 94.272 94.272 0 0 0-58.432 17.92 168.128 168.128 0 0 1-181.76 0 97.28 97.28 0 0 0-58.496-17.536 95.616 95.616 0 0 0-57.984 17.536l-13.248 7.68A74.688 74.688 0 0 1 224 887.04V138.688A85.312 85.312 0 0 0 143.808 53.312H640a245.76 245.76 0 0 1 245.312 245.376z" fill="#0DB561"></path>
        <path d="M704 330.688H405.312a32 32 0 0 1 0-64H704a32 32 0 0 1 0 64zM576 672H405.312a32 32 0 0 1 0-64H576a32 32 0 1 1 0 64zM704 501.312H405.312a32 32 0 1 1 0-64H704a32 32 0 0 1 0 64z" fill="#FCC400"></path>
    
</svg>