<?xml version="1.0" standalone="no"?>
<!DOCTYPE svg PUBLIC "-//W3C//DTD SVG 1.1//EN" "http://www.w3.org/Graphics/SVG/1.1/DTD/svg11.dtd">
<svg t="1658303696471" class="icon" viewBox="0 0 1024 1024" version="1.1"
    xmlns="http://www.w3.org/2000/svg" p-id="7374" width="32" height="32"
    xmlns:xlink="http://www.w3.org/1999/xlink">
   <path d="M676.724364 366.685091c10.705455 0 21.271273 0.744727 31.744 1.861818C679.936 237.288727 538.018909 139.636364 376.040727 139.636364 194.932364 139.636364 46.545455 261.818182 46.545455 416.907636c0 89.553455 49.338182 163.048727 131.863272 220.113455l-32.954182 98.071273 115.153455-57.157819c41.239273 8.052364 74.286545 16.384 115.432727 16.384 10.333091 0 20.573091-0.512 30.72-1.303272a240.174545 240.174545 0 0 1-10.146909-68.328728c0-142.429091 123.578182-258.001455 280.110546-258.001454z m-177.152-88.436364c24.855273 0 41.239273 16.197818 41.239272 40.727273 0 24.436364-16.384 40.773818-41.239272 40.773818-24.669091 0-49.431273-16.337455-49.431273-40.773818 0-24.529455 24.762182-40.727273 49.477818-40.727273zM269.032727 359.796364c-24.669091 0-49.617455-16.337455-49.617454-40.773819 0-24.529455 24.901818-40.727273 49.617454-40.727272 24.669091 0 41.146182 16.197818 41.146182 40.727272 0 24.436364-16.430545 40.773818-41.146182 40.773819zM977.454545 620.776727c0-130.327273-131.816727-236.590545-279.877818-236.590545-156.765091 0-280.203636 106.263273-280.203636 236.590545 0 130.56 123.438545 236.590545 280.203636 236.590546 32.814545 0 65.908364-8.145455 98.862546-16.337455l90.391272 48.965818-24.808727-81.454545c66.187636-49.105455 115.432727-114.222545 115.432727-187.764364z m-370.734545-40.820363c-16.384 0-32.954182-16.151273-32.954182-32.581819 0-16.290909 16.570182-32.581818 32.954182-32.581818 24.901818 0 41.239273 16.290909 41.239273 32.581818 0 16.477091-16.290909 32.581818-41.239273 32.581819z m181.201455 0c-16.244364 0-32.674909-16.151273-32.67491-32.581819 0-16.290909 16.430545-32.581818 32.721455-32.581818 24.669091 0 41.239273 16.290909 41.239273 32.581818 0 16.477091-16.570182 32.581818-41.285818 32.581819z" fill="#52C41A"></path>
    
</svg>