<?xml version="1.0" standalone="no"?>
<!DOCTYPE svg PUBLIC "-//W3C//DTD SVG 1.1//EN" "http://www.w3.org/Graphics/SVG/1.1/DTD/svg11.dtd">
<svg t="1658303696471" class="icon" viewBox="0 0 1024 1024" version="1.1"
    xmlns="http://www.w3.org/2000/svg" p-id="7374" width="32" height="32"
    xmlns:xlink="http://www.w3.org/1999/xlink">
   <path d="M260.8 235.008a40 40 0 1 0 80 0 40 40 0 0 0-80 0zM260.8 512a40 40 0 1 0 80 0 40 40 0 0 0-80 0zM260.8 790.016a40 40 0 1 0 80 0 40 40 0 0 0-80 0zM589.44 744.192a60.032 60.032 0 1 0 120.128-0.064 60.032 60.032 0 0 0-120.064 0.064z" fill="#000000" fill-opacity=".65"></path>
        <path d="M736.768 593.024l87.36 151.168-87.36 151.232H562.176L474.88 744.192l87.296-151.168h174.592z m6.912-64H555.328a51.84 51.84 0 0 0-45.056 25.984L416 718.208a51.968 51.968 0 0 0 0 51.968l94.208 163.2a52.032 52.032 0 0 0 44.992 26.048h188.416a51.84 51.84 0 0 0 44.992-26.048l94.4-163.2a51.968 51.968 0 0 0 0-51.968l-94.208-163.2a52.096 52.096 0 0 0-45.12-25.984z" fill="#000000" fill-opacity=".65"></path>
        <path d="M359.04 896.512H197.952V683.52h160.96V619.328H198.016V406.272h576v104.704h64V96a32 32 0 0 0-32-32h-640a32 32 0 0 0-32 32v832a32 32 0 0 0 32 32h192.96v-63.488zM197.952 129.024h576v212.992h-576V129.024z" fill="#000000" fill-opacity=".65"></path>
    
</svg>