<?xml version="1.0" standalone="no"?>
<!DOCTYPE svg PUBLIC "-//W3C//DTD SVG 1.1//EN" "http://www.w3.org/Graphics/SVG/1.1/DTD/svg11.dtd">
<svg t="1658303696471" class="icon" viewBox="0 0 1024 1024" version="1.1"
    xmlns="http://www.w3.org/2000/svg" p-id="7374" width="32" height="32"
    xmlns:xlink="http://www.w3.org/1999/xlink">
   <path d="M148.736 128h43.84c13.824 0 20.736 6.912 20.736 20.736v726.528c0 13.824-6.912 20.736-20.736 20.736h-43.84C134.912 896 128 889.088 128 875.264V148.736C128 134.912 134.912 128 148.736 128z" fill="#FFB200"></path>
        <path d="M128 810.688h85.312v64.576A20.8 20.8 0 0 1 192.64 896h-43.84A20.8 20.8 0 0 1 128 875.264v-64.64z" fill="#FF0000"></path>
        <path d="M319.424 128h43.84c13.824 0 20.736 6.912 20.736 20.736v726.528c0 13.824-6.912 20.736-20.736 20.736H319.36c-13.824 0-20.736-6.912-20.736-20.736V148.736c0-13.824 6.912-20.736 20.736-20.736zM490.112 128h43.776c13.888 0 20.8 6.912 20.8 20.736v726.528c0 13.824-6.912 20.736-20.8 20.736h-43.776c-13.888 0-20.8-6.912-20.8-20.736V148.736c0-13.824 6.912-20.736 20.8-20.736zM660.736 128h43.84c13.824 0 20.736 6.912 20.736 20.736v726.528c0 13.824-6.912 20.736-20.736 20.736h-43.84c-13.824 0-20.736-6.912-20.736-20.736V148.736c0-13.824 6.912-20.736 20.736-20.736zM831.424 426.688h43.84c13.824 0 20.736 6.912 20.736 20.736V576.64c0 13.824-6.912 20.8-20.736 20.8h-43.84c-13.824 0-20.736-6.976-20.736-20.8V447.424c0-13.824 6.912-20.736 20.736-20.736z" fill="#FFB200"></path>
    
</svg>