<?xml version="1.0" standalone="no"?>
<!DOCTYPE svg PUBLIC "-//W3C//DTD SVG 1.1//EN" "http://www.w3.org/Graphics/SVG/1.1/DTD/svg11.dtd">
<svg t="1658303696471" class="icon" viewBox="0 0 1024 1024" version="1.1"
    xmlns="http://www.w3.org/2000/svg" p-id="7374" width="32" height="32"
    xmlns:xlink="http://www.w3.org/1999/xlink">
   <path d="M91.574857 731.428571C79.286857 731.428571 73.142857 723.748571 73.142857 708.461714V315.538286c0-15.36 6.144-22.966857 18.432-22.966857H131.657143c12.288 0 18.432 7.68 18.432 22.966857v392.923428c0 15.36-6.144 22.966857-18.432 22.966857h-40.082286zM252.928 731.428571c-12.288 0-18.432-7.68-18.432-22.966857V315.538286c0-15.36 6.144-22.966857 18.432-22.966857h91.940571c80.896 0 135.533714 19.017143 163.986286 56.905142 28.672 38.034286 42.934857 91.940571 42.934857 161.938286 0 69.924571-14.262857 124.123429-42.934857 162.450286-28.525714 38.4-83.090286 57.563429-163.986286 57.563428H252.928z m58.514286-75.922285h28.452571c54.491429 0 89.673143-11.702857 105.691429-35.108572 16.018286-23.698286 23.990857-59.977143 23.990857-108.982857s-8.045714-85.138286-23.990857-108.397714c-15.945143-23.405714-51.2-35.108571-105.691429-35.108572h-28.525714v287.597715zM618.276571 731.428571c-16.896 0-20.260571-8.777143-10.020571-26.331428l116.736-200.118857L617.691429 318.902857c-10.166857-17.554286-6.802286-26.331429 10.020571-26.331428h53.248c9.362286 0 17.261714 5.997714 23.771429 18.066285l71.899428 132.169143 71.972572-132.169143c6.582857-12.068571 14.409143-18.066286 23.771428-18.066285h53.248c16.822857 0 20.187429 8.777143 9.947429 26.331428l-107.52 186.075429 117.028571 200.118857c10.24 17.554286 6.875429 26.331429-10.020571 26.331428h-53.979429c-9.142857 0-17.042286-5.997714-23.771428-18.066285l-80.676572-146.285715-80.603428 146.285715c-6.729143 12.068571-14.628571 18.066286-23.771429 18.066285h-53.979429z" fill="#8C18E7"></path>
    
</svg>