<?xml version="1.0" standalone="no"?>
<!DOCTYPE svg PUBLIC "-//W3C//DTD SVG 1.1//EN" "http://www.w3.org/Graphics/SVG/1.1/DTD/svg11.dtd">
<svg t="1658303696471" class="icon" viewBox="0 0 1024 1024" version="1.1"
    xmlns="http://www.w3.org/2000/svg" p-id="7374" width="32" height="32"
    xmlns:xlink="http://www.w3.org/1999/xlink">
   <path d="M512 64.384a447.616 447.616 0 1 0 0 895.232A447.616 447.616 0 0 0 512 64.384z m137.152 412.16a33.856 33.856 0 0 1-48.896-3.776l-50.432-60.672v287.744c0 19.84-15.488 35.968-34.688 35.968a35.328 35.328 0 0 1-34.688-35.968V409.152L423.04 473.728a33.856 33.856 0 0 1-49.024 1.984 36.864 36.864 0 0 1-1.92-50.816L478.72 305.152a48.64 48.64 0 0 1 74.944 1.408L652.8 425.856c12.544 15.04 10.88 37.76-3.648 50.688z" fill="#FA9600"></path>
    
</svg>