<?xml version="1.0" standalone="no"?>
<!DOCTYPE svg PUBLIC "-//W3C//DTD SVG 1.1//EN" "http://www.w3.org/Graphics/SVG/1.1/DTD/svg11.dtd">
<svg t="1658303696471" class="icon" viewBox="0 0 1024 1024" version="1.1"
    xmlns="http://www.w3.org/2000/svg" p-id="7374" width="32" height="32"
    xmlns:xlink="http://www.w3.org/1999/xlink">
   <path d="M0 0h1024v1024H0z" fill="#000000" fill-opacity=".45" opacity=".01"></path>
        <path d="M757.312 537.536c-0.448-73.472 32.896-128.832 100.032-169.6-37.568-53.888-94.4-83.52-169.344-89.216-71.04-5.568-148.608 41.344-177.088 41.344-30.016 0-98.752-39.424-152.768-39.424C246.592 282.368 128 369.6 128 547.072c0 52.48 9.6 106.624 28.8 162.432 25.6 73.408 117.952 253.376 214.4 250.432 50.368-1.152 86.016-35.712 151.616-35.712 63.616 0 96.576 35.712 152.768 35.712 97.28-1.344 180.8-164.928 205.184-238.592-130.432-61.504-123.456-180.096-123.456-183.808z m-113.152-328.448c54.592-64.832 49.664-123.904 48-145.088-48.192 2.816-104 32.832-135.808 69.76-34.944 39.68-55.552 88.64-51.136 143.872 52.16 4.032 99.712-22.784 138.88-68.544z" fill="#000000" fill-opacity=".45"></path>
    
</svg>