<?xml version="1.0" standalone="no"?>
<!DOCTYPE svg PUBLIC "-//W3C//DTD SVG 1.1//EN" "http://www.w3.org/Graphics/SVG/1.1/DTD/svg11.dtd">
<svg t="1658303696471" class="icon" viewBox="0 0 1024 1024" version="1.1"
    xmlns="http://www.w3.org/2000/svg" p-id="7374" width="32" height="32"
    xmlns:xlink="http://www.w3.org/1999/xlink">
   <path d="M768 138.688H170.688a117.312 117.312 0 1 0 0 234.624H768a32 32 0 0 0 32-32V170.688a32 32 0 0 0-32-32z" fill="#145638"></path>
        <path d="M794.048 322.752L639.232 106.048A117.248 117.248 0 0 0 460.8 91.264L233.408 318.72A32 32 0 0 0 256 373.312h512a32 32 0 0 0 26.048-50.56z" fill="#FCC400"></path>
        <path d="M853.312 352H186.496A140.352 140.352 0 0 1 53.376 256v597.312a117.312 117.312 0 0 0 117.312 117.376H768a117.312 117.312 0 0 0 117.312-117.376V384a32 32 0 0 0-32-32z" fill="#00AA5B"></path>
        <path d="M896 522.688h-213.312a32 32 0 0 0-32 32v170.624a32 32 0 0 0 32 32H896a74.752 74.752 0 0 0 74.688-74.624V597.312A74.752 74.752 0 0 0 896 522.688z" fill="#145638"></path>
    
</svg>