<?xml version="1.0" standalone="no"?>
<!DOCTYPE svg PUBLIC "-//W3C//DTD SVG 1.1//EN" "http://www.w3.org/Graphics/SVG/1.1/DTD/svg11.dtd">
<svg t="1658303696471" class="icon" viewBox="0 0 1024 1024" version="1.1"
    xmlns="http://www.w3.org/2000/svg" p-id="7374" width="32" height="32"
    xmlns:xlink="http://www.w3.org/1999/xlink">
   <path d="M1180.818286 487.228952c77.628952 18.334476 135.753143 86.601143 135.753143 168.521143C1316.571429 751.323429 1237.382095 828.952381 1139.858286 828.952381H433.39581C274.627048 828.952381 146.285714 712.704 146.285714 568.758857c0-136.923429 117.028571-248.880762 265.654857-259.023238C466.16381 157.988571 613.229714 48.761905 786.822095 48.761905 1006.055619 48.761905 1183.939048 223.524571 1183.939048 438.857143c0 16.384-1.170286 32.377905-3.120762 48.371809z" fill="#5465CF"></path>
        <path d="M1132.056381 438.467048c77.628952 18.334476 135.753143 86.601143 135.753143 168.521142C1267.809524 702.561524 1188.62019 780.190476 1091.096381 780.190476H384.633905C225.865143 780.190476 97.52381 663.942095 97.52381 519.996952c0-136.923429 117.028571-248.880762 265.654857-259.023238C417.401905 109.226667 564.46781 0 738.06019 0 957.293714 0 1135.177143 174.762667 1135.177143 390.095238c0 16.384-1.170286 32.377905-3.120762 48.37181z" fill="#E0EBFE"></path>
        <path d="M343.04 390.192762L429.738667 633.904762H477.866667l86.698666-243.712h-43.349333l-66.901333 198.656h-1.024l-66.901334-198.656H343.04z m247.198476 0V633.904762h39.911619v-93.525333h60.440381c59.392 0 89.088-25.258667 89.088-75.434667 0-49.834667-29.696-74.752-88.429714-74.752H590.262857z m39.911619 34.133333h58.026667c17.432381 0 30.403048 3.072 38.570667 9.557334 8.216381 6.144 12.629333 16.384 12.629333 31.061333s-4.096 25.258667-12.263619 31.744c-8.216381 6.144-21.187048 9.557333-38.912 9.557333h-58.026667v-81.92z m289.548191-38.912c-38.912 0-68.608 12.629333-89.088 38.570667-18.090667 22.528-26.965333 52.224-26.965334 88.405333 0 36.864 8.533333 66.218667 25.941334 88.064 19.797333 25.258667 50.176 38.229333 90.794666 38.229334 26.282667 0 48.810667-7.509333 67.584-22.528 20.138667-16.042667 32.768-38.229333 38.229334-66.901334h-38.912c-4.778667 18.432-12.970667 32.426667-24.576 41.642667-10.922667 8.192-25.258667 12.629333-42.666667 12.629333-26.624 0-46.421333-8.533333-59.050667-24.917333-11.605333-15.36-17.408-37.546667-17.408-66.218667 0-27.989333 5.802667-49.834667 17.749334-65.536 12.970667-17.749333 32.085333-26.282667 57.685333-26.282666 17.066667 0 31.061333 3.413333 41.984 10.922666 11.264 7.509333 18.773333 19.114667 22.869333 35.157334h38.912c-3.754667-24.576-14.336-44.373333-32.085333-58.709334-18.432-15.018667-42.325333-22.528-70.997333-22.528z" fill="#5465CF"></path>
    
</svg>