<?xml version="1.0" standalone="no"?>
<!DOCTYPE svg PUBLIC "-//W3C//DTD SVG 1.1//EN" "http://www.w3.org/Graphics/SVG/1.1/DTD/svg11.dtd">
<svg t="1658303696471" class="icon" viewBox="0 0 1024 1024" version="1.1"
    xmlns="http://www.w3.org/2000/svg" p-id="7374" width="32" height="32"
    xmlns:xlink="http://www.w3.org/1999/xlink">
   <path d="M167.204571 658.285714c-12.434286 0-24.283429-1.755429-35.474285-5.339428a86.089143 86.089143 0 0 1-50.614857-45.714286A100.790857 100.790857 0 0 1 73.142857 567.149714c0-2.486857 0.731429-4.534857 2.048-6.217143 1.462857-1.901714 3.145143-2.852571 5.12-2.852571h32.768c2.998857 0 5.12 0.950857 6.582857 2.925714 1.609143 1.901714 2.852571 4.461714 3.803429 7.753143a55.734857 55.734857 0 0 0 7.899428 24.356572 39.643429 39.643429 0 0 0 15.506286 13.604571 53.833143 53.833143 0 0 0 21.357714 4.096 37.302857 37.302857 0 0 0 33.060572-16.822857c7.753143-11.337143 11.702857-26.989714 11.702857-47.030857V414.354286H96.182857a7.68 7.68 0 0 1-6.144-2.925715 11.702857 11.702857 0 0 1-2.121143-6.948571v-28.891429c0-2.706286 0.731429-5.12 2.121143-7.021714A7.68 7.68 0 0 1 96.182857 365.714286h157.403429c2.56 0 4.608 0.950857 6.217143 2.925714 1.609143 1.901714 2.413714 4.388571 2.413714 7.314286v172.690285c0 22.820571-4.022857 42.422857-12.068572 58.953143a87.04 87.04 0 0 1-33.060571 37.888C203.117714 654.043429 186.514286 658.285714 167.204571 658.285714zM294.180571 654.189714a7.168 7.168 0 0 1-5.193142-2.486857 9.289143 9.289143 0 0 1-2.048-6.217143c0-1.097143 0.219429-2.340571 0.731428-3.657143L370.541714 375.954286a15.36 15.36 0 0 1 3.803429-7.021715A10.825143 10.825143 0 0 1 382.683429 365.714286h37.522285c3.437714 0 6.070857 1.097143 7.899429 3.291428a18.432 18.432 0 0 1 4.169143 7.021715l83.017143 265.801142a22.674286 22.674286 0 0 1 0.365714 3.657143c0 2.486857-0.731429 4.534857-2.121143 6.217143a6.144 6.144 0 0 1-4.827429 2.486857h-29.988571c-3.145143 0-5.558857-0.877714-7.168-2.486857a17.554286 17.554286 0 0 1-2.779429-5.339428l-16.164571-50.322286H350.281143l-16.164572 50.322286a14.921143 14.921143 0 0 1-3.072 5.339428c-1.462857 1.609143-3.657143 2.486857-6.948571 2.486857h-29.988571zM362.349714 548.571429h78.189715l-39.277715-127.268572-38.912 127.268572zM600.210286 654.189714a11.264 11.264 0 0 1-8.630857-3.291428 19.382857 19.382857 0 0 1-4.388572-8.265143L513.316571 378.075429a11.849143 11.849143 0 0 1-0.731428-3.657143c0-2.486857 0.731429-4.608 2.194286-6.217143A6.436571 6.436571 0 0 1 519.899429 365.714286h30.281142c3.218286 0 5.632 1.097143 7.314286 3.291428 1.755429 1.901714 2.925714 3.876571 3.364572 5.778286l58.221714 212.187429 57.856-212.187429a19.163429 19.163429 0 0 1 3.437714-5.778286A9.362286 9.362286 0 0 1 688.054857 365.714286h30.281143c1.828571 0 3.437714 0.804571 4.827429 2.486857 1.609143 1.609143 2.413714 3.657143 2.413714 6.144a11.849143 11.849143 0 0 1-0.731429 3.730286L651.264 642.633143a19.382857 19.382857 0 0 1-4.461714 8.265143 11.264 11.264 0 0 1-8.630857 3.291428h-37.888zM729.380571 654.189714a7.168 7.168 0 0 1-5.12-2.486857 9.289143 9.289143 0 0 1-2.121142-6.217143c0-1.097143 0.219429-2.340571 0.731428-3.657143l83.017143-265.801142a15.286857 15.286857 0 0 1 3.730286-7.021715 10.825143 10.825143 0 0 1 8.265143-3.291428h37.595428c3.437714 0 6.070857 1.097143 7.899429 3.291428a18.285714 18.285714 0 0 1 4.096 7.021715l83.017143 265.801142a23.04 23.04 0 0 1 0.365714 3.657143c0 2.486857-0.731429 4.534857-2.048 6.217143a6.144 6.144 0 0 1-4.827429 2.486857h-29.988571c-3.218286 0-5.632-0.877714-7.241143-2.486857a17.481143 17.481143 0 0 1-2.706286-5.339428l-16.237714-50.322286H785.554286l-16.237715 50.322286a14.921143 14.921143 0 0 1-3.072 5.339428c-1.389714 1.609143-3.657143 2.486857-6.875428 2.486857h-29.988572z m68.242286-105.545143h78.189714l-39.277714-127.268571-38.912 127.268571z"></path>
    
</svg>