<?xml version="1.0" standalone="no"?>
<!DOCTYPE svg PUBLIC "-//W3C//DTD SVG 1.1//EN" "http://www.w3.org/Graphics/SVG/1.1/DTD/svg11.dtd">
<svg t="1658303696471" class="icon" viewBox="0 0 1024 1024" version="1.1"
    xmlns="http://www.w3.org/2000/svg" p-id="7374" width="32" height="32"
    xmlns:xlink="http://www.w3.org/1999/xlink">
   <path d="M922.24 501.76l-35.2-21.76v-9.6l30.72-28.8a11.52 11.52 0 0 0 0-4.48 10.88 10.88 0 0 0 0-6.4 7.68 7.68 0 0 0 0-5.12 8.32 8.32 0 0 0-4.48-3.84l-39.04-14.08a53.44 53.44 0 0 1 0-9.6l21.76-33.92a12.16 12.16 0 0 0 0-5.12 19.84 19.84 0 0 0 0-6.4 12.8 12.8 0 0 0 0-4.48 12.16 12.16 0 0 0-5.76 0l-40.96-7.04s-3.2-5.12-4.48-8.32l17.28-37.76a18.496 18.496 0 0 0 0-5.76v-5.76a12.16 12.16 0 0 0-4.48-3.84 7.68 7.68 0 0 0-6.4 0h-41.6l-5.76-7.04 9.6-40.96a21.888 21.888 0 0 0 0-6.4v-5.12c0-5.12 0 0-5.12 0h-6.4l-40.96 9.6-7.04-5.76v-41.6a7.68 7.68 0 0 0 0-6.4 12.16 12.16 0 0 0-3.84-4.48h-11.52l-37.76 17.28-8.32-4.48-7.04-40.96a23.424 23.424 0 0 0 0-5.76L671.36 128h-6.4a12.8 12.8 0 0 0-5.12 0l-33.92 24.32h-9.6l-14.08-39.04a12.8 12.8 0 0 0-3.84-4.48 7.68 7.68 0 0 0-5.12 0h-6.4l-5.12 3.2-28.16 30.72H544l-21.76-35.2a14.72 14.72 0 0 0-4.48-4.48L512 96h-5.76a14.72 14.72 0 0 0-4.48 4.48l-21.76 35.2h-9.6l-28.8-28.16a11.52 11.52 0 0 0-4.48-3.2h-6.4a7.68 7.68 0 0 0-5.12 0 8.32 8.32 0 0 0-3.84 4.48l-14.08 39.04h-9.6L364.16 128a12.16 12.16 0 0 0-5.12 0h-6.4l-4.48 3.84a8.32 8.32 0 0 0 0 5.76l-7.04 40.96-8.32 4.48-37.76-17.28h-5.76a12.16 12.16 0 0 0-5.76 0 7.04 7.04 0 0 0-3.84 4.48 6.4 6.4 0 0 0 0 5.76v41.6a33.28 33.28 0 0 0-7.04 6.4l-40.96-10.24h-6.4-5.12c-5.12 0 0 3.2 0 5.12a21.76 21.76 0 0 0 0 6.4l9.6 40.96-5.76 7.04h-41.6a6.4 6.4 0 0 0-5.76 0 7.04 7.04 0 0 0-4.48 3.84 16 16 0 0 0 0 5.76 18.56 18.56 0 0 0 0 5.76l17.28 37.76s-3.2 5.76-4.48 8.32l-40.96 7.04h-5.76L128 352.64a19.84 19.84 0 0 0 0 6.4 12.8 12.8 0 0 0 0 5.12l24.32 33.92v9.6l-39.04 14.08a12.8 12.8 0 0 0-4.48 3.84 7.68 7.68 0 0 0 0 5.12 10.88 10.88 0 0 0 0 6.4 11.52 11.52 0 0 0 3.2 4.48l30.72 28.8v9.6l-35.2 21.76-4.48 4.48a13.44 13.44 0 0 0 0 11.52l4.48 4.48 35.2 21.76v9.6l-30.72 28.8a11.52 11.52 0 0 0-3.2 4.48 10.88 10.88 0 0 0 0 6.4 7.68 7.68 0 0 0 0 5.12 8.32 8.32 0 0 0 4.48 3.84l39.04 14.08v9.6l-24.32 33.92a12.16 12.16 0 0 0 0 5.12 19.84 19.84 0 0 0 0 6.4l3.84 4.48a12.16 12.16 0 0 0 5.76 0l40.96 7.04s3.2 5.12 4.48 8.32l-17.28 37.76a18.56 18.56 0 0 0 0 5.76 16 16 0 0 0 0 5.76 7.68 7.68 0 0 0 10.24 3.84h41.6l5.76 7.04-9.6 40.96a21.76 21.76 0 0 0 0 6.4v5.12c0 1.92 3.2 0 5.12 0h6.4l40.96-9.6 7.04 5.76v41.6a6.4 6.4 0 0 0 0 5.76 7.04 7.04 0 0 0 3.84 4.48c1.92 0.32 3.84 0.32 5.76 0h5.76l37.76-17.28 8.32 4.48 7.04 40.96a23.04 23.04 0 0 0 0 5.76l4.48 3.84h11.52l33.92-24.32 9.6 3.2 14.08 39.04a12.8 12.8 0 0 0 3.84 4.48 7.68 7.68 0 0 0 5.12 0 10.88 10.88 0 0 0 6.4 0 11.52 11.52 0 0 0 4.48 0l28.8-30.72h9.6l21.76 35.2a14.72 14.72 0 0 0 4.48 4.48h11.52l4.48-4.48 21.76-35.2h9.6l28.8 30.72a11.52 11.52 0 0 0 4.48 0 10.88 10.88 0 0 0 6.4 0 7.68 7.68 0 0 0 5.12 0 8.32 8.32 0 0 0 3.84-4.48l14.72-39.04 8.96-3.2 33.92 24.32h11.52l4.48-3.84a11.52 11.52 0 0 0 0-5.76l7.04-40.96 8.32-4.48 37.76 17.28h5.76a12.16 12.16 0 0 0 5.76 0 7.04 7.04 0 0 0 3.84-4.48 6.4 6.4 0 0 0 0-5.76v-41.6l7.04-5.76 40.96 9.6h11.52c1.92 0 0 0 0-5.12a21.888 21.888 0 0 0 0-6.4l-9.6-40.96 5.76-7.04h41.6a6.4 6.4 0 0 0 5.76 0 7.04 7.04 0 0 0 4.48-3.84 16.128 16.128 0 0 0 0-5.76 18.496 18.496 0 0 0 0-5.76l-17.28-37.76a34.56 34.56 0 0 1 4.48-8.32l40.96-7.04h5.76l3.84-4.48a19.84 19.84 0 0 0 0-6.4 7.68 7.68 0 0 0 0-5.12l-24.32-33.92 3.2-9.6 39.04-14.08a8.32 8.32 0 0 0 4.48-3.84 7.68 7.68 0 0 0 0-5.12 10.88 10.88 0 0 0 0-6.4 11.52 11.52 0 0 0 0-4.48l-30.72-28.8V544l35.2-21.76 4.48-4.48a13.44 13.44 0 0 0 0-11.52 14.72 14.72 0 0 0-4.48-4.48h12.16z m-245.12 209.92a23.68 23.68 0 0 0-17.28 3.2 21.76 21.76 0 0 0-9.6 14.08l-12.8 58.24a308.48 308.48 0 0 1-128 26.88 302.72 302.72 0 0 1-128-28.16l-12.16-58.24a27.52 27.52 0 0 0 0-7.68 20.48 20.48 0 0 0-6.4-6.4 18.56 18.56 0 0 0-8.32-3.2h-10.24l-51.2 10.88a252.16 252.16 0 0 1-26.24-31.36h253.44V599.04H442.88v-58.88h78.72a49.92 49.92 0 0 1 48.64 42.24c3.2 12.16 10.24 51.84 14.72 64 4.48 12.16 23.68 42.88 44.16 42.88h128a270.72 270.72 0 0 1-28.16 32.64l-51.84-10.24z m41.6 55.68a25.6 25.6 0 0 1-3.84 14.08 31.36 31.36 0 0 1-11.52 8.96 21.12 21.12 0 0 1-14.08 0 22.4 22.4 0 0 1-19.2-19.2 21.76 21.76 0 0 1 0-14.08 31.36 31.36 0 0 1 8.96-11.52 24.96 24.96 0 0 1 30.72 3.2 25.6 25.6 0 0 1 7.04 17.28l1.92 1.28zM352 768a24.96 24.96 0 0 1-3.84 13.44 17.92 17.92 0 0 1-11.52 8.96 26.24 26.24 0 0 1-14.08 0 35.84 35.84 0 0 1-12.8-7.04 22.4 22.4 0 0 1-6.4-12.8 21.76 21.76 0 0 1 0-14.08 24.96 24.96 0 0 1 8.96-10.88 21.76 21.76 0 0 1 14.08-4.48 23.68 23.68 0 0 1 16.64 7.68 24.96 24.96 0 0 1 8.96 19.2zM209.28 476.8l53.12-24.32A16.64 16.64 0 0 0 269.44 448l5.12-7.68a37.76 37.76 0 0 0 0-8.96 19.84 19.84 0 0 0 0-8.32l-10.88-24.96h42.88v192H218.88a295.04 295.04 0 0 1-9.6-113.28zM192 417.92a25.6 25.6 0 0 1 0-9.6 23.04 23.04 0 0 1 5.12-7.68 24.32 24.32 0 0 1 8.32-5.76h9.6a25.6 25.6 0 0 1 13.44 4.48 31.36 31.36 0 0 1 8.96 11.52 26.88 26.88 0 0 1 0 14.08 31.36 31.36 0 0 1-7.04 12.8 26.88 26.88 0 0 1-12.8 6.4 26.24 26.24 0 0 1-14.08 0 22.4 22.4 0 0 1-10.88-9.6 19.84 19.84 0 0 1-0.64-16.64z m252.16 39.68v-57.6h101.76c5.12 0 37.12 6.4 37.12 30.72s-24.32 26.88-44.8 26.88H444.16z m301.44 136.96a34.56 34.56 0 0 1-37.12-18.56 106.304 106.304 0 0 0-49.28-83.2 114.56 114.56 0 0 0 64-87.04 97.92 97.92 0 0 0-47.36-80 138.88 138.88 0 0 0-64-21.76h-320a304 304 0 0 1 170.88-96l37.76 39.68a17.92 17.92 0 0 0 0 8.32A22.4 22.4 0 0 0 512 256a17.28 17.28 0 0 0 8.32 0 16 16 0 0 0 7.68-5.12l42.88-40.32a306.56 306.56 0 0 1 206.08 147.84l-29.44 64a23.68 23.68 0 0 0 12.16 30.08l56.32 24.96c1.28 17.472 1.28 35.008 0 52.48h-31.36s-4.48 0-4.48 5.12v14.72a37.12 37.12 0 0 1-35.84 44.8h1.28zM485.76 192A26.24 26.24 0 0 1 512 168.96a24.32 24.32 0 0 1 13.44 4.48 25.6 25.6 0 0 1 8.96 11.52 21.76 21.76 0 0 1 0 14.08 31.36 31.36 0 0 1-7.04 12.8 22.4 22.4 0 0 1-12.8 6.4 26.88 26.88 0 0 1-14.08 0 22.4 22.4 0 0 1-10.88-9.6 25.6 25.6 0 0 1-3.84-16.64z m320 249.6h-9.6a20.48 20.48 0 0 1-7.68-5.12 24.256 24.256 0 0 1-5.76-8.32 20.544 20.544 0 0 1 0-8.96 25.472 25.472 0 0 1 0-9.6 24.256 24.256 0 0 1 5.76-8.32l7.68-5.12a25.6 25.6 0 0 1 9.6 0 21.76 21.76 0 0 1 17.28 7.68 20.48 20.48 0 0 1 7.04 17.28c0 6.4-2.56 12.672-7.04 17.28a22.4 22.4 0 0 1-17.28 5.12V441.6z"></path>
    
</svg>