<?xml version="1.0" standalone="no"?>
<!DOCTYPE svg PUBLIC "-//W3C//DTD SVG 1.1//EN" "http://www.w3.org/Graphics/SVG/1.1/DTD/svg11.dtd">
<svg t="1658303696471" class="icon" viewBox="0 0 1024 1024" version="1.1"
    xmlns="http://www.w3.org/2000/svg" p-id="7374" width="32" height="32"
    xmlns:xlink="http://www.w3.org/1999/xlink">
   <path d="M878.592 246.4L550.592 49.792a93.12 93.12 0 0 0-8.96-4.416c-3.2-1.152-6.4-2.368-9.6-3.2A80.448 80.448 0 0 0 512 39.68a81.408 81.408 0 0 0-20.032 2.56c-3.2 0.832-6.4 2.048-9.6 3.2a62.592 62.592 0 0 0-8.96 4.48L145.408 246.4a63.872 63.872 0 0 0-8.384 6.016 80.192 80.192 0 0 0-14.208 14.784c-1.984 2.816-4.032 5.632-5.632 8.576a80.384 80.384 0 0 0-7.616 19.2 183.232 183.232 0 0 0-1.92 10.24c-0.448 3.392-0.64 6.784-0.64 10.368v392.832c0 3.392 0.192 6.784 0.64 10.368a80 80 0 0 0 15.232 38.016 81.792 81.792 0 0 0 14.08 14.976c2.624 2.24 5.632 4.224 8.448 6.016l86.016 51.392 0.384 0.192c43.392 22.208 59.968 22.208 79.168 22.208 67.84 0 110.08-43.776 110.08-114.56V355.776c0-1.152 0-2.368-0.448-3.392-0.384-0.96-0.64-2.176-1.024-3.392a23.808 23.808 0 0 0-1.6-3.2c-0.64-0.96-1.408-1.792-2.176-2.816a25.28 25.28 0 0 0-2.56-2.176 16.896 16.896 0 0 0-6.4-2.56 22.208 22.208 0 0 0-3.456-0.448h-47.168a17.6 17.6 0 0 0-3.392 0.384c-1.28 0.256-2.24 0.64-3.456 1.024a14.336 14.336 0 0 0-2.944 1.6 13.76 13.76 0 0 0-2.624 2.176 15.936 15.936 0 0 0-3.84 6.016 22.208 22.208 0 0 0-1.408 6.784v380.8a35.008 35.008 0 0 1-0.768 8 30.08 30.08 0 0 1-13.568 19.392c-12.416 7.68-30.592 6.016-51.008-4.544l-82.56-49.408a2.496 2.496 0 0 1-1.088-1.984V321.024c0-1.024 0.448-1.792 1.28-2.24l320.128-196.16a2.176 2.176 0 0 1 1.6 0l320.448 196.16c0.768 0.64 1.152 1.408 1.152 2.432v387.008c0 0.768-0.192 1.6-0.96 2.176l-320.832 191.232a2.176 2.176 0 0 1-1.6 0l-81.984-48.64a16.448 16.448 0 0 0-3.84-1.792c-1.344-0.384-2.752-0.832-4.16-0.832-1.408 0-2.816 0-4.416 0.448a23.68 23.68 0 0 0-3.968 1.408l-0.832 0.384c-22.592 13.44-28.608 16.768-49.6 24.576-3.392 1.216-11.392 4.224-12.16 12.16-0.832 8.064 6.976 13.632 13.76 17.664l109.44 67.2a76.8 76.8 0 0 0 38.592 10.816h1.152a76.608 76.608 0 0 0 37.76-10.624l327.872-196.416a63.808 63.808 0 0 0 8.384-6.016c2.56-2.176 5.248-4.544 7.616-6.976a63.232 63.232 0 0 0 6.592-8c1.984-2.816 4.032-5.568 5.632-8.768 1.6-3.2 3.2-6.208 4.352-9.408a91.008 91.008 0 0 0 5.184-20.032c0.448-3.392 0.64-6.784 0.64-10.368v-392.96c0-3.456-0.192-6.848-0.64-10.432a61.12 61.12 0 0 0-1.92-10.24c-0.832-3.392-2.048-6.592-3.2-9.792a80.96 80.96 0 0 0-10.048-17.984 61.568 61.568 0 0 0-6.592-7.808 124.48 124.48 0 0 0-7.616-7.04 119.552 119.552 0 0 0-8.192-5.76z"></path>
        <path d="M621.44 642.816c-78.656 0-95.424-22.016-100.48-57.408L520.448 582.4l-1.216-3.008a23.936 23.936 0 0 0-4.032-4.992 7.616 7.616 0 0 0-2.56-1.792 18.24 18.24 0 0 0-2.752-1.408c-1.024-0.384-2.048-0.64-3.008-0.768-1.024-0.256-2.048-0.448-3.2-0.448h-41.6a17.664 17.664 0 0 0-3.392 0.448c-1.28 0.192-2.24 0.576-3.456 0.96a11.968 11.968 0 0 0-2.944 1.792 13.824 13.824 0 0 0-2.624 2.24 15.104 15.104 0 0 0-2.176 2.752c-0.64 1.024-1.28 2.048-1.6 3.008a16.896 16.896 0 0 0-1.024 3.392c-0.192 1.28-0.384 2.432-0.192 3.456 0 30.72 10.816 131.2 176.96 131.2 51.456 0 94.208-12.032 123.648-34.816 29.44-22.848 45.184-55.808 45.184-95.36 0-79.232-51.584-100.864-153.408-115.072-103.424-14.4-103.424-21.76-103.424-37.76 0-11.648 0-38.592 74.88-38.592 53.12 0 81.728 6.784 90.752 42.176 0.192 1.024 0.384 1.984 0.768 2.816a10.624 10.624 0 0 0 1.408 2.56c0.64 0.832 1.024 1.6 1.856 2.432 0.576 0.768 1.344 1.408 2.176 1.984a16.64 16.64 0 0 0 2.368 1.6c0.832 0.384 1.856 1.024 2.624 1.216a14.72 14.72 0 0 0 5.76 0.96h42.048c2.368 0 4.8-0.576 7.168-1.6a17.92 17.92 0 0 0 10.24-17.92c-5.44-75.072-60.16-113.024-167.232-113.024-97.216 0-155.2 43.776-155.2 116.992 0 80.384 60.032 102.976 150.4 112.384 105.408 11.008 105.408 26.816 105.408 40.768 0.192 22.656-8.96 51.84-87.616 51.84z"></path>
    
</svg>