<?xml version="1.0" standalone="no"?>
<!DOCTYPE svg PUBLIC "-//W3C//DTD SVG 1.1//EN" "http://www.w3.org/Graphics/SVG/1.1/DTD/svg11.dtd">
<svg t="1658303696471" class="icon" viewBox="0 0 1024 1024" version="1.1"
    xmlns="http://www.w3.org/2000/svg" p-id="7374" width="32" height="32"
    xmlns:xlink="http://www.w3.org/1999/xlink">
   <path d="M891.84 614.912c-106.88 22.016-114.24-14.144-114.24-14.144 112.832-167.36 159.936-379.84 119.232-431.872C785.92 27.2 593.728 94.208 590.528 96l-1.088 0.128a381.12 381.12 0 0 0-71.232-7.424c-48.384-0.768-85.056 12.672-112.832 33.792 0 0-342.784-141.248-326.784 177.6 3.392 67.84 97.216 513.216 209.088 378.688 40.96-49.28 80.448-90.816 80.448-90.816 19.648 13.056 43.2 19.712 67.776 17.28l1.92-1.6c-0.64 6.144-0.32 12.16 0.64 19.2-28.8 32.192-20.288 37.824-78.016 49.728-58.304 12.032-24.064 33.408-1.664 39.04 27.136 6.72 89.856 16.384 132.288-43.008l-1.664 6.784c11.264 9.024 19.2 58.88 17.92 104-1.28 45.12-2.176 76.16 6.72 100.352 8.896 24.192 17.792 78.656 93.568 62.4 63.296-13.568 96.064-48.704 100.672-107.328 3.2-41.728 10.56-35.52 11.008-72.768l5.888-17.664c6.784-56.512 1.088-74.752 40.128-66.304l9.472 0.832c28.736 1.28 66.304-4.608 88.32-14.912 47.36-21.952 75.52-58.752 28.736-49.024z" fill="#336791"></path>
        <path d="M482.432 646.912a13.184 13.184 0 1 1 26.432 0.704c-1.536 54.208-1.28 108.48 0.704 151.936 1.856 39.168 4.992 68.672 9.344 79.552 4.672 11.648 11.904 28.8 25.728 40.32 13.504 11.392 34.304 18.368 67.392 11.264 28.928-6.208 48.448-15.04 61.44-28.48 12.8-13.376 20.096-32.256 24.64-58.624 3.328-19.264 7.936-52.864 12.096-86.4 5.248-41.792 10.048-84.096 11.072-97.728a13.12 13.12 0 0 1 14.08-12.16c7.36 0.448 12.8 6.784 12.224 14.08-1.024 13.312-5.824 56.128-11.264 99.2-4.416 34.56-9.088 68.8-12.288 87.424-5.44 31.552-14.72 54.848-31.68 72.512-16.96 17.536-40.64 28.608-75.008 35.968-42.624 9.152-70.784-0.832-89.792-16.896-18.752-15.744-27.648-36.608-33.28-50.688-5.568-13.76-9.28-46.272-11.2-88.192a2266.88 2266.88 0 0 1-0.64-153.792zM409.728 107.84a13.184 13.184 0 1 1-9.792 24.512C399.04 131.968 76.032 0 91.008 298.112c1.792 36.8 30.976 187.392 75.264 292.48 14.08 33.088 29.44 61.44 45.76 79.488 13.632 15.168 27.52 22.464 40.96 17.664 7.424-2.688 15.36-8.768 23.808-18.816A1822.72 1822.72 0 0 1 355.328 580.48a13.12 13.12 0 1 1 19.008 18.176c-0.064 0-36.48 38.016-77.312 87.104-11.52 14.016-23.36 22.656-35.264 26.88-25.216 8.96-48.448-1.536-69.44-24.832-18.368-20.352-35.264-51.2-50.304-87.04-45.568-107.776-75.52-263.232-77.44-301.44-16.96-339.52 344.128-192 345.152-191.488zM596.992 105.792l-19.584-21.44a335.232 335.232 0 0 1 50.176-13.376c65.856-12.736 194.304-19.648 278.976 88.576 23.936 30.528 21.952 106.112-2.752 195.648a886.656 886.656 0 0 1-115.84 251.584 13.248 13.248 0 0 1-22.016-14.784 860.736 860.736 0 0 0 112.384-243.84c22.592-81.792 26.176-148.48 7.424-172.48-75.968-97.024-193.152-90.432-253.312-78.72a326.08 326.08 0 0 0-28.864 6.912l-6.592 1.92z" fill="#FFFFFF"></path>
        <path d="M789.44 595.328l0.32 1.088c0 0.064 4.48 23.68 98.624 4.224 13.376-2.752 22.848-2.176 28.992 0.832 7.936 3.84 11.328 10.112 10.88 18.304a30.528 30.528 0 0 1-6.528 15.616c-8.96 12.16-29.248 27.904-53.952 39.36-18.56 8.576-46.72 14.336-72.64 15.808a169.152 169.152 0 0 1-41.408-2.048c-14.592-2.88-25.664-8.96-30.272-18.816a22.208 22.208 0 0 1-2.112-8.512c-2.944-51.2 22.016-60.16 39.424-65.088a167.104 167.104 0 0 0-7.04-9.216 182.656 182.656 0 0 1-29.12-46.784 298.752 298.752 0 0 0-10.752-20.224c-22.848-40.96-67.776-121.6-58.944-176.64 6.272-39.232 36.224-65.344 111.104-57.6l-0.704-2.176a257.152 257.152 0 0 0-17.536-38.272c-32.64-59.52-103.872-142.464-230.4-144.512-193.024-3.136-186.624 240.256-186.624 240.896a13.184 13.184 0 1 1-26.432 0.448c0-0.768-7.104-271.36 213.44-267.712 139.264 2.24 217.408 93.12 253.184 158.08 8.896 16.256 15.232 30.976 19.2 42.432 4.544 12.8 6.208 22.912 5.504 27.328-1.024 6.592-4.672 10.624-10.944 11.904h-4.736c-68.672-10.944-94.656 5.888-99.008 33.28-7.36 46.208 34.624 121.408 55.936 159.744 5.76 10.304 10.112 18.176 12.096 23.04 7.552 18.304 17.472 30.72 25.216 40.448 7.232 8.832 12.928 16 15.232 24.768z m104.32 31.168c-69.824 14.4-102.4 3.84-117.312-7.552l-6.528 1.92c-9.344 2.624-23.872 6.72-22.336 38.08 1.088 1.152 5.184 2.368 11.136 3.648 9.6 1.92 21.824 2.304 34.88 1.6 22.848-1.28 47.36-6.208 63.104-13.504 16.064-7.488 29.568-16.576 37.888-24.448l-0.896 0.256zM447.552 630.4a340.48 340.48 0 0 0-13.632 16.448c-16.192 20.48-21.248 26.944-71.488 37.312-9.024 1.92-15.168 3.712-18.944 5.568a55.808 55.808 0 0 0 17.792 7.68c12.416 3.072 32.96 6.784 55.04 3.072 21.376-3.648 44.48-14.656 63.232-40.896a20.672 20.672 0 0 0 1.536-2.752 22.848 22.848 0 0 0-0.448-15.872 29.888 29.888 0 0 0-10.048-14.08 14.848 14.848 0 0 0-3.2-1.728l-0.64-0.256a19.584 19.584 0 0 0-8.192-2.048c-2.752 0.256-6.272 2.176-11.008 7.488z m-34.432 0a354.88 354.88 0 0 1 15.68-18.752c9.728-10.496 18.944-14.4 27.52-15.168a41.472 41.472 0 0 1 20.48 4.032 43.008 43.008 0 0 1 9.024 4.928c8.768 6.208 15.872 16.064 19.776 26.816a48.32 48.32 0 0 1-0.064 34.688 40.896 40.896 0 0 1-4.48 7.936c-23.616 33.152-53.12 46.976-80.32 51.648a162.24 162.24 0 0 1-65.92-3.52 78.912 78.912 0 0 1-31.744-16 26.432 26.432 0 0 1-8.576-15.04 20.992 20.992 0 0 1 7.168-19.2c6.016-5.632 17.088-10.688 35.392-14.464 40.768-8.384 44.416-12.992 56.064-27.904z" fill="#FFFFFF"></path>
        <path d="M448.896 618.88a13.184 13.184 0 1 1-26.112 3.968 62.464 62.464 0 0 1-0.576-5.312 121.984 121.984 0 0 1-86.016-40.448 137.024 137.024 0 0 1-34.88-79.232 141.952 141.952 0 0 1 0.768-33.792c6.464-46.208 4.032-87.552 2.752-108.992a234.24 234.24 0 0 1-0.576-13.568c0.064-8.64 21.888-27.776 50.56-39.552 13.056-5.376 27.52-9.792 41.92-11.968 15.168-2.304 30.464-2.048 44.224 2.24 21.632 6.784 38.72 22.784 45.312 53.312 23.68 109.44 2.496 156.48-14.08 193.28-2.88 6.4-5.568 12.352-7.616 17.728 0 0.384-0.192 0.64-0.32 1.024-6.976 18.688 3.2-8.704-2.048 5.248-8.256 22.464-15.488 41.728-13.312 56.064z m-23.808-27.712c2.816-11.712 7.488-24.128 12.48-37.44 3.904-10.496-6.4 16.96 1.92-5.248l0.384-1.088c2.56-6.784 5.312-12.864 8.192-19.264 14.976-33.28 34.112-75.904 12.288-176.832-4.224-19.648-14.464-29.696-27.328-33.664a74.112 74.112 0 0 0-32.512-1.344 161.28 161.28 0 0 0-35.84 10.24c-19.52 7.936-34.24 14.656-34.24 15.232 0 1.92 0.192 6.144 0.64 11.968 1.28 22.208 3.84 65.28-2.944 114.176-1.28 9.536-1.536 18.816-0.64 27.712 2.368 24.768 12.736 46.976 28.16 63.872 15.104 16.64 35.2 27.904 57.152 30.976 4.096 0.448 8.192 0.704 12.288 0.704z" fill="#FFFFFF"></path>
        <path d="M403.584 339.776c-0.64 4.288 7.936 15.872 19.008 17.408 11.072 1.536 20.672-7.488 21.248-11.776 0.576-4.352-8-9.152-19.072-10.688-11.072-1.536-20.608 0.768-21.184 5.056z" fill="#FFFFFF"></path>
        <path d="M407.936 340.352c-0.128 0.96 1.408 3.456 3.968 6.144a20.352 20.352 0 0 0 11.264 6.336h0.064a16.64 16.64 0 0 0 11.52-3.008c2.88-1.92 4.608-3.904 4.864-5.12 0-0.192-1.088-0.832-2.944-1.92a37.184 37.184 0 0 0-12.416-3.712h-0.128a36.672 36.672 0 0 0-12.8 0.256 13.504 13.504 0 0 0-3.392 1.024z m-2.368 12.16c-4.352-4.48-6.72-9.92-6.272-13.248v-0.128c0.576-4.16 4.288-7.04 9.984-8.384a45.952 45.952 0 0 1 16-0.448h0.256a45.44 45.44 0 0 1 15.424 4.8c5.12 2.816 7.936 6.72 7.36 10.816-0.384 3.2-3.712 7.872-8.576 11.136a25.344 25.344 0 0 1-17.664 4.48 28.48 28.48 0 0 1-16.512-8.96zM742.208 330.944c0.576 4.288-7.936 15.872-19.072 17.408-11.136 1.536-20.608-7.488-21.184-11.776-0.64-4.288 7.936-9.152 19.072-10.688 11.008-1.472 20.48 0.768 21.12 5.12z" fill="#FFFFFF"></path>
        <path d="M744.32 330.688c0.384 2.752-1.856 7.488-5.696 11.52a26.432 26.432 0 0 1-15.232 8.32h-0.064a23.552 23.552 0 0 1-16-4.032c-4.48-2.944-7.296-6.912-7.68-9.6-0.448-3.2 1.92-6.208 6.208-8.64a42.944 42.944 0 0 1 14.72-4.48 44.16 44.16 0 0 1 15.36 0.32c4.8 1.088 7.936 3.328 8.32 6.592z m-8.96 8.512c3.072-3.2 4.8-6.4 4.608-7.936-0.192-1.216-2.048-2.24-4.992-2.944a38.528 38.528 0 0 0-13.76-0.256 39.936 39.936 0 0 0-13.12 3.968c-2.624 1.472-4.16 3.008-4.032 4.16 0.192 1.6 2.432 4.288 5.76 6.592a19.072 19.072 0 0 0 13.056 3.328h0.064a22.144 22.144 0 0 0 12.48-6.912zM768.704 301.632a13.184 13.184 0 1 1 26.432-1.28 243.2 243.2 0 0 1-4.032 53.568 321.28 321.28 0 0 0-4.48 40.768c-0.384 14.08 1.408 29.696 3.392 45.696 5.12 42.24 10.496 87.424-20.864 134.208a13.248 13.248 0 0 1-18.304 3.648 13.248 13.248 0 0 1-3.648-18.304c25.856-38.592 21.056-78.72 16.512-116.416a317.44 317.44 0 0 1-3.456-49.6c0.512-17.024 2.624-30.72 4.672-43.84 2.496-15.936 4.736-30.912 3.84-48.448z" fill="#FFFFFF"></path>
    
</svg>