<?xml version="1.0" standalone="no"?>
<!DOCTYPE svg PUBLIC "-//W3C//DTD SVG 1.1//EN" "http://www.w3.org/Graphics/SVG/1.1/DTD/svg11.dtd">
<svg t="1658303696471" class="icon" viewBox="0 0 1024 1024" version="1.1"
    xmlns="http://www.w3.org/2000/svg" p-id="7374" width="32" height="32"
    xmlns:xlink="http://www.w3.org/1999/xlink">
   <path d="M622.208 960C816.384 910.08 960 731.52 960 518.912 960 267.712 759.424 64 512 64S64 267.712 64 518.912c0 189.44 113.984 351.872 276.16 420.224 105.92-78.528 420.544-322.944 376.512-422.72-22.272-50.304-84.416-6.464-158.72 46.08-102.4 72.256-228.032 160.896-304.64 42.688-81.6-125.696 210.368-394.432 210.368-394.432l143.232 41.472S267.52 500.032 353.28 565.312c35.904 27.328 96.896-8.96 165.248-49.664 94.72-56.32 203.52-121.088 278.784-36.224 106.496 120-98.176 388.16-175.104 480.576z" fill="#0065FD"></path>
    
</svg>