<?xml version="1.0" standalone="no"?>
<!DOCTYPE svg PUBLIC "-//W3C//DTD SVG 1.1//EN" "http://www.w3.org/Graphics/SVG/1.1/DTD/svg11.dtd">
<svg t="1658303696471" class="icon" viewBox="0 0 1024 1024" version="1.1"
    xmlns="http://www.w3.org/2000/svg" p-id="7374" width="32" height="32"
    xmlns:xlink="http://www.w3.org/1999/xlink">
   <path d="M213.312 128h85.376v85.312H213.312v213.376A85.312 85.312 0 0 1 128 512a85.312 85.312 0 0 1 85.312 85.312v213.376h85.376V896H213.312C167.68 884.48 128 857.6 128 810.688V640A85.312 85.312 0 0 0 42.688 554.688H0V469.312h42.688A85.312 85.312 0 0 0 128 384V213.312A85.312 85.312 0 0 1 213.312 128z m597.376 0A85.312 85.312 0 0 1 896 213.312V384a85.376 85.376 0 0 0 85.312 85.312H1024v85.376h-42.688A85.312 85.312 0 0 0 896 640v170.688A85.376 85.376 0 0 1 810.688 896h-85.376v-85.312h85.376V597.312A85.312 85.312 0 0 1 896 512a85.312 85.312 0 0 1-85.312-85.312V213.312h-85.376V128h85.376zM712.832 652.48a42.688 42.688 0 1 0-60.352 60.352 42.688 42.688 0 0 0 60.352-60.352zM542.144 652.48a42.624 42.624 0 1 0-60.288 60.352 42.624 42.624 0 0 0 60.288-60.352z"></path>
        <path d="M371.52 652.48a42.624 42.624 0 1 0-60.352 60.352 42.624 42.624 0 0 0 60.352-60.352z"></path>
    
</svg>