<?xml version="1.0" standalone="no"?>
<!DOCTYPE svg PUBLIC "-//W3C//DTD SVG 1.1//EN" "http://www.w3.org/Graphics/SVG/1.1/DTD/svg11.dtd">
<svg t="1658303696471" class="icon" viewBox="0 0 1024 1024" version="1.1"
    xmlns="http://www.w3.org/2000/svg" p-id="7374" width="32" height="32"
    xmlns:xlink="http://www.w3.org/1999/xlink">
    <path d="M896 283.456v11.392l-61.696 61.696v-38.848h-181.76v116.608h104.064l-54.912 54.848h-49.152v49.152l-54.848 54.848V489.152H426.304v137.152h138.24l-54.784 54.848H426.24v116.544h42.88l-10.88 61.76H155.52A27.392 27.392 0 0 1 128 832V283.456C128 268.288 140.288 256 155.456 256H868.48c15.232 0 27.456 12.288 27.456 27.456zM426.24 434.304h171.52V317.696H426.24v116.608z m-54.784 192V489.152h-181.76v137.152h181.76z m0-308.608h-181.76v116.608h181.76V317.696z m0 480v-116.544h-181.76v116.544h181.76z"></path>
        <path d="M539.776 863.68a23.68 23.68 0 0 1-27.456-27.456l20.672-117.76a7.104 7.104 0 0 1 1.92-3.712l296.768-296.704a6.912 6.912 0 0 1 4.992-2.048c1.92 0 3.584 0.64 4.928 2.048l116.352 116.416a6.976 6.976 0 0 1 0 9.856l-296.704 296.704a6.848 6.848 0 0 1-3.712 1.92l-117.76 20.736z"></path>
   
</svg>