<?xml version="1.0" standalone="no"?>
<!DOCTYPE svg PUBLIC "-//W3C//DTD SVG 1.1//EN" "http://www.w3.org/Graphics/SVG/1.1/DTD/svg11.dtd">
<svg t="1658303696471" class="icon" viewBox="0 0 1024 1024" version="1.1"
    xmlns="http://www.w3.org/2000/svg" p-id="7374" width="32" height="32"
    xmlns:xlink="http://www.w3.org/1999/xlink">
   <path d="M512 544m-469.333333 0a469.333333 469.333333 0 1 0 938.666666 0 469.333333 469.333333 0 1 0-938.666666 0Z" fill="#E0E8F3"></path>
        <path d="M129.6 816.170667a176 176 0 0 1 136.213333-148.138667l150.186667-33.365333v-55.573334a207.189333 207.189333 0 0 0 192 0v55.573334l150.186667 33.365333a176 176 0 0 1 136.213333 148.138667A471.893333 471.893333 0 0 1 766.101333 938.666667H257.898667a471.893333 471.893333 0 0 1-128.298667-122.496z" fill="#FDEACD"></path>
        <path d="M129.6 816.170667a176 176 0 0 1 136.213333-148.138667l150.186667-33.365333 96 64 96-64 150.186667 33.365333a176 176 0 0 1 136.213333 148.138667C809.301333 935.509333 669.76 1013.333333 512 1013.333333c-157.738667 0-297.301333-77.824-382.4-197.162666z" fill="#EF5350"></path>
        <path d="M720 314.666667v80a208 208 0 1 1-416 0v-80h52.672A173.674667 173.674667 0 0 0 512 218.666667a173.674667 173.674667 0 0 0 155.328 96h52.672z" fill="#FFE0B3"></path>
        <path d="M512 42.666667a208 208 0 0 0-208 208v64h52.672A173.674667 173.674667 0 0 0 512 218.666667a173.674667 173.674667 0 0 0 155.328 96h52.672v-64A208 208 0 0 0 512 42.666667z" fill="#74574A"></path>
        <path d="M720 336H768c5.461333 0.042667 10.88 1.066667 16 2.944V272a272 272 0 1 0-544 0v66.944a47.36 47.36 0 0 1 16-2.944h48v-64a208 208 0 1 1 416 0v64z" fill="#B3BEC4"></path>
        <path d="M512 218.666667a173.674667 173.674667 0 0 1-155.328 96H304v80c0 39.722667 11.413333 78.592 32.917333 112H560a64 64 0 0 0 64-64v-133.76A173.397333 173.397333 0 0 1 512 218.666667z" fill="#FDEACD"></path>
        <path d="M464 762.666667l48-64-96-64-78.378667 17.429333 126.378667 110.570667zM686.378667 652.096L608 634.666667l-96 64 48 64 126.378667-110.570667z" fill="#C22421"></path>
        <path d="M512 554.666667a32 32 0 1 0 0-64 32 32 0 0 0 0 64z" fill="#B3BEC4"></path>
        <path d="M736 474.666667V490.666667a32 32 0 0 1-32 32h-160a32 32 0 0 1-31.850667 32H704a64 64 0 0 0 64-64v-16h-32z" fill="#D1D8DC"></path>
        <path d="M304 394.666667v-80H256A48 48 0 0 0 208 362.666667v64A48 48 0 0 0 256 474.666667h64a207.104 207.104 0 0 1-16-80zM768 314.666667h-48v80a207.104 207.104 0 0 1-16 80h64A48 48 0 0 0 816 426.666667v-64A48 48 0 0 0 768 314.666667z" fill="#469EFB"></path>
    
</svg>