<?xml version="1.0" standalone="no"?>
<!DOCTYPE svg PUBLIC "-//W3C//DTD SVG 1.1//EN" "http://www.w3.org/Graphics/SVG/1.1/DTD/svg11.dtd">
<svg t="1658303696471" class="icon" viewBox="0 0 1024 1024" version="1.1"
    xmlns="http://www.w3.org/2000/svg" p-id="7374" width="32" height="32"
    xmlns:xlink="http://www.w3.org/1999/xlink">
   <path d="M0 0h1024v1024H0z" fill="#23AC83" opacity=".01"></path>
        <path d="M144 112h736a32 32 0 0 1 32 32v736a32 32 0 0 1-32 32H144a32 32 0 0 1-32-32V144a32 32 0 0 1 32-32z m612.608 303.296h-147.84V267.392A11.392 11.392 0 0 0 597.248 256H267.392A11.392 11.392 0 0 0 256 267.392v329.92c0 6.272 5.12 11.392 11.392 11.392h147.84v147.904c0 6.272 5.12 11.392 11.456 11.392h329.92c6.272 0 11.392-5.12 11.392-11.392V426.688a11.392 11.392 0 0 0-11.392-11.392z m-341.312 11.392v133.696H304.384v-256h256v110.912h-133.76a11.392 11.392 0 0 0-11.328 11.392z m145.088 133.696V463.616H463.616v96.768h96.768z m159.232 159.232h-256V608.704h133.76c6.208 0 11.328-5.12 11.328-11.392V463.616h110.912v256z" fill="#23AC83"></path>
    
</svg>