<?xml version="1.0" standalone="no"?>
<!DOCTYPE svg PUBLIC "-//W3C//DTD SVG 1.1//EN" "http://www.w3.org/Graphics/SVG/1.1/DTD/svg11.dtd">
<svg t="1658303696471" class="icon" viewBox="0 0 1024 1024" version="1.1"
    xmlns="http://www.w3.org/2000/svg" p-id="7374" width="32" height="32"
    xmlns:xlink="http://www.w3.org/1999/xlink">
   <path d="M592.64 64c48.32 114.048-173.248 183.936-193.856 278.976C379.968 430.208 530.048 532.48 530.24 532.48c-22.976-36.096-39.68-66.56-62.528-122.816C428.928 314.688 704 228.928 592.64 64z m146.56 158.336s-193.792 12.224-203.584 138.88c-4.48 56.448 51.136 86.08 52.736 127.168 1.408 33.472-33.408 61.312-33.408 61.312s62.336-11.264 81.92-62.4c21.504-56.832-42.048-95.616-35.584-141.12 6.208-43.52 137.856-123.84 137.856-123.84z m47.36 291.84c-20.352-0.896-43.264 6.656-63.552 21.568 40.064-8.896 74.304 16.32 74.304 45.248 0 64.896-92.608 126.016-92.608 126.016s143.232-16 143.232-122.752c0-44.096-27.584-68.48-61.44-70.08z m-380.16 1.088c-50.048 1.728-149.76 9.984-149.76 48.512 0 53.568 232.32 57.728 398.528 24.768 0 0 45.184-31.488 57.088-43.072-108.928 22.592-357.632 26.112-357.632 6.4 0-17.984 79.68-36.608 79.68-36.608s-11.264-0.512-27.968 0zM391.168 614.4c-27.328 0-67.84 21.248-67.84 41.984 0 41.728 205.76 73.792 357.632 12.928l-52.8-32.32c-103.04 33.664-293.248 22.464-236.992-22.592z m25.856 93.632c-37.312 0-61.376 23.616-61.376 40.96 0 53.44 222.848 58.688 311.232 4.352l-56-36.672c-65.92 28.416-231.936 32.64-193.856-8.64z m-124.928 48.512c-60.8-1.216-100.16 26.368-100.16 49.536 0 123.136 623.616 117.248 623.616-8.64 0-20.864-24.64-30.848-33.408-35.52 50.944 120.32-509.44 110.912-509.44 39.808 0-16.128 41.472-32.256 79.68-24.704l-32.256-18.368a205.312 205.312 0 0 0-28.032-2.112z m589.12 82.944c-94.72 91.648-334.656 124.48-576.192 67.84 241.536 100.992 575.04 44.8 576.192-67.84z"></path>
    
</svg>