<?xml version="1.0" standalone="no"?>
<!DOCTYPE svg PUBLIC "-//W3C//DTD SVG 1.1//EN" "http://www.w3.org/Graphics/SVG/1.1/DTD/svg11.dtd">
<svg t="1658303696471" class="icon" viewBox="0 0 1024 1024" version="1.1"
    xmlns="http://www.w3.org/2000/svg" p-id="7374" width="32" height="32"
    xmlns:xlink="http://www.w3.org/1999/xlink">
   <path d="M412.7 331.2l-0.2-0.2-44.3 34.6c-3.49999999 2.7-4.1 7.7-1.4 11.2l39.3 50.4-90.1 70.5c-3.49999999 2.7-4.1 7.7-1.4 11.2l29.7 37.9c2.7 3.49999999 7.7 4.1 11.2 1.39999999l90.2-70.49999999 0.1 0.2 44.3-34.6c3.49999999-2.7 4.1-7.7 1.4-11.2l-39.3-50.39999999 82-64.10000001c3.49999999-2.7 4.1-7.7 1.4-11.2l-29.6-37.9c-2.7-3.49999999-7.7-4.1-11.2-1.4l-82.1 64.1z"></path>
        <path d="M112 416c0 167.9 136.1 304 304 304 70.3 0 135-23.9 186.5-63.9L856.1 909.7c3.1 3.1 8.2 3.1 11.3 0l42.3-42.3c3.1-3.1 3.1-8.2 0-11.3l-253.6-253.6C696.1 551 720 486.3 720 416c0-167.9-136.1-304-304-304S112 248.1 112 416z m465.2-161.2C620.3 297.8 644 355.1 644 416s-23.7 118.2-66.8 161.2C534.2 620.3 476.9 644 416 644s-118.2-23.7-161.2-66.8c-43.1-43-66.8-100.3-66.8-161.2s23.7-118.2 66.8-161.2c43-43.1 100.3-66.8 161.2-66.8s118.2 23.7 161.2 66.8z"></path>
    
</svg>