<?xml version="1.0" standalone="no"?>
<!DOCTYPE svg PUBLIC "-//W3C//DTD SVG 1.1//EN" "http://www.w3.org/Graphics/SVG/1.1/DTD/svg11.dtd">
<svg t="1658303696471" class="icon" viewBox="0 0 1024 1024" version="1.1"
    xmlns="http://www.w3.org/2000/svg" p-id="7374" width="32" height="32"
    xmlns:xlink="http://www.w3.org/1999/xlink">
   <path d="M710.848 344.96h-43.712C636.544 255.36 553.6 192 455.168 192a225.472 225.472 0 0 0-216.32 163.904A222.848 222.848 0 0 0 64 574.464a225.92 225.92 0 0 0 148.608 211.968l15.296-54.656a168.768 168.768 0 0 1-109.248-157.312c0-74.304 48-135.488 111.424-159.552 17.472-6.592 37.12-8.768 54.656-8.768 0-19.648 6.528-37.12 13.12-54.592 26.24-61.184 85.184-104.96 155.136-104.96a166.4 166.4 0 0 1 152.96 98.368c6.592 17.472 13.12 35.008 15.36 52.48h87.36c98.368 0 179.2 80.832 179.2 179.2 0 98.304-80.832 179.2-179.2 179.2H605.952l2.176 54.592h100.544a234.112 234.112 0 0 0 233.856-233.792c0-128.96-100.48-231.68-231.68-231.68z" fill="#1EA2EE"></path>
        <path d="M739.264 659.648H625.664l-15.36 54.656h67.84a78.464 78.464 0 0 1-15.36 21.824c-26.24 26.24-72.128 28.416-98.304 0-28.416-32.768-83.072-104.896-111.488-137.6-32.768-37.184-85.248-45.952-131.136-28.48l13.12-48h111.488l15.296-54.72H295.68l-15.36 54.656-30.592 128.96c0 2.176-2.176 6.528-2.176 8.704h59.008c4.416-8.704 8.768-15.296 15.36-21.824 26.176-26.24 72.064-28.416 98.304 0 30.592 32.768 83.008 104.896 111.424 137.664 45.888 50.24 126.72 48.064 174.848 0 30.592-30.592 41.536-76.48 32.768-115.84z" fill="#1EA2EE"></path>
        <path d="M678.08 605.056c-4.352 0-6.528 2.176-6.528 6.528 0 4.352 2.176 6.592 6.528 6.592 4.352 0 6.528-2.24 6.528-6.592 0-4.352-4.352-6.528-6.528-6.528z m2.176-8.768c0 4.352 2.176 6.528 6.592 6.528 4.352 0 6.528-2.176 6.528-6.528 0-4.352-2.176-6.528-6.528-6.528-2.176 0-6.592 2.176-6.592 6.528z m21.888 6.528c-4.416 0-6.592 2.24-6.592 6.592 0 4.352 2.176 6.528 6.592 6.528 4.352 0 6.528-2.176 6.528-6.528 0-4.352-2.176-6.592-6.528-6.592z m0 32.832a4.672 4.672 0 0 0-4.416 4.352c0 2.176 2.24 4.352 4.416 4.352a4.736 4.736 0 0 0 4.352-4.352c2.176-2.176 0-4.352-4.352-4.352z m13.12-17.472c-2.24 0-6.592 2.176-6.592 6.528 0 2.176 2.176 6.528 6.592 6.528 2.176 0 6.528-2.176 6.528-6.528 0-4.352-4.352-6.528-6.528-6.528z m10.88 17.472c-2.176 0-6.528 2.176-6.528 6.528 0 2.176 2.176 6.592 6.528 6.592 2.176 0 6.592-2.24 6.592-6.592-2.176-4.352-4.416-6.528-6.592-6.528z m-34.944-17.472c-2.176 0-6.592 2.176-6.592 6.528 0 4.352 2.24 6.528 6.592 6.528 4.352 0 6.528-2.176 6.528-6.528 0-4.352-2.176-6.528-6.528-6.528z m-10.88 17.472a4.672 4.672 0 0 0-4.48 4.352c0 2.176 2.24 4.352 4.48 4.352a4.672 4.672 0 0 0 4.288-4.352 4.672 4.672 0 0 0-4.352-4.352z m-13.184-15.36c-2.176 0-6.528 2.24-6.528 6.592 0 4.352 2.176 6.592 6.528 6.592 2.24 0 6.592-2.24 6.592-6.592 0-4.352-2.176-6.528-6.592-6.528z m0-6.528v-4.352c-2.176-2.176-2.176-4.352-2.176-6.592 0-2.176 2.176-4.352 4.416-4.352h4.352c2.176 0 2.176 0 4.352-2.176V592c-2.176-2.176-2.176-4.416-2.176-6.592 0-2.176 2.176-4.352 4.352-4.352H686.848v-2.176c-48.128-30.592-113.664-26.24-152.96 17.472-8.768 10.88-19.712 24.064-32.832 39.36 6.592 8.704 15.36 19.648 21.888 28.416 4.352 4.352 8.704 10.88 13.12 15.296 13.056-17.536 26.24-32.832 37.12-43.712 21.888-24.064 59.008-26.24 85.248-8.768h2.176v-2.176c-2.176-2.176-2.176-4.352-2.176-6.528 0-2.24 2.176-4.416 4.352-4.416h2.176c0 2.176 0 2.176 2.176 0z m-2.176-39.296c4.416 0 6.592 2.176 6.592 6.528 0 4.352-2.176 6.528-6.592 6.528-4.352 0-6.528-2.176-6.528-6.528 0-4.352 2.176-6.528 6.528-6.528z m-19.648-4.416c4.352 0 6.528 2.176 6.528 6.592 0 4.352-2.176 6.528-6.528 6.528-4.352 0-6.592-2.176-6.592-6.528 0-4.416 2.24-6.592 6.592-6.592z m-19.648-4.352c2.176 0 6.528 2.176 6.528 6.528 0 2.24-2.176 6.592-6.528 6.592-2.24 0-6.592-2.176-6.592-6.592 2.176-2.176 4.352-6.528 6.592-6.528z m-24.064 6.528c0-2.176 2.176-6.528 6.528-6.528 4.416 0 6.592 2.176 6.592 6.528 0 2.24-2.176 6.592-6.592 6.592-4.352 0-6.528-4.352-6.528-6.592z m13.12 24.064c-2.176 0-6.592-2.176-6.592-6.528 0-4.416 2.24-6.592 6.592-6.592 2.176 0 6.528 2.176 6.528 6.592 0 4.352-2.176 6.528-6.528 6.528z m10.88 17.472c-4.352 0-6.528-2.176-6.528-6.528 0-4.416 2.176-6.592 6.592-6.592 4.352 0 6.528 2.176 6.528 6.592 0 4.352-2.176 6.528-6.528 6.528z m10.944-15.296c-4.352 0-6.528-2.176-6.528-6.528 0-4.416 2.176-6.592 6.528-6.592 4.416 0 6.592 2.176 6.592 6.592-2.176 4.352-4.416 6.528-6.592 6.528z m10.944 21.888c-4.352 0-6.528-2.176-6.528-6.592 0-4.352 2.176-6.528 6.528-6.528 4.352 0 6.528 2.176 6.528 6.528 0 2.176-4.352 6.592-6.528 6.592z m8.768-17.536c-4.416 0-6.592-2.176-6.592-6.528 0-4.352 2.176-6.528 6.592-6.528 4.352 0 6.528 2.176 6.528 6.528 0 4.352-4.352 6.528-6.528 6.528z" fill="#90C420"></path>
        <path d="M262.848 714.304c0-2.176-2.176-6.528-4.352-6.528s-6.528 2.176-6.528 4.352 2.176 6.528 4.352 6.528c4.352 2.176 6.528 0 6.528-4.352z m6.592 19.648c0-2.176-2.176-6.528-6.592-6.528-2.176 0-6.528 2.176-6.528 6.528 2.176 2.176 4.352 4.416 6.528 4.416 4.416 2.176 6.592-2.24 6.592-4.416z m2.176 8.768c-4.352 0-6.528 2.176-6.528 6.528 0 4.416 2.176 6.592 6.528 6.592 4.352 0 6.528-2.176 6.528-6.592 0-2.176-2.176-6.528-6.528-6.528z m52.48 15.296c4.352 0 6.528-2.176 6.528-6.528 0-4.416-2.176-6.592-6.592-6.592-4.352 0-6.528 2.176-6.528 6.592 0 4.352 2.176 6.528 6.528 6.528z m-45.952-37.12c2.24 0 6.592-2.24 6.592-4.416s-2.176-6.528-4.352-6.528c-2.24 0-6.592 2.176-6.592 4.352-2.176 4.352 0 6.528 4.352 6.528z m6.592 37.12c-4.352 0-6.592 2.176-6.592 6.528 0 4.416 2.24 6.592 6.592 6.592 4.352 0 6.528-2.176 6.528-6.592 0-4.352-4.352-6.528-6.528-6.528z m21.824-17.472c2.176 0 6.592-2.176 6.592-6.592 0-2.176-2.176-6.528-6.592-6.528-2.176 0-6.528 2.176-6.528 6.528 2.176 4.416 4.352 6.592 6.528 6.592z m-8.704-19.712a4.672 4.672 0 0 0 4.352-4.352 4.672 4.672 0 0 0-4.352-4.352 4.672 4.672 0 0 0-4.416 4.352s2.24 4.352 4.416 4.352z m6.528 43.712c0 4.416 2.176 6.592 6.592 6.592 4.352 0 6.528-2.176 6.528-6.592 0-4.352-2.176-6.528-6.528-6.528-2.24 0-4.416 2.176-6.592 6.528z m-24-30.592c0 2.176 2.176 6.592 6.528 6.592 2.176 0 6.528-2.176 6.528-6.592 0-2.176-2.176-6.528-6.528-6.528-4.352 0-6.528 2.176-6.528 6.528z m15.296 21.888c4.352 0 6.528-2.176 6.528-6.592 0-4.352-2.176-6.528-6.528-6.528-4.416 0-6.592 2.176-6.592 6.528 2.176 4.416 4.352 6.592 6.592 6.592z m159.488-63.36c-13.12 17.472-26.24 32.768-37.12 43.648-19.712 21.888-52.48 26.24-78.72 13.12h-2.176v2.176c0 2.24 2.24 2.24 0 4.416a4.672 4.672 0 0 1-4.352 4.352H326.272V766.72a4.672 4.672 0 0 1-4.416 4.416H315.328V777.6c0 2.176-2.176 4.416-2.176 4.416-2.176 2.176-4.416 0-6.592 0h-2.176v2.176c48.064 32.768 115.84 28.416 157.376-15.36 8.704-10.88 19.648-24 32.768-39.296a96.96 96.96 0 0 1-17.472-24.064c-10.944 0-17.472-6.528-21.888-13.056z m-91.776 69.888c2.176 0 6.592 2.176 6.592 6.592 0 4.352-2.24 6.528-6.592 6.528-2.176 0-6.528-2.176-6.528-6.528 0-4.416 2.176-6.592 6.528-6.592z m-17.472-4.352c4.352 0 6.528 2.176 6.528 6.528 0 4.416-2.176 6.592-6.528 6.592-4.352 0-6.592-2.176-6.592-6.592 0-4.352 4.416-6.528 6.592-6.528z m-21.888 41.536c-4.352 0-6.528-2.176-6.528-6.592 0-4.352 2.176-6.528 6.528-6.528 4.416 0 6.592 2.176 6.592 6.528 0 2.176-4.352 6.592-6.592 6.592z m4.416-21.888c0-4.352 2.176-6.528 6.528-6.528 4.416 0 6.592 2.176 6.592 6.528 0 4.416-2.176 6.592-6.592 6.592-4.352 0-6.528-2.176-6.528-6.592z m13.12 26.24c-4.416 0-6.592-2.176-6.592-6.528 0-4.416 2.176-6.592 6.592-6.592 4.352 0 6.528 2.176 6.528 6.592 0 4.352-2.176 6.528-6.528 6.528z m4.352-19.648c0-4.416 2.176-6.592 6.528-6.592 4.416 0 6.592 2.176 6.592 6.592 0 4.352-2.176 6.528-6.592 6.528-4.352 0-6.528-4.352-6.528-6.528z m15.296 24c-2.176 0-6.528-2.176-6.528-6.528 0-2.176 2.176-6.592 6.528-6.592 2.176 0 6.528 2.24 6.528 6.592-2.176 4.352-4.352 6.528-6.528 6.528z m8.768-17.472c-2.24 0-6.592-2.176-6.592-6.528 0-4.416 2.176-6.592 6.592-6.592 2.176 0 6.528 2.176 6.528 6.592 0 4.352-2.176 6.528-6.528 6.528z m10.88 17.472c-2.176 0-6.528-2.176-6.528-6.528 0-4.352 2.176-6.592 6.528-6.592 2.176 0 6.592 2.24 6.592 6.592 0 4.352-4.416 6.528-6.592 6.528z m-74.24-30.592c0-4.352-2.24-6.528-6.592-6.528-4.352 0-6.592 2.176-6.592 6.528 0 4.416 2.24 6.592 6.592 6.592 2.176 0 6.528-2.176 6.528-6.592z" fill="#1EA2EE"></path>
    
</svg>