<?xml version="1.0" standalone="no"?>
<!DOCTYPE svg PUBLIC "-//W3C//DTD SVG 1.1//EN" "http://www.w3.org/Graphics/SVG/1.1/DTD/svg11.dtd">
<svg t="1658303696471" class="icon" viewBox="0 0 1024 1024" version="1.1"
    xmlns="http://www.w3.org/2000/svg" p-id="7374" width="32" height="32"
    xmlns:xlink="http://www.w3.org/1999/xlink">
   <path d="M961.28 193.28a31.936 31.936 0 0 1-45.12 0.128l-0.128-0.128-30.72-30.72v136.128a32 32 0 1 1-64 0V162.56l-30.72 30.656a32 32 0 0 1-45.248-45.248L830.72 62.72a32 32 0 0 1 45.248 0l85.312 85.312a32 32 0 0 1 0 45.248z" fill="#FC3E40"></path>
        <path d="M512.128 938.816l-12.288-0.192a431.36 431.36 0 0 1-414.528-414.528 426.688 426.688 0 0 1 586.56-407.552 12.992 12.992 0 0 1 6.4 17.664 192 192 0 0 0 230.592 263.04 12.8 12.8 0 0 1 16.32 8.512 426.688 426.688 0 0 1-412.992 533.056zM338.944 603.328v47.104c0 47.68 77.44 86.4 172.992 86.4 95.552 0 172.928-38.72 172.928-86.4v-47.104c-40.32 29.312-101.12 47.104-172.928 47.104-71.872 0-132.736-17.792-172.992-47.104zM512 512c-71.872 0-132.736-17.792-172.992-47.104V512c0 47.68 77.44 86.4 172.992 86.4 95.552 0 172.928-38.72 172.928-86.4v-47.104C644.544 494.272 583.744 512 512 512z m0-51.904c95.424 0 172.928-38.784 172.928-86.528 0-47.744-77.376-86.4-172.928-86.4-95.616 0-172.992 38.72-172.992 86.4 0 47.744 77.504 86.528 172.992 86.528z" fill="#FC3E40"></path>
    
</svg>