<?xml version="1.0" standalone="no"?>
<!DOCTYPE svg PUBLIC "-//W3C//DTD SVG 1.1//EN" "http://www.w3.org/Graphics/SVG/1.1/DTD/svg11.dtd">
<svg t="1658303696471" class="icon" viewBox="0 0 1024 1024" version="1.1"
    xmlns="http://www.w3.org/2000/svg" p-id="7374" width="32" height="32"
    xmlns:xlink="http://www.w3.org/1999/xlink">
   <path d="M887.168 273.408L738.56 359.68a33.728 33.728 0 0 1-33.472 0L540.928 264.96a33.728 33.728 0 0 0-33.472 0L343.68 359.68a33.728 33.728 0 0 1-33.472 0L161.472 273.664 524.544 64l362.624 209.408z" fill="#5BCA87"></path>
        <path d="M772.48 417.472a33.28 33.28 0 0 0-16.448 28.736V635.52a33.408 33.408 0 0 1-16.64 28.8l-165.248 93.632a32.96 32.96 0 0 0-16.64 28.992v172.032l165.376-94.72 198.272-113.728V331.2l-148.736 86.272z" fill="#EC5D3E"></path>
        <path d="M486.4 771.136a34.944 34.944 0 0 0-11.392-13.12l-165.312-93.952a33.728 33.728 0 0 1-16.128-28.48V445.952a33.216 33.216 0 0 0-16.832-28.288l-16.896-9.6L128 331.136v419.392l198.272 113.728L491.84 960v-172.032a32.96 32.96 0 0 0-5.44-16.832z" fill="#2464F5"></path>
    
</svg>