<?xml version="1.0" standalone="no"?>
<!DOCTYPE svg PUBLIC "-//W3C//DTD SVG 1.1//EN" "http://www.w3.org/Graphics/SVG/1.1/DTD/svg11.dtd">
<svg t="1658303696471" class="icon" viewBox="0 0 1024 1024" version="1.1"
    xmlns="http://www.w3.org/2000/svg" p-id="7374" width="32" height="32"
    xmlns:xlink="http://www.w3.org/1999/xlink">
    <path d="M329.344 94.4l62.784 244.096 244.16 62.784-244.16 62.784-62.784 244.16-62.784-244.16-244.16-62.72 244.16-62.848 62.784-244.096zM698.048 538.24l48.128 187.264 187.264 48.128-187.264 48.192-48.128 187.264-48.192-187.264-187.264-48.192 187.264-48.128 48.192-187.264zM830.4 14.976l38.08 148.032 148.032 38.08-148.032 38.016-38.08 148.032-38.016-148.032-148.032-38.016 148.032-38.08 38.016-148.032z" fill="#F7D784"></path>
        <path d="M329.344 94.4v613.76l62.784-244.096 244.16-62.72-244.16-62.848-62.784-244.096zM830.4 14.976v372.16l38.08-148.032 148.032-38.016-148.032-38.08-38.08-148.032zM698.048 538.24v470.848l48.128-187.264 187.264-48.192-187.264-48.128-48.128-187.264z" fill="#FFBE17"></path>
    
</svg>