<?xml version="1.0" standalone="no"?>
<!DOCTYPE svg PUBLIC "-//W3C//DTD SVG 1.1//EN" "http://www.w3.org/Graphics/SVG/1.1/DTD/svg11.dtd">
<svg t="1658303696471" class="icon" viewBox="0 0 1024 1024" version="1.1"
    xmlns="http://www.w3.org/2000/svg" p-id="7374" width="32" height="32"
    xmlns:xlink="http://www.w3.org/1999/xlink">
   <path d="M267.2 706.688l27.904 107.52h-21.12l-18.56-77.44-35.008 77.44h-17.792l-34.944-76.992-19.072 76.992H128l27.648-107.52h18.24l37.696 83.2 37.504-83.2h18.112zM374.656 748.224v-12.48h20.352v78.464h-20.352v-12.672c-5.376 9.088-16.384 14.336-29.888 14.336-28.16 0-43.776-19.776-43.776-42.496 0-21.888 14.848-39.488 40.768-39.488 14.848 0.192 27.072 5.12 32.896 14.336z m-52.032 26.304c0 14.464 9.152 26.88 26.752 26.88 17.024 0 26.304-12.16 26.304-26.432 0-14.272-9.6-26.496-27.264-26.496-16.96 0-25.792 12.16-25.792 26.048zM440.96 814.208h-20.352v-78.464h20.288v17.536a31.168 31.168 0 0 1 28.416-19.2c4.352-0.064 8.64 0.64 12.736 2.048l-4.352 14.848a46.592 46.592 0 0 0-10.752-1.472c-14.72 0-26.048 11.008-26.048 27.136v37.568zM492.16 715.008a10.24 10.24 0 0 1 10.112-10.56h0.832a10.816 10.816 0 0 1 11.072 10.368v0.512a10.24 10.24 0 0 1-10.048 10.432H503.04a10.496 10.496 0 0 1-10.88-9.856v-0.896z m0.896 20.736h20.352v57.344c0 3.52 0.768 6.08 3.712 6.08 1.28 0 2.624-0.192 3.904-0.448l3.2 14.784a34.688 34.688 0 0 1-13.504 2.496c-8.512 0-17.664-2.496-17.664-21.76v-58.496zM604.288 748.224v-12.48h20.48v78.464h-20.416v-12.672c-5.376 9.088-16.384 14.336-29.888 14.336-28.096 0-43.776-19.776-43.776-42.496 0-21.888 14.848-39.488 40.832-39.488 14.72 0.192 26.944 5.12 32.768 14.336z m-52.032 26.24c0 14.4 9.152 26.816 26.752 26.816 17.088 0 26.368-12.096 26.368-26.368 0-14.336-9.6-26.496-27.264-26.496-17.024 0-25.856 12.16-25.856 26.048zM655.936 706.688h48.704c40.96 0 61.44 22.464 61.184 53.76 0.256 32.448-22.336 53.76-57.6 53.76h-52.288v-107.52z m13.44 9.536v88.576h37.12c32.64 0 45.056-21.888 45.056-44.672 0-25.728-15.552-43.904-44.992-43.904h-37.184zM848.896 814.208h-61.952v-107.52h55.872c21.376 0 41.728 4.032 41.408 27.84 0 16.832-10.432 21.44-21.504 23.232 15.68 1.28 25.152 11.328 25.152 27.392 0.064 24.128-21.12 29.056-38.976 29.056z m-4.608-60.608c21.376 0 26.176-8.192 26.176-18.56 0-15.68-9.6-19.2-26.24-19.2h-44.352v37.76h44.416z m0.576 9.088h-44.992v42.432h46.848c13.184 0 27.072-4.352 27.072-20.864 0-19.008-16-21.568-28.992-21.568h0.064zM892.608 194.496a10.56 10.56 0 0 0-7.04-2.496c-7.04 0-16.064 4.736-20.992 7.424l-1.92 0.96a66.496 66.496 0 0 1-26.24 6.4 364.992 364.992 0 0 0-27.776 1.92c-61.952 6.4-89.6 53.696-116.224 99.392-14.464 24.96-29.44 50.752-49.92 70.464a129.408 129.408 0 0 1-13.568 11.456c-21.248 15.744-47.872 26.944-68.608 34.88-20.032 7.68-41.792 14.464-62.848 21.12-19.328 6.016-37.568 11.712-54.336 17.92-7.424 2.816-13.952 4.928-19.648 6.848-15.232 4.928-26.24 8.704-42.304 19.712a272.448 272.448 0 0 0-16.832 12.352c-12.8 10.176-24.064 22.016-33.6 35.2-8.192 12.224-17.664 23.552-28.16 33.792-3.456 3.264-9.472 4.928-18.496 4.928-10.56 0-23.36-2.176-36.928-4.48a248.832 248.832 0 0 0-40.832-4.8 46.912 46.912 0 0 0-23.488 4.928s-9.728 5.632-13.824 12.928l4.032 1.792c6.208 3.392 11.968 7.488 17.152 12.352 5.376 4.928 11.392 9.216 17.856 12.608 2.048 0.768 3.904 1.92 5.504 3.52-1.664 2.432-4.16 5.632-6.784 9.024-14.272 18.624-22.656 30.4-17.92 36.8a14.912 14.912 0 0 0 7.488 1.728c31.168 0 48-8.064 69.12-18.304 6.144-2.944 12.416-6.016 19.84-9.152 12.416-5.312 25.728-13.888 39.872-22.912 18.56-12.032 37.888-24.32 56.64-30.336 15.488-4.672 31.552-6.912 47.68-6.656 19.84 0 40.704 2.624 60.8 5.248 15.04 1.92 30.592 3.84 45.824 4.928 5.888 0.32 11.392 0.512 16.704 0.512 7.104 0 14.272-0.384 21.376-1.152l1.664-0.576c10.688-6.528 15.68-20.608 20.544-34.176 3.136-8.704 5.76-16.576 9.92-21.568l0.832-0.64a1.024 1.024 0 0 1 1.216 0.192v0.384c-2.56 53.12-24 86.848-45.696 116.8l-14.464 15.232s20.288 0 31.808-4.48c42.176-12.48 73.92-40.128 97.088-84.224 5.76-11.264 10.88-22.848 15.36-34.688 0.32-1.024 3.968-2.816 3.648 2.304l-0.384 4.928c0 1.024 0 2.112-0.192 3.2-0.576 7.36-2.368 23.04-2.368 23.04l13.056-6.976c31.36-19.776 55.552-59.584 73.92-121.6 7.616-25.792 13.184-51.456 18.176-74.048 5.888-27.136 10.944-50.432 16.768-59.456 9.152-14.144 23.104-23.68 36.608-33.024 1.856-1.28 3.712-2.496 5.504-3.84 16.96-11.84 33.856-25.6 37.568-51.072v-0.64c2.688-19.008 0.448-23.872-2.176-25.92z" fill="#226A80"></path>
</svg>