<?xml version="1.0" standalone="no"?>
<!DOCTYPE svg PUBLIC "-//W3C//DTD SVG 1.1//EN" "http://www.w3.org/Graphics/SVG/1.1/DTD/svg11.dtd">
<svg t="1658303696471" class="icon" viewBox="0 0 1024 1024" version="1.1"
    xmlns="http://www.w3.org/2000/svg" p-id="7374" width="32" height="32"
    xmlns:xlink="http://www.w3.org/1999/xlink">
   <path d="M0 0h1024v1024H0z" fill="#000000" opacity=".01"></path>
        <path d="M631.872 145.728l246.4 246.4a33.152 33.152 0 0 1 0 46.72l-161.088 161.152a330.304 330.304 0 0 1-70.208 243.392 33.088 33.088 0 0 1-49.408 2.688l-181.696-181.696-215.36 215.424a15.808 15.808 0 0 1-9.792 4.608l-37.248 3.392-1.472 0.064a16 16 0 0 1-15.872-17.344l3.392-37.248a15.808 15.808 0 0 1 4.608-9.792l215.36-215.168-181.696-181.76a33.28 33.28 0 0 1 2.688-49.344 329.6 329.6 0 0 1 243.328-70.336l161.088-161.152a33.088 33.088 0 0 1 46.976 0z m9.856 428.096l24.448-24.512 133.824-133.76L608.512 224l-133.76 133.76-24.448 24.448-34.432-3.84a258.688 258.688 0 0 0-153.92 30.4l353.152 353.28a259.456 259.456 0 0 0 30.4-153.856l-3.84-34.368z" fill="#000000"></path>
    
</svg>