<?xml version="1.0" standalone="no"?>
<!DOCTYPE svg PUBLIC "-//W3C//DTD SVG 1.1//EN" "http://www.w3.org/Graphics/SVG/1.1/DTD/svg11.dtd">
<svg t="1658303696471" class="icon" viewBox="0 0 1024 1024" version="1.1"
    xmlns="http://www.w3.org/2000/svg" p-id="7374" width="32" height="32"
    xmlns:xlink="http://www.w3.org/1999/xlink">
    <path d="M816.64 64C895.488 64 960 128.64 960 207.616v465.088s-28.672-3.584-157.696-46.72c-35.84-12.544-84.224-30.464-137.984-50.24 32.256-55.68 57.344-120.32 75.264-188.544H562.176v-62.848h216.832v-35.904H562.176V182.528H474.368c-16.128 0-16.128 16.128-16.128 16.128v91.584H239.616v35.904H458.24v61.056H277.248v35.904H628.48a638.976 638.976 0 0 1-50.176 123.904c-112.896-37.76-234.752-68.224-311.808-48.448-48.384 12.544-80.64 34.112-98.56 55.68-84.224 102.272-23.296 258.56 154.112 258.56 105.728 0 207.872-59.328 286.72-156.288C727.04 713.984 960 811.008 960 811.008v5.376A143.936 143.936 0 0 1 816.64 960H207.36A143.936 143.936 0 0 1 64 816.384V207.616A143.936 143.936 0 0 1 207.36 64h609.28zM298.624 547.968c81.408-9.088 157.568 23.616 247.872 69.056-65.536 83.52-145.28 136.192-224.896 136.192-138.048 0-178.816-110.784-109.76-172.544 23.04-19.968 63.744-30.848 86.784-32.64z" fill="#3869EB"></path>
    
</svg>