<?xml version="1.0" standalone="no"?>
<!DOCTYPE svg PUBLIC "-//W3C//DTD SVG 1.1//EN" "http://www.w3.org/Graphics/SVG/1.1/DTD/svg11.dtd">
<svg t="1658303696471" class="icon" viewBox="0 0 1024 1024" version="1.1"
    xmlns="http://www.w3.org/2000/svg" p-id="7374" width="32" height="32"
    xmlns:xlink="http://www.w3.org/1999/xlink">
   <path d="M747.380364 385.908364c-2.466909 0.139636-3.072-0.977455-3.304728-3.304728-0.325818-2.466909-0.139636-5.399273-1.396363-7.354181-2.327273-3.630545-1.629091-7.912727-3.630546-11.729455a20.805818 20.805818 0 0 1-2.327272-6.376727c-0.093091-1.396364 0.232727-3.258182-0.744728-3.956364-2.094545-1.536-1.303273-4.049455-2.606545-6.050909-1.489455-2.141091-1.582545-5.213091-2.699637-7.819636-1.163636-2.746182-2.513455-5.632-2.792727-8.657455-0.093091-1.489455-1.722182-1.536-1.722182-2.978909 0.139636-2.466909-1.629091-4.468364-2.234181-6.795636-0.791273-3.118545-2.56-6.097455-3.723637-9.169455a72.285091 72.285091 0 0 0-3.072-7.168c-1.675636-3.351273-3.072-6.702545-5.026909-9.960727-1.861818-2.932364-2.327273-6.562909-4.328727-9.728a53.713455 53.713455 0 0 1-4.282182-8.145455c-1.861818-4.561455-4.747636-8.517818-6.981818-12.8a178.734545 178.734545 0 0 0-6.795637-12.567272c-2.327273-3.909818-4.375273-8.052364-7.074909-11.822546-1.117091-1.582545-2.792727-3.072-3.118545-4.794182-0.372364-2.513455-2.327273-4.328727-3.490909-5.818182-1.675636-1.954909-1.722182-5.492364-4.980364-6.23709 0 0-0.139636-0.279273-0.046545-0.465455 0.232727-2.606545-3.490909-3.397818-3.165091-6.097455-2.885818-1.024-2.048-5.213091-5.306182-6.050909 0 0-0.139636-0.186182-0.093091-0.325818 0.279273-2.653091-2.327273-4.096-3.444364-5.864727a44.916364 44.916364 0 0 0-4.980363-6.237091c-0.930909-0.930909-2.327273-1.722182-2.653091-2.885818-1.163636-3.956364-4.933818-5.957818-6.842182-9.448727-1.815273-3.165091-4.933818-5.259636-7.400727-7.959273a25.6 25.6 0 0 0-8.657455-6.656c-3.072-1.117091-5.585455-3.723636-9.309091-3.909818-3.863273-0.186182-7.493818-2.466909-11.543272-2.327273 0-0.930909-0.279273-1.536-1.303273-1.536h-403.083636c-1.070545 0-1.303273 0.651636-1.303273 1.536-2.653091-0.186182-4.142545 2.001455-4.980364 3.584-2.001455 3.490909 0.837818 9.960727 4.654546 11.543273 1.675636 0.558545 2.56 1.722182 3.630545 2.792727 0.605091 0.558545 1.163636 1.489455 2.001455 1.396364 1.629091-0.186182 2.327273 0.930909 2.792727 1.861818 0.558545 1.303273 1.722182 1.768727 2.653091 2.234182 2.839273 1.442909 5.445818 3.304727 7.773091 5.492363 3.397818 3.211636 7.261091 5.818182 11.031272 8.564364 3.072 2.234182 5.585455 5.213091 9.029819 7.074909 2.56 1.349818 3.956364 4.282182 6.376727 5.538909 3.490909 1.722182 5.445818 5.073455 8.750545 6.749091 2.001455 1.163636 3.723636 2.699636 5.12 4.514909 1.349818 1.536 3.723636 1.629091 4.840728 3.165091 3.072 4.654545 8.378182 6.749091 12.101818 10.938182 3.537455 4.049455 8.610909 6.516364 12.334545 10.798545 4.421818 5.12 10.333091 8.750545 15.127273 13.591273 3.351273 3.258182 6.749091 6.376727 10.100364 9.588364 2.699636 2.466909 5.352727 4.933818 7.866181 7.540363 1.861818 1.861818 4.235636 3.304727 6.004364 4.933818 4.282182 4.189091 9.309091 7.912727 12.334546 13.358546l0.60509 0.791273c3.351273 3.072 6.656 6.237091 9.914182 9.448727 3.956364 3.956364 7.773091 8.238545 12.101818 12.055273a16.290909 16.290909 0 0 1 4.421819 4.840727c0.884364 2.048 2.327273 3.351273 3.723636 4.654545 3.677091 3.490909 7.633455 6.888727 10.24 11.403637 1.024 1.861818 3.258182 2.513455 4.375273 4.328727 1.396364 2.280727 3.630545 3.863273 5.12 6.283636 2.141091 3.490909 5.818182 5.957818 8.238545 9.588364 2.373818 3.630545 5.585455 7.028364 8.657455 10.146909 3.444364 3.490909 5.818182 7.68 9.495272 10.798545 1.908364 1.629091 2.094545 4.654545 4.608 5.678546 1.210182 0.558545 1.629091 1.629091 1.95491 2.466909 1.396364 2.885818 3.816727 4.840727 5.352727 7.540364 1.536 2.606545 4.096 4.282182 5.818182 6.888727 3.258182 4.887273 6.888727 9.634909 10.845091 13.963636 1.256727 1.489455 1.163636 3.723636 3.025454 4.421818 2.792727 1.163636 3.258182 4.142545 4.654546 6.097455 1.908364 2.653091 4.421818 4.840727 5.818181 7.68 1.489455 3.072 4.002909 5.306182 5.585455 8.145455 1.489455 2.513455 3.351273 4.794182 4.887273 7.307636 1.163636 1.908364 2.187636 4.049455 3.816727 5.818182 1.768727 1.722182 2.327273 4.468364 4.421818 6.144 1.861818 1.536 2.234182 3.956364 3.956364 5.725091 1.861818 1.954909 2.56 4.933818 4.561454 6.842181 1.722182 1.629091 2.56 3.909818 3.770182 5.818182 0.884364 1.349818 2.699636 2.141091 2.932364 3.956364 0.139636 2.001455 1.675636 3.211636 2.653091 4.654545 1.536 2.280727 3.490909 4.514909 4.375272 6.656 1.629091 4.002909 4.375273 7.028364 6.283637 10.612364 2.280727 3.956364 5.073455 8.005818 7.307636 12.101818 1.768727 2.978909 3.444364 6.050909 5.306182 8.750546 0.837818 1.442909 0.651636 3.304727 2.234182 4.375272 1.861818 1.303273 2.234182 3.584 3.258182 5.445819 0.930909 1.629091 1.629091 3.677091 2.932363 4.794181 1.070545 0.930909 1.070545 1.722182 1.303273 2.885819 1.582545 0.605091 2.373818-0.651636 3.304727-1.489455l7.447273-7.400727 15.36-15.127273c4.375273-4.375273 8.424727-8.983273 12.986182-13.172364 7.959273-7.261091 15.313455-15.127273 23.272727-22.481454 5.166545-4.840727 9.821091-10.193455 15.546182-14.568727 4.980364-3.770182 9.169455-8.610909 13.730909-13.032728l10.007273-10.007272c3.490909-3.490909 7.912727-5.678545 11.170909-9.402182a2.792727 2.792727 0 0 1 0.930909-0.884364c3.397818-1.349818 5.725091-4.096 8.517818-6.097454 3.258182-2.327273 6.516364-4.654545 9.681455-7.121455 1.629091-1.256727 3.677091-1.861818 5.073454-3.258182 4.002909-4.002909 9.309091-5.818182 13.963636-8.610909 4.933818-2.885818 10.007273-5.818182 15.127273-8.238545 3.723636-1.768727 6.981818-4.468364 10.938182-5.259637 4.654545-0.977455 7.912727-4.049455 12.334545-5.445818 1.303273-0.372364 2.932364-0.512 4.189091-1.489454 2.466909-1.954909 5.911273-1.954909 8.704-3.258182 1.349818-0.651636 2.839273-1.536 4.375273-1.768728 3.490909-0.418909 6.516364-2.048 9.867636-2.932363 0.930909-0.139636 1.629091-0.698182 0.837819-1.861818z" fill="#00D6B9"></path>
        <path d="M843.077818 629.527273c-0.930909-0.605091-1.582545 0.232727-2.141091 0.837818-1.768727 1.629091-3.072 3.723636-4.608 5.585454l-7.633454 8.936728a246.690909 246.690909 0 0 1-16.616728 16.477091c-4.468364 4.049455-9.448727 7.540364-14.242909 11.170909-1.768727 1.303273-3.584 2.792727-5.445818 4.002909-2.001455 1.396364-3.723636 3.258182-5.957818 4.189091-4.189091 1.722182-7.912727 4.375273-11.822545 6.656-6.749091 3.723636-13.777455 6.981818-20.945455 9.774545-4.096 1.675636-8.098909 3.490909-12.241455 4.747637-3.351273 1.024-6.609455 2.513455-10.007272 3.304727-1.163636 0.325818-2.327273 0.186182-3.397818 0.605091-3.351273 1.210182-6.842182 1.954909-10.333091 2.839272-2.932364 0.744727-6.190545 0.093091-8.843637 1.349819-3.956364 1.861818-8.471273 0.093091-12.194909 2.606545-5.818182 0-11.589818 0.558545-17.361454 1.117091-10.24 0.744727-20.48-0.698182-30.72-0.977455-4.654545-0.139636-9.076364-2.466909-13.777455-1.768727a0.930909 0.930909 0 0 1-0.418909-0.046545 1.070545 1.070545 0 0 1-0.325818-0.232728c-1.536-1.163636-3.304727-1.163636-5.026909-1.163636-3.584 0-7.074909-0.791273-10.472728-1.396364-3.258182-0.698182-6.656-2.001455-9.914181-3.072-1.954909-0.651636-4.049455-0.325818-5.771637-1.163636a29.556364 29.556364 0 0 0-7.959272-2.513454c-6.423273-1.349818-12.288-4.049455-18.757819-5.073455-4.235636-0.698182-7.959273-3.072-12.194909-3.956364-3.025455-0.698182-5.957818-1.722182-8.843636-2.653091-3.630545-1.163636-7.307636-2.466909-11.031273-3.397818-5.911273-1.629091-11.310545-4.142545-17.128727-6.004363-6.981818-2.327273-13.637818-4.980364-20.573091-7.307637-4.049455-1.349818-7.68-3.816727-12.101818-4.468363a15.220364 15.220364 0 0 1-5.259637-2.001455c-3.258182-1.861818-6.981818-2.513455-10.24-4.096-2.792727-1.396364-5.957818-2.001455-8.704-3.351273-4.514909-2.327273-9.774545-3.025455-13.870545-6.283636a1.722182 1.722182 0 0 0-1.024-0.279273c-3.258182-0.372364-6.283636-1.861818-9.169455-3.351272-6.283636-3.072-13.079273-5.12-19.269818-8.471273-4.933818-2.746182-10.333091-4.328727-15.313454-6.981818-1.163636-0.232727-2.141091 0-3.258182-0.605091-2.094545-1.024-4.049455-2.653091-6.144-3.258182-4.096-1.070545-7.121455-4.049455-11.124364-5.213091-2.280727-0.651636-4.002909-2.653091-6.097454-3.211636-2.699636-0.651636-4.887273-1.954909-6.981818-3.211637-3.490909-1.954909-7.354182-3.258182-10.891637-5.445818-1.908364-1.210182-4.421818-1.629091-6.097454-3.025454-2.513455-2.094545-6.423273-2.001455-8.145455-5.166546-4.235636-0.372364-7.121455-3.630545-10.752-5.12-4.375273-1.768727-8.285091-4.561455-12.427636-6.888727-1.722182-0.977455-3.258182-2.792727-4.980364-3.072-4.468364-0.930909-7.586909-4.142545-11.310545-6.144a129.489455 129.489455 0 0 1-12.567273-7.586909c-0.744727-0.418909-1.722182-0.325818-2.187636-0.884364-2.606545-2.978909-6.423273-4.468364-9.728-6.516364a451.677091 451.677091 0 0 1-9.588364-5.818181c-3.956364-2.466909-7.959273-4.933818-11.682909-7.540364-2.513455-1.815273-5.585455-2.932364-7.773091-4.933818-1.536-1.489455-3.490909-2.001455-5.12-3.351273-2.885818-2.373818-6.330182-4.375273-9.448727-6.516364-1.489455-0.977455-3.444364-1.908364-4.421819-3.025454-1.954909-2.094545-4.561455-3.211636-6.609454-4.887273-3.072-2.606545-6.888727-4.421818-9.914182-7.121454-1.861818-1.582545-4.514909-1.861818-5.818182-4.096a3.723636 3.723636 0 0 0-2.513454-1.815273c-2.048-0.558545-3.444364-2.187636-5.073455-3.304727-2.420364-1.675636-4.654545-3.956364-7.214545-5.725091-3.025455-2.001455-5.678545-4.747636-8.843637-6.609455-3.351273-2.048-5.771636-5.259636-9.122909-7.168-2.094545-1.256727-3.304727-3.584-5.352727-4.514909-3.537455-1.582545-5.725091-4.747636-8.983273-6.656-2.466909-1.629091-4.189091-4.654545-6.888727-6.004364-3.165091-1.675636-5.026909-4.561455-7.819636-6.516363-0.744727-0.558545-1.722182-0.651636-2.420364-1.582546-1.768727-2.187636-4.282182-3.816727-6.283636-5.725091-2.234182-2.001455-4.980364-3.304727-6.981819-5.72509-1.582545-1.722182-3.258182-4.049455-5.259636-4.840728-3.072-1.163636-4.421818-3.863273-6.795636-5.585454-3.025455-2.141091-5.259636-5.213091-8.145455-7.540364-1.861818-1.442909-3.956364-2.606545-5.399273-4.468364-2.234182-2.792727-5.026909-5.166545-7.586909-7.540363-3.304727-3.258182-6.516364-6.656-9.867636-9.774546-2.699636-2.327273-5.12-5.026909-7.912727-7.447272-2.466909-2.234182-4.747636-4.794182-7.307637-6.981819-3.351273-3.165091-6.423273-6.656-9.588363-9.914181-3.118545-3.258182-6.516364-6.330182-9.588364-9.728-2.606545-2.978909-5.306182-6.562909-10.426182-5.538909-2.56 0.605091-3.723636 2.187636-4.654545 4.18909-2.606545 0.325818-1.582545 2.327273-1.582546 3.444364v376.552727c0 1.536 0.186182 2.978909 0.139637 4.421819 0 1.163636 0.325818 1.722182 1.442909 1.768727-0.698182 3.490909 1.629091 6.190545 2.141091 9.402182 0.372364 2.327273 1.861818 4.189091 2.699636 6.376727 1.256727 2.885818 3.723636 5.306182 5.445818 8.145454a22.714182 22.714182 0 0 0 5.818182 6.05091c2.466909 1.768727 4.887273 3.584 7.447273 5.12 3.118545 1.768727 6.050909 3.956364 8.843636 5.911272 0.930909 0.558545 1.861818 0.698182 2.792727 1.582546 2.839273 2.327273 6.004364 4.282182 9.309091 5.818182 2.234182 1.163636 4.328727 2.653091 6.702546 3.630545 5.306182 2.234182 9.821091 6.190545 15.313454 8.378182 3.025455 1.117091 5.352727 3.258182 8.471273 4.189091 0.698182 0.325818 1.582545 0.372364 2.234182 0.791272 4.375273 3.025455 9.309091 4.747636 14.056727 7.168 1.024 0.558545 2.327273 0.558545 3.025455 1.117091a19.549091 19.549091 0 0 0 8.704 3.909819c0.558545 0.139636 1.024 0.186182 1.675636 0.651636 1.256727 0.977455 2.885818 1.768727 4.468364 2.606545 1.768727 0.977455 4.002909 0.418909 5.585454 2.094546a6.190545 6.190545 0 0 0 3.165091 1.768727c4.654545 0.837818 8.936727 3.072 13.312 4.747636 1.256727 0.605091 3.025455 0 3.956364 1.070546 1.722182 1.722182 4.189091 1.722182 6.144 2.606545 2.932364 1.256727 6.050909 2.327273 9.309091 3.072 1.396364 0.372364 3.258182 0 4.189091 0.977455 1.629091 1.861818 4.189091 2.001455 5.957818 2.466909 4.747636 1.163636 9.402182 2.699636 14.056727 4.235636 3.723636 1.349818 7.912727 1.629091 11.869091 2.792728 3.351273 0.930909 6.656 2.048 9.960727 2.606545 1.582545 0.325818 3.770182-0.325818 4.654546 0.465455 2.56 2.513455 6.004364 1.070545 8.843636 2.466909a21.410909 21.410909 0 0 0 10.24 1.629091c0.698182-0.046545 1.675636-0.232727 2.048 0.139636 2.606545 2.653091 6.749091 0 9.309091 2.699636 5.911273 0.558545 11.915636 0.837818 17.780364 2.513455 3.816727 1.163636 8.005818 0.558545 12.008727 1.442909 4.840727 1.163636 10.053818 0.837818 15.127273 1.349818 3.304727 0.279273 6.562909 0.186182 9.867636 0.232727 0 1.070545 0.605091 1.442909 1.629091 1.396364h71.819636c1.024 0 1.675636-0.372364 1.675637-1.396364 7.959273 0.418909 15.825455-1.442909 23.738181-1.163636h4.375273c1.117091 0 1.675636-0.418909 1.629091-1.489454 3.537455-0.279273 7.074909-0.651636 10.658909-1.396364 5.585455-1.117091 11.403636-0.837818 16.989091-2.653091 2.792727-0.930909 5.957818-0.744727 8.936727-1.489455 3.490909-0.837818 7.168-1.768727 10.938182-1.489454 0.418909 0 1.070545 0 1.303273-0.139636 1.861818-2.513455 4.933818-1.349818 7.447273-2.513455a19.223273 19.223273 0 0 1 8.610909-1.536c0.372364 0 0.930909 0 1.303272-0.139636a21.317818 21.317818 0 0 1 8.517819-2.746182c4.049455-0.605091 8.005818-1.629091 11.822545-3.072 2.792727-1.024 5.725091-1.861818 8.704-2.327273 0.605091-0.139636 1.349818-0.139636 1.675636-0.512 1.722182-1.768727 4.096-1.768727 6.05091-2.327273 3.816727-1.024 7.447273-2.466909 11.264-3.630545 1.256727-0.279273 2.699636 0.046545 3.723636-0.651636a23.412364 23.412364 0 0 1 9.914182-4.00291 3.118545 3.118545 0 0 0 1.629091-0.512c1.768727-1.070545 3.351273-2.327273 5.585454-2.56a26.484364 26.484364 0 0 0 8.564364-3.211636c2.327273-1.163636 4.840727-2.048 7.168-3.211636 1.722182-0.930909 3.723636-2.094545 5.864727-2.466909 3.165091-0.558545 5.259636-3.258182 8.378182-3.909819a23.831273 23.831273 0 0 0 6.795636-2.932363c3.397818-1.861818 6.981818-3.490909 10.379637-5.12 2.187636-1.163636 4.701091-2.094545 6.516363-3.351273 2.699636-1.908364 5.585455-3.537455 8.657455-4.840727 3.863273-1.768727 7.261091-4.189091 11.077818-5.818182 3.351273-1.582545 6.376727-4.002909 9.634909-5.818182 1.675636-0.977455 3.211636-2.466909 4.840727-3.258182 1.815273-0.930909 3.584-2.001455 5.306182-3.072 2.234182-1.582545 4.933818-2.513455 6.842182-4.421818 1.768727-1.768727 4.096-2.327273 5.818182-3.909818 2.141091-1.815273 5.026909-2.699636 6.981818-4.654545 0.698182-0.698182 1.117091-1.349818 2.048-1.349819a3.258182 3.258182 0 0 0 2.420364-1.675636 5.725091 5.725091 0 0 1 2.699636-2.280727c3.118545-1.117091 4.747636-4.049455 7.68-5.585455 1.815273-0.791273 3.304727-2.466909 4.980364-3.723636 2.932364-1.954909 5.585455-4.049455 8.378181-6.190546 1.489455-1.210182 2.792727-3.258182 4.328728-3.723636 3.351273-1.070545 4.375273-4.654545 7.447272-6.050909a10.333091 10.333091 0 0 0 2.885819-2.094546c2.327273-2.653091 5.259636-4.794182 8.005818-7.354181 1.629091-1.722182 3.863273-2.56 5.492363-4.421819 1.861818-2.280727 4.002909-4.375273 6.237091-6.283636 2.001455-1.629091 3.863273-3.444364 5.585455-5.352727l9.960727-9.914182c3.304727-3.165091 6.469818-6.423273 9.774546-9.588364a41.378909 41.378909 0 0 0 5.352727-6.190545 33.792 33.792 0 0 1 6.004364-6.376727c1.722182-1.396364 2.234182-3.490909 3.816727-4.933819a28.299636 28.299636 0 0 0 6.050909-6.888727c1.768727-3.072 4.840727-4.980364 6.516364-8.145454 1.163636-2.187636 3.490909-3.723636 4.887272-5.911273 1.442909-2.373818 3.397818-4.514909 5.166546-6.702546 2.001455-2.327273 4.282182-4.887273 5.585454-7.540363 1.396364-2.932364 3.909818-4.654545 5.259637-7.586909a45.149091 45.149091 0 0 1 5.166545-7.307637c1.349818-1.722182 2.141091-3.490909 3.258182-5.259636 1.768727-2.653091 3.630545-5.213091 5.492364-7.819636 0.698182-1.163636 0.837818-2.327273 1.861818-3.490909 1.722182-1.861818 3.723636-4.096 3.258182-7.168" fill="#3370FF"></path>
        <path d="M976.058182 403.176727c-0.325818-0.465455-0.698182-0.465455-1.256727-0.605091-1.489455-0.465455-3.118545-0.837818-4.468364-1.582545a27.461818 27.461818 0 0 0-4.654546-2.699636c-2.420364-0.930909-5.306182-1.303273-7.400727-2.792728-2.839273-2.187636-6.376727-2.141091-9.495273-3.723636a23.831273 23.831273 0 0 0-6.981818-2.466909c-1.768727-0.325818-3.723636-1.163636-5.492363-1.768727-2.466909-0.744727-5.073455-1.629091-7.586909-2.327273a149.038545 149.038545 0 0 1-11.776-3.351273 20.759273 20.759273 0 0 0-8.378182-1.396364c-0.651636-2.699636-2.885818-1.117091-4.375273-1.442909-2.001455 0-3.863273-1.024-5.725091-1.303272-6.050909-1.117091-12.194909-1.256727-18.385454-2.699637-4.840727-1.024-10.100364-0.465455-15.127273-1.117091-3.025455-0.465455-5.957818-0.186182-9.076364-0.232727 0-1.210182-0.558545-1.489455-1.629091-1.489454h-29.184c-1.070545 0-1.722182 0.279273-1.722182 1.442909-7.447273-0.372364-14.708364 1.256727-22.155636 1.210181h-4.421818c-1.024 0-1.489455 0.372364-1.582546 1.396364-4.189091-0.372364-8.238545 1.489455-12.474181 1.117091a1.349818 1.349818 0 0 0-0.791273 0.279273c-3.258182 2.327273-7.168 1.489455-10.705455 2.653091-2.792727 0.930909-6.190545 0.837818-8.843636 1.815272-2.187636 0.744727-4.561455 1.349818-6.656 2.187637a19.362909 19.362909 0 0 1-8.331636 1.629091c0.046545 0.605091 0.186182 1.163636-0.558546 1.303272-1.675636 0.093091-3.165091 0.977455-4.654545 1.303273-4.375273 1.210182-8.517818 2.792727-12.753455 4.282182-3.723636 1.303273-7.168 3.304727-10.845091 4.189091-4.189091 0.977455-7.074909 4.282182-11.496727 4.840727a7.307636 7.307636 0 0 0-3.816727 1.303273 13.684364 13.684364 0 0 1-4.049455 2.513454 27.275636 27.275636 0 0 0-6.656 3.258182c-2.978909 2.001455-6.376727 3.304727-9.309091 5.259637-1.117091 0.837818-2.932364 0.465455-3.490909 1.396363-2.141091 3.723636-6.516364 3.723636-9.495273 6.050909-3.258182 2.466909-6.981818 4.328727-10.24 6.749091-2.606545 2.001455-5.352727 3.863273-7.912727 5.957818a125.021091 125.021091 0 0 1-10.519273 7.959273c-1.768727 1.396364-2.885818 3.863273-4.840727 4.421818-3.072 1.070545-4.654545 3.630545-6.656 5.492364-2.001455 2.001455-4.235636 4.096-6.283636 6.190545-3.025455 3.118545-6.283636 6.050909-9.495273 9.029819-2.373818 2.327273-4.468364 5.12-7.074909 6.888727-4.002909 2.699636-6.981818 6.190545-10.24 9.309091a394.984727 394.984727 0 0 0-9.914182 9.634909c-3.677091 3.816727-7.773091 7.168-11.310545 11.077818-3.025455 3.490909-6.609455 6.516364-9.867637 9.634909-3.304727 3.258182-6.376727 6.795636-9.914181 9.914182a143.872 143.872 0 0 0-9.914182 9.821091 249.483636 249.483636 0 0 1-7.773091 7.773091c-2.699636 2.56-4.980364 5.492364-8.285091 7.307636-0.372364 1.629091-1.675636 2.280727-2.932364 3.072-3.397818 2.141091-6.144 5.166545-9.122909 7.959273-1.954909 1.768727-3.584 4.189091-5.818182 5.492363-3.770182 2.001455-6.376727 5.306182-9.728 7.68a95.604364 95.604364 0 0 0-11.636363 9.402182c-1.722182 1.722182-4.421818 2.001455-5.492364 4.189091-0.930909 1.861818-3.351273 1.396364-4.514909 2.885818-2.327273 3.118545-6.050909 4.421818-8.843636 6.981819-1.722182 1.489455-4.049455 2.746182-6.050909 3.956363-1.256727 0.651636-2.653091 1.163636-3.723637 2.141091a43.008 43.008 0 0 1-8.517818 5.911273c-1.349818 0.837818-3.165091 1.396364-4.142545 2.513454-1.861818 2.001455-4.468364 2.932364-6.56291 4.654546a26.903273 26.903273 0 0 1-7.074909 4.235636c-3.351273 1.303273-5.864727 3.630545-8.936727 5.12-4.096 2.001455-7.959273 4.468364-12.055273 6.423273-1.024 0.605091-2.839273 0.930909-3.444363 2.327273 0 0.977455 0.465455 1.210182 1.163636 1.722181 1.861818 1.070545 3.863273 1.303273 5.678546 2.048 2.885818 1.349818 5.678545 2.978909 8.610909 4.189091 2.792727 1.163636 5.12 3.025455 8.424727 3.351273a8.843636 8.843636 0 0 1 4.049454 1.954909c2.001455 1.722182 4.561455 2.373818 6.656 3.211637 1.861818 0.651636 3.677091 1.861818 5.818182 2.280727 1.349818 0.232727 3.118545 0.139636 4.189091 0.930909 1.861818 1.489455 3.956364 2.327273 6.004364 3.537454 1.303273 0.744727 3.072-0.325818 3.863273 0.837819 1.163636 1.722182 3.258182 2.001455 4.514909 2.466909 3.770182 1.256727 7.261091 2.839273 11.031272 4.375272 3.165091 1.303273 6.423273 2.280727 9.541819 4.00291 2.606545 1.396364 6.050909 1.442909 9.029818 2.65309 1.163636 0.605091 1.722182 1.629091 3.025454 1.768728a18.944 18.944 0 0 1 8.145455 2.420363c0.837818 0.605091 1.675636 1.536 2.699636 1.768728 2.885818 0.558545 5.818182 1.256727 8.657455 2.420363 2.606545 1.117091 5.399273 2.327273 8.192 2.699637 1.582545 0.232727 1.861818 1.722182 3.397818 1.722181 2.56 0 4.654545 1.722182 7.074909 2.234182 3.304727 0.744727 6.562909 2.001455 9.821091 2.978909 0.791273 0.232727 2.001455-0.139636 2.327273 0.279273 2.001455 2.606545 5.306182 1.256727 7.959272 2.606546 2.932364 1.442909 6.656 2.141091 10.053819 3.258181a29.277091 29.277091 0 0 0 9.122909 2.327273 2.327273 2.327273 0 0 1 1.442909 0.465455 23.784727 23.784727 0 0 0 7.074909 2.699636c1.210182 0.232727 2.327273 0.465455 3.490909 0.558545 2.187636 0.372364 3.863273 1.815273 5.957818 1.95491 3.025455 0.139636 5.632 2.001455 8.843636 2.14109 1.163636 0.046545 3.211636-0.139636 4.189091 0.837819 2.048 2.048 4.980364 1.954909 7.307637 2.513454 5.026909 1.349818 10.426182 1.070545 15.592727 2.746182 3.072 1.070545 6.423273 0.698182 9.774545 1.442909 5.259636 1.163636 11.031273 0.837818 16.756364 1.163636 10.426182 0.651636 20.945455 0.418909 31.278546-0.791272 2.653091-0.372364 5.12-0.465455 7.726545-1.163637 3.723636-0.930909 7.493818-1.536 11.264-1.815272 3.258182-0.279273 6.330182-1.675636 9.634909-1.349819 0.232727 0 0.465455-0.093091 0.605091-0.232727 2.932364-1.722182 6.237091-1.722182 9.216-2.792727 2.141091-0.605091 4.654545-0.558545 6.423273-1.629091a18.338909 18.338909 0 0 1 6.050909-2.327273c3.351273-0.558545 5.678545-3.304727 9.076363-3.072l0.372364-0.232727a24.762182 24.762182 0 0 1 7.586909-3.490909c2.792727-0.977455 5.445818-2.094545 8.098909-3.351273 3.490909-1.768727 6.749091-4.049455 10.100364-6.050909 1.024-0.558545 2.513455 0.325818 3.211636-1.303273 0.558545-1.349818 1.768727-2.001455 3.351273-2.327272 1.768727-0.465455 3.723636-1.163636 4.421818-3.165091 0.372364-0.791273 1.024-0.930909 1.722182-0.791273 0.930909 0 1.722182-0.465455 2.187636-1.256727 2.141091-3.258182 5.818182-4.654545 8.750546-6.842182 3.072-2.094545 5.445818-4.933818 8.657454-6.842182 3.770182-2.234182 6.516364-5.771636 9.541819-8.797091 2.606545-2.653091 5.073455-5.399273 7.77309-7.773091 2.141091-1.861818 3.165091-4.421818 5.259637-6.330182 1.489455-1.256727 3.816727-2.606545 4.421818-4.654545 0.930909-3.072 3.490909-4.328727 5.585455-6.283636a12.101818 12.101818 0 0 1 3.258181-4.189091l0.791273-1.256728c1.117091-0.651636 0.558545-2.327273 1.768727-3.025454 2.094545-1.396364 2.885818-4.002909 3.816728-6.004364 1.489455-3.072 3.211636-6.050909 4.980363-8.890182 1.861818-3.165091 2.978909-6.656 5.306182-9.541818 1.768727-2.280727 2.885818-5.259636 4.096-7.912727 2.234182-4.654545 4.654545-9.216 7.074909-13.730909 1.489455-2.699636 2.839273-5.445818 4.096-8.285091 1.256727-2.885818 2.932364-5.585455 4.328727-8.378182 1.303273-2.932364 3.165091-5.585455 4.189091-8.471273 1.396364-3.537455 3.351273-6.516364 4.887273-9.914181 0.465455-1.210182 0.325818-2.653091 1.117091-3.537455a16.942545 16.942545 0 0 0 3.816727-6.516364c1.349818-3.490909 4.282182-6.283636 4.654546-10.146909l0.232727-0.139636c1.349818-1.024 1.815273-2.653091 2.56-4.049455 1.163636-2.234182 1.722182-4.794182 3.211636-6.842181 2.234182-3.165091 3.537455-6.749091 5.259637-10.146909 1.163636-2.094545 2.001455-4.514909 3.211636-6.423273 2.001455-3.118545 3.304727-6.702545 5.259636-9.774546a39.842909 39.842909 0 0 0 3.258182-6.981818c0.558545-1.629091 1.722182-3.211636 2.699637-4.654545 1.815273-2.792727 3.118545-6.004364 5.445818-8.517818 0.930909-1.024 0.930909-2.466909 2.048-3.723637 2.048-1.954909 3.118545-4.654545 4.654545-6.981818 1.210182-1.722182 2.048-3.816727 3.444364-5.12a43.008 43.008 0 0 0 6.423273-8.517818c1.815273-2.932364 4.142545-5.492364 6.237091-7.912727 3.351273-4.096 6.981818-8.145455 10.705454-12.241455l10.146909-10.705455c2.001455-2.094545 1.489455-2.56 0-4.002909" fill="#133C9A"></path>
    
</svg>