<?xml version="1.0" standalone="no"?>
<!DOCTYPE svg PUBLIC "-//W3C//DTD SVG 1.1//EN" "http://www.w3.org/Graphics/SVG/1.1/DTD/svg11.dtd">
<svg t="1658303696471" class="icon" viewBox="0 0 1024 1024" version="1.1"
    xmlns="http://www.w3.org/2000/svg" p-id="7374" width="32" height="32"
    xmlns:xlink="http://www.w3.org/1999/xlink">
   <path d="M690.986667 560.256c-34.901333 0-66.133333 15.488-87.552 39.808l-54.912-38.826667c5.845333-16.085333 9.216-33.28 9.216-51.328 0-17.749333-3.2-34.645333-8.874667-50.474666l54.784-38.442667a116.309333 116.309333 0 0 0 87.381333 39.552 116.906667 116.906667 0 0 0 116.821334-116.821333 116.906667 116.906667 0 0 0-116.821334-116.778667 116.906667 116.906667 0 0 0-111.957333 149.973333l-54.784 38.485334a150.954667 150.954667 0 0 0-93.44-54.272V295.082667a116.992 116.992 0 0 0 92.8-114.261334A116.906667 116.906667 0 0 0 406.826667 64a116.906667 116.906667 0 0 0-116.778667 116.821333 116.906667 116.906667 0 0 0 90.666667 113.749334v66.901333A151.04 151.04 0 0 0 256 509.909333a151.04 151.04 0 0 0 125.824 148.608v70.656a116.949333 116.949333 0 0 0-91.733333 114.005334A116.864 116.864 0 0 0 406.826667 960a116.906667 116.906667 0 0 0 116.821333-116.821333 116.906667 116.906667 0 0 0-91.733333-114.005334v-70.656a150.912 150.912 0 0 0 91.818666-53.418666l55.253334 39.125333a116.949333 116.949333 0 0 0 112.042666 149.674667 116.906667 116.906667 0 0 0 116.821334-116.821334c0-64.426667-52.48-116.821333-116.864-116.821333z m0-273.109333c31.274667 0 56.661333 25.429333 56.661333 56.618666 0 31.232-25.386667 56.661333-56.661333 56.661334a56.746667 56.746667 0 0 1-56.618667-56.661334 56.746667 56.746667 0 0 1 56.618667-56.618666zM350.208 180.821333c0-31.232 25.386667-56.661333 56.618667-56.661333s56.618667 25.429333 56.618666 56.661333c0 31.189333-25.386667 56.618667-56.618666 56.618667a56.704 56.704 0 0 1-56.618667-56.618667z m113.237333 662.357334c0 31.232-25.386667 56.661333-56.618666 56.661333a56.704 56.704 0 0 1-56.618667-56.661333c0-31.189333 25.386667-56.618667 56.618667-56.618667s56.618667 25.429333 56.618666 56.618667z m-56.618666-254.293334a79.104 79.104 0 0 1-78.976-78.976c0-43.562667 35.413333-78.976 78.976-78.976s78.976 35.413333 78.976 78.976a79.061333 79.061333 0 0 1-78.976 78.976z m284.16 144.853334a56.704 56.704 0 0 1 0-113.28c31.274667 0 56.661333 25.429333 56.661333 56.618666 0 31.232-25.386667 56.661333-56.661333 56.661334z" fill="#000000"></path>
    
</svg>