<?xml version="1.0" standalone="no"?>
<!DOCTYPE svg PUBLIC "-//W3C//DTD SVG 1.1//EN" "http://www.w3.org/Graphics/SVG/1.1/DTD/svg11.dtd">
<svg t="1658303696471" class="icon" viewBox="0 0 1024 1024" version="1.1"
    xmlns="http://www.w3.org/2000/svg" p-id="7374" width="32" height="32"
    xmlns:xlink="http://www.w3.org/1999/xlink">
   <path d="M512 64C264.64 64 64 264.64 64 512s200.64 448 448 448 448-200.64 448-448-200.64-448-448-448z m74.688 648.64c-14.08 14.08-32.64 18.688-51.328 18.688-18.688 0-37.376-9.344-51.392-18.688-13.952-13.952-23.296-32.64-23.296-51.328 0-18.624 9.344-37.312 23.296-51.328 14.08-14.016 32.64-18.624 51.392-18.624 18.624 0 37.312 9.28 51.328 18.624 13.952 14.016 23.296 32.64 23.296 51.328 0 18.688-9.344 37.376-23.296 51.328zM782.656 512a10.048 10.048 0 0 1-9.344 9.344H572.672c-4.672 0-4.672 0-4.672-4.672v-9.344l79.36-74.688c-37.376-27.968-79.36-41.984-130.688-41.984-88.704 0-163.328 51.328-191.36 130.688l-60.672-18.688C297.28 404.672 400 334.72 516.672 334.72c65.28 0 126.016 23.36 172.672 60.672l79.36-70.016h4.608c4.672 0 9.344 4.672 9.344 9.344V512z"></path>
    
</svg>