<?xml version="1.0" standalone="no"?>
<!DOCTYPE svg PUBLIC "-//W3C//DTD SVG 1.1//EN" "http://www.w3.org/Graphics/SVG/1.1/DTD/svg11.dtd">
<svg t="1658303696471" class="icon" viewBox="0 0 1024 1024" version="1.1"
    xmlns="http://www.w3.org/2000/svg" p-id="7374" width="32" height="32"
    xmlns:xlink="http://www.w3.org/1999/xlink">
   <path d="M1024 0H0v1024h1024V0z" fill="#000000" opacity=".01"></path>
        <path d="M819.2 832L192 211.2v-6.4l38.4-38.4h6.4l627.2 627.2v6.4l-38.4 32c0 6.4-6.4 6.4-6.4 0zM499.2 332.8l108.8-108.8 192 192-108.8 108.8 51.2 51.2 134.4-134.4c12.8-12.8 12.8-32 0-44.8L633.6 147.2c-6.4-6.4-19.2-12.8-25.6-12.8-6.4 0-19.2 0-25.6 12.8L448 281.6l51.2 51.2zM633.6 716.8c-6.4 12.8-12.8 32-19.2 44.8L262.4 409.6l38.4-19.2-51.2-57.6c-25.6 12.8-44.8 25.6-70.4 44.8-12.8 12.8-19.2 38.4 0 51.2l179.2 179.2-217.6 217.6s-6.4 6.4-6.4 12.8l-6.4 38.4c0 6.4 6.4 19.2 12.8 19.2l51.2-12.8c6.4 0 6.4 0 12.8-6.4l217.6-217.6 179.2 179.2c6.4 6.4 12.8 12.8 25.6 12.8s19.2-6.4 25.6-12.8c19.2-19.2 32-44.8 44.8-70.4l-64-51.2z" fill="#000000"></path>
    
</svg>