<?xml version="1.0" standalone="no"?>
<!DOCTYPE svg PUBLIC "-//W3C//DTD SVG 1.1//EN" "http://www.w3.org/Graphics/SVG/1.1/DTD/svg11.dtd">
<svg t="1658303696471" class="icon" viewBox="0 0 1024 1024" version="1.1"
    xmlns="http://www.w3.org/2000/svg" p-id="7374" width="32" height="32"
    xmlns:xlink="http://www.w3.org/1999/xlink">
   <path d="M888.32 437.12a384 384 0 0 0-85.76-174.08L896 172.8l-48.64-44.8-90.24 89.6a384 384 0 0 0-392.32-60.16 384 384 0 0 0-147.84 600.32l-93.44 94.08 45.44 44.8 93.44-93.44a384 384 0 0 0 604.16-144 377.6 377.6 0 0 0 21.76-222.08z m-640 252.8a320 320 0 0 1 444.16-444.16c7.68 5.12 14.72 11.52 21.76 17.28l-448 448a70.4 70.4 0 0 1-20.48-21.12zM825.6 576A320 320 0 0 1 576 825.6a315.52 315.52 0 0 1-184.96-17.92 305.28 305.28 0 0 1-81.92-49.92l448-448a305.28 305.28 0 0 1 49.92 81.92A315.52 315.52 0 0 1 825.6 576z"></path>
    
</svg>