<?xml version="1.0" standalone="no"?>
<!DOCTYPE svg PUBLIC "-//W3C//DTD SVG 1.1//EN" "http://www.w3.org/Graphics/SVG/1.1/DTD/svg11.dtd">
<svg t="1658303696471" class="icon" viewBox="0 0 1024 1024" version="1.1"
    xmlns="http://www.w3.org/2000/svg" p-id="7374" width="32" height="32"
    xmlns:xlink="http://www.w3.org/1999/xlink">
   <path d="M926.40256 337.3056C903.9872 283.77088 870.4 235.8784 831.20128 193.60768c-42.00448-42.26048-89.6-73.25696-142.7968-95.7952C632.39168 75.264 576.39936 64 514.79552 64H512c-61.60384 0-120.40192 11.264-173.59872 36.62848-53.1968 22.53824-100.80256 56.35072-142.7968 95.7952a411.2896 411.2896 0 0 0-97.9968 140.88192A472.43264 472.43264 0 0 0 64 512c0 70.44096 16.7936 138.06592 47.59552 200.04864v152.15616c0 11.264 5.60128 25.35424 14.00832 33.81248 8.3968 8.448 19.59936 14.08 33.5872 14.08h151.21408c61.5936 30.99648 131.59424 47.90272 198.79936 47.90272H512c58.79808 0 117.59616-11.264 173.59872-33.81248 53.1968-22.53824 100.80256-53.53472 142.7968-95.7952 42.00448-42.27072 72.8064-90.1632 95.20128-143.69792C946.00192 630.34368 960 571.16672 960 512a472.43264 472.43264 0 0 0-33.59744-174.6944z" fill="#17956C"></path>
        <path d="M442.2656 581.24288l-7.50592-30.99648h-44.99456l-7.49568 30.99648h-43.48928l42.496-159.47776h60.98944l42.98752 159.47776H442.2656z m-44.99456-62.99648h29.4912l-14.49984-61.4912h-0.49152l-14.49984 61.4912zM553.24672 421.76512H509.2352v159.47776h44.00128V421.76512z" fill="#FFCF25"></path>
        <path d="M553.24672 488.7552h151.9616c0.512 1.49504 1.50528 2.49856 2.00704 3.9936 1.50528 2.5088 3.00032 4.5056 4.99712 6.5024 3.50208 3.50208 7.99744 6.5024 12.4928 8.4992 4.5056 1.9968 9.50272 3.00032 15.0016 3.00032 5.00736 0 10.00448-1.00352 14.49984-3.00032h0.512a36.9152 36.9152 0 0 0 12.4928-8.4992c3.49184-3.50208 6.49216-7.99744 8.4992-12.4928 1.9968-4.5056 3.00032-9.50272 3.00032-15.0016a40.1408 40.1408 0 0 0-3.00032-15.0016 36.92544 36.92544 0 0 0-8.4992-12.4928 42.58816 42.58816 0 0 0-12.4928-8.4992 36.52608 36.52608 0 0 0-15.01184-3.00032c-4.99712 0-9.99424 1.00352-14.4896 3.00032h-0.512a36.92544 36.92544 0 0 0-12.4928 8.4992c-1.9968 1.9968-3.49184 3.9936-4.99712 6.00064-0.99328 0.99328-1.49504 2.49856-1.9968 3.9936H553.24672v34.49856z" fill="#FFFFFF"></path>
        <path d="M775.71072 714.21952a39.09632 39.09632 0 0 0-8.4992-13.0048 29.11232 29.11232 0 0 0-7.50592-5.49888c-1.49504-0.99328-3.00032-1.49504-4.49536-2.49856V565.73952c0-4.99712-1.9968-9.00096-4.99712-11.99104a17.44896 17.44896 0 0 0-12.00128-5.00736H553.24672v32.50176H509.2352v134.97344c-9.49248 38.99392-28.48768 56.99584-47.48288 60.98944-15.50336 3.00032-32-1.9968-44.4928-12.00128-12.4928-9.99424-20.992-23.99232-20.992-38.99392 0-19.49696 13.98784-41.49248 51.97824-60.98944 10.00448-4.99712 13.99808-17.48992 9.0112-27.99616-5.00736-9.99424-17.5104-13.99808-28.0064-8.99072-40.99072 20.992-62.48448 46.4896-70.48192 72.48896a34.93888 34.93888 0 0 1-15.50336-3.50208c-13.0048-4.5056-25.4976-13.0048-35.49184-24.49408a82.14528 82.14528 0 0 1-19.49696-41.49248c-1.49504-11.008-0.50176-22.49728 3.50208-34.49856 3.00032-9.00096-0.512-18.9952-7.99744-24.49408a104.58112 104.58112 0 0 1-24.99584-26.50112c-7.50592-11.99104-11.49952-24.9856-11.008-37.9904 0-13.0048 4.5056-26.49088 13.99808-38.99392 7.50592-10.496 19.00544-20.50048 33.9968-30.0032 7.50592-4.49536 10.99776-12.99456 10.00448-20.992-1.00352-5.9904-1.00352-12.4928-1.00352-17.99168 1.00352-21.504 8.4992-40.4992 19.99872-54.49728 9.99424-11.99104 21.99552-19.98848 33.9968-22.9888 4.99712 14.99136 14.4896 30.49472 29.99296 44.99456 8.4992 7.49568 20.992 6.99392 28.98944-1.00352 7.50592-8.4992 7.00416-20.992-0.99328-28.99968-19.99872-18.49344-23.5008-37.9904-17.50016-53.98528 4.5056-12.00128 13.99808-22.49728 25.4976-28.99968 11.49952-6.99392 24.9856-9.99424 37.48864-6.99392 19.00544 3.9936 37.9904 21.99552 47.49312 60.48768v114.4832h42.99776c0-6.5024-0.50176-12.4928-0.50176-18.9952h80.4864c4.99712 0 9.00096-2.00704 12.00128-5.00736 3.00032-3.00032 4.99712-7.49568 4.99712-11.99104v-79.49312c1.00352-0.50176 2.49856-1.49504 3.50208-1.9968l5.9904-4.5056 0.512-0.49152c3.49184-3.50208 6.49216-7.99744 8.4992-12.4928 1.9968-4.5056 2.99008-9.50272 2.99008-15.0016 0-5.00736-0.99328-10.00448-3.00032-14.49984v-0.50176a42.58816 42.58816 0 0 0-8.4992-12.4928 42.5984 42.5984 0 0 0-12.4928-8.4992 36.53632 36.53632 0 0 0-15.0016-3.00032c-5.49888 0-9.99424 0.99328-14.99136 3.00032a36.92544 36.92544 0 0 0-12.4928 8.4992 42.58816 42.58816 0 0 0-8.4992 12.4928c-2.00704 4.5056-3.01056 9.50272-3.01056 15.0016 0 4.99712 1.00352 9.99424 3.00032 14.99136 2.00704 4.5056 4.5056 9.0112 7.99744 12.00128 2.00704 1.9968 3.9936 3.9936 6.5024 5.49888 1.49504 1.00352 2.49856 1.49504 3.9936 2.49856v61.4912h-64.98304c-3.00032-57.98912-10.00448-101.9904-20.50048-119.48032-15.99488-24.99584-36.98688-37.9904-59.4944-42.99776-22.9888-4.99712-46.98112 0.512-66.47808 12.00128-19.49696 11.49952-35.50208 29.4912-43.49952 50.49344a41.50272 41.50272 0 0 0-3.00032 10.496c-23.99232 3.50208-47.49312 17.50016-65.4848 38.99392-16.9984 20.50048-28.49792 48.49664-30.0032 79.98464v12.00128c-14.4896 10.496-25.98912 21.504-34.48832 33.49504C211.79392 464.26112 204.8 486.25664 204.8 507.7504c0 21.504 6.00064 42.496 17.50016 60.98944a117.08416 117.08416 0 0 0 24.9856 29.4912c-2.99008 13.50656-2.99008 27.00288-1.49504 39.49568 3.50208 24.49408 14.49984 45.99808 29.4912 63.488 15.0016 17.5104 33.9968 30.49472 53.99552 36.99712 9.00096 3.00032 18.50368 4.99712 27.4944 4.99712 4.5056 21.504 17.50016 40.4992 35.00032 53.99552 21.99552 16.9984 50.4832 25.4976 78.47936 19.99872 56.49408-12.00128 75.99104-75.99104 71.49568-97.4848-1.50528-7.99744 0.99328-24.49408 1.49504-32.99328 0.512-7.00416 1.00352-13.50656 1.50528-20.50048h40.48896v50.9952c-1.49504 0.50176-2.49856 1.49504-3.9936 1.9968a32.1536 32.1536 0 0 0-6.5024 4.99712 42.60864 42.60864 0 0 0-8.4992 12.4928c-1.9968 4.5056-3.00032 9.50272-3.00032 15.0016s1.00352 10.00448 3.00032 15.0016c1.9968 4.5056 4.5056 9.00096 7.99744 12.00128l0.50176 0.49152c3.50208 3.50208 7.99744 6.5024 12.4928 8.4992 4.5056 2.00704 9.50272 3.00032 14.49984 3.00032 4.99712 0 10.496-0.99328 15.0016-3.00032 4.5056-1.9968 8.4992-4.5056 12.00128-7.9872v-0.512c3.49184-3.49184 6.49216-7.49568 8.4992-11.99104v-0.512c1.9968-4.49536 2.99008-9.49248 2.99008-14.99136 0-5.49888-0.99328-9.99424-2.99008-14.99136-2.00704-4.5056-4.5056-9.0112-8.00768-12.4928l-0.49152-0.512c-2.00704-1.9968-4.00384-3.49184-6.00064-4.99712-1.00352-0.99328-2.49856-1.49504-3.50208-1.9968v-67.9936c0-4.99712-1.9968-8.99072-4.99712-11.99104a17.4592 17.4592 0 0 0-12.00128-5.00736h-54.9888c0.99328-15.99488 1.9968-32.49152 3.00032-48.4864h169.97376V695.7056c-1.00352 0.512-2.00704 1.00352-3.00032 2.00704-2.00704 1.49504-3.50208 3.00032-5.49888 4.5056a42.56768 42.56768 0 0 0-8.4992 12.4928c-2.00704 4.49536-3.00032 9.49248-3.00032 14.99136 0 4.99712 0.99328 10.00448 3.00032 15.0016 1.9968 4.5056 4.99712 9.00096 8.4992 12.4928 3.49184 3.50208 7.9872 6.5024 12.4928 8.4992 4.5056 2.00704 9.50272 3.00032 15.0016 3.00032 4.99712 0 9.99424-0.99328 14.49984-3.00032a36.93568 36.93568 0 0 0 12.4928-8.4992c3.50208-3.49184 6.5024-7.9872 8.4992-12.4928 1.9968-4.5056 3.00032-9.50272 3.00032-15.0016 1.00352-6.00064-0.50176-10.99776-1.9968-15.49312z" fill="#FFFFFF"></path>
    
</svg>