<?xml version="1.0" standalone="no"?>
<!DOCTYPE svg PUBLIC "-//W3C//DTD SVG 1.1//EN" "http://www.w3.org/Graphics/SVG/1.1/DTD/svg11.dtd">
<svg t="1658303696471" class="icon" viewBox="0 0 1024 1024" version="1.1"
    xmlns="http://www.w3.org/2000/svg" p-id="7374" width="32" height="32"
    xmlns:xlink="http://www.w3.org/1999/xlink">
   <path d="M730.697143 130.706286l162.596571 162.596571a63.780571 63.780571 0 0 1 18.724572 45.202286V422.034286c0 4.388571-3.657143 7.972571-8.045715 7.972571h-55.954285a8.045714 8.045714 0 0 1-8.045715-8.045714V341.869714l-135.972571-136.045714v114.249143a31.963429 31.963429 0 0 1-32.036571 32.036571H352.109714a31.963429 31.963429 0 0 1-32.036571-32.036571v-136.045714h-136.045714V422.034286c0 4.388571-3.584 7.972571-7.972572 7.972571h-55.954286a8.045714 8.045714 0 0 1-8.045714-8.045714v-277.942857c0-17.700571 14.336-32.036571 32.036572-32.036572h559.981714v2.706286a63.780571 63.780571 0 0 1 26.697143 16.018286z m43.154286 455.606857L631.954286 698.294857a8.045714 8.045714 0 0 1-12.946286-6.290286V615.862857h-324.022857a8.045714 8.045714 0 0 1-8.045714-7.899428v-56.027429c0-4.388571 3.657143-8.045714 8.045714-8.045714h324.022857V468.041143a8.045714 8.045714 0 0 1 13.019429-6.290286l141.897142 112.054857a8.045714 8.045714 0 0 1 0 12.580572zM640 287.963429V184.027429h-256v103.936h256z m208.018286 436.004571h55.954285c4.388571 0 8.045714 3.657143 8.045715 8.045714v147.968a31.963429 31.963429 0 0 1-32.036572 32.036572H144.091429a31.963429 31.963429 0 0 1-32.036572-32.036572v-147.968c0-4.388571 3.657143-8.045714 8.045714-8.045714h55.954286c4.388571 0 8.045714 3.657143 8.045714 8.045714v107.958857h655.945143v-107.958857c0-4.388571 3.657143-8.045714 8.045715-8.045714z"></path>
    
</svg>