<?xml version="1.0" standalone="no"?>
<!DOCTYPE svg PUBLIC "-//W3C//DTD SVG 1.1//EN" "http://www.w3.org/Graphics/SVG/1.1/DTD/svg11.dtd">
<svg t="1658303696471" class="icon" viewBox="0 0 1024 1024" version="1.1"
    xmlns="http://www.w3.org/2000/svg" p-id="7374" width="32" height="32"
    xmlns:xlink="http://www.w3.org/1999/xlink">
   <path d="M155.456 192H868.48c15.232 0 27.456 12.288 27.456 27.456V768a27.392 27.392 0 0 1-27.456 27.456H155.52A27.392 27.392 0 0 1 128 768V219.456C128 204.288 140.288 192 155.456 192z m678.848 178.304V253.696h-181.76v116.608h181.76z m0 192V425.152h-181.76v137.152h181.76zM426.24 425.152v137.152h171.392V425.152H426.304z m171.392-54.848V253.696H426.304v116.608h171.392z m-408 54.848v137.152h181.76V425.152h-181.76z m0-171.456v116.608h181.76V253.696h-181.76z m0 363.456v116.544h181.76V617.152h-181.76z m236.608 0v116.544h171.392V617.152H426.304z m408 116.544V617.152h-181.76v116.544h181.76z"></path>
    
</svg>