<?xml version="1.0" standalone="no"?>
<!DOCTYPE svg PUBLIC "-//W3C//DTD SVG 1.1//EN" "http://www.w3.org/Graphics/SVG/1.1/DTD/svg11.dtd">
<svg t="1658303696471" class="icon" viewBox="0 0 1024 1024" version="1.1"
    xmlns="http://www.w3.org/2000/svg" p-id="7374" width="32" height="32"
    xmlns:xlink="http://www.w3.org/1999/xlink">
       <path d="M64 436.48v311.424s179.84 0.512 265.408-9.152c43.648-4.992 173.376-45.248 327.04-87.104C783.04 617.216 960 633.216 960 633.216V330.24s-205.312 1.792-269.632 9.088c-168.96 19.2-241.6 56.96-351.04 83.392C255.168 443.008 64 436.48 64 436.48z" fill="#0181FC"></path>
        <path d="M64 311.36v103.808s161.216-1.92 195.2-4.288c83.776-5.824 239.104-60.224 239.104-60.224L467.072 256s-123.904 42.56-188.16 52.032C220.992 316.608 64 311.36 64 311.36z" fill="#FF9C00"></path>
        <path d="M960 659.584v106.688s-142.144-4.288-203.52 3.328c-46.08 5.76-201.92 51.456-201.92 51.456L521.6 721.92s124.16-39.488 166.08-50.944c100.032-27.392 272.384-11.392 272.384-11.392z" fill="#0BC649"></path>
    
</svg>