<svg width="32" height="32" viewBox="0 0 32 32" fill="none" xmlns="http://www.w3.org/2000/svg">
<circle cx="16" cy="16" r="15.5" fill="#F4FAFF" stroke="#E5EAF1"/>
<path d="M18.3111 15.4678V15.3789L17.6 15.5567V15.6456C17.6888 16.0011 17.7777 16.4456 17.8666 16.8011C16.9777 16.4456 15.9111 15.9122 15.9111 15.9122C15.8222 15.8234 15.6444 15.9122 15.5555 15.9122C15.4666 16.0011 15.3777 16.09 15.3777 16.1789C15.2888 16.89 15.2 17.6011 15.0222 18.3122C14.4 17.69 14.2222 16.9789 14.2222 16.89V16.8011L13.5111 16.89V16.9789L13.0666 16.89V16.9789C12.8888 17.8678 12.4444 18.8456 11.8222 19.7345C11.4666 18.9345 11.9111 18.2234 11.9111 18.1345L12 18.0456L11.3777 17.69L11.2888 17.7789C11.2888 17.7789 11.2888 17.8678 11.2 17.8678L11.1111 17.7789L11.0222 17.8678C8.88884 19.2012 7.91107 20.5345 8.17773 21.7789C8.97773 25.1566 16.8888 24.89 16.8888 24.89C16.9777 24.7122 19.7333 20.89 18.3111 15.4678ZM8.97773 21.2456C9.59996 21.2456 10.3111 21.2456 11.0222 21.0678C10.4888 21.7789 9.95551 22.4012 9.68884 22.5789C9.33329 22.3122 8.88884 21.7789 8.97773 21.2456ZM10.8444 23.29C11.3777 23.2012 12 23.0233 12.8888 22.7566C12.4444 23.29 12.1777 23.5566 12 23.7345C11.6444 23.6456 11.2 23.4678 10.8444 23.29ZM17.9555 19.4678C17.2444 19.4678 16.6222 19.29 16.1777 19.1122C16.8 18.7566 17.4222 18.4011 18.0444 18.0456C18.0444 18.49 18.0444 19.0233 17.9555 19.4678ZM13.8666 21.5122C13.6 21.3345 13.2444 21.2456 12.9777 21.0678C12.8 20.9789 12.6222 20.89 12.5333 20.7122C13.2444 20.5345 13.9555 20.1789 14.6666 19.9122C14.4 20.4456 14.1333 20.9789 13.8666 21.5122ZM14.1333 22.4012C14.8444 22.6678 15.4666 22.8456 16 22.9345C15.0222 23.29 13.8666 23.4678 13.1555 23.6456C13.4222 23.29 13.7777 22.9345 14.1333 22.4012ZM17.0666 20.09C16.1777 20.5345 15.4666 20.9789 14.7555 21.2456C15.0222 20.7122 15.2888 20.09 15.4666 19.4678C15.9111 19.7345 16.4444 20.0012 17.0666 20.09ZM12.6222 21.69C12.8 21.7789 12.9777 21.8678 13.1555 21.9566C12 22.4012 11.1111 22.5789 10.5777 22.6678C10.9333 22.3122 11.3777 21.7789 11.8222 21.1566C12.0888 21.3345 12.3555 21.5122 12.6222 21.69ZM17.3333 22.3122C17.0666 22.3122 16.1777 22.2233 15.0222 21.9566C15.8222 21.6012 16.8 21.0678 17.8666 20.5345C17.6888 21.1566 17.5111 21.7789 17.3333 22.3122ZM16.9777 23.29C16.7111 23.7345 16.5333 24.09 16.4444 24.2678C15.7333 24.2678 14.9333 24.1789 14.2222 24.09C15.0222 24.0012 16 23.7345 16.9777 23.29ZM15.8222 18.49C15.9111 17.9567 16.0888 17.3345 16.1777 16.8011C16.4444 16.9789 17.0666 17.1567 17.6 17.4234C16.9777 17.8678 16.3555 18.2234 15.8222 18.49ZM11.2888 20.3566C10.5777 20.5345 9.86663 20.6233 9.2444 20.6233C9.59996 20.09 10.2222 19.4678 11.1111 18.9345C11.0222 19.29 11.0222 19.8233 11.2888 20.3566ZM14.7555 19.0233C14.0444 19.3789 13.3333 19.6456 12.7111 19.9122C13.1555 19.2012 13.6 18.3122 13.7777 17.6011C13.8666 17.9567 14.2222 18.49 14.7555 19.0233Z" fill="#BCCBD2"/>
<path d="M16.4444 10.4892C15.6444 9.2447 15.6444 6.93359 15.6444 6.93359C15.6444 6.93359 14.1333 7.20026 13.0666 7.55582C11.4666 8.08915 10.7555 8.71137 10.9333 9.33359C11.0222 9.60026 11.1111 9.77803 11.4666 9.95582L11.5555 10.1336L11.9111 9.51137L11.7333 9.42249C11.6444 9.33359 11.5555 9.33359 11.5555 9.2447C11.5555 9.15582 11.7333 9.06693 11.9999 8.88915C12.2666 9.33359 12.8888 10.1336 13.4222 10.578C13.5111 10.578 13.5999 10.6669 13.5999 10.6669H13.6888C13.6888 10.6669 14.4888 10.4003 15.1999 9.68915C15.3777 10.1336 15.5555 10.4892 15.7333 10.8447L15.8222 10.9336L16.4444 10.4892ZM14.5777 9.33359C14.2222 9.60026 13.8666 9.77803 13.6888 9.86693C13.4222 9.60026 13.1555 9.33359 12.9777 8.97803C13.4222 9.06693 13.9555 9.15582 14.5777 9.33359ZM15.0222 8.62249C14.2222 8.4447 13.5999 8.35582 13.2444 8.26693C13.6888 8.17803 14.2222 8.00026 14.9333 7.82249C14.9333 8.00026 14.9333 8.35582 15.0222 8.62249Z" fill="#BCCBD2"/>
<path d="M20.0889 11.1119C18.4 10.4897 13.4222 10.0453 11.8222 9.42305C11.2889 9.24527 11.1111 8.62305 11.1111 8.62305C11.1111 8.62305 11.0222 8.71194 10.9334 8.88971C10.5778 9.51194 11.3778 10.3119 11.6445 10.5786C12.2667 11.2008 12.9778 12.0008 13.0667 14.0453C13.1556 15.4675 12.2667 16.9786 10.4889 18.223C8.88891 19.3786 8.44446 20.2675 8.44446 20.2675C8.44446 20.2675 12.7111 17.8675 14.1334 17.3342C21.0667 14.9342 24.8 14.7564 24.8 14.7564C24.7111 14.3119 23.8223 12.7119 20.0889 11.1119ZM18.6667 11.4675C19.2889 11.4675 20.3556 12.0008 20.4444 12.0008C19.7333 12.1786 18.9333 12.4453 18.1334 12.8008C18.4 12.3564 18.5778 11.9119 18.6667 11.4675ZM17.3334 11.2008C16.8889 11.4675 16.4445 11.7342 16.0889 12.0008C16.0889 11.5564 16 11.2897 15.9111 11.023C16.3556 11.023 16.8 11.1119 17.3334 11.2008ZM17.8667 11.7342C17.6889 12.1786 17.5111 12.623 17.2445 13.0675C16.9778 12.8897 16.6222 12.8008 16.3556 12.623C16.8 12.2675 17.3334 12.0008 17.8667 11.7342ZM15.9111 13.2453C16.1778 13.2453 16.4445 13.423 16.6222 13.5119C16.2667 13.6897 15.9111 13.8675 15.6445 14.0453C15.7334 13.6897 15.8222 13.5119 15.9111 13.2453ZM15.2889 12.1786C14.7556 12.0008 14.3111 11.9119 13.9556 11.823C14.3111 11.5564 14.6667 11.2008 15.1111 11.023C15.2 11.2008 15.3778 11.6453 15.2889 12.1786ZM14.8445 12.8008C14.4889 13.0675 14.1334 13.423 13.7778 13.6897C13.7778 13.2453 13.6889 12.8008 13.6 12.4453C13.9556 12.5342 14.4 12.623 14.8445 12.8008ZM12.5334 10.4008C12.9778 10.4897 13.5111 10.6675 14.2222 10.7564C13.8667 11.023 13.5111 11.2897 13.3334 11.4675C13.0667 11.023 12.8 10.6675 12.5334 10.4008ZM13.6889 14.9342C13.7778 14.9342 13.8667 15.023 13.9556 15.023C13.8667 15.1119 13.7778 15.2008 13.6 15.2008C13.6889 15.1119 13.6889 15.023 13.6889 14.9342ZM13.9556 16.623C14.2222 16.2675 14.4889 16.0008 14.7556 15.6453C14.9334 15.823 15.0222 16.0008 15.0222 16.2675C14.6667 16.3564 14.3111 16.4453 13.9556 16.623ZM14.5778 14.5786C14.4 14.4897 14.3111 14.4008 14.1334 14.4008C14.3111 14.1342 14.6667 13.8675 15.0222 13.6008C14.9334 13.8675 14.7556 14.223 14.5778 14.5786ZM15.2 15.023C15.6445 14.7564 16.0889 14.5786 16.4445 14.3119C16.0889 14.8453 15.8222 15.2897 15.5556 15.5564C15.5556 15.3786 15.3778 15.2008 15.2 15.023ZM16.3556 15.7342C16.7111 15.2897 17.1556 14.6675 17.5111 13.9564C18.0445 14.3119 18.4889 14.6675 18.8444 15.023C17.9556 15.2897 17.1556 15.5564 16.3556 15.7342ZM18.1334 13.5119C19.0223 13.1564 20 12.8008 20.8889 12.623C20.4444 13.423 19.7333 14.223 19.3777 14.6675C19.1111 14.223 18.6667 13.8675 18.1334 13.5119ZM20.2667 14.7564C20.7111 14.223 21.3333 13.423 21.6889 12.623C22.5777 13.1564 23.2 13.6897 23.6444 14.1342C22.5777 14.3119 21.4223 14.4897 20.2667 14.7564Z" fill="#DC2E2E"/>
</svg>
