<svg width="32" height="32" viewBox="0 0 32 32" fill="none" xmlns="http://www.w3.org/2000/svg">
<circle cx="16" cy="16" r="15.5" fill="#F4FAFF" stroke="#E5EAF1"/>
<path d="M25.2589 21.2065C25.1177 20.9571 24.7905 20.5308 23.5824 19.7087C22.8619 19.2144 22.1091 18.7684 21.3293 18.3739C20.7787 16.8835 19.7123 14.9513 18.1563 12.6245C16.481 10.1191 14.5355 9.06371 12.3614 9.48195C12.1242 9.24679 11.8784 9.02041 11.6245 8.80332C11.0761 8.33265 9.73267 7.93284 8.96071 8.00947C8.61103 8.0446 8.34832 8.17249 8.18011 8.38911C7.79009 8.89145 7.92029 9.61445 9.71941 11.9701C10.0616 12.9713 10.1348 13.4944 10.1348 13.7577C10.1348 14.3142 10.4223 14.9525 11.0346 15.7515L10.4585 17.7229C9.94467 19.4835 10.8785 21.7607 11.7478 22.5545C12.2116 22.9785 12.6022 22.9152 12.7952 22.8397C13.1823 22.6876 13.4945 22.3092 13.6962 21.2284C13.7993 21.4825 13.9087 21.7561 14.024 22.0493C14.6461 23.6289 15.2545 24.5029 15.9383 24.7991C16.0766 24.85 16.2291 24.8461 16.3647 24.7881C16.5002 24.7303 16.6083 24.6225 16.6669 24.4873C16.7256 24.3521 16.7302 24.1996 16.6798 24.0611C16.6295 23.9225 16.5281 23.8085 16.3963 23.7425C16.2269 23.6688 15.7603 23.3156 15.0949 21.6271C14.5338 20.2024 14.1254 19.2496 13.8459 18.7132C13.7869 18.6011 13.6927 18.5114 13.5779 18.4578C13.4631 18.4042 13.3338 18.3897 13.2099 18.4165C13.086 18.4442 12.9747 18.512 12.8933 18.6094C12.8118 18.7068 12.7648 18.8283 12.7594 18.9552C12.6897 20.5941 12.5244 21.3028 12.4138 21.6017C11.9368 21.0533 11.1873 19.3336 11.5635 18.0455C11.9374 16.7631 12.1574 16.0125 12.2231 15.7907C12.2497 15.7009 12.254 15.6059 12.2355 15.514C12.2171 15.4221 12.1764 15.3362 12.1171 15.2636C11.367 14.3424 11.2858 13.9029 11.2858 13.7565C11.2858 13.226 11.1193 12.4891 10.7765 11.5035C10.7568 11.4457 10.7279 11.3917 10.6907 11.3433C9.72172 10.0811 9.36571 9.44911 9.23551 9.14897C9.69695 9.17087 10.5738 9.41973 10.8739 9.67783C11.1821 9.94048 11.4767 10.2187 11.7565 10.5114C11.9005 10.6635 12.116 10.7251 12.3187 10.6721C14.1225 10.2055 15.72 11.0529 17.1988 13.2646C18.7796 15.6288 19.8297 17.5501 20.3207 18.9753C20.3453 19.0475 20.3843 19.1139 20.4348 19.1708C20.4855 19.2277 20.5469 19.2741 20.6156 19.3072C21.4211 19.7007 22.1961 20.1536 22.9344 20.6621C23.0675 20.7525 23.1872 20.8367 23.2956 20.9144H21.516C21.4061 20.9148 21.2987 20.9464 21.2061 21.0057C21.1137 21.0651 21.0401 21.1496 20.9941 21.2493C20.948 21.3491 20.9315 21.4599 20.9463 21.5688C20.9611 21.6776 21.0065 21.78 21.0776 21.8639C21.6489 22.5407 22.2364 23.2037 22.8393 23.8525C22.8905 23.9101 22.9527 23.9568 23.0223 23.9899C23.0919 24.0231 23.1673 24.0419 23.2444 24.0452C23.3213 24.0487 23.3983 24.0365 23.4704 24.0097C23.5427 23.9829 23.6088 23.9419 23.6649 23.8889C23.7209 23.8361 23.7659 23.7725 23.7969 23.7021C23.828 23.6316 23.8447 23.5556 23.8459 23.4785C23.8471 23.4015 23.8327 23.3249 23.8037 23.2536C23.7749 23.1821 23.732 23.1172 23.6775 23.0627C23.3715 22.7357 23.0709 22.4036 22.7759 22.0667H24.7577C24.8584 22.0664 24.9572 22.04 25.0444 21.9897C25.1316 21.9395 25.2043 21.8673 25.2549 21.7803C25.3056 21.6933 25.3327 21.5947 25.3333 21.494C25.334 21.3933 25.3084 21.2941 25.2589 21.2065Z" fill="#4479A1"/>
<path d="M12.988 12.128C13.2162 12.5198 13.3925 12.8003 13.5163 12.9703C13.6655 13.2629 13.8977 13.4968 14.0463 13.79L14.0826 13.7543C14.3441 13.5752 14.5492 12.8631 14.1321 12.3953C13.9155 12.0681 13.2133 12.0773 12.988 12.128Z" fill="#4479A1"/>
</svg>
