<svg width="32" height="32" viewBox="0 0 32 32" fill="none" xmlns="http://www.w3.org/2000/svg">
<circle cx="16" cy="16" r="15.5" fill="#F4FAFF" stroke="#E5EAF1"/>
<path d="M19.4312 10.668H12.5683C9.30866 10.668 6.66675 13.3105 6.66675 16.5696C6.66675 19.8281 9.3075 22.4694 12.5654 22.4711H19.4318C22.6915 22.4711 25.3334 19.8286 25.3334 16.5696C25.3334 13.3105 22.6909 10.668 19.4318 10.668H19.4312ZM19.2807 20.3916H12.7217C11.7281 20.362 10.785 19.9467 10.0924 19.2336C9.3998 18.5204 9.01214 17.5656 9.01161 16.5715C9.01108 15.5774 9.39772 14.6222 10.0896 13.9084C10.7814 13.1945 11.724 12.7782 12.7177 12.7476H19.2807C21.3918 12.7476 23.1027 14.4585 23.1027 16.5696C23.1027 18.6806 21.3918 20.3916 19.2807 20.3916Z" fill="#F80000"/>
</svg>
