<svg width="32" height="32" viewBox="0 0 32 32" fill="none" xmlns="http://www.w3.org/2000/svg">
<circle cx="16" cy="16" r="15.5" fill="#F4FAFF" stroke="#E5EAF1"/>
<path d="M23.913 18.144C21.6875 18.6027 21.5341 17.8493 21.5341 17.8493C23.8841 14.3629 24.8655 9.93627 24.0178 8.85316C21.7057 5.89851 17.7029 7.29608 17.6361 7.33254L17.6133 7.33558C17.1743 7.24443 16.6821 7.18974 16.1291 7.18063C15.122 7.16392 14.3579 7.44495 13.7791 7.88397C13.7791 7.88397 6.63782 4.94148 6.9705 11.5845C7.0419 12.9973 8.99546 22.2759 11.3273 19.4732C12.1795 18.4478 13.0028 17.5819 13.0028 17.5819C13.4115 17.8538 13.9021 17.992 14.4141 17.9419L14.4536 17.9085C14.4414 18.0361 14.4475 18.1607 14.4688 18.308C13.8687 18.9795 14.0449 19.0964 12.8433 19.344C11.6281 19.5947 12.342 20.0398 12.8084 20.1568C13.3735 20.298 14.6799 20.4986 15.564 19.262L15.5291 19.4033C15.7646 19.5917 15.9301 20.6292 15.9028 21.5695C15.8754 22.5098 15.8572 23.1555 16.0426 23.6598C16.2279 24.1641 16.4132 25.2989 17.9916 24.9601C19.3101 24.6776 19.9937 23.9454 20.0894 22.724C20.1563 21.8551 20.3097 21.9842 20.3188 21.208L20.4419 20.8404C20.5831 19.6631 20.4646 19.2833 21.2774 19.4595L21.4748 19.4762C22.0734 19.5035 22.8557 19.3805 23.3145 19.1663C24.3004 18.7091 24.8883 17.9419 23.913 18.144Z" fill="#336791"/>
<path d="M15.3848 18.8105C15.3894 18.6585 15.5155 18.5385 15.6674 18.5431C15.8193 18.5477 15.9393 18.6737 15.9347 18.8256C15.9028 19.9543 15.9089 21.0861 15.9499 21.9914C15.9879 22.8072 16.0532 23.4209 16.1444 23.6488C16.2416 23.8903 16.392 24.2473 16.6806 24.4888C16.9617 24.7258 17.3946 24.8701 18.0843 24.7228C18.6874 24.5937 19.0929 24.4098 19.3633 24.1288C19.6307 23.8508 19.7826 23.4574 19.8768 22.9075C19.9467 22.5064 20.0424 21.8061 20.129 21.1088C20.2383 20.2369 20.3386 19.3558 20.3599 19.0717C20.3705 18.9198 20.5027 18.8059 20.6546 18.8181C20.8065 18.8287 20.9204 18.9608 20.9083 19.1128C20.887 19.3892 20.7867 20.2809 20.6728 21.1787C20.5817 21.8988 20.4844 22.6128 20.4176 23.0001C20.3037 23.6579 20.1107 24.1425 19.7568 24.5101C19.4044 24.8762 18.9107 25.1071 18.1952 25.2605C17.3065 25.4504 16.7201 25.2423 16.3236 24.9081C15.9332 24.58 15.7479 24.1455 15.6309 23.8523C15.5155 23.5652 15.438 22.8877 15.397 22.0142C15.3575 21.1013 15.3529 19.9543 15.3848 18.8105Z" fill="white"/>
<path d="M13.8687 7.58095C14.01 7.63716 14.0784 7.79666 14.0222 7.93794C13.966 8.07922 13.8065 8.14757 13.6652 8.09137C13.647 8.08377 6.91736 5.33421 7.22877 11.5443C7.26675 12.3114 7.87439 15.4499 8.798 17.6389C9.08966 18.3286 9.41019 18.918 9.75047 19.2947C10.0345 19.6107 10.3247 19.7626 10.6042 19.6623C10.7592 19.6061 10.9247 19.48 11.0994 19.2704C11.9547 18.242 12.7325 17.4293 12.7355 17.4277C12.8403 17.3184 13.0135 17.3138 13.1229 17.4186C13.2322 17.5234 13.2368 17.6966 13.132 17.806C13.1305 17.8075 12.3709 18.599 11.5217 19.6213C11.2802 19.913 11.0341 20.0938 10.7865 20.1819C10.2609 20.3687 9.77782 20.15 9.34032 19.6639C8.9575 19.24 8.60507 18.5974 8.29214 17.8516C7.3427 15.6048 6.71835 12.3661 6.67886 11.5701C6.32491 4.49718 13.8475 7.57184 13.8687 7.58095Z" fill="white"/>
<path d="M17.7713 7.53768L17.3627 7.09106C17.3961 7.07891 17.4295 7.06828 17.4629 7.05916C17.5526 7.0303 17.6498 7.00144 17.7546 6.97105C17.908 6.92548 18.1329 6.86624 18.4078 6.81307C19.7796 6.54723 22.4562 6.40291 24.2199 8.65725C24.7181 9.29375 24.6771 10.8691 24.1621 12.7345C23.7064 14.3858 22.8846 16.2892 21.7483 17.9754C21.6632 18.1015 21.4916 18.1349 21.3655 18.0498C21.2394 17.9648 21.206 17.7931 21.2911 17.667C22.3939 16.0309 23.1899 14.1852 23.632 12.5872C24.1029 10.8827 24.1773 9.49275 23.7869 8.99449C22.204 6.97257 19.7628 7.10929 18.5096 7.35387C18.2529 7.404 18.0478 7.45716 17.908 7.49818L17.7713 7.53768Z" fill="white"/>
<path d="M21.7802 17.7371C21.7832 17.7447 21.7848 17.7523 21.7863 17.7598C21.7863 17.7614 21.8805 18.252 23.8416 17.848C24.1196 17.7902 24.3171 17.8024 24.4447 17.8647C24.6103 17.9437 24.6817 18.0758 24.671 18.246C24.665 18.3493 24.6164 18.4602 24.5358 18.571C24.3505 18.8247 23.9267 19.1529 23.4117 19.3914C23.0259 19.5706 22.438 19.6906 21.8987 19.721C21.5812 19.7392 21.2774 19.7271 21.0358 19.6785C20.732 19.6177 20.5011 19.4916 20.4054 19.2865C20.3796 19.2319 20.3644 19.1726 20.3614 19.1088C20.3006 18.0424 20.8201 17.8555 21.1832 17.7523C21.1452 17.6976 21.0936 17.6322 21.0358 17.5608C20.852 17.3315 20.6166 17.0368 20.4297 16.5856C20.4009 16.5172 20.3173 16.3653 20.2049 16.1648C19.7294 15.3126 18.7937 13.6325 18.9775 12.4855C19.1081 11.6667 19.7325 11.1229 21.2926 11.2855L21.2774 11.2399C21.2029 11.0287 21.0845 10.7523 20.9128 10.4424C20.2322 9.20277 18.7481 7.47404 16.1124 7.4315C12.0914 7.36618 12.2236 12.4369 12.2236 12.4506C12.2266 12.6025 12.1051 12.7271 11.9532 12.7301C11.8013 12.7332 11.6767 12.6116 11.6736 12.4597C11.6736 12.443 11.5248 6.80715 16.12 6.88159C19.0215 6.92868 20.65 8.82148 21.3944 10.1765C21.5797 10.5138 21.7118 10.8206 21.7954 11.0591C21.8896 11.3265 21.9245 11.5361 21.9093 11.6288C21.8881 11.7655 21.8121 11.8506 21.6815 11.8764L21.5827 11.8779C20.1517 11.6485 19.6109 11.9994 19.5198 12.5706C19.3664 13.5322 20.2414 15.0999 20.6849 15.8974C20.8049 16.1131 20.8961 16.2772 20.9371 16.3775C21.0951 16.7588 21.3017 17.017 21.4627 17.2206C21.6131 17.4044 21.7316 17.5532 21.7802 17.7371ZM23.9525 18.3857C22.4987 18.6865 21.8212 18.4662 21.5098 18.2292C21.4673 18.2429 21.4217 18.2551 21.3731 18.2687C21.1786 18.3234 20.8763 18.4085 20.9082 19.0617C20.931 19.086 21.0161 19.1118 21.1407 19.1377C21.3397 19.1772 21.5949 19.1863 21.8668 19.1711C22.3423 19.1437 22.8542 19.042 23.1808 18.8901C23.5165 18.7336 23.7976 18.5452 23.9707 18.3812L23.9525 18.3857Z" fill="white"/>
<path d="M14.6572 18.4654C14.5448 18.5915 14.4521 18.7085 14.3731 18.8088C14.0359 19.2371 13.9311 19.3708 12.8844 19.5865C12.6961 19.626 12.5684 19.664 12.4895 19.702C12.5867 19.7719 12.7325 19.8296 12.8601 19.8615C13.1184 19.9268 13.5467 20.0043 14.0055 19.9268C14.4521 19.8509 14.9337 19.6215 15.3241 19.0746C15.3362 19.0564 15.3469 19.0366 15.356 19.0169C15.3955 18.9212 15.3864 18.8012 15.3469 18.6872C15.3043 18.5657 15.2269 18.4594 15.1372 18.394C15.116 18.3788 15.0947 18.3667 15.0719 18.3576L15.0582 18.3515C15.002 18.3287 14.9398 18.3044 14.8866 18.309C14.8289 18.315 14.7559 18.3545 14.6572 18.4654ZM13.9402 18.467C14.0146 18.3728 14.1012 18.2634 14.2319 18.116C14.2425 18.1024 14.2546 18.0887 14.2668 18.0766C14.4688 17.8578 14.6618 17.7758 14.8395 17.7606C15.0157 17.7454 15.1524 17.7955 15.2679 17.8441C15.2724 17.8456 15.277 17.8472 15.2831 17.8502C15.3423 17.8745 15.4 17.9079 15.4563 17.9474C15.637 18.0766 15.7859 18.2816 15.8664 18.5049C15.9484 18.7374 15.9621 18.9971 15.8649 19.228C15.8406 19.2858 15.8102 19.3404 15.7722 19.3936C15.28 20.0833 14.6663 20.3719 14.0982 20.4691C13.5407 20.5648 13.0333 20.4722 12.7264 20.3962C12.5031 20.34 12.2267 20.2154 12.0641 20.0635C11.9684 19.9739 11.9031 19.8676 11.8849 19.7491C11.8636 19.6078 11.9061 19.4711 12.0352 19.3496C12.1598 19.2326 12.3907 19.1262 12.772 19.0473C13.6212 18.8726 13.6971 18.7769 13.9402 18.467Z" fill="white"/>
<path d="M14.6861 18.2279C14.7089 18.3783 14.6056 18.5196 14.4552 18.5409C14.3048 18.5621 14.1635 18.4604 14.1422 18.31C14.1362 18.2735 14.1331 18.237 14.1301 18.1991C14.0389 18.196 13.9493 18.19 13.8612 18.1763C13.2718 18.0943 12.7386 17.7965 12.3376 17.356C11.9411 16.9215 11.6737 16.3473 11.6114 15.7062C11.5886 15.4784 11.5932 15.2414 11.6266 15.0029C11.7618 14.0398 11.7102 13.1785 11.6843 12.7318C11.6767 12.6103 11.6722 12.5192 11.6722 12.4493C11.6737 12.2685 12.1279 11.8705 12.7264 11.6244C12.9968 11.5135 13.2991 11.4209 13.5984 11.3753C13.9144 11.3282 14.2334 11.3328 14.5205 11.4224C14.9701 11.5637 15.3271 11.8963 15.4639 12.5328C15.9576 14.813 15.5155 15.7928 15.1707 16.56C15.1114 16.6921 15.0552 16.8167 15.0127 16.9291C15.0112 16.9367 15.0081 16.9428 15.0051 16.9504C14.8608 17.3393 15.0719 16.7696 14.9626 17.0597C14.7909 17.5276 14.6405 17.9287 14.6861 18.2279ZM14.1893 17.6507C14.2486 17.4061 14.3458 17.1479 14.4491 16.8699C14.5311 16.6511 14.3169 17.2238 14.4886 16.7605C14.4916 16.7529 14.4947 16.7453 14.4977 16.7377C14.5509 16.5964 14.6086 16.4703 14.6678 16.3367C14.9808 15.6424 15.3788 14.7553 14.9246 12.6528C14.8365 12.2442 14.6223 12.0346 14.3549 11.951C14.1544 11.8887 13.9189 11.8872 13.6774 11.9237C13.4191 11.9632 13.1609 12.0422 12.93 12.1364C12.5244 12.3019 12.2175 12.4417 12.2175 12.4538C12.2175 12.4933 12.2221 12.583 12.2297 12.703C12.257 13.1663 12.3102 14.0641 12.1689 15.0819C12.1416 15.2809 12.137 15.4738 12.1553 15.6591C12.2054 16.1756 12.4211 16.639 12.7416 16.9899C13.0576 17.3362 13.4754 17.5717 13.9341 17.6355C14.0192 17.6446 14.1043 17.6507 14.1893 17.6507Z" fill="white"/>
<path d="M13.7412 12.4117C13.729 12.5013 13.9068 12.7428 14.1377 12.7747C14.3686 12.8066 14.5676 12.6183 14.5797 12.5286C14.5919 12.439 14.4141 12.3388 14.1832 12.3069C13.9523 12.275 13.7533 12.3221 13.7412 12.4117Z" fill="white"/>
<path d="M13.8323 12.4249C13.8293 12.4446 13.8612 12.4963 13.9144 12.5525C13.9736 12.6147 14.0572 12.6709 14.1498 12.6846H14.1514C14.2425 12.6968 14.3276 12.6664 14.3914 12.6223C14.4506 12.5828 14.4871 12.5403 14.4916 12.516C14.4916 12.5114 14.4688 12.4978 14.4309 12.4765C14.3686 12.4416 14.2774 12.4127 14.1726 12.3975H14.1696C14.0663 12.3838 13.9706 12.3869 13.9022 12.4036C13.8597 12.4142 13.8323 12.4218 13.8323 12.4249ZM13.7822 12.6785C13.6926 12.5844 13.6425 12.4719 13.6516 12.4021V12.399C13.6637 12.3124 13.7412 12.2532 13.8597 12.2243C13.9493 12.2031 14.0678 12.1985 14.1939 12.2152C14.1954 12.2152 14.1969 12.2152 14.1984 12.2152C14.3261 12.2334 14.44 12.2699 14.5205 12.3155C14.6268 12.3747 14.6861 12.4552 14.6739 12.5403C14.6648 12.6071 14.5965 12.7044 14.4947 12.7727C14.399 12.838 14.2683 12.8851 14.1271 12.8654H14.1255C13.9858 12.8472 13.8658 12.7667 13.7822 12.6785Z" fill="white"/>
<path d="M20.7958 12.2281C20.8079 12.3177 20.6302 12.5592 20.3993 12.5911C20.1669 12.6231 19.9694 12.4347 19.9573 12.3451C19.9451 12.2554 20.1228 12.1552 20.3553 12.1233C20.5846 12.0914 20.7821 12.1385 20.7958 12.2281Z" fill="white"/>
<path d="M20.8399 12.2229C20.8475 12.2806 20.8019 12.3794 20.7214 12.4645C20.6439 12.5465 20.5315 12.6209 20.4039 12.6376H20.4024C20.2748 12.6543 20.1563 12.6118 20.0682 12.5526C19.977 12.4918 19.9178 12.4083 19.9087 12.352C19.8995 12.2867 19.9497 12.2229 20.0393 12.1728C20.1153 12.1303 20.2231 12.0953 20.3446 12.0786C20.4662 12.0619 20.5801 12.0665 20.6652 12.0862C20.7654 12.109 20.8307 12.1561 20.8399 12.2229ZM20.6545 12.4007C20.7168 12.3353 20.7533 12.2685 20.7487 12.2351C20.7457 12.2108 20.7062 12.1895 20.6454 12.1743C20.571 12.1561 20.4692 12.153 20.3583 12.1682C20.2489 12.1834 20.1517 12.2153 20.0849 12.2518C20.0302 12.2822 19.9983 12.3141 20.0013 12.3384C20.0059 12.3718 20.0514 12.428 20.1213 12.4751C20.1927 12.5237 20.2899 12.5586 20.3932 12.545H20.3948C20.4965 12.5313 20.5892 12.469 20.6545 12.4007Z" fill="white"/>
<path d="M21.3488 11.6171C21.3412 11.4652 21.4582 11.3361 21.6101 11.3285C21.762 11.3209 21.8911 11.4378 21.8987 11.5898C21.9215 12.0151 21.8699 12.3523 21.8152 12.7063C21.7742 12.9706 21.7316 13.2471 21.7225 13.5555C21.7134 13.8487 21.7514 14.1737 21.7924 14.5079C21.8987 15.3875 22.0111 16.3293 21.3579 17.3031C21.2728 17.4292 21.1027 17.4626 20.9766 17.379C20.8505 17.294 20.8171 17.1238 20.9007 16.9977C21.4384 16.1941 21.3382 15.3571 21.244 14.5733C21.2015 14.2239 21.1604 13.8836 21.1726 13.5403C21.1832 13.1848 21.2273 12.9007 21.2698 12.6258C21.3215 12.2946 21.3686 11.9817 21.3488 11.6171Z" fill="white"/>
</svg>
