<svg width="32" height="32" viewBox="0 0 32 32" fill="none" xmlns="http://www.w3.org/2000/svg">
<circle cx="16" cy="16" r="15.5" fill="#F4FAFF" stroke="#E5EAF1"/>
<path d="M15.7974 7.22461H7.63525V14.6715L8.91919 13.8644C8.66241 13.36 8.74495 12.7272 9.16681 12.3053C9.68956 11.7826 10.5516 11.7826 11.0744 12.3053L11.2028 12.4337L12.1199 11.856C12.4867 11.5442 13.4772 11.214 13.9541 11.1865H15.9534L16.9255 10.8013C17.1731 10.7554 17.4299 10.8105 17.6408 10.948L18.9523 11.8193C18.9523 11.8193 20.6764 11.3607 21.0433 11.5442C21.1625 11.5992 21.4376 12.4521 21.4835 13.0941C21.5018 13.4242 21.3459 13.736 21.0708 13.9194L20.9607 13.9928L20.7773 15.0842C20.7773 15.0842 17.329 17.6245 15.6874 20.7152C15.0271 21.9624 14.486 23.4389 14.0733 24.7687H15.8066C20.6489 24.7687 24.5833 20.8436 24.5833 15.9921C24.5741 11.159 20.6397 7.22461 15.7974 7.22461Z" fill="#FF6A00"/>
<path d="M13.9725 12.9017L15.9443 12.7183L15.5408 12.223C15.4124 12.0671 15.1831 12.0396 15.018 12.1588L13.9725 12.9017ZM18.6314 12.5165L18.7506 12.8833C18.8148 13.0668 18.9707 13.2043 19.1725 13.2227L20.3097 13.3602L20.9792 12.8283C21.1259 12.7091 21.1718 12.5165 21.1076 12.3514L20.915 11.8745C20.8783 11.792 20.7866 11.7461 20.704 11.7645L18.7598 12.2781C18.6497 12.3056 18.5947 12.4156 18.6314 12.5165ZM9.5796 14.4699C9.38701 14.2773 9.16691 14.0939 9.02934 13.8555C8.74504 13.3419 8.89178 12.6908 9.33199 12.3147C9.79054 11.9296 10.4509 11.9479 10.9002 12.3147C11.0836 12.4615 11.2487 12.6449 11.4138 12.81C11.5147 12.9109 11.6798 12.755 11.5697 12.6541C11.2946 12.3789 11.0378 12.0671 10.6801 11.9112C10.1574 11.6911 9.54292 11.8012 9.13023 12.1772C8.76339 12.5165 8.58914 13.0301 8.68085 13.5253C8.77256 14.0022 9.09354 14.2957 9.41453 14.6258C9.51541 14.7267 9.68049 14.5708 9.5796 14.4699ZM18.0995 11.6544L18.2187 12.0029L18.9432 11.8195L18.2279 11.5352C18.1545 11.5077 18.072 11.5811 18.0995 11.6544Z" fill="#FF6A00"/>
<path d="M13.5505 24.778L14.4034 23.9251C14.4218 23.8609 14.4493 23.7967 14.4676 23.7325L13.4222 24.778H13.5505ZM13.0737 24.778L14.6602 23.1914C14.6877 23.1272 14.7061 23.0538 14.7336 22.9896L12.9453 24.778H13.0737ZM12.6151 24.778L14.9262 22.4669C14.9537 22.3935 14.9812 22.3293 15.0087 22.2559L12.4867 24.778H12.6151ZM12.1566 24.778L15.238 21.6965C15.2747 21.614 15.3114 21.5314 15.3481 21.4581L12.0282 24.778H12.1566ZM11.6888 24.778L15.7149 20.7519C15.7791 20.6419 15.8433 20.5318 15.9075 20.4309L11.5513 24.7871L11.6888 24.778ZM16.7971 19.0828L11.1019 24.778H11.2303L16.6412 19.3671M10.5516 24.778H10.68L20.924 14.534L20.9699 14.3597L10.5516 24.778ZM20.3921 14.4239L10.038 24.778H10.1664L20.6306 14.3047C20.5572 14.3414 20.4747 14.3781 20.3921 14.4239ZM19.6034 14.6624L9.49696 24.778H9.62535L19.7868 14.6073C19.7318 14.6257 19.6676 14.644 19.6034 14.6624ZM18.6496 15.0842L9.42359 24.3103C9.36857 24.402 9.32271 24.4937 9.27686 24.5854L18.8972 14.965C18.8147 15.0017 18.7322 15.0475 18.6496 15.0842ZM17.5583 15.6437L10.1664 23.0355C10.1022 23.1455 10.0289 23.2556 9.96468 23.3656L17.8426 15.4877C17.7417 15.5336 17.65 15.5886 17.5583 15.6437Z" fill="#FF6A00"/>
<path d="M11.1294 17.0918L11.1386 17.1101L11.1477 17.101L11.1294 17.0918Z" fill="#FF6A00"/>
<path d="M11.1478 17.1016L11.1387 17.1107L11.1937 17.1933L11.2304 17.1566L11.1478 17.1016ZM11.4872 17.3217L11.3496 17.4684L11.3955 17.5509L11.5697 17.3767L11.4872 17.3217ZM11.8265 17.5418L11.5514 17.8169L11.5972 17.8994L11.909 17.5968L11.8265 17.5418ZM12.175 17.771L11.7715 18.1562C11.7898 18.1837 11.8173 18.2021 11.8357 18.2204L12.2484 17.8077C12.23 17.7986 12.2025 17.7802 12.175 17.771ZM12.551 17.9361L12.0649 18.4222C12.0925 18.4405 12.12 18.4497 12.1475 18.468L12.6519 17.9636C12.6244 17.9453 12.5877 17.9453 12.551 17.9361ZM13.2388 17.9178C13.193 17.9361 13.1471 17.9453 13.0921 17.9545L12.4685 18.5781C12.5052 18.5873 12.5418 18.5873 12.5785 18.5964L13.2663 17.9086L13.2388 17.9178ZM13.89 17.7068L13.0462 18.5506C13.1104 18.5322 13.1838 18.5047 13.248 18.4772L14.0826 17.6427L13.89 17.7068ZM14.7062 17.4592L14.211 17.9453L14.5044 17.7802L14.8988 17.395L14.7062 17.4592ZM15.4307 17.23L15.3482 17.3125L15.5866 17.1841L15.4307 17.23Z" fill="#FF6A00"/>
</svg>
