<svg width="32" height="32" viewBox="0 0 32 32" fill="none" xmlns="http://www.w3.org/2000/svg">
<circle cx="16" cy="16" r="15.5" fill="#F4FAFF" stroke="#E5EAF1"/>
<path d="M24.6017 20.336C23.6072 20.8562 18.4462 22.979 17.3344 23.5616C16.2226 24.1443 15.6272 24.1277 14.7577 23.7121C13.8882 23.2965 8.41478 21.0704 7.42287 20.5961C6.92308 20.3615 6.66809 20.1613 6.66809 19.9739V18.0857C6.66809 18.0857 13.8181 16.5341 14.9719 16.1159C16.1257 15.6977 16.5248 15.6875 17.5052 16.047C18.4857 16.4066 24.3632 17.4673 25.3335 17.8192V19.6807C25.3335 19.8745 25.1104 20.0632 24.6017 20.3347V20.336Z" fill="#A32422"/>
<path d="M24.6016 18.457C23.6071 18.9746 18.4461 21.0974 17.3343 21.6699C16.2226 22.2423 15.6272 22.2372 14.7576 21.8229C13.8881 21.4085 8.41471 19.1824 7.4228 18.712C6.43088 18.2415 6.41175 17.9126 7.38455 17.5326C8.35734 17.1527 13.818 15.0146 14.9718 14.5939C16.1257 14.1731 16.5247 14.1642 17.5052 14.525C18.4856 14.8858 23.625 16.927 24.5901 17.2827C25.5553 17.6385 25.5999 17.9304 24.6016 18.4468V18.457Z" fill="#DC382C"/>
<path d="M24.6017 17.2611C23.6072 17.78 18.4462 19.9015 17.3344 20.4739C16.2226 21.0464 15.6323 21.0413 14.7628 20.6244C13.8933 20.2075 8.41478 17.9942 7.42287 17.5211C6.92308 17.284 6.66809 17.0851 6.66809 16.8964V15.0146C6.66809 15.0146 13.8181 13.4578 14.9719 13.0397C16.1257 12.6215 16.5248 12.61 17.5052 12.9746C18.4857 13.3393 24.3632 14.3898 25.3335 14.7443V16.6057C25.3335 16.7995 25.1104 16.9933 24.6017 17.2611Z" fill="#A32422"/>
<path d="M24.6016 15.3721C23.6071 15.8923 18.4461 18.0139 17.3343 18.5863C16.2226 19.1588 15.6272 19.1549 14.7576 18.7393C13.8881 18.3237 8.41472 16.1065 7.4228 15.6322C6.43088 15.1579 6.41303 14.8354 7.38455 14.4554C8.35607 14.0755 13.818 11.9323 14.9718 11.523C16.1257 11.1138 16.5247 11.0883 17.5052 11.444C18.4856 11.7997 23.625 13.8588 24.5901 14.2043C25.5553 14.5498 25.5999 14.8532 24.6016 15.3683V15.3721Z" fill="#DC382C"/>
<path d="M24.6017 14.0687C23.6072 14.5888 18.4462 16.7116 17.3344 17.2828C16.2226 17.854 15.6323 17.8502 14.7628 17.4358C13.8933 17.0215 8.41478 14.8018 7.42287 14.3287C6.92308 14.0942 6.66809 13.894 6.66809 13.7053V11.8171C6.66809 11.8171 13.8181 10.2655 14.9719 9.84854C16.1257 9.43163 16.5248 9.41888 17.5052 9.77842C18.4857 10.138 24.3607 11.1987 25.331 11.5532V13.4146C25.3335 13.6109 25.1104 13.8022 24.6017 14.0687Z" fill="#A32422"/>
<path d="M24.6016 12.1839C23.6071 12.6939 18.4461 14.8295 17.3343 15.3968C16.2226 15.9642 15.6272 15.9629 14.7576 15.5498C13.8881 15.1367 8.41471 12.9145 7.4228 12.4428C6.43088 11.971 6.41175 11.6434 7.38455 11.2634C8.35734 10.8835 13.818 8.74156 14.9718 8.32592C16.1257 7.91028 16.5247 7.89753 17.5052 8.25707C18.4856 8.61661 23.625 10.6604 24.5901 11.0148C25.5553 11.3692 25.5999 11.6638 24.6016 12.1801V12.1839Z" fill="#DC382C"/>
<path d="M16.294 9.50277L17.5256 9.09861L17.1916 9.89673L18.4449 10.3659L16.8295 10.5342L16.4661 11.4063L15.8822 10.4335L14.0144 10.2652L15.4092 9.76286L14.9897 8.99023L16.294 9.50277Z" fill="white"/>
<path d="M16.3718 14.5933L13.3527 13.34L17.6773 12.6758L16.3718 14.5933Z" fill="white"/>
<path d="M12.1861 10.8496C13.461 10.8496 14.4976 11.2512 14.4976 11.7421C14.4976 12.2329 13.4585 12.6346 12.1861 12.6346C10.9137 12.6346 9.87329 12.2329 9.87329 11.7421C9.87329 11.2512 10.9098 10.8496 12.1861 10.8496Z" fill="white"/>
<path d="M20.3585 10.6035L22.9174 11.6146L20.3611 12.6256L20.3585 10.6035Z" fill="#741113"/>
<path d="M20.3586 10.6035L20.3611 12.6256L20.0832 12.734L17.5256 11.7229L20.3586 10.6035Z" fill="#AC2724"/>
</svg>
